<svg width="224" height="56" viewBox="0 0 224 56" fill="none" xmlns="http://www.w3.org/2000/svg">
<path d="M48.2461 16.6035H54.8577C62.6074 16.6035 66.7081 20.765 66.7081 28.1586C66.7081 35.2479 62.4857 39.3747 54.8315 39.3747H48.2549V16.6035H48.2461ZM54.4232 35.6301C59.4536 35.6301 62.616 33.6753 62.616 27.9934C62.616 22.5895 60.4093 20.3655 54.7969 20.3655H52.3468V35.6301H54.4232Z" fill="#292929"/>
<path d="M68.7812 31.3862C68.7812 27.1985 71.2312 22.9414 76.6786 22.9414C82.3171 22.9414 84.1415 27.4679 84.1415 31.0647C84.1415 31.725 84.0807 32.3853 83.9939 32.6112H72.9341C73.2729 34.7224 74.437 36.1385 76.9653 36.1385C78.4162 36.1385 79.702 35.6867 80.8315 34.427L83.5421 36.7988C81.7871 38.7536 79.6412 39.7006 76.9305 39.7006C71.3876 39.7006 68.7812 35.7215 68.7812 31.3862ZM80.2754 29.7702C80.2754 29.414 80.2407 29.0752 80.1451 28.7537C79.7454 27.0943 78.3554 26.2428 76.6438 26.2428C74.3242 26.2428 73.3077 27.7546 72.9341 29.7702H80.2754Z" fill="#292929"/>
<path d="M85.5352 35.1882L88.6628 33.7982C89.0972 34.9624 89.9486 36.4393 92.0946 36.4393C93.919 36.4393 94.7097 35.3794 94.7097 34.5193C94.7097 31.8086 86.6211 33.633 86.6211 27.9424C86.6211 24.5368 89.4881 22.9294 92.5984 22.9294C95.3699 22.9294 97.481 24.2501 98.7061 26.4308L95.6566 28.0902C95.1093 27.091 94.2058 26.0398 92.4682 26.0398C91.1823 26.0398 90.3916 26.6654 90.3916 27.4299C90.3916 29.8624 98.5845 28.4116 98.5845 34.3281C98.5845 38.0553 95.3438 39.6973 92.2944 39.6973C88.906 39.7059 86.3257 37.6729 85.5352 35.1882Z" fill="#292929"/>
<path d="M101.988 16.6035H106.115V20.2263H101.988V16.6035ZM102.084 23.2759H106.02V39.3833H102.084V23.2759Z" fill="#292929"/>
<path d="M129.486 23.2743H133.422V25.1423C134.708 23.5611 136.567 22.9355 138.148 22.9355C142.37 22.9355 144.03 26.3412 144.03 29.7034V39.3732H140.094V30.1987C140.094 28.0875 139.034 26.5584 137.019 26.5584C134.812 26.5584 133.422 27.7486 133.422 30.5549V39.3732H129.486V23.2743Z" fill="#292929"/>
<path d="M143.953 16.6056H148.209L153.058 33.3734L158.105 17.9262H161.285L166.333 33.3734L171.18 16.6056H175.437L168.601 39.3854H164.648L159.686 24.3901L154.734 39.3854H150.781L143.953 16.6056Z" fill="#292929"/>
<path d="M199.514 38.9505L193.215 23.2773H197.533L201.598 34.4674L205.725 23.2773H210.044L200.843 46.3092H196.55L199.514 38.9505Z" fill="#292929"/>
<path d="M210.232 35.1885L213.36 33.7984C213.794 34.9626 214.645 36.4395 216.792 36.4395C218.616 36.4395 219.408 35.3796 219.408 34.5195C219.408 31.8088 211.318 33.6333 211.318 27.9427C211.318 24.5371 214.186 22.9297 217.295 22.9297C220.068 22.9297 222.179 24.2503 223.403 26.431L220.353 28.0904C219.806 27.0912 218.903 26.0401 217.165 26.0401C215.88 26.0401 215.089 26.6656 215.089 27.4301C215.089 29.8627 223.282 28.4118 223.282 34.3283C223.282 38.0555 220.041 39.6975 216.991 39.6975C213.603 39.7061 211.023 37.6732 210.232 35.1885Z" fill="#292929"/>
<path d="M176.41 37.289C174.959 35.725 174.238 33.7268 174.238 31.2943C174.238 28.8616 174.959 26.872 176.402 25.3256C177.844 23.7791 179.669 23.0059 181.893 23.0059C184.118 23.0059 185.803 23.9181 186.975 25.7513V23.2318H191.059V39.4001H186.975V36.6895C185.751 38.6529 184.047 39.6347 181.867 39.6347C179.669 39.6433 177.862 38.8614 176.41 37.289ZM185.681 34.8129C186.541 33.9702 186.967 32.8059 186.967 31.3203C186.967 29.8433 186.541 28.6792 185.681 27.8277C184.82 26.985 183.822 26.5592 182.675 26.5592C181.529 26.5592 180.529 26.9762 179.686 27.8103C178.844 28.6444 178.418 29.8085 178.418 31.2855C178.418 32.7625 178.844 33.9354 179.703 34.7867C180.564 35.6468 181.554 36.0726 182.692 36.0726C183.83 36.0726 184.82 35.6556 185.681 34.8129Z" fill="#292929"/>
<path d="M111.485 37.2185C110.034 35.6547 109.312 33.6565 109.312 31.2238C109.312 28.7913 110.034 26.8017 111.476 25.2553C112.918 23.7087 114.743 22.9355 116.967 22.9355C119.191 22.9355 120.876 23.8477 122.049 25.6809V23.1701H126.133V39.46C126.133 41.7798 125.455 43.665 124.091 45.142C122.727 46.6102 120.816 47.3487 118.357 47.3487C115.898 47.3487 113.935 46.8362 112.492 45.8197C111.041 44.7944 110.216 43.3436 110.025 41.4582H114.056C114.308 42.1793 114.795 42.7441 115.516 43.1698C116.237 43.5868 117.14 43.7953 118.226 43.7953C119.312 43.7953 120.225 43.4392 120.954 42.7181C121.684 41.9969 122.049 40.9197 122.049 39.4774V36.6452C120.824 38.6086 119.121 39.5904 116.941 39.5904C114.751 39.5642 112.935 38.7823 111.485 37.2185ZM120.755 34.7338C121.615 33.8911 122.04 32.7268 122.04 31.2412C122.04 29.7642 121.615 28.6001 120.755 27.7486C119.894 26.9059 118.895 26.4802 117.749 26.4802C116.602 26.4802 115.603 26.8973 114.76 27.7312C113.917 28.5653 113.492 29.7296 113.492 31.2064C113.492 32.6834 113.917 33.8563 114.777 34.7078C115.637 35.5679 116.628 35.9936 117.766 35.9936C118.904 35.9936 119.894 35.5853 120.755 34.7338Z" fill="#292929"/>
<path d="M193.91 17.749C193.163 17.0191 192.781 16.0982 192.781 14.9775C192.781 13.8567 193.155 12.9358 193.91 12.206C194.658 11.4762 195.578 11.1113 196.664 11.1113C197.507 11.1113 198.255 11.3372 198.906 11.7803C199.557 12.2234 200.018 12.8402 200.269 13.6308H198.072C197.785 13.0748 197.324 12.8055 196.691 12.8055C196.056 12.8055 195.561 13.0053 195.196 13.3963C194.831 13.7872 194.649 14.3172 194.649 14.9775C194.649 15.6378 194.831 16.1678 195.196 16.5587C195.561 16.9497 196.056 17.1495 196.691 17.1495C197.324 17.1495 197.785 16.8715 198.072 16.3241H200.269C200.009 17.1147 199.557 17.7316 198.906 18.1747C198.255 18.6177 197.507 18.8436 196.664 18.8436C195.578 18.8436 194.658 18.4787 193.91 17.749Z" fill="#292929"/>
<path d="M202.136 17.7576C201.39 17.0279 201.008 16.0982 201.008 14.9775C201.008 13.8567 201.381 12.9358 202.136 12.206C202.884 11.4762 203.805 11.1113 204.891 11.1113C205.976 11.1113 206.897 11.4762 207.636 12.206C208.383 12.9358 208.748 13.8567 208.748 14.9775C208.748 16.0982 208.374 17.0279 207.628 17.7576C206.88 18.4875 205.968 18.8523 204.882 18.8523C203.805 18.8523 202.893 18.4875 202.136 17.7576ZM206.341 16.5587C206.706 16.1678 206.888 15.6378 206.888 14.9775C206.888 14.3172 206.706 13.7872 206.341 13.3963C205.976 13.0053 205.49 12.8055 204.891 12.8055C204.283 12.8055 203.796 13.0053 203.44 13.3963C203.075 13.7872 202.893 14.3172 202.893 14.9775C202.893 15.6378 203.075 16.1678 203.44 16.5587C203.805 16.9497 204.291 17.1495 204.891 17.1495C205.499 17.1495 205.976 16.9583 206.341 16.5587Z" fill="#292929"/>
<path d="M214.872 11.1992H216.714V18.7839H214.872L211.788 14.0141V18.7839H209.945V11.1992H211.788L214.872 15.9689V11.1992Z" fill="#292929"/>
<path d="M218.33 18.7772V11.2188H223.256V12.6175H220.171V14.2422H222.474V15.641H220.171V18.7772H218.33Z" fill="#292929"/>
<path d="M4.5007 40.8775C4.49201 40.3996 4.5702 39.9304 4.7179 39.4787C4.83952 39.1399 5.0046 38.8184 5.21312 38.5316C5.42162 38.245 5.64751 37.967 5.89946 37.7237C6.37729 37.2459 6.97677 36.7506 7.65444 36.212C8.15834 35.8123 8.69698 35.3779 9.24433 34.8914C9.67004 34.5091 10.0784 34.1007 10.452 33.6664C10.756 33.3102 11.034 32.9366 11.2773 32.5457C11.6856 31.9028 11.9984 31.2077 12.2069 30.4779C12.4415 29.67 12.5544 28.8445 12.5458 28.0018C12.5544 27.0201 12.3894 26.047 12.0766 25.1261C11.8247 24.405 11.4685 23.7187 11.0254 23.0844C10.6692 22.5892 10.2782 22.1201 9.8438 21.6857C9.13139 20.9646 8.38421 20.3739 7.70655 19.8352C7.19397 19.4268 6.72481 19.0532 6.31648 18.6883C6.02977 18.4363 5.76914 18.1671 5.51719 17.8804C5.35212 17.6892 5.20442 17.498 5.0741 17.2896C4.89166 16.9941 4.74396 16.6814 4.64839 16.3426C4.53544 15.943 4.48332 15.5346 4.48332 15.1263C4.48332 13.8926 3.4842 12.8848 2.24182 12.8848C1.00813 12.8848 0.000326214 13.8839 0.000326214 15.1263C-0.00836176 16.108 0.156706 17.0811 0.469474 18.002C0.721425 18.7317 1.07764 19.4182 1.52073 20.0437C1.87693 20.5389 2.26788 21.008 2.70229 21.4424C3.41469 22.1635 4.16186 22.7542 4.83952 23.293C5.35211 23.6925 5.82127 24.0749 6.2296 24.4398C6.51631 24.6918 6.77694 24.961 7.02889 25.2477C7.19397 25.4389 7.34167 25.6301 7.47198 25.8385C7.65444 26.134 7.80212 26.4468 7.89769 26.7855C8.01064 27.1851 8.06277 27.5935 8.06277 28.0018C8.07145 28.4797 7.99326 28.9489 7.84557 29.4006C7.72393 29.7394 7.55887 30.0609 7.35035 30.3476C7.14184 30.6343 6.91595 30.9123 6.66399 31.1556C6.18617 31.6334 5.5867 32.1286 4.90903 32.6673C4.40513 33.0756 3.85778 33.5014 3.32782 33.9879C2.90211 34.3701 2.49378 34.7784 2.12018 35.2128C1.81611 35.5691 1.53809 35.9427 1.29483 36.3336C0.886497 36.9766 0.573731 37.6715 0.356531 38.4014C0.121956 39.2093 0.00900994 40.0346 0.0176979 40.8775C0.0176979 42.1112 1.01682 43.1189 2.2592 43.1189C3.50158 43.1189 4.5007 42.1112 4.5007 40.8775Z" fill="#292929"/>
<path d="M22.0417 27.9927C22.033 27.5148 22.1112 27.0457 22.2588 26.5939C22.3804 26.255 22.5456 25.9336 22.7541 25.6468C22.9626 25.3602 23.1885 25.0821 23.4405 24.8389C23.9182 24.3611 24.5178 23.8658 25.1955 23.3273C25.6992 22.9275 26.238 22.4932 26.7853 22.0066C27.211 21.6243 27.6194 21.2161 27.9929 20.7816C28.2969 20.4254 28.5751 20.0519 28.8183 19.6609C29.2266 19.018 29.5394 18.3229 29.7479 17.5932C29.9825 16.7852 30.0953 15.9598 30.0867 15.1171C30.0953 14.1353 29.9303 13.1623 29.6176 12.2414C29.3656 11.5203 29.0094 10.8339 28.5663 10.1997C28.2101 9.70447 27.8192 9.23532 27.3848 8.80092C26.6723 8.07982 25.9252 7.48903 25.2475 6.95038C24.7349 6.54204 24.2658 6.16846 23.8574 5.80357C23.5707 5.55162 23.3101 5.28229 23.0581 4.99558C22.8931 4.80444 22.7454 4.61332 22.615 4.40481C22.4326 4.10942 22.285 3.79666 22.1894 3.45782C22.0764 3.05817 22.0243 2.64983 22.0243 2.2415C22.0243 1.00781 21.0252 0 19.7827 0C18.5404 0 17.5413 0.999121 17.5413 2.2415C17.5326 3.22324 17.6977 4.19629 18.0105 5.11722C18.2623 5.847 18.6186 6.53336 19.0616 7.15889C19.4179 7.65411 19.8089 8.12326 20.2433 8.55765C20.9556 9.27876 21.7029 9.86954 22.3804 10.4082C22.8844 10.8165 23.3623 11.1901 23.7619 11.555C24.0486 11.807 24.3092 12.0763 24.5612 12.363C24.7263 12.5541 24.8739 12.7453 25.0043 12.9538C25.1867 13.2492 25.3344 13.5619 25.43 13.9008C25.5429 14.2917 25.595 14.7087 25.595 15.1171C25.6037 15.595 25.5255 16.0641 25.3779 16.5159C25.2563 16.8547 25.0911 17.1762 24.8827 17.4628C24.6741 17.7495 24.4482 18.0275 24.1962 18.2709C23.7185 18.7486 23.1189 19.2439 22.4412 19.7825C21.9374 20.1909 21.3901 20.6166 20.8602 21.1031C20.4344 21.4853 20.0261 21.8937 19.6525 22.328C19.3484 22.6843 19.0704 23.0579 18.827 23.4489C18.4188 24.0918 18.1061 24.7867 17.8975 25.5166C17.6629 26.3246 17.55 27.1586 17.55 27.9927C17.55 29.2264 18.5491 30.2341 19.7915 30.2341C21.0338 30.2341 22.0417 29.2264 22.0417 27.9927Z" fill="#292929"/>
<path d="M22.0428 53.7585C22.0342 53.2806 22.1123 52.8114 22.26 52.3597C22.3816 52.0209 22.5467 51.6993 22.7551 51.4127C22.9637 51.126 23.1896 50.848 23.4416 50.6047C23.9194 50.1269 24.5189 49.6316 25.1964 49.093C25.7004 48.6933 26.2391 48.2589 26.7864 47.7724C27.2122 47.3902 27.6205 46.9819 27.9941 46.5473C28.2981 46.1912 28.5762 45.8176 28.8194 45.4267C29.2277 44.7837 29.5405 44.0886 29.7491 43.3589C29.9836 42.551 30.0965 41.7255 30.0879 40.8828C30.0965 39.9011 29.9315 38.928 29.6187 38.0071C29.3667 37.286 29.0106 36.5997 28.5674 35.9654C28.2113 35.4702 27.8203 35.0011 27.3859 34.5667C26.6735 33.8456 25.9263 33.2548 25.2486 32.7161C24.7447 32.3078 24.2669 31.9342 23.8672 31.5693C23.5806 31.3173 23.3199 31.0481 23.0679 30.7614C22.9029 30.5702 22.7551 30.379 22.6249 30.1706C22.4424 29.8752 22.2947 29.5625 22.1992 29.2235C22.0862 28.824 22.0342 28.4156 22.0342 28.0073C22.0342 26.7736 21.0349 25.7657 19.7926 25.7657C18.5502 25.7657 17.5511 26.7648 17.5511 28.0073C17.5425 28.989 17.7075 29.9621 18.0203 30.883C18.2722 31.6128 18.6284 32.2992 19.0715 32.9247C19.4277 33.4199 19.8186 33.889 20.253 34.3234C20.9655 35.0445 21.7126 35.6354 22.3903 36.1739C22.8943 36.5823 23.372 36.9559 23.7718 37.3208C24.0584 37.5728 24.3191 37.8421 24.5709 38.1287C24.7361 38.3199 24.8837 38.5111 25.014 38.7196C25.1964 39.015 25.3442 39.3277 25.4398 39.6665C25.5528 40.0575 25.6048 40.4745 25.6048 40.8828C25.6136 41.3607 25.5354 41.8299 25.3876 42.2816C25.266 42.6204 25.101 42.9419 24.8924 43.2285C24.6839 43.5153 24.4581 43.7933 24.2061 44.0366C23.7282 44.5144 23.1288 45.0097 22.4511 45.5483C21.9472 45.9566 21.3999 46.3823 20.8699 46.8689C20.4442 47.2511 20.0358 47.6594 19.6623 48.0939C19.3581 48.4501 19.0801 48.8237 18.8369 49.2146C18.4286 49.8575 18.1158 50.5525 17.9073 51.2824C17.6727 52.0903 17.5597 52.9244 17.5597 53.7585C17.5597 54.9921 18.559 55.9999 19.8013 55.9999C21.0437 55.9999 22.0428 55.0008 22.0428 53.7585Z" fill="#292929"/>
</svg>
