<svg width="267" height="56" viewBox="0 0 267 56" fill="none" xmlns="http://www.w3.org/2000/svg">
<path d="M21.7171 11.0891C20.8595 11.0891 20.021 10.7649 19.3074 10.1574C18.5939 9.54985 18.0372 8.68624 17.7076 7.67541C17.3779 6.66458 17.2901 5.55179 17.4552 4.47735C17.6203 3.40291 18.0309 2.41492 18.6352 1.63794C19.2395 0.860968 20.0105 0.329801 20.851 0.111412C21.6914 -0.106977 22.5637 -0.00281145 23.3578 0.410776C24.152 0.824364 24.8324 1.52886 25.3134 2.43543C25.7943 3.342 26.0542 4.41006 26.0604 5.50495C26.0796 6.24154 25.9806 6.97537 25.7696 7.66136C25.5585 8.34734 25.2398 8.97099 24.8331 9.49397C24.4263 10.017 23.94 10.4283 23.4042 10.7026C22.8684 10.9769 22.2943 11.1084 21.7171 11.0891ZM16.2881 8.91089C16.2922 8.25931 16.1947 7.6132 16.0013 7.0102C15.8079 6.40719 15.5224 5.85935 15.1615 5.3986C14.8006 4.93785 14.3714 4.5734 13.8991 4.32649C13.4267 4.07957 12.9206 3.95512 12.4102 3.9604C11.3867 3.98082 10.4096 4.50894 9.68582 5.43295C8.96201 6.35696 8.54832 7.60431 8.53232 8.91089C8.54832 10.2175 8.96201 11.4648 9.68582 12.3888C10.4096 13.3128 11.3867 13.841 12.4102 13.8614C12.9206 13.8667 13.4267 13.7422 13.8991 13.4953C14.3714 13.2484 14.8006 12.8839 15.1615 12.4232C15.5224 11.9624 15.8079 11.4146 16.0013 10.8116C16.1947 10.2086 16.2922 9.56247 16.2881 8.91089ZM8.99767 17.3861C8.98609 16.2069 8.6182 15.079 7.97079 14.2377C7.32337 13.3965 6.44646 12.9069 5.52308 12.8713C4.60429 12.875 3.72173 13.3292 3.05776 14.14C2.3938 14.9507 1.99917 16.0561 1.95543 17.2277C1.95836 18.4007 2.31413 19.5273 2.94923 20.3749C3.58432 21.2226 4.45021 21.7263 5.36797 21.7822C5.83454 21.8088 6.30053 21.7151 6.73809 21.5066C7.17565 21.2982 7.57579 20.9792 7.91461 20.5689C8.25343 20.1585 8.52397 19.6652 8.71006 19.1183C8.89615 18.5715 8.99396 17.9823 8.99767 17.3861ZM6.51582 29.2673C6.51582 28.1644 6.17263 27.1067 5.56174 26.3269C4.95086 25.547 4.12232 25.1089 3.2584 25.1089C2.39447 25.1089 1.56593 25.547 0.955048 26.3269C0.344162 27.1067 0.000969844 28.1644 0.000969844 29.2673C-0.00966902 29.8171 0.0673153 30.364 0.22725 30.8746C0.387185 31.3853 0.626736 31.8491 0.931362 32.238C1.23599 32.6269 1.59934 32.9327 1.99936 33.1369C2.39937 33.341 2.82772 33.4393 3.2584 33.4257C4.12106 33.4205 4.94723 32.9807 5.55724 32.202C6.16724 31.4233 6.51174 30.3686 6.51582 29.2673ZM8.37721 40.9505C8.3396 39.9682 8.01703 39.0388 7.47226 38.3434C6.92749 37.6479 6.19951 37.2361 5.43001 37.1881C4.64837 37.1881 3.89874 37.5845 3.34603 38.2901C2.79332 38.9957 2.48282 39.9527 2.48282 40.9505C2.48282 41.9483 2.79332 42.9053 3.34603 43.6109C3.89874 44.3165 4.64837 44.7129 5.43001 44.7129C5.82137 44.7475 6.21402 44.6753 6.5818 44.501C6.94957 44.3267 7.28403 44.0543 7.5629 43.7021C7.84176 43.3498 8.05862 42.9258 8.19903 42.4581C8.33944 41.9905 8.40018 41.4901 8.37721 40.9901V40.9505ZM15.0472 49.6634C15.0472 48.9584 14.8834 48.2693 14.5766 47.6831C14.2698 47.097 13.8338 46.6401 13.3236 46.3703C12.8134 46.1006 12.252 46.03 11.7104 46.1675C11.1688 46.305 10.6713 46.6445 10.2808 47.143C9.89032 47.6415 9.6244 48.2766 9.51666 48.968C9.40893 49.6594 9.46422 50.3761 9.67555 51.0274C9.88688 51.6787 10.2447 52.2354 10.7039 52.627C11.1631 53.0187 11.7029 53.2277 12.2551 53.2277C12.6197 53.2303 12.9812 53.1412 13.3188 52.9655C13.6565 52.7898 13.9637 52.5309 14.223 52.2036C14.4822 51.8763 14.6885 51.487 14.8299 51.0579C14.9713 50.6289 15.0451 50.1684 15.0472 49.703V49.6634ZM24.199 52.8317C24.199 52.2051 24.0534 51.5925 23.7807 51.0715C23.508 50.5504 23.1204 50.1443 22.6669 49.9045C22.2134 49.6647 21.7144 49.602 21.233 49.7242C20.7515 49.8465 20.3093 50.1483 19.9622 50.5913C19.6151 51.0344 19.3787 51.599 19.283 52.2136C19.1872 52.8282 19.2364 53.4652 19.4242 54.0441C19.6121 54.6231 19.9302 55.1179 20.3383 55.466C20.7464 55.8142 21.2263 56 21.7171 56C22.361 55.9444 22.9673 55.5927 23.4236 55.0102C23.88 54.4276 24.1554 53.6537 24.199 52.8317ZM33.5059 49.6634C33.5123 49.2711 33.4564 48.8812 33.3417 48.5172C33.227 48.1532 33.0559 47.8225 32.8385 47.545C32.6212 47.2676 32.3622 47.0491 32.077 46.9027C31.7919 46.7563 31.4865 46.685 31.1792 46.6931C30.5621 46.6931 29.9703 47.006 29.5339 47.563C29.0976 48.1201 28.8525 48.8756 28.8525 49.6634C28.8525 50.4511 29.0976 51.2066 29.5339 51.7637C29.9703 52.3207 30.5621 52.6337 31.1792 52.6337C31.7733 52.5486 32.3272 52.2083 32.75 51.6686C33.1728 51.1289 33.4393 50.4219 33.5059 49.6634ZM40.0208 41.1485C40.0271 40.7822 39.9753 40.4181 39.8684 40.0781C39.7615 39.7381 39.6018 39.4292 39.3989 39.1702C39.1959 38.9111 38.954 38.7072 38.6877 38.5707C38.4213 38.4343 38.1361 38.3681 37.8492 38.3762C37.5701 38.3722 37.2934 38.4427 37.037 38.5832C36.7805 38.7238 36.5499 38.9313 36.36 39.1923C36.1701 39.4534 36.0251 39.7623 35.9343 40.0992C35.8434 40.4361 35.8088 40.7935 35.8326 41.1485C35.8263 41.5148 35.8781 41.8789 35.985 42.2189C36.0919 42.559 36.2516 42.8678 36.4546 43.1269C36.6575 43.3859 36.8994 43.5898 37.1658 43.7263C37.4321 43.8627 37.7173 43.9289 38.0043 43.9208C38.2793 43.908 38.5497 43.8262 38.8 43.6799C39.0502 43.5336 39.2754 43.3258 39.4627 43.0683C39.65 42.8108 39.7957 42.5088 39.8914 42.1793C39.9872 41.8499 40.0311 41.4996 40.0208 41.1485ZM42.3475 29.0693C42.3475 28.5602 42.2292 28.0625 42.0077 27.6391C41.7861 27.2158 41.4711 26.8858 41.1027 26.691C40.7342 26.4962 40.3288 26.4452 39.9376 26.5445C39.5464 26.6438 39.1871 26.889 38.9051 27.249C38.6231 27.6091 38.4311 28.0677 38.3532 28.5671C38.2754 29.0665 38.3154 29.5841 38.468 30.0544C38.6206 30.5248 38.8791 30.9269 39.2107 31.2097C39.5423 31.4926 39.9322 31.6436 40.331 31.6436C40.8442 31.5642 41.3218 31.2675 41.6873 30.8008C42.0529 30.3341 42.2853 29.7245 42.3475 29.0693ZM39.2452 17.3861C39.2573 17.1306 39.224 16.8749 39.148 16.638C39.072 16.4011 38.9551 16.1892 38.806 16.0179C38.657 15.8466 38.4796 15.7205 38.287 15.6488C38.0945 15.5772 37.8918 15.5618 37.694 15.604C37.4814 15.5972 37.2704 15.6525 37.0771 15.7656C36.8837 15.8788 36.7132 16.0469 36.5786 16.257C36.4439 16.4672 36.3486 16.7138 36.3 16.9781C36.2513 17.2425 36.2507 17.5175 36.298 17.7822C36.298 18.2548 36.4451 18.7081 36.7069 19.0424C36.9687 19.3766 37.3238 19.5644 37.694 19.5644C37.889 19.5861 38.0854 19.5565 38.271 19.4772C38.4567 19.3979 38.6275 19.2708 38.773 19.1036C38.9185 18.9365 39.0355 18.7329 39.1167 18.5056C39.1979 18.2782 39.2417 18.032 39.2452 17.7822C39.4003 17.6238 39.4003 17.3861 39.2452 17.3861ZM32.1099 8.87129C32.1099 8.45114 31.9791 8.04821 31.7464 7.75112C31.5137 7.45403 31.1981 7.28713 30.869 7.28713C30.5398 7.28713 30.2242 7.45403 29.9915 7.75112C29.7588 8.04821 29.628 8.45114 29.628 8.87129C29.628 9.29143 29.7588 9.69437 29.9915 9.99146C30.2242 10.2885 30.5398 10.4554 30.869 10.4554C31.1981 10.4554 31.5137 10.2885 31.7464 9.99146C31.9791 9.69437 32.1099 9.29143 32.1099 8.87129Z" fill="#666666"/>
<path d="M68.1919 19.5432C67.607 18.8519 66.9147 18.3257 66.1599 17.9986C65.2838 17.5978 64.3606 17.3903 63.4299 17.3848H57.7061V18.8105V39.959C57.6813 40.0487 57.6813 40.1466 57.7061 40.2363C57.7347 40.2715 57.7689 40.2986 57.8063 40.3157C57.8438 40.3328 57.8837 40.3395 57.9233 40.3353H63.4454C64.3586 40.3561 65.2674 40.1683 66.1289 39.7808C66.8791 39.454 67.5665 38.9275 68.1454 38.2363C68.7132 37.5397 69.1484 36.6861 69.4173 35.7412C69.7196 34.6753 69.8668 33.5479 69.8517 32.4145V25.3056C69.8696 24.1719 69.7224 23.0438 69.4173 21.9788C69.1601 21.0581 68.7409 20.2248 68.1919 19.5432ZM67.5715 32.3551C67.5671 33.342 67.3924 34.3157 67.0596 35.2065C66.7755 35.969 66.3007 36.589 65.7101 36.9689C64.9815 37.3962 64.1846 37.5996 63.3834 37.563H60.1104V20.1372H63.3368C63.7891 20.1293 64.2409 20.1757 64.6863 20.2759C65.0521 20.3675 65.4068 20.5207 65.7411 20.7313C66.0279 20.9216 66.2854 21.1766 66.5012 21.4838C66.7346 21.7658 66.9241 22.1018 67.0596 22.4739C67.2095 22.8909 67.3189 23.3298 67.3853 23.7808C67.4696 24.322 67.5112 24.8726 67.5094 25.4244L67.5715 32.3551Z" fill="#666666"/>
<path d="M77.1236 18.5966H80.0708V15.4085C80.0666 15.3048 80.0336 15.2065 79.9777 15.1312C79.9128 15.0992 79.8409 15.0992 79.7761 15.1312H76.8754V18.2401C76.8734 18.2876 76.8792 18.3351 76.8926 18.3795C76.9059 18.4238 76.9265 18.4641 76.953 18.4976C76.9745 18.5283 77.0007 18.5529 77.0301 18.57C77.0595 18.587 77.0913 18.5961 77.1236 18.5966Z" fill="#666666"/>
<path d="M84.0589 37.7246H83.9038H79.6071V23.3286C79.6175 23.2632 79.6175 23.1959 79.6071 23.1305L79.514 23.0117H79.3589H72.7199V25.3087C72.7018 25.3659 72.7018 25.4298 72.7199 25.487L72.813 25.6256C72.8586 25.6426 72.907 25.6426 72.9526 25.6256H77.2338V37.7048H72.3632V39.9622C72.3529 39.9936 72.3477 40.0272 72.3477 40.0612C72.3477 40.0952 72.3529 40.1289 72.3632 40.1602C72.3818 40.213 72.4149 40.2552 72.4562 40.279C72.5018 40.2961 72.5503 40.2961 72.5958 40.279H84.1519V38.0414C84.1675 37.9769 84.1675 37.9079 84.1519 37.8434L84.0589 37.7246Z" fill="#666666"/>
<path d="M96.6674 38.5772C95.9384 38.1267 95.1346 37.9092 94.3251 37.9436H90.5403C90.3008 37.9653 90.0633 37.8737 89.8733 37.6861C89.7875 37.5669 89.7225 37.4259 89.6824 37.2723C89.6423 37.1188 89.6281 36.9561 89.6407 36.795C89.6419 36.3505 89.6995 35.9091 89.8113 35.4881C89.9104 35.1388 90.0517 34.8114 90.2301 34.5178C90.6411 34.5969 91.0555 34.6432 91.471 34.6564C92.4794 34.6803 93.483 34.4724 94.4337 34.0426C95.1763 33.7217 95.8253 33.1211 96.2951 32.3198C96.7303 31.5553 96.9589 30.631 96.9466 29.6861V28.9931C96.9551 28.3011 96.8214 27.6183 96.5588 27.0129C96.2681 26.4036 95.8257 25.9365 95.3024 25.6861V25.3099H98.141C98.1797 25.3131 98.2184 25.3039 98.2536 25.2832C98.2888 25.2624 98.3194 25.2308 98.3426 25.1911C98.3668 25.1149 98.3668 25.0297 98.3426 24.9535V22.7158H91.471C90.445 22.683 89.425 22.9258 88.4773 23.4287C87.7005 23.8156 87.0378 24.5026 86.5817 25.3937C86.1256 26.2848 85.899 27.3355 85.9334 28.399V29.2703C85.9162 30.3022 86.1432 31.3167 86.5849 32.1812C87.0421 33.0729 87.7026 33.7641 88.4773 34.1614L88.9271 34.3198V34.7158C88.5963 34.8919 88.2919 35.1398 88.0275 35.4485C87.7875 35.731 87.5972 36.0752 87.469 36.4584C87.3474 36.8555 87.2894 37.2797 87.2984 37.7059C87.2881 38.2688 87.4009 38.8243 87.6242 39.3099C87.7034 39.4571 87.7916 39.5961 87.8878 39.7257V40.201C87.3869 40.2812 86.9111 40.5269 86.5073 40.9139C86.1231 41.2584 85.8135 41.7216 85.6077 42.2604C85.3946 42.8215 85.2883 43.4389 85.2974 44.0624V44.6168C85.288 45.3631 85.4439 46.0976 85.7473 46.7356C86.0716 47.369 86.5358 47.8652 87.0813 48.1614C87.7802 48.5215 88.5306 48.6901 89.2839 48.6564H94.1235C94.7601 48.6678 95.3939 48.5474 96.0004 48.3C96.5097 48.083 96.983 47.7472 97.3964 47.3099C97.768 46.8911 98.0598 46.3696 98.2496 45.7851C98.4453 45.1555 98.5403 44.4822 98.5288 43.8049V42.8544C98.5423 41.9795 98.3822 41.1144 98.0634 40.3396C97.7598 39.5747 97.2699 38.9562 96.6674 38.5772ZM88.3687 30.3C88.2581 29.9478 88.2053 29.5704 88.2136 29.1911V28.4782C88.1948 28.0244 88.2642 27.5717 88.4158 27.1605C88.5674 26.7494 88.7963 26.3925 89.0822 26.1218C89.7892 25.5297 90.627 25.2449 91.471 25.3099H93.3324C93.6041 25.5276 93.8497 25.7944 94.0614 26.102C94.2656 26.4124 94.4234 26.7682 94.5268 27.1515C94.6231 27.5353 94.6703 27.9365 94.6664 28.3396V29.1317C94.6823 29.5753 94.6146 30.0172 94.4688 30.4204C94.323 30.8236 94.1035 31.1762 93.8288 31.4485C93.1337 32.0415 92.3054 32.3268 91.471 32.2604C90.9447 32.2715 90.4205 32.1711 89.9199 31.9634C89.5243 31.8054 89.1596 31.5422 88.8496 31.1911C88.6473 30.9347 88.4843 30.6325 88.3687 30.3ZM96.202 43.7059C96.2073 44.0218 96.1706 44.3365 96.0935 44.6366C96.0303 44.9242 95.907 45.1843 95.7367 45.3891C95.5462 45.6205 95.3258 45.8081 95.0852 45.9436C94.7775 46.0876 94.451 46.1548 94.1235 46.1416H89.7027C89.2881 46.1678 88.8743 46.073 88.4928 45.8643C88.2121 45.7131 87.9779 45.4489 87.8258 45.1119C87.6938 44.7594 87.625 44.3738 87.6242 43.9832V43.1317C87.6229 42.7044 87.6861 42.2809 87.8103 41.8842C87.9254 41.4813 88.1303 41.1303 88.3997 40.8742C88.6339 40.6668 88.8973 40.5188 89.1753 40.4386C89.356 40.458 89.5376 40.458 89.7182 40.4386H94.1235C94.6856 40.3828 95.2424 40.6103 95.6746 41.0723C96.0014 41.5459 96.1687 42.165 96.14 42.795L96.202 43.7059Z" fill="#666666"/>
<path d="M105.343 18.5962H108.29V15.4081C108.314 15.3182 108.314 15.2208 108.29 15.1309C108.225 15.1022 108.154 15.1022 108.088 15.1309H105.141V18.2398C105.139 18.2873 105.145 18.335 105.158 18.3795C105.171 18.4241 105.191 18.4646 105.218 18.4982C105.244 18.5319 105.276 18.5581 105.311 18.575C105.346 18.5919 105.383 18.5991 105.42 18.5962H105.343Z" fill="#666666"/>
<path d="M112.274 37.7246H112.119H107.899V23.3286C107.917 23.2645 107.917 23.1946 107.899 23.1305V23.0117H107.744H100.935V25.3087C100.917 25.3659 100.917 25.4298 100.935 25.487C100.952 25.5461 100.985 25.5954 101.028 25.6256C101.073 25.6426 101.122 25.6426 101.167 25.6256H105.449V37.7048H100.578V39.9622C100.568 39.9936 100.562 40.0272 100.563 40.0612C100.562 40.0952 100.568 40.1289 100.578 40.1602C100.585 40.1883 100.597 40.2138 100.613 40.2345C100.629 40.2552 100.649 40.2705 100.671 40.279H100.811H112.398V38.0414C112.414 37.9771 112.414 37.9077 112.398 37.8434L112.274 37.7246Z" fill="#666666"/>
<path d="M122.901 22.9553H117.875V17.8266C117.875 17.7276 117.875 17.6682 117.875 17.6286L117.782 17.5098C117.782 17.5098 117.782 17.5098 117.627 17.5098H115.533V22.9949H112.229V25.3117C112.221 25.3707 112.221 25.431 112.229 25.49H112.322H115.424V33.6484C115.4 34.7179 115.526 35.7843 115.797 36.7969C116.027 37.5651 116.406 38.2463 116.898 38.7771C117.352 39.2656 117.88 39.6296 118.449 39.8464C119.117 40.0746 119.805 40.1878 120.497 40.183H122.73C122.771 40.1862 122.812 40.177 122.85 40.1564C122.888 40.1358 122.921 40.1042 122.947 40.0642C122.97 39.9741 122.97 39.8772 122.947 39.787V37.6484H120.822C120.373 37.6651 119.923 37.5984 119.488 37.4504C119.155 37.3523 118.85 37.1401 118.604 36.8365C118.329 36.4887 118.136 36.0498 118.046 35.5692C117.924 34.9209 117.867 34.2556 117.875 33.589V25.6682H123.18V23.3315C123.204 23.2484 123.204 23.1573 123.18 23.0741C123.151 23.0163 123.108 22.9728 123.057 22.9512C123.006 22.9295 122.951 22.931 122.901 22.9553Z" fill="#666666"/>
<path d="M137.574 37.6831H137.465C137.321 37.7059 137.175 37.7059 137.031 37.6831C136.914 37.6355 136.808 37.5542 136.72 37.4454C136.631 37.3148 136.567 37.1586 136.534 36.99C136.508 36.7536 136.508 36.5136 136.534 36.2771V28.8712C136.553 27.891 136.443 26.9137 136.209 25.9801C136.021 25.2242 135.684 24.5424 135.231 23.9999C134.737 23.4711 134.153 23.098 133.525 22.9108C132.718 22.6569 131.889 22.5371 131.059 22.5544C129.829 22.564 128.607 22.7974 127.429 23.2474C127.146 23.3205 126.881 23.4764 126.653 23.7029C126.645 23.7551 126.645 23.8091 126.653 23.8613V26.2177H127.041C127.471 26.0009 127.911 25.8222 128.36 25.6831C128.8 25.5471 129.245 25.4413 129.694 25.3662C130.159 25.3662 130.64 25.3662 131.136 25.3662C131.766 25.3366 132.396 25.4437 132.998 25.6831C133.21 25.7647 133.407 25.8995 133.577 26.0798C133.748 26.26 133.888 26.482 133.99 26.7326C134.2 27.3574 134.301 28.0332 134.285 28.7128V30.2177H129.616C129.053 30.2057 128.492 30.3128 127.956 30.5346C127.493 30.7374 127.062 31.046 126.684 31.4455C126.334 31.852 126.059 32.3524 125.878 32.9108C125.682 33.5403 125.587 34.2137 125.599 34.891V35.9405C125.584 36.7991 125.75 37.6469 126.08 38.3959C126.402 39.0889 126.877 39.6464 127.445 39.9999C128.092 40.3999 128.804 40.5968 129.523 40.5742C130.155 40.5841 130.783 40.4637 131.384 40.2177C131.951 40.0043 132.479 39.6474 132.936 39.1682C133.369 38.691 133.727 38.1131 133.99 37.4653H134.27C134.295 37.7236 134.348 37.9766 134.425 38.2177C134.545 38.6449 134.748 39.0263 135.014 39.3266C135.265 39.6386 135.567 39.8754 135.898 40.0197C136.252 40.1801 136.625 40.2605 137 40.2573H137.899C137.965 40.2833 138.035 40.2833 138.101 40.2573C138.119 40.2111 138.128 40.1603 138.128 40.1088C138.128 40.0573 138.119 40.0065 138.101 39.9603V37.6831H137.574ZM133.06 36.6534C132.596 37.1046 132.07 37.4404 131.509 37.6435C130.975 37.8432 130.421 37.9432 129.864 37.9405C129.309 38.0129 128.752 37.807 128.313 37.3662C128.141 37.1477 128.007 36.8843 127.921 36.5938C127.835 36.3033 127.8 35.9927 127.817 35.6831V34.7128C127.81 34.3968 127.847 34.0819 127.925 33.7821C127.998 33.5227 128.12 33.291 128.282 33.1088C128.449 32.8691 128.663 32.6912 128.903 32.594C129.201 32.4899 129.509 32.4431 129.818 32.4554H134.068V35.3662C133.763 35.8329 133.425 36.2636 133.06 36.6534Z" fill="#666666"/>
<path d="M151.75 37.7244H151.595H147.298V16.1799C147.307 16.1143 147.307 16.0474 147.298 15.9818H147.205C147.155 15.9592 147.1 15.9592 147.05 15.9818H140.473V18.1204C140.46 18.1786 140.46 18.2405 140.473 18.2987L140.566 18.4175H140.706H144.956V37.6254H140.055V39.962C140.044 39.9934 140.039 40.0271 140.039 40.061C140.039 40.095 140.044 40.1287 140.055 40.16C140.061 40.1881 140.073 40.2136 140.089 40.2343C140.106 40.2551 140.126 40.2703 140.148 40.2789C140.193 40.2959 140.242 40.2959 140.287 40.2789H151.828V38.0412C151.844 37.9769 151.844 37.9075 151.828 37.8432L151.75 37.7244Z" fill="#666666"/>
<path d="M172.381 17.5098C172.381 17.5098 172.381 17.5098 172.242 17.5098H161.864V39.9652C161.852 40.0303 161.852 40.0981 161.864 40.1632C161.888 40.2184 161.927 40.2607 161.973 40.282C162.018 40.3017 162.067 40.3017 162.113 40.282H164.253V30.8959H171.125V28.5395C171.152 28.457 171.152 28.3645 171.125 28.282C171.068 28.2207 170.997 28.1858 170.923 28.183H164.331V20.2622H172.567V17.8266C172.578 17.7952 172.583 17.7616 172.583 17.7276C172.583 17.6936 172.578 17.6599 172.567 17.6286C172.544 17.5937 172.516 17.5652 172.484 17.5447C172.452 17.5243 172.417 17.5124 172.381 17.5098Z" fill="#666666"/>
<path d="M182.355 23.3301C181.496 22.794 180.551 22.5227 179.594 22.5381C178.825 22.5235 178.059 22.6775 177.33 22.9935C176.647 23.2826 176.019 23.7477 175.484 24.3598C174.943 25.0078 174.52 25.7985 174.243 26.6767C173.935 27.734 173.788 28.8561 173.809 29.9836V33.3895C173.79 34.4653 173.938 35.5351 174.243 36.5381C174.513 37.409 174.944 38.1835 175.499 38.7955C176.095 39.43 176.787 39.9017 177.531 40.1816C178.389 40.4939 179.277 40.6473 180.168 40.6371C180.86 40.6393 181.55 40.5664 182.231 40.4192C182.792 40.3098 183.342 40.1308 183.876 39.8846C184.216 39.7462 184.532 39.5242 184.806 39.2311V39.0925C184.813 39.0534 184.813 39.0128 184.806 38.9737V36.8351H184.418C184.009 37.0798 183.589 37.2979 183.162 37.4886C182.734 37.676 182.292 37.8087 181.843 37.8846C181.288 37.9705 180.728 38.0102 180.168 38.0034C179.514 38.0156 178.862 37.9157 178.229 37.7064C177.73 37.5254 177.272 37.1925 176.895 36.7361C176.6 36.3374 176.382 35.8559 176.259 35.3301C176.098 34.7246 176.02 34.0884 176.027 33.4489V32.6965H184.729C184.779 32.7163 184.833 32.7163 184.884 32.6965C184.891 32.6507 184.891 32.6036 184.884 32.5579C184.902 32.5007 184.902 32.4368 184.884 32.3796V30.0034C184.931 28.5612 184.668 27.1301 184.124 25.8648C183.733 24.8239 183.12 23.9452 182.355 23.3301ZM182.805 30.1816V30.4985H176.151V29.944C176.053 28.6215 176.371 27.3038 177.035 26.2806C177.748 25.5527 178.654 25.205 179.563 25.3103C180.01 25.3032 180.454 25.3833 180.882 25.548C181.256 25.6954 181.6 25.9455 181.89 26.2806C182.205 26.7133 182.434 27.2362 182.557 27.8054C182.717 28.5195 182.79 29.2609 182.774 30.0034L182.805 30.1816Z" fill="#666666"/>
<path d="M197.199 31.663C196.508 31.1998 195.765 30.8726 194.997 30.6927L192.437 30.0392C191.975 29.9439 191.523 29.7845 191.088 29.5639C190.823 29.4268 190.597 29.1925 190.436 28.8907C190.311 28.6003 190.252 28.2711 190.266 27.9402C190.258 27.4546 190.391 26.9825 190.638 26.6135C190.944 26.221 191.323 25.9347 191.739 25.7818C192.321 25.549 192.929 25.4419 193.539 25.4649C194.057 25.4562 194.576 25.4959 195.09 25.5837C195.503 25.663 195.907 25.762 196.3 25.8808C196.724 26.0173 197.139 26.1961 197.541 26.4154H197.866V23.9204C197.863 23.8875 197.863 23.8542 197.866 23.8214V23.7224C197.669 23.5425 197.449 23.4085 197.215 23.3263C196.738 23.1306 196.251 22.9784 195.757 22.8709C195.091 22.7211 194.416 22.6482 193.74 22.6531C192.913 22.6413 192.088 22.7746 191.29 23.0491C190.635 23.2685 190.019 23.6448 189.475 24.158C189.014 24.5992 188.637 25.1679 188.373 25.8214C188.134 26.4371 188.006 27.1141 188.001 27.8016C187.988 28.4918 188.116 29.1744 188.373 29.7818C188.661 30.3833 189.075 30.8703 189.568 31.1877C190.219 31.6277 190.92 31.9351 191.646 32.0986L194.175 32.7521C194.677 32.8704 195.166 33.0632 195.633 33.3263C195.923 33.465 196.168 33.7227 196.331 34.059C196.45 34.3875 196.508 34.7466 196.501 35.1085C196.504 35.4817 196.433 35.8498 196.295 36.1786C196.157 36.5075 195.956 36.7864 195.71 36.9897C194.896 37.561 193.969 37.8156 193.042 37.7224C192.524 37.7238 192.007 37.6907 191.491 37.6234C191.068 37.5502 190.648 37.4444 190.235 37.3065C189.843 37.1709 189.459 36.9988 189.087 36.7917C188.705 36.5939 188.336 36.3554 187.986 36.0788H187.613V38.7917L187.691 38.8907C187.881 39.1234 188.101 39.3111 188.342 39.4451C188.707 39.6771 189.092 39.8501 189.49 39.96C190 40.133 190.518 40.2652 191.041 40.356C191.663 40.4712 192.29 40.5241 192.918 40.5144C193.972 40.5395 195.022 40.3318 196.021 39.9006C196.815 39.5711 197.512 38.943 198.022 38.0986C198.486 37.2755 198.725 36.2807 198.704 35.2669C198.719 34.5154 198.597 33.7697 198.347 33.0887C198.069 32.4934 197.673 32.0018 197.199 31.663Z" fill="#666666"/>
<path d="M211.19 22.9516H206.18V17.8229C206.19 17.7916 206.196 17.7579 206.196 17.7239C206.196 17.6899 206.19 17.6563 206.18 17.6249L206.103 17.5061C206.052 17.4849 205.998 17.4849 205.947 17.5061H203.869V22.9912H200.565V25.3081C200.556 25.367 200.556 25.4274 200.565 25.4863H200.658H203.76V33.6447C203.732 34.7161 203.864 35.7845 204.148 36.7932C204.373 37.5597 204.747 38.2409 205.234 38.7734C205.71 39.2757 206.266 39.6405 206.863 39.8427C207.53 40.0743 208.219 40.1876 208.91 40.1794H211.128C211.237 40.1794 211.314 40.1794 211.345 40.0606C211.368 39.9704 211.368 39.8735 211.345 39.7833V37.6447H209.003C208.548 37.6592 208.094 37.5926 207.654 37.4467C207.321 37.3486 207.015 37.1364 206.77 36.8328C206.505 36.4779 206.318 36.0411 206.227 35.5655C206.098 34.9188 206.04 34.2523 206.056 33.5853V25.6645H211.345V23.3279C211.35 23.2802 211.345 23.2318 211.331 23.187C211.318 23.1421 211.296 23.1022 211.268 23.0705C211.251 23.0223 211.224 22.9811 211.19 22.9516Z" fill="#666666"/>
<path d="M218.591 18.5968H221.538V15.4087C221.562 15.3188 221.562 15.2214 221.538 15.1315C221.473 15.0994 221.401 15.0994 221.336 15.1315H218.389V18.2404C218.362 18.3228 218.362 18.4154 218.389 18.4978C218.414 18.5339 218.445 18.5618 218.48 18.579C218.516 18.5962 218.553 18.6024 218.591 18.5968Z" fill="#666666"/>
<path d="M225.524 37.7246H225.369H221.134V23.3286C221.145 23.2632 221.145 23.1959 221.134 23.1305L221.041 23.0117H220.886H214.278V25.3087C214.26 25.3659 214.26 25.4298 214.278 25.487C214.278 25.487 214.278 25.487 214.371 25.6256C214.417 25.6426 214.465 25.6426 214.511 25.6256H218.792V37.7048H213.875V39.9622C213.865 39.9936 213.859 40.0272 213.859 40.0612C213.859 40.0952 213.865 40.1289 213.875 40.1602C213.882 40.1883 213.894 40.2138 213.91 40.2345C213.926 40.2552 213.946 40.2705 213.968 40.279C214.014 40.2961 214.062 40.2961 214.108 40.279H225.664V38.0414C225.679 37.9769 225.679 37.9079 225.664 37.8434L225.524 37.7246Z" fill="#666666"/>
<path d="M237.966 22.9512H235.81C235.577 23.8819 235.329 24.8324 235.097 25.7829C234.864 26.7333 234.585 27.7631 234.336 28.6739C234.088 29.5848 233.825 30.6541 233.561 31.664C233.297 32.6739 233.064 33.6442 232.816 34.8126C232.568 35.9809 232.304 37.0106 232.025 38.1789H231.653C231.219 36.1987 230.8 34.3967 230.381 32.7135C229.962 31.0304 229.543 29.4264 229.14 27.8819L227.915 23.3274C227.915 23.3274 227.915 23.169 227.915 23.1096L227.822 22.9908H225.324C225.634 24.1195 225.945 25.2482 226.239 26.3769C226.534 27.5056 226.86 28.6145 227.155 29.7234L228.039 33.0304C228.333 34.1393 228.613 35.2086 228.907 36.2581C229.202 37.3076 229.481 38.2383 229.776 39.2878C229.835 39.5376 229.919 39.777 230.024 40.0007C230.077 40.1339 230.165 40.2391 230.272 40.2977C230.38 40.3298 230.491 40.3298 230.598 40.2977H233.545L234.709 36.0601C235.097 34.6541 235.484 33.2482 235.857 31.8225L237.02 27.6046C237.392 26.1987 237.78 24.7928 238.152 23.4066C238.173 23.3161 238.173 23.2199 238.152 23.1294C238.13 23.0688 238.099 23.0148 238.059 22.971C238.029 22.9584 237.998 22.9517 237.966 22.9512Z" fill="#666666"/>
<path d="M251.802 37.6816H251.693C251.549 37.7054 251.403 37.7054 251.259 37.6816C251.141 37.6386 251.034 37.5566 250.948 37.444C250.848 37.3199 250.778 37.1618 250.747 36.9885C250.728 36.7515 250.728 36.5127 250.747 36.2756V28.8697C250.763 27.8912 250.658 26.9156 250.437 25.9786C250.25 25.2174 249.907 24.5337 249.444 23.9984C248.952 23.4658 248.367 23.0922 247.738 22.9093C246.931 22.653 246.102 22.5331 245.271 22.5529C244.601 22.5532 243.931 22.626 243.27 22.7707C242.745 22.883 242.227 23.0418 241.719 23.2459C241.433 23.3256 241.164 23.4807 240.928 23.7014C240.919 23.7536 240.919 23.8076 240.928 23.8598V26.2162H241.316C241.747 26.0051 242.187 25.8265 242.634 25.6816C243.079 25.5438 243.53 25.438 243.984 25.3648C244.459 25.3337 244.935 25.3337 245.411 25.3648C246.046 25.3336 246.681 25.4407 247.288 25.6816C247.709 25.853 248.061 26.2303 248.265 26.7311C248.481 27.3533 248.582 28.031 248.56 28.7113V30.2162H243.906C243.338 30.2027 242.772 30.3098 242.231 30.5331C241.772 30.7361 241.346 31.0448 240.974 31.444C240.621 31.8474 240.346 32.3486 240.168 32.9093C239.972 33.5388 239.877 34.2122 239.889 34.8895V35.939C239.867 36.7987 240.033 37.6492 240.37 38.3945C240.691 39.0818 241.159 39.6381 241.719 39.9984C242.367 40.3963 243.079 40.593 243.798 40.5727C244.434 40.581 245.068 40.4607 245.674 40.2162C246.209 39.9904 246.704 39.634 247.133 39.1667C247.566 38.685 247.928 38.1083 248.203 37.4638H248.529C248.569 37.7181 248.621 37.9693 248.684 38.2162C248.816 38.6356 249.017 39.0138 249.273 39.3251C249.532 39.6336 249.838 39.8696 250.173 40.0182C250.526 40.1786 250.899 40.259 251.274 40.2558H252.174C252.24 40.2785 252.309 40.2785 252.375 40.2558C252.431 40.1735 252.458 40.0669 252.453 39.9588V37.6816H251.926H251.802ZM247.288 36.6519C246.821 37.0977 246.296 37.4331 245.737 37.642C245.197 37.843 244.638 37.9431 244.077 37.939C243.801 37.9791 243.522 37.949 243.256 37.8505C242.99 37.7519 242.742 37.5868 242.526 37.3648C242.348 37.1505 242.209 36.8882 242.121 36.597C242.032 36.3058 241.996 35.9931 242.014 35.6816V34.7113C242.012 34.3941 242.054 34.0791 242.138 33.7806C242.204 33.5225 242.322 33.2907 242.479 33.1073C242.652 32.8669 242.871 32.6892 243.115 32.5925C243.408 32.488 243.711 32.4412 244.015 32.4539H248.265V35.3648C247.962 35.8213 247.636 36.2514 247.288 36.6519Z" fill="#666666"/>
<path d="M266.117 37.8382L266.04 37.7194H265.885H261.464V16.1749C261.48 16.1103 261.48 16.0413 261.464 15.9768C261.434 15.9647 261.401 15.9647 261.371 15.9768C261.346 15.9638 261.32 15.957 261.293 15.957C261.267 15.957 261.24 15.9638 261.216 15.9768H254.639V18.1154C254.632 18.1745 254.632 18.2346 254.639 18.2937C254.639 18.2937 254.639 18.2937 254.747 18.4125H254.887H259.137V37.6204H254.251V39.957C254.239 40.0222 254.239 40.0899 254.251 40.1551C254.275 40.2103 254.313 40.2525 254.36 40.2739C254.404 40.297 254.455 40.297 254.499 40.2739H266.117V38.0362C266.133 37.9717 266.133 37.9027 266.117 37.8382Z" fill="#666666"/>
</svg>
