<svg width="241" height="38" viewBox="0 0 241 38" fill="none" xmlns="http://www.w3.org/2000/svg">
<path d="M9.60974 4.48377C9.60974 7.1918 7.54738 8.96755 4.82681 8.96755C2.10624 8.96755 0 7.1918 0 4.48377C0 1.77575 2.06236 0 4.78293 0C7.5035 0 9.60974 1.77575 9.60974 4.48377ZM0.965362 37.3796V12.2083H8.64438V37.3796H0.965362Z" fill="#9A9999"/>
<path d="M29.6195 37.3783V19.6208H21.765V37.3783H14.0859V12.207H37.3424V37.3783H29.6195Z" fill="#9A9999"/>
<path d="M45.1978 19.5332H40.9414V12.2083H45.1978V2.13086H60.3803V9.45584H52.8768V12.2083H60.3803V19.5332H52.8768V37.3795H45.1978V19.5332Z" fill="#9A9999"/>
<path d="M89.1663 24.8158C89.1663 32.4072 83.418 38.0008 76.1339 38.0008C68.8499 38.0008 63.1016 32.3628 63.1016 24.8158C63.1016 17.2245 68.9376 11.6309 76.1339 11.6309C83.3303 11.6309 89.1663 17.2245 89.1663 24.8158ZM70.8683 24.8158C70.8683 28.3229 73.194 30.587 76.1339 30.587C79.1178 30.587 81.3996 28.3229 81.3996 24.8158C81.3996 21.3531 79.1178 19.0446 76.1339 19.0446C73.1501 19.0446 70.8683 21.3087 70.8683 24.8158Z" fill="#9A9999"/>
<path d="M159.855 12.2083V37.3795H152.176V19.622H144.146V37.3795H136.467V2.13086H144.146V12.2083H159.855Z" fill="#9A9999"/>
<path d="M182.628 15.0492V12.208H190.307V37.3793H182.628V34.6712C181.048 36.6246 178.723 38.0008 175.563 38.0008C169.245 38.0008 164.33 32.5847 164.33 24.8158C164.33 17.0025 169.289 11.6309 175.52 11.6309C178.723 11.6309 181.005 13.0071 182.628 15.0492ZM172.141 24.8158C172.141 28.3229 174.466 30.587 177.406 30.587C180.39 30.587 182.672 28.3229 182.672 24.8158C182.672 21.3531 180.39 19.0446 177.406 19.0446C174.379 19.0446 172.141 21.3087 172.141 24.8158Z" fill="#9A9999"/>
<path d="M203.429 19.6652V37.4227H195.75V12.207H211.898V19.6208H203.429V19.6652Z" fill="#9A9999"/>
<path d="M227.431 11.6309C233.794 11.6309 239.366 15.8927 240.2 22.7737C240.376 24.2831 240.288 25.4373 240.156 26.3252H222.429C222.692 29.5216 224.798 31.4305 227.738 31.4305C229.888 31.4305 231.863 30.365 232.302 28.1897H240.2C239.235 34.4493 233.706 38.0008 227.65 38.0008C220.015 38.0008 214.574 32.274 214.574 24.8158C214.618 17.3577 220.059 11.6309 227.431 11.6309ZM222.999 21.1755H232.126C231.512 18.8227 229.406 17.9792 227.607 17.9792C225.413 17.9792 223.789 19.1334 222.999 21.1755Z" fill="#9A9999"/>
<path d="M101.363 18.3778V21.219H130.982V37.3783H93.6836V31.2076H123.303V27.878H93.6836V12.207H130.982V18.3778H101.363Z" fill="#9A9999"/>
</svg>
