<svg width="162" height="32" viewBox="0 0 162 32" fill="none" xmlns="http://www.w3.org/2000/svg">
<path d="M34.5318 5.49383C29.0774 5.10205 23.0019 5.10206 17.5474 5.49383C16.4056 5.57585 15.5405 6.45013 15.4547 7.51878C15.1793 10.9459 15.1427 16.0804 15.3952 19.5041C15.4786 20.635 16.4714 21.6057 17.8146 21.6057H22.0254V26.8L17.8232 26.797C13.9683 26.797 10.5081 23.9397 10.2093 19.8865C9.93714 16.1965 9.97472 10.7949 10.2714 7.10238C10.5686 3.4018 13.5444 0.567976 17.1749 0.307202C22.8774 -0.1024 29.2019 -0.102401 34.9044 0.307201C38.5349 0.567973 41.5107 3.4018 41.808 7.10238C42.1046 10.7949 42.0916 16.1965 41.8195 19.8865C41.5206 23.9397 38.0685 26.8086 34.2135 26.8086L30.0548 26.8057L22.0254 32V26.8L30.0548 21.6057H34.2142C35.5573 21.6057 36.5502 20.635 36.6336 19.5041C36.8861 16.0804 36.8999 10.9459 36.6246 7.51878C36.5388 6.45013 35.6737 5.57585 34.5318 5.49383Z" fill="#1C1B1F"/>
<path d="M44.0273 25.52H56.5937V22.3648H47.8353V6.48001H44.0273V25.52Z" fill="#1C1B1F"/>
<path d="M58.893 25.996H62.5922V11.852H58.893V25.996ZM58.5938 8.1528C58.5938 9.3768 59.4914 10.3016 60.7426 10.3016C61.9938 10.3016 62.8914 9.3768 62.8914 8.1528C62.8914 6.9288 61.9938 6.004 60.7426 6.004C59.4914 6.004 58.5938 6.9288 58.5938 8.1528Z" fill="#1C1B1F"/>
<path d="M78.3818 8.92801H74.6826L71.6362 19.2912L68.5898 8.92801H64.8906L69.705 23.072H73.5674L78.3818 8.92801Z" fill="#1C1B1F"/>
<path d="M86.9652 23.3984C90.0932 23.3984 92.6228 21.5216 93.1124 18.9376H89.8756C89.522 19.9168 88.5428 20.7328 86.9652 20.7328C84.8164 20.7328 83.9732 19.2912 83.9732 17.632V17.2784H93.2212V14.8032C93.2212 11.4032 91.0996 8.60159 86.9108 8.60159C82.6676 8.60159 80.3828 11.3216 80.3828 15.1568V17.088C80.3828 21.0592 82.9668 23.3984 86.9652 23.3984ZM83.9732 14.5312C83.9732 12.6272 84.7892 11.2128 86.9108 11.2128C88.8964 11.2128 89.8212 12.5456 89.8212 14.3136V14.6672H83.9732V14.5312Z" fill="#1C1B1F"/>
<path d="M103.544 25.9008C108.358 25.9008 111.323 22.6368 111.513 18.7472H107.977C107.733 20.896 106.373 22.7728 103.544 22.7728C100.362 22.7728 99.0015 20.5968 99.0015 17.5504V14.4496C99.0015 11.4032 100.362 9.22721 103.544 9.22721C106.373 9.22721 107.733 11.104 107.977 13.2528H111.513C111.323 9.36321 108.358 6.09921 103.544 6.09921C97.8047 6.09921 95.2207 9.77121 95.2207 14.64V17.36C95.2207 22.2288 97.8047 25.9008 103.544 25.9008Z" fill="#1C1B1F"/>
<path d="M113.514 25.928H117.213V17.5504C117.213 15.6464 118.273 14.6672 119.933 14.6672C121.728 14.6672 122.516 15.8368 122.516 17.4688V25.928H126.216V16.8704C126.216 13.5248 124.285 11.4576 121.211 11.4576C119.389 11.4576 117.947 12.2464 117.213 13.4704V6.07199H113.514V25.928Z" fill="#1C1B1F"/>
<path d="M133.574 23.3984C135.206 23.3984 137.001 22.7184 137.654 21.7664V23.072H141.216V14.0416C141.216 10.7504 138.796 8.60159 135.26 8.60159C132.214 8.60159 130.01 10.0704 129.194 12.8176H132.621C133.002 12.056 133.791 11.4848 135.069 11.4848C136.592 11.4848 137.517 12.464 137.517 13.7696V15.7008C136.864 15.1568 135.613 14.504 133.927 14.504C130.527 14.504 128.215 15.9184 128.215 18.992C128.215 21.7392 130.391 23.3984 133.574 23.3984ZM134.525 20.9504C132.975 20.9504 131.805 20.1888 131.805 18.8832C131.805 17.5776 132.893 16.8704 134.634 16.8704C136.294 16.8704 137.517 17.6048 137.517 18.856C137.517 20.0528 136.157 20.9504 134.525 20.9504Z" fill="#1C1B1F"/>
<path d="M149.229 25.0032H151.785V22.0112H150.289C149.31 22.0112 148.957 21.6304 148.957 20.7056V13.8512H151.975V10.8592H148.957V6.9968H145.23V10.8592H143.217V13.8512H145.23V20.9776C145.23 23.48 146.509 25.0032 149.229 25.0032Z" fill="#1C1B1F"/>
</svg>
