<svg width="24" height="24" viewBox="0 0 24 24" fill="none" xmlns="http://www.w3.org/2000/svg">
<path d="M0.856655 4.40816H23.1424C23.6158 4.40816 23.9995 3.96961 23.9995 3.42857V0.979592C23.9995 0.438551 23.6158 0 23.1424 0H0.856655C0.383244 0 -0.000488281 0.438551 -0.000488281 0.979592V3.42857C-0.000488281 3.96961 0.383244 4.40816 0.856655 4.40816ZM0.856655 14.2041H23.1424C23.6158 14.2041 23.9995 13.7655 23.9995 13.2245V10.7755C23.9995 10.2345 23.6158 9.79592 23.1424 9.79592H0.856655C0.383244 9.79592 -0.000488281 10.2345 -0.000488281 10.7755V13.2245C-0.000488281 13.7655 0.383244 14.2041 0.856655 14.2041ZM0.856655 24H23.1424C23.6158 24 23.9995 23.5614 23.9995 23.0204V20.5714C23.9995 20.0304 23.6158 19.5918 23.1424 19.5918H0.856655C0.383244 19.5918 -0.000488281 20.0304 -0.000488281 20.5714V23.0204C-0.000488281 23.5614 0.383244 24 0.856655 24Z" fill="black"/>
</svg>
