<svg width="219" height="24" viewBox="0 0 219 24" fill="none" xmlns="http://www.w3.org/2000/svg">
<path d="M1.6798 18.1096H3.91953C4.84342 18.1096 5.59932 18.8549 5.59932 19.7659V21.9744C5.59932 22.8854 4.84342 23.6308 3.91953 23.6308H1.6798C0.755909 23.6308 0 22.8854 0 21.9744V19.7659C0 18.8549 0.755909 18.1096 1.6798 18.1096Z" fill="#1A90FF"/>
<path d="M214.412 6.5H218.472L213.055 23.5743H207.763L204.208 9.88174L200.722 23.5743H195.417L189.93 6.5H194.017L198.216 20.6481L202.038 6.5H206.419L210.171 20.6481L214.412 6.5Z" fill="#1A90FF"/>
<path d="M173.103 6.5H184.47C186.219 6.5 187.101 7.42482 187.101 9.2744V15.8584H174.768V20.3996C174.768 20.869 174.825 21.1726 174.951 21.2969C175.077 21.4211 175.356 21.4901 175.805 21.4901H181.824C182.244 21.4901 182.524 21.4211 182.649 21.2969C182.79 21.1726 182.845 20.869 182.845 20.3996V18.4672H187.031V20.7861C187.031 22.6357 186.149 23.5605 184.399 23.5605H173.089C171.339 23.5605 170.457 22.6357 170.457 20.7861V9.2744C170.485 7.42482 171.353 6.5 173.103 6.5ZM174.768 13.788H182.915V9.6747C182.915 9.23298 182.845 8.92933 182.719 8.79131C182.594 8.65328 182.314 8.58427 181.893 8.58427H175.805C175.356 8.58427 175.077 8.65328 174.951 8.79131C174.825 8.92933 174.768 9.21921 174.768 9.6747V13.788Z" fill="#1A90FF"/>
<path d="M164.929 6.45898H167.826V8.75029H164.173C162.647 8.75029 161.877 9.63369 161.877 11.3867V23.5609H157.594V6.5004H161.877V8.61226C162.297 7.17671 163.319 6.47276 164.929 6.45898Z" fill="#1A90FF"/>
<path d="M153.058 9.24769H148.565V4.84455C148.565 4.37525 148.509 4.07158 148.383 3.94735C148.257 3.82313 147.977 3.75411 147.529 3.75411H141.006C140.558 3.75411 140.278 3.82313 140.166 3.94735C140.054 4.07158 139.984 4.37525 139.984 4.84455V20.4006C139.984 20.8699 140.04 21.1735 140.166 21.2978C140.292 21.422 140.572 21.491 141.006 21.491H147.529C147.977 21.491 148.257 21.422 148.383 21.2978C148.509 21.1735 148.565 20.8699 148.565 20.4006V16.0112H153.058V20.8009C153.058 22.6505 152.176 23.5753 150.427 23.5753H138.122C136.372 23.5753 135.49 22.6505 135.49 20.8009V4.45806C135.49 2.60846 136.372 1.68365 138.122 1.68365H150.427C152.176 1.68365 153.058 2.60846 153.058 4.45806V9.24769Z" fill="#1A90FF"/>
<path d="M125.635 20.4157V17.1719C125.635 16.7302 125.565 16.4266 125.425 16.2885C125.285 16.1505 124.991 16.0815 124.557 16.0815H116.732C114.899 16.0815 113.988 15.1567 113.988 13.2933V9.26278C113.988 7.4132 114.899 6.48838 116.732 6.47461H127.203C129.036 6.47461 129.947 7.39937 129.947 9.26278V11.4161H125.565V9.62167C125.565 9.1524 125.495 8.8487 125.355 8.7245C125.215 8.60024 124.921 8.53123 124.487 8.53123H119.546C119.098 8.53123 118.818 8.60024 118.678 8.7245C118.538 8.8487 118.468 9.1524 118.468 9.62167V12.9344C118.468 13.4037 118.538 13.7074 118.678 13.8316C118.818 13.9558 119.112 14.0248 119.546 14.0248H127.343C129.177 14.0248 130.086 14.9497 130.086 16.7992V20.7745C130.086 22.6241 129.177 23.5489 127.343 23.5489H116.844C115.01 23.5489 114.1 22.6241 114.1 20.7745V18.6213H118.482V20.4157C118.482 20.8573 118.552 21.161 118.692 21.2991C118.832 21.4371 119.126 21.5061 119.56 21.5061H124.571C125.005 21.5061 125.299 21.4371 125.439 21.2991C125.579 21.161 125.635 20.8573 125.635 20.4157Z" fill="#292929"/>
<path d="M108.347 6.44531H111.371V8.73662H107.549C105.953 8.73662 105.156 9.61997 105.156 11.373V23.5472H100.676V6.47291H105.156V8.58477C105.589 7.16304 106.653 6.44531 108.347 6.44531Z" fill="#292929"/>
<path d="M81.0503 6.47461H92.9487C94.7825 6.47461 95.6928 7.39937 95.6928 9.26278V15.8469H82.7861V20.3881C82.7861 20.8573 82.8561 21.161 82.982 21.2852C83.108 21.4095 83.4019 21.4785 83.8639 21.4785H90.1635C90.6112 21.4785 90.891 21.4095 91.0311 21.2852C91.1712 21.161 91.2413 20.8573 91.2413 20.3881V18.4556H95.6227V20.7745C95.6227 22.6241 94.713 23.5489 92.8791 23.5489H81.0503C79.2164 23.5489 78.3066 22.6241 78.3066 20.7745V9.26278C78.3066 7.39937 79.2164 6.47461 81.0503 6.47461ZM82.7861 13.7626H91.3114V9.64926C91.3114 9.20759 91.2413 8.90394 91.1012 8.76591C90.9611 8.62784 90.6671 8.55883 90.2335 8.55883H83.8639C83.4019 8.55883 83.108 8.62784 82.982 8.76591C82.8561 8.90394 82.7861 9.19377 82.7861 9.64926V13.7626Z" fill="#292929"/>
<path d="M68.5227 0H73.0163V23.548H68.5227V22.4576C68.2429 23.1891 67.5987 23.548 66.5772 23.548H58.7241C56.8903 23.548 55.9805 22.6232 55.9805 20.7735V9.26183C55.9805 7.41225 56.8903 6.48743 58.7241 6.47361H66.5772C67.5987 6.47361 68.2429 6.8325 68.5227 7.56405V0ZM61.5377 21.4775H67.3047C67.753 21.4775 68.0607 21.3947 68.2429 21.2153C68.4247 21.0358 68.5227 20.746 68.5227 20.3181V9.71733C68.5227 9.28942 68.4247 8.9996 68.2429 8.82016C68.0607 8.64071 67.7388 8.55788 67.3047 8.55788H61.5377C61.0757 8.55788 60.7818 8.62689 60.6559 8.76492C60.5295 8.90294 60.4599 9.19282 60.4599 9.64831V20.3871C60.4599 20.8564 60.5295 21.16 60.6559 21.2843C60.7818 21.4085 61.0757 21.4775 61.5377 21.4775Z" fill="#292929"/>
<path d="M36.564 6.47461H48.2105C50.0444 6.47461 50.9541 7.39937 50.9541 9.26278V20.7745C50.9541 22.6241 50.0444 23.5489 48.2105 23.5489H36.564C34.7302 23.5489 33.8203 22.6241 33.8203 20.7745V9.26278C33.8203 7.39937 34.7302 6.47461 36.564 6.47461ZM46.5168 20.3742V9.64926C46.5168 9.20759 46.4468 8.90394 46.3208 8.76591C46.1948 8.62784 45.9008 8.55883 45.4389 8.55883H39.3496C38.9157 8.55883 38.6217 8.62784 38.4818 8.76591C38.3417 8.90394 38.2718 9.19377 38.2718 9.64926V20.3881C38.2718 20.8573 38.3417 21.161 38.4818 21.2852C38.6217 21.4095 38.9157 21.4785 39.3496 21.4785H45.4389C45.9008 21.4785 46.1948 21.4095 46.3208 21.2852C46.4468 21.1472 46.5168 20.8573 46.5168 20.3742Z" fill="#292929"/>
<path d="M29.3677 9.22032H24.6783V4.81714C24.6783 4.34784 24.6083 4.04417 24.4823 3.91995C24.3563 3.79572 24.0624 3.7267 23.6004 3.7267H16.7832C16.3213 3.7267 16.0273 3.79572 15.9014 3.91995C15.7754 4.04417 15.7054 4.34784 15.7054 4.81714V20.3732C15.7054 20.8425 15.7614 21.1461 15.9014 21.2704C16.0413 21.3946 16.3213 21.4636 16.7832 21.4636H23.6004C24.0624 21.4636 24.3563 21.3946 24.4823 21.2704C24.6083 21.1461 24.6783 20.8425 24.6783 20.3732V15.97H29.3677V20.7596C29.3677 22.6093 28.4579 23.534 26.6241 23.534H13.7456C11.9119 23.534 11.002 22.6093 11.002 20.7596V4.43066C11.002 2.58106 11.9119 1.65625 13.7456 1.65625H26.6101C28.4439 1.65625 29.3538 2.58106 29.3538 4.43066V9.22032H29.3677Z" fill="#292929"/>
</svg>
