<svg width="39" height="39" viewBox="0 0 39 39" fill="none" xmlns="http://www.w3.org/2000/svg">
<g clip-path="url(#clip0_905_1556)">
<path d="M3.09063 4.78129L4.7811 3.09082L35.1591 33.4689L33.4687 35.1593L3.09063 4.78129ZM2.89266 15.8962C1.00033 17.6219 0 19.9782 0 22.711C0 25.4004 1.07429 27.8568 3.02489 29.6281C4.90377 31.3344 7.43783 32.2735 10.1602 32.2735H27.2023L8.25587 13.327C6.16333 13.7297 4.28968 14.6217 2.89266 15.8962ZM35.6046 30.423C37.3356 29.0446 38.25 26.9984 38.25 24.5039C38.25 19.8833 34.6312 17.3814 30.9474 16.836C30.4603 13.7596 29.1507 11.1284 27.1291 9.18154C24.9792 7.1132 22.1083 5.96362 19.125 5.9766C16.8487 5.9766 14.7248 6.62058 12.9191 7.84428L35.5419 30.47C35.5605 30.4544 35.5845 30.4394 35.6046 30.423Z" fill="#F0656F" fill-opacity="0.82"/>
</g>
<defs>
<clipPath id="clip0_905_1556">
<rect width="38.25" height="38.25" fill="white"/>
</clipPath>
</defs>
</svg>
