<svg width="20" height="12" viewBox="0 0 20 12" fill="none" xmlns="http://www.w3.org/2000/svg">
<path d="M3.16774 12C3.00105 12 2.82898 12 2.63003 11.9731C2.38962 11.9538 2.15991 11.8654 1.96848 11.7187C1.77705 11.572 1.63204 11.3731 1.55084 11.146C1.46965 10.9189 1.45574 10.6732 1.51077 10.4384C1.56581 10.2036 1.68745 9.98963 1.86109 9.82224C2.17427 9.54326 2.42055 9.19727 2.5816 8.81C2.74265 8.42273 2.81434 8.00413 2.79134 7.58534C1.94378 7.14242 1.28177 6.412 0.924059 5.52511C0.566347 4.63822 0.536342 3.65289 0.839427 2.74588C1.03242 2.17702 1.35877 1.66262 1.79119 1.24565C2.32627 0.688629 3.00934 0.296045 3.75999 0.114096C4.51065 -0.0678517 5.29766 -0.031592 6.0284 0.218609C6.82004 0.484971 7.5227 0.964883 8.05882 1.60537C8.59493 2.24587 8.94366 3.02203 9.0665 3.8482C9.33121 5.33327 9.09873 6.86417 8.40511 8.20371V8.24673C6.74894 10.8493 5.16805 12 3.16774 12Z" fill="#1A90FF"/>
<path d="M13.8591 12C13.6925 12 13.5204 12 13.3214 11.9731C13.081 11.9538 12.8513 11.8654 12.6599 11.7187C12.4685 11.572 12.3234 11.3731 12.2423 11.146C12.1611 10.9189 12.1471 10.6732 12.2022 10.4384C12.2572 10.2036 12.3789 9.98963 12.5525 9.82224C12.8657 9.54326 13.112 9.19727 13.273 8.81C13.4341 8.42273 13.5057 8.00413 13.4827 7.58534C12.6352 7.14242 11.9732 6.412 11.6155 5.52511C11.2578 4.63822 11.2277 3.65289 11.5308 2.74588C11.7238 2.17702 12.0502 1.66262 12.4826 1.24565C13.0177 0.688629 13.7007 0.296045 14.4514 0.114096C15.2021 -0.0678517 15.9891 -0.031592 16.7198 0.218609C17.5115 0.484971 18.2141 0.964883 18.7502 1.60537C19.2863 2.24587 19.6351 3.02203 19.7579 3.8482C20.0226 5.33327 19.7901 6.86417 19.0965 8.20371V8.24673C17.4403 10.8493 15.8595 12 13.8591 12Z" fill="#1A90FF"/>
</svg>
