<svg width="20" height="20" viewBox="0 0 20 20" fill="none" xmlns="http://www.w3.org/2000/svg">
<path d="M19.58 14.85L14.03 9.3L15.6 7.73L11.85 3.98L10.28 5.55L4.73 0L0 4.73L5.55 10.28L0.79 15.04V18.79H4.54L9.3 14.03L14.85 19.58L19.58 14.85ZM6.97 8.86L2.83 4.73L4.73 2.83L6 4.1L4.81 5.29L6.22 6.7L7.41 5.51L8.86 6.96L6.97 8.86ZM10.72 12.61L12.62 10.71L14.07 12.16L12.88 13.35L14.29 14.76L15.48 13.57L16.75 14.84L14.85 16.74L10.72 12.61Z" fill="#FA8A43"/>
<path d="M15.4615 0.374475L12.923 2.91296L16.6706 6.66059L19.2091 4.1221L15.4615 0.374475Z" fill="#FA8A43"/>
</svg>
