<svg width="39" height="39" viewBox="0 0 39 39" fill="none" xmlns="http://www.w3.org/2000/svg">
<g clip-path="url(#clip0_905_1552)">
<path d="M7.45243e-08 22.3125C-0.000282816 20.0455 0.804823 17.8522 2.27169 16.1238C3.73855 14.3954 5.77176 13.2443 8.00859 12.8759C9.25856 10.6492 11.1484 8.8491 13.4332 7.70881C15.718 6.56853 18.2926 6.14059 20.8235 6.48043C23.3543 6.82027 25.7248 7.91223 27.6279 9.61487C29.531 11.3175 30.879 13.5524 31.4973 16.0299C33.4829 16.335 35.28 17.3788 36.5288 18.9523C37.7777 20.5259 38.3862 22.513 38.2324 24.516C38.0787 26.519 37.1741 28.3901 35.6998 29.7546C34.2255 31.1191 32.2901 31.8765 30.2812 31.875H9.5625C7.02637 31.875 4.59411 30.8675 2.80079 29.0742C1.00747 27.2809 7.45243e-08 24.8486 7.45243e-08 22.3125Z" fill="#1A90FF" fill-opacity="0.82"/>
</g>
<defs>
<clipPath id="clip0_905_1552">
<rect width="38.25" height="38.25" fill="white"/>
</clipPath>
</defs>
</svg>
