<svg width="101" height="36" viewBox="0 0 101 36" fill="none" xmlns="http://www.w3.org/2000/svg">
<path fill-rule="evenodd" clip-rule="evenodd" d="M11.2989 1.14628C4.83 3.10656 0 9.42285 0 16.7197C0 21.1031 1.14171 22.286 2.37086 22.286C5.26629 22.286 5.88343 6.79999 24.8571 6.54028C22.4829 3.52142 19.0569 0.857422 13.5531 0.857422C12.8211 0.857422 12.0891 0.943136 11.2989 1.14628" fill="white"/>
<path fill-rule="evenodd" clip-rule="evenodd" d="M31.7009 10.8171C31.5046 5.91171 27.0569 0 18.3852 0C16.2321 0 13.6298 0.308571 11.1406 1.06457C11.8435 0.878634 12.5675 0.784423 13.2946 0.784286C25.4343 0.784286 27.0012 14.5714 30.0226 14.5714C31.0855 14.5714 31.8123 13.3946 31.7009 10.8171V10.8171ZM24.8935 30.0214C24.8935 27.7526 23.4998 26.4651 21.8361 26.4651C20.0892 26.4651 18.7795 27.9051 18.7795 30.0223C18.7795 32.1823 20.1312 33.5126 21.8566 33.5126C23.7081 33.5126 24.8935 31.9637 24.8935 30.0214ZM16.2835 30C16.2835 26.5311 18.4461 24 21.3578 24C23.1886 24 24.1863 24.9814 24.6646 25.68H24.8523V24.2837H27.3063V33.0326C27.3063 33.3386 27.4726 33.5349 27.8052 33.5349H28.2835V35.7163H26.4321C25.4549 35.7163 24.9561 35.0186 24.8721 34.2763H24.6852C24.2695 34.9749 23.3129 36 21.4203 36C18.4881 36 16.2835 33.4689 16.2835 30ZM29.9978 30C29.9978 26.6623 32.3403 24 35.7166 24C38.3129 24 40.4866 25.5051 41.1192 28.2771L38.7561 28.8651C38.4603 27.3823 37.2783 26.4437 35.7801 26.4437C33.8601 26.4437 32.5512 27.9926 32.5512 30.0009C32.5512 32.0511 33.9021 33.5563 35.8015 33.5563C37.2998 33.5563 38.4818 32.64 38.7766 31.1563L41.1406 31.7451C40.5072 34.5171 38.3335 36 35.7381 36C32.2983 36 29.9978 33.3386 29.9978 30ZM42.8549 30C42.8549 26.6623 45.1975 24 48.5738 24C51.1701 24 53.3438 25.5051 53.9763 28.2771L51.6132 28.8651C51.3175 27.3823 50.1355 26.4437 48.6372 26.4437C46.7172 26.4437 45.4083 27.9926 45.4083 30.0009C45.4083 32.0511 46.7592 33.5563 48.6586 33.5563C50.1569 33.5563 51.3389 32.64 51.6338 31.1563L53.9978 31.7451C53.3652 34.5171 51.1915 36 48.5952 36C45.1555 36 42.8549 33.3386 42.8549 30ZM64.2783 28.7786C64.1498 27.2289 62.8829 26.2474 61.3375 26.2474C59.7269 26.2474 58.5029 27.4037 58.3529 28.7786H64.2783ZM55.7121 30.0214C55.7121 26.4214 58.3092 24 61.3375 24C64.7721 24 66.8549 26.5311 66.8549 29.9349V30.6549H58.3315C58.3529 32.5749 59.5769 33.7963 61.4232 33.7963C62.6686 33.7963 63.8489 33.1414 64.2569 31.8763L66.5755 32.4437C65.8461 34.8214 63.7846 36 61.4446 36C58.0092 36 55.7121 33.5126 55.7121 30.0214ZM67.7121 32.4651L70.2029 31.92C70.4472 33.12 71.2923 33.6874 72.5155 33.6874C73.7832 33.6874 74.45 33.2289 74.45 32.4651C74.45 30.1526 68.1346 32.0949 68.1346 27.4474C68.1346 25.5051 69.7803 24 72.4263 24C74.672 24 76.4292 25.1126 76.8518 27.1629L74.5169 27.7971C74.2941 26.7926 73.538 26.3349 72.4263 26.3349C71.3146 26.3349 70.6478 26.8149 70.6478 27.4911C70.6478 29.6289 77.1406 27.6214 77.1406 32.2251C77.1406 34.4726 75.3175 36 72.4486 36C69.9132 36 68.0232 34.8 67.7121 32.4651ZM80.8161 32.5903V26.88H78.8549V24.6214H80.9669V21.4286H83.3806V24.6206H86.5692V26.8791H83.3806V32.5689C83.3806 33.372 83.7029 33.72 84.4795 33.72H86.4398V36H84.4572C82.2595 36 80.8161 35.0014 80.8161 32.5903ZM97.6795 30C97.6795 27.9711 96.2695 26.4429 94.2732 26.4429C92.276 26.4429 90.8875 27.9711 90.8875 30C90.8875 32.0726 92.2983 33.5571 94.2732 33.5571C96.2695 33.5571 97.6795 32.0511 97.6795 30ZM88.2835 30C88.2835 26.5971 90.8009 24 94.2946 24C97.7883 24 100.283 26.5971 100.283 30C100.283 33.4029 97.766 36 94.2732 36C90.7795 36 88.2835 33.4251 88.2835 30Z" fill="white"/>
</svg>
