<svg width="100" height="36" viewBox="0 0 100 36" fill="none" xmlns="http://www.w3.org/2000/svg">
<path d="M48.0172 7.33434H46.9188V8.5637L48.0172 8.57216C48.4842 8.57216 48.7573 8.33086 48.7573 7.95494C48.7573 7.56802 48.4842 7.33434 48.0172 7.33434ZM48.1269 9.8574H46.9171V11.2544H48.1269C48.6646 11.2544 49.0176 11.08 49.0176 10.5551C49.0176 10.0318 48.6646 9.8574 48.1269 9.8574ZM48.1839 5.94242C49.6523 5.94242 50.5328 6.48005 50.5328 7.63405C50.5328 8.3732 50.1849 8.86088 49.5332 9.09371C50.2521 9.3003 50.8136 9.81592 50.8136 10.7464C50.8136 12.2645 49.3494 12.6421 48.0648 12.6421H45.1484V5.94242H48.1839Z" fill="white"/>
<path fill-rule="evenodd" clip-rule="evenodd" d="M56.6705 5.94241V7.47573L53.6019 7.47573V8.49681H56.3702V10.0157H53.6019V11.1105H56.7258V12.6421H51.8213V5.94241L56.6705 5.94241Z" fill="white"/>
<path fill-rule="evenodd" clip-rule="evenodd" d="M62.8747 5.94241V7.51806H60.9724V12.6421H59.2012V7.51806H57.293V5.94241L62.8747 5.94241Z" fill="white"/>
<path fill-rule="evenodd" clip-rule="evenodd" d="M68.8994 5.94241V7.51806H67.0116V12.6421H65.231V7.51806H63.3296V5.94241L68.8994 5.94241Z" fill="white"/>
<path fill-rule="evenodd" clip-rule="evenodd" d="M74.4684 5.94241V7.47573L71.4014 7.47573V8.49681H74.1706V10.0157H71.4014V11.1105H74.516V12.6421H69.6123V5.94241L74.4684 5.94241Z" fill="white"/>
<path d="M77.4599 9.01919H78.6042C79.1061 9.01919 79.4473 8.7618 79.4473 8.24703C79.4473 7.73141 79.1061 7.47487 78.6042 7.47487H77.4599V9.01919ZM75.6836 12.6404V5.94156H78.5183C79.8803 5.94156 81.2806 6.42839 81.2806 8.20131C81.2806 9.3096 80.7345 9.91412 79.9867 10.213L81.8498 12.6404H79.8395L78.2384 10.4619H77.4599V12.6404H75.6836Z" fill="white"/>
<path fill-rule="evenodd" clip-rule="evenodd" d="M47.4471 16.3229C48.2851 16.3229 49.1061 16.521 49.6991 16.8597V18.4844C49.1325 18.0568 48.3651 17.8494 47.585 17.857C46.9316 17.8655 46.7317 18.0331 46.7317 18.2897C46.7317 19.1601 50.2299 18.8874 50.2299 21.2589C50.2299 22.8439 49.0014 23.3096 47.5314 23.3096C46.5641 23.3096 45.664 23.0937 44.9604 22.6983V21.0193C45.7508 21.5663 46.6313 21.7763 47.3986 21.7763C48.1073 21.7763 48.4 21.6662 48.4 21.3343C48.4 20.3632 44.8975 20.6866 44.8975 18.2973C44.8975 16.9528 46.0647 16.3229 47.4471 16.3229Z" fill="white"/>
<path d="M54.3891 17.9485C53.2321 17.9485 52.6009 18.7452 52.6009 19.8162C52.6009 20.8881 53.2321 21.684 54.3891 21.684C55.5504 21.684 56.1706 20.8881 56.1706 19.8162C56.1706 18.7452 55.5504 17.9485 54.3891 17.9485ZM54.3891 16.3229C56.7942 16.3229 57.9929 17.9485 57.9929 19.8162C57.9929 21.684 56.7942 23.3096 54.3891 23.3096C51.9867 23.3096 50.7871 21.684 50.7871 19.8162C50.7871 17.9485 51.9867 16.3229 54.3891 16.3229Z" fill="white"/>
<path fill-rule="evenodd" clip-rule="evenodd" d="M63.8427 16.4717V18.0482H60.7613V19.2013H63.5628V20.7829H60.7613V23.168H58.9756V16.4717H63.8427Z" fill="white"/>
<path fill-rule="evenodd" clip-rule="evenodd" d="M69.9789 16.4717V18.0482H68.0783V23.168H66.3105V18.0482H64.4082V16.4717H69.9789Z" fill="white"/>
<path fill-rule="evenodd" clip-rule="evenodd" d="M80.6531 16.4717L78.6036 23.168H76.675L75.5359 19.0185L74.3823 23.168H72.4689L70.4033 16.4717H72.3354L73.4694 21.1758L74.7489 16.4717H76.3134L77.5845 21.1758L78.7381 16.4717H80.6531Z" fill="white"/>
<path d="M82.9876 20.6779H84.7223L84.0365 18.745C83.9821 18.579 83.9217 18.4131 83.8596 18.0643C83.8102 18.4131 83.7456 18.579 83.6886 18.745L82.9876 20.6779ZM80.2524 23.168L82.9068 16.4717H84.8243L87.465 23.168H85.6462L85.2557 22.1139H82.4729L82.0875 23.168H80.2524Z" fill="white"/>
<path d="M89.9107 19.5459H91.0473C91.5476 19.5459 91.8955 19.2843 91.8955 18.7704C91.8955 18.2556 91.5476 17.9991 91.0473 17.9991H89.9107V19.5459ZM88.1318 23.168V16.4725H90.9614C92.3286 16.4725 93.7289 16.9526 93.7289 18.728C93.7289 19.8321 93.1801 20.4383 92.4306 20.7363L94.2946 23.168H92.2818L90.6807 20.9853H89.9107V23.168H88.1318Z" fill="white"/>
<path fill-rule="evenodd" clip-rule="evenodd" d="M99.8198 16.4717V17.9982H96.7512V19.0185H99.5271V20.5458H96.7512V21.6321H99.8691V23.168H94.9629V16.4717H99.8198Z" fill="white"/>
<path fill-rule="evenodd" clip-rule="evenodd" d="M71.3805 26.0805C72.0382 26.0805 72.7017 26.2185 73.2479 26.4954V27.0263C72.7494 26.7358 72.1011 26.5843 71.4511 26.5843C70.0466 26.5843 68.5782 27.3835 68.5782 29.3173C68.5782 31.3256 70.0627 32.0639 71.4801 32.0639C71.9803 32.0639 72.4805 31.9547 72.8685 31.7735V29.1429H73.4147V32.1393C72.8353 32.4077 72.1351 32.5618 71.4511 32.5618C69.7326 32.5618 68.0371 31.6651 68.0371 29.3173C68.0371 27.1092 69.7165 26.0805 71.3805 26.0805Z" fill="white"/>
<path d="M75.4687 29.4085H77.3837C78.2183 29.4085 79.1184 29.1011 79.1184 28.047C79.1184 26.9938 78.2183 26.6864 77.3837 26.6864H75.4687V29.4085ZM74.9268 32.4624V26.1725H77.3514C78.4514 26.1725 79.656 26.6449 79.656 28.047C79.656 29.2501 78.7534 29.7649 77.838 29.8733L80.0865 32.4624H79.4195L77.2178 29.9241H75.45V32.4624H74.9268Z" fill="white"/>
<path d="M83.888 26.5842C82.0368 26.5842 81.1401 27.9566 81.1401 29.3172C81.1401 30.6871 82.0368 32.0638 83.888 32.0638C85.7426 32.0638 86.63 30.6871 86.63 29.3172C86.63 27.9566 85.7426 26.5842 83.888 26.5842ZM83.888 26.0804C86.0889 26.0804 87.177 27.7238 87.177 29.3172C87.177 30.9191 86.0889 32.5625 83.888 32.5625C81.6854 32.5625 80.605 30.9191 80.605 29.3172C80.605 27.7238 81.6854 26.0804 83.888 26.0804Z" fill="white"/>
<path fill-rule="evenodd" clip-rule="evenodd" d="M93.5961 26.172V30.214C93.5961 31.9716 92.4127 32.5618 91.0141 32.5618C89.6061 32.5618 88.4219 31.9716 88.4219 30.214V26.172H88.957V30.197C88.957 31.5737 89.8273 32.0631 91.0141 32.0631C92.1949 32.0631 93.0618 31.5737 93.0618 30.197V26.172H93.5961Z" fill="white"/>
<path d="M97.3655 26.6864H95.8018V29.665H97.3655C98.5012 29.665 99.4626 29.3594 99.4626 28.1698C99.4626 26.9853 98.5157 26.6864 97.3655 26.6864ZM97.334 26.1725C98.7726 26.1725 100 26.6246 100 28.1698C100 29.7234 98.7726 30.1756 97.334 30.1756H95.7976V32.4624H95.2642V26.1725H97.334Z" fill="white"/>
<path d="M33.7404 6.38302L27.2756 2.66869L24.2087 0.907624L45.0468 0.911858L33.7404 6.38302ZM45.3199 34.235L23.4226 21.601L33.566 15.7658L45.3199 34.235ZM22.9624 9.5013L32.808 15.1579L22.9624 20.8119V9.5013ZM22.9624 1.24206L33.2666 7.15942V14.3696L22.9624 8.4472V1.24206ZM22.0512 20.8119L12.2064 15.1579L22.0512 9.49876V20.8119ZM2.44499 19.6655L11.4841 2.88375L21.5918 8.7139L2.44499 19.6655ZM47.474 0.353904C47.4238 0.14901 47.2392 0.0016907 47.0248 0.0016907L22.5089 -9.09944e-07C22.5064 -9.09944e-07 22.5055 0.00084316 22.5038 0.00084316C22.2401 0.00084316 22.0512 0.187957 22.0512 0.454657V7.9265L11.5224 1.87452C11.5114 1.87198 11.5071 1.86859 11.4978 1.86774C11.4739 1.8542 11.4484 1.84319 11.4263 1.83727C11.4093 1.83134 11.3982 1.83049 11.3829 1.82541C11.3599 1.82372 11.3421 1.81864 11.3234 1.81864C11.308 1.81695 11.2868 1.81695 11.2732 1.81695C11.251 1.81864 11.2332 1.82372 11.2102 1.82541C11.1983 1.82965 11.1838 1.83049 11.1728 1.83219H11.1719C11.1353 1.84319 11.1073 1.85589 11.0749 1.87198C11.0732 1.87283 11.0715 1.87452 11.0622 1.87452C11.0588 1.88129 11.0494 1.88722 11.0392 1.89399C11.0247 1.90585 11.0077 1.91855 10.9865 1.93548C10.9771 1.9431 10.9669 1.95495 10.9592 1.96681C10.9414 1.9812 10.9269 1.99898 10.9124 2.01761C10.9107 2.03031 10.8997 2.04047 10.898 2.04978C10.8954 2.05317 10.8912 2.05486 10.8878 2.05486L0.88388 20.6384C0.789447 20.8187 0.816671 21.0405 0.968954 21.1777C1.12889 21.3191 1.3654 21.3208 1.51513 21.2463L11.2723 15.6659L46.4718 35.9504C46.6267 36.0393 46.8904 36.0062 47.0248 35.8716C47.1762 35.7251 47.1992 35.4898 47.0886 35.3137L34.1803 15.0241V7.18313L47.2247 0.863597C47.4153 0.77131 47.5191 0.560491 47.474 0.353904Z" fill="white"/>
</svg>
