<svg width="101" height="36" viewBox="0 0 101 36" fill="none" xmlns="http://www.w3.org/2000/svg">
<g clip-path="url(#clip0_1801_2488)">
<path d="M16.757 6.3V0C7.66447 0 0.270508 7.4 0.270508 16.5H6.56537C6.61532 10.85 11.1616 6.3 16.757 6.3Z" fill="white"/>
<path d="M16.7588 26.6492V32.9492C25.8514 32.9492 33.2453 25.5492 33.2453 16.4492H26.9505C26.9505 22.0992 22.4042 26.6492 16.7588 26.6492Z" fill="white"/>
<path d="M28.3956 4.85C27.896 4.8 27.4464 4.75 26.9468 4.75C23.6495 4.75 20.7519 6.3 18.8534 8.75H16.7551L10.3604 15.15C12.3587 16 14.507 16.45 16.8051 16.45C16.8051 18.75 17.2547 20.9 18.104 22.9L24.5488 16.5V14.4C26.9968 12.55 28.5455 9.6 28.5455 6.3C28.5455 5.8 28.4955 5.3 28.3956 4.85ZM17.7543 15.5C17.7543 15.3 17.7044 15.1 17.7044 14.9C17.7044 9.8 21.801 5.7 26.8968 5.7C27.0967 5.7 27.2965 5.7 27.4964 5.75L17.7543 15.5Z" fill="white"/>
<path d="M10.3639 17.1992L-0.577148 33.8492L16.0593 22.8992C15.0101 20.2992 12.9618 18.2492 10.3639 17.1992ZM2.82008 30.4492L10.7136 18.4492C11.6129 18.8992 12.4122 19.4992 13.0617 20.1492L2.82008 30.4492Z" fill="white"/>
<path d="M7.76521 21.2C7.01582 19.8 6.61615 18.2 6.61615 16.5H0.321289C0.321289 20.45 1.72015 24.05 4.01827 26.9L7.76521 21.2Z" fill="white"/>
<path d="M12.0635 25.5L6.36816 29.25C9.21584 31.55 12.8129 32.95 16.7597 32.95V26.65C15.0611 26.65 13.5123 26.25 12.0635 25.5Z" fill="white"/>
<path d="M46.7311 7.40078C46.7311 9.75078 45.632 10.7008 43.134 10.7008C40.6361 10.7008 39.5869 9.70078 39.5869 7.55078V3.20078C39.5869 0.950781 40.5861 0.0507812 43.134 0.0507812C45.6819 0.0507812 46.7311 1.00078 46.7311 3.35078H44.8326C44.8326 2.30078 44.5828 1.75078 43.134 1.75078C41.7352 1.75078 41.4854 2.35078 41.4854 3.35078V7.45078C41.4854 8.45078 41.7352 9.05078 43.134 9.05078C44.5329 9.05078 44.8326 8.45078 44.8326 7.40078H46.7311V7.40078Z" fill="white"/>
<path d="M52.1256 10.6508V5.55078C52.1256 4.55078 51.7259 4.20078 50.9266 4.20078C50.1272 4.20078 49.7275 4.65078 49.7275 5.55078V10.7008H47.8291V0.0507812H49.7275V3.20078C50.1272 2.70078 50.7767 2.50078 51.4262 2.50078C53.1747 2.50078 54.024 3.60078 54.024 5.35078V10.7008H52.1256V10.6508Z" fill="white"/>
<path d="M55.1729 7.55V5.65C55.1729 3.5 56.222 2.5 58.3203 2.5C60.4685 2.5 61.4677 3.5 61.4677 5.65V10.65H59.869L59.7191 9.75C59.4194 10.35 58.7199 10.7 57.8207 10.7C56.272 10.7 55.1729 9.8 55.1729 7.55ZM58.3702 4.2C57.3711 4.2 57.1213 4.8 57.1213 5.8V7.5C57.1213 8.65 57.5709 9.05 58.3203 9.05C59.2695 9.05 59.5693 8.35 59.5693 7.4V5.75C59.6192 4.75 59.3694 4.2 58.3702 4.2Z" fill="white"/>
<path d="M62.8682 0.0507812H64.7666V7.65078C64.7666 8.55078 64.9165 8.85078 65.7158 8.85078V10.6508C63.5176 10.6508 62.8682 10.0008 62.8682 7.65078V0.0507812V0.0507812Z" fill="white"/>
<path d="M66.7158 0.0507812H68.6143V7.65078C68.6143 8.55078 68.7641 8.85078 69.5635 8.85078V10.6508C67.3653 10.6508 66.7158 10.0008 66.7158 7.65078V0.0507812V0.0507812Z" fill="white"/>
<path d="M76.706 8.15195C76.706 9.85195 75.7068 10.652 73.5586 10.652C71.4103 10.652 70.4111 9.65195 70.4111 7.50195V5.65195C70.4111 3.60195 71.4103 2.50195 73.5586 2.50195C75.7068 2.50195 76.706 3.50195 76.706 5.65195V7.25195H72.3096V7.50195C72.3096 8.80195 72.8092 9.05195 73.6085 9.05195C74.5078 9.05195 74.8575 8.75195 74.8575 8.15195H76.706ZM72.2596 5.75195H74.8575C74.8575 4.75195 74.6577 4.15195 73.6085 4.15195C72.4595 4.15195 72.2596 4.75195 72.2596 5.75195Z" fill="white"/>
<path d="M78.0049 2.55195H79.6535L79.7535 3.40195C80.253 2.80195 81.0024 2.50195 81.6519 2.50195C83.0008 2.50195 84.2997 3.20195 84.2997 5.65195V10.652H82.4512V5.65195C82.4512 4.60195 82.0016 4.20195 81.2023 4.20195C80.4529 4.20195 79.9033 4.55195 79.9033 5.60195V10.652H78.0049V2.55195V2.55195Z" fill="white"/>
<path d="M85.501 7.65117V5.60117C85.501 3.35117 86.5501 2.45117 88.1488 2.45117C89.0481 2.45117 89.6975 2.80117 89.9973 3.40117L90.1472 2.50117H91.6959V10.8512C91.6959 12.9512 90.5968 13.9512 88.6484 13.9512C86.65 13.9512 85.7008 13.1012 85.7008 11.3512H87.4993C87.4993 12.0012 87.8491 12.3012 88.6484 12.3012C89.6476 12.3012 89.9473 11.8012 89.9473 10.8012V9.80117C89.6476 10.2512 89.198 10.6512 88.2487 10.6512C86.5002 10.7012 85.501 9.75117 85.501 7.65117ZM89.8474 7.40117V5.80117C89.8474 4.85117 89.5477 4.15117 88.5984 4.15117C87.8491 4.15117 87.3994 4.55117 87.3994 5.70117V7.40117C87.3994 8.55117 87.7991 9.00117 88.5485 9.00117C89.4977 9.05117 89.8474 8.40117 89.8474 7.40117Z" fill="white"/>
<path d="M99.0888 8.15C99.0888 9.85 98.0896 10.65 95.9414 10.65C93.7931 10.65 92.7939 9.65 92.7939 7.5V5.65C92.7939 3.6 93.7931 2.5 95.9414 2.5C98.0896 2.5 99.0888 3.5 99.0888 5.65V7.25H94.6924V7.5C94.6924 8.8 95.192 9.05 95.9913 9.05C96.8906 9.05 97.2403 8.75 97.2403 8.15H99.0888ZM94.6924 5.75H97.2903C97.2903 4.75 97.0904 4.15 96.0413 4.15C94.8922 4.15 94.6924 4.75 94.6924 5.75Z" fill="white"/>
<path d="M44.2831 24.2008L42.1848 20.4508H41.4854V24.2008H39.5869V13.5508H42.2347C44.7827 13.5508 45.9817 14.5008 45.9817 16.7508V17.3008C45.9817 18.8508 45.4321 19.7008 44.1332 20.1508L46.4813 24.2008H44.2831V24.2008ZM42.2347 18.7008C43.6336 18.7008 43.9833 18.2008 43.9833 17.2008V16.8508C43.9833 15.8508 43.7335 15.3008 42.2347 15.3008H41.4354V18.7008H42.2347V18.7008Z" fill="white"/>
<path d="M47.0791 21.1508V19.2008C47.0791 17.0508 48.0783 16.0508 50.2265 16.0508C52.3748 16.0508 53.374 17.0508 53.374 19.2008V21.1508C53.374 23.3508 52.3748 24.3008 50.2265 24.3008C48.1282 24.3008 47.0791 23.3508 47.0791 21.1508ZM51.5255 21.0508V19.3008C51.5255 18.3008 51.2757 17.7008 50.2765 17.7008C49.2773 17.7008 49.0275 18.3008 49.0275 19.3008V21.0508C49.0275 22.0508 49.2773 22.6508 50.2765 22.6508C51.2257 22.6508 51.5255 22.0508 51.5255 21.0508Z" fill="white"/>
<path d="M58.97 19.1008C58.97 18.2008 58.6202 17.7008 57.721 17.7008C56.6718 17.7008 56.3721 18.3008 56.3721 19.3008V21.0508C56.3721 22.0508 56.6219 22.6508 57.6211 22.6508C58.6202 22.6508 58.97 22.2008 58.97 21.2508H60.7685C60.7685 23.4508 59.7693 24.3008 57.6211 24.3008C55.4728 24.3008 54.4736 23.3008 54.4736 21.1008V19.3008C54.4736 17.1008 55.5228 16.0508 57.671 16.0508C59.8193 16.0508 60.7685 16.9008 60.7685 19.1008H58.97V19.1008Z" fill="white"/>
<path d="M66.4667 24.2008L64.2185 20.6508H63.669V24.2008H61.7705V13.5508H63.669V18.9508H64.1686L66.1669 16.0508H68.2652L65.6673 19.7008L68.565 24.2008H66.4667V24.2008Z" fill="white"/>
<path d="M75.1591 21.7008C75.1591 23.4008 74.1599 24.2008 72.0117 24.2008C69.8634 24.2008 68.8643 23.2008 68.8643 21.0508V19.2008C68.8643 17.1508 69.8634 16.0508 72.0117 16.0508C74.1599 16.0508 75.1591 17.0508 75.1591 19.2008V20.8008H70.7627V21.0008C70.7627 22.3008 71.2623 22.5508 72.0616 22.5508C72.9609 22.5508 73.3106 22.2508 73.3106 21.6508H75.1591V21.7008ZM70.7127 19.2508H73.3106C73.3106 18.2508 73.1108 17.6508 72.0616 17.6508C70.9126 17.6508 70.7127 18.2508 70.7127 19.2508Z" fill="white"/>
<path d="M76.3057 14.6512L78.2041 14.4512V16.0012H79.603V17.7012H78.2041V21.1512C78.2041 22.0512 78.354 22.6512 79.603 22.5012V24.1512C77.2049 24.4012 76.3057 23.6012 76.3057 21.1512V14.6512V14.6512Z" fill="white"/>
<path d="M38.6883 34.8494C38.6883 36.2494 36.54 36.2494 36.54 34.8494C36.54 33.4495 38.6883 33.4995 38.6883 34.8494Z" fill="white"/>
<path d="M44.0832 30.7492C44.0832 29.8492 43.7335 29.3492 42.8343 29.3492C41.7851 29.3492 41.4854 29.9492 41.4854 30.9492V32.6992C41.4854 33.6992 41.7352 34.2992 42.7343 34.2992C43.7335 34.2992 44.0832 33.8492 44.0832 32.8992H45.8818C45.8818 35.0992 44.8826 35.9492 42.7343 35.9492C40.5861 35.9492 39.5869 34.9492 39.5869 32.7492V30.9492C39.5869 28.7492 40.6361 27.6992 42.7843 27.6992C44.9325 27.6992 45.8818 28.5492 45.8818 30.7492H44.0832Z" fill="white"/>
<path d="M46.8838 32.85V30.9C46.8838 28.75 47.883 27.75 50.0312 27.75C52.1795 27.75 53.1786 28.75 53.1786 30.9V32.85C53.1786 35.05 52.1795 36 50.0312 36C47.883 36 46.8838 35 46.8838 32.85ZM51.2802 32.75V31C51.2802 30 51.0304 29.4 50.0312 29.4C49.032 29.4 48.7822 30 48.7822 31V32.75C48.7822 33.75 49.032 34.35 50.0312 34.35C51.0304 34.3 51.2802 33.75 51.2802 32.75Z" fill="white"/>
<path d="M54.4259 27.7495H56.0746L56.1745 28.5995C56.6241 27.9995 57.3735 27.6995 58.073 27.7495C58.8723 27.7495 59.6716 27.9995 60.0713 28.7995C60.521 28.1495 61.3703 27.7495 62.3694 27.7495C64.0681 27.7495 65.0672 28.7495 65.0672 30.9495V35.9495H63.1688V30.9495C63.1688 29.8995 62.7192 29.4995 61.9698 29.4995C61.2703 29.4995 60.7208 29.7995 60.6708 30.9495V35.9495H58.7724V30.9495C58.7724 29.8995 58.3227 29.4995 57.5734 29.4995C56.824 29.4995 56.2744 29.8495 56.2744 30.8995V35.9495H54.376V27.7495H54.4259Z" fill="white"/>
</g>
<defs>
<clipPath id="clip0_1801_2488">
<rect width="99.9184" height="36" fill="white" transform="translate(0.321289)"/>
</clipPath>
</defs>
</svg>
