<svg width="210" height="36" viewBox="0 0 210 36" fill="none" xmlns="http://www.w3.org/2000/svg">
<path d="M84.1335 30.5514H84.0342C81.9455 24.624 81.3995 23.544 71.6751 0.72H65.1095L80.5041 35.28H87.3676L102.985 0.72H96.669C93.7824 7.344 85.7018 25.6554 84.1335 30.5514ZM112.759 0.72H106.79V35.2566H112.759V0.72ZM135.041 0.72C125.094 0.72 119.026 5.3046 119.026 16.3674V35.28H124.947V16.416C124.947 8.136 128.725 5.4 134.844 5.4C139.992 5.4 145.14 7.7274 145.14 16.416V35.28H151.108V16.0326C151.082 5.3046 144.791 0.72 135.041 0.72ZM163.394 0.72H157.425V35.2566H163.394V0.72ZM167.198 5.4486H180.629V35.28H186.523V5.4486H199.903V0.72H167.199V5.4486H167.198ZM209.675 0.72H203.707V35.2566H209.675V0.72ZM46.308 0C33.5004 0 27.5065 9.36 27.2087 17.1594C27.2822 19.728 26.8355 22.824 25.2193 25.3674C23.1288 28.6794 19.3744 30.6486 13.9524 30.6486H6.01887V5.3514C14.6731 5.3514 15.8682 5.2074 18.3797 5.7834C21.8363 6.5754 24.0003 8.4006 25.2929 10.44C26.0154 8.568 26.9844 6.768 28.253 5.1354C25.8647 3.024 22.5828 1.4634 18.3797 0.9126C16.0907 0.648 16.2415 0.72 0.0507812 0.72V35.28H14.9986C24.2246 35.28 31.7096 29.9286 33.2264 20.88H64.9109C66.6025 9.576 58.6432 0 46.308 0ZM33.5996 16.2234C33.9968 12.2886 36.6094 4.68 45.9844 4.68C57.0528 4.68 58.5696 14.4486 58.7682 16.2234H33.5996Z" fill="white"/>
<path d="M45.3886 31.2967C40.6634 31.0087 37.33 28.6561 35.4161 25.2955C34.6691 27.2541 33.6112 29.085 32.2812 30.7207C35.4161 33.8401 39.893 35.8075 45.3886 35.9767C59.3895 36.2161 63.2193 26.3035 63.3701 25.9921L57.3248 24.9121C53.9675 31.5595 47.2033 31.4155 45.3886 31.2967Z" fill="white"/>
</svg>
