<svg width="174" height="36" viewBox="0 0 174 36" fill="none" xmlns="http://www.w3.org/2000/svg">
<path d="M20.2998 13.9172C18.8097 11.3552 14.6633 9.95337 12.0117 9.95337C4.64194 9.95337 -0.814453 14.3655 -0.814453 22.8557C-0.814453 31.2537 4.7635 35.8416 12.1647 35.8416C15.2441 35.8416 18.6566 34.6506 20.2998 31.7898L20.696 35.1868H26.517V2.56616H20.2683V13.9172H20.2998ZM12.5609 30.1243C8.57217 30.1243 5.40278 27.1755 5.40278 22.8557C5.40278 18.4172 8.57217 15.6443 12.5609 15.6443C16.4911 15.6443 19.8721 18.5359 19.8721 22.8557C19.8721 27.3206 16.5227 30.1243 12.5609 30.1243ZM37.3308 10.6082H31.0866V35.2175H37.3308V10.6082ZM37.9115 3.60767C37.9115 -1.12964 30.5373 -1.12964 30.5373 3.60767C30.5373 8.34497 37.9115 8.37573 37.9115 3.60767ZM57.8373 35.2483L68.5925 10.6082H61.799L58.3235 18.804L54.4878 29.052L50.5846 18.7117L47.1136 10.6082H40.3201L51.1023 35.2483H57.8373ZM81.2656 35.9031C84.0703 35.8416 88.1221 34.4705 89.4637 31.6404L89.7698 35.2483H95.6494V10.6389H89.6753L89.4637 14.0051C88.0321 11.5618 84.7996 10.0149 81.4187 10.0149C74.0444 9.95337 68.2864 14.4226 68.2864 22.9128C68.2594 31.5217 73.8013 35.9338 81.2656 35.9031ZM81.9679 15.4377C91.7777 15.4377 91.7777 30.3923 81.9679 30.3923C77.8261 30.3923 74.5036 27.593 74.5036 22.8821C74.5036 18.1755 77.8261 15.4377 81.9679 15.4377ZM106.558 22.614C106.558 18.8611 109.178 15.7058 112.987 15.7058C116.975 15.7058 119.078 18.5623 119.078 22.3196V35.2175H125.326V22.2581C125.326 14.5105 120.572 9.95337 114.63 9.95337C111.46 9.95337 108.444 11.2937 106.342 13.8557L105.914 10.6082H100.34V35.2175H106.526V22.614H106.558ZM131.845 26.8767C131.845 33.0115 135.438 36.0833 140.894 35.8723C142.785 35.8152 144.275 35.5164 146.072 34.8308L144.338 29.6145C143.424 30.0627 142.294 30.3616 141.322 30.3616C139.368 30.3616 138.031 29.2014 138.031 26.8459V15.8552H145.036V10.6082H138.09V3.60767L131.845 4.26245V10.6082H127.154V15.8552H131.845V26.8767ZM160.852 35.8723C164.66 35.8723 168.987 34.5935 171.638 31.8821L167.677 28.0369C166.245 29.4695 163.256 30.3308 160.973 30.3308C156.584 30.3308 153.905 28.1292 153.509 25.1189H173.07C174.042 15.0203 168.802 9.95337 160.392 9.95337C152.257 9.95337 147.08 15.3147 147.08 22.7942C147.08 30.6604 152.226 35.8723 160.852 35.8723ZM160.608 15.3455C164.169 15.3455 166.7 16.9275 167.127 20.1135H153.599C154.513 16.9275 157.254 15.3455 160.608 15.3455Z" fill="white"/>
</svg>
