<svg width="161" height="36" viewBox="0 0 161 36" fill="none" xmlns="http://www.w3.org/2000/svg">
<path fill-rule="evenodd" clip-rule="evenodd" d="M150.572 25.2602C150.268 25.1951 150.037 25.0888 149.881 24.9388C149.705 24.7518 149.572 24.5286 149.491 24.2848C149.426 24.0242 149.394 23.6985 149.394 23.3076V13.2071C149.394 11.6642 149.936 10.8936 151.021 10.8936C152.105 10.8936 152.648 11.6651 152.648 13.2079V22.3622H155.415C156.935 22.3622 157.694 22.8602 157.694 23.8562C157.694 24.8582 156.935 25.3588 155.415 25.3588H151.644C151.209 25.3588 150.852 25.3262 150.572 25.2611V25.2602ZM132.743 11.4105C133.132 11.0651 133.629 10.8928 134.233 10.8928C135.337 10.8928 136.107 11.5014 136.543 12.7185L140.089 22.8199C140.245 23.2305 140.323 23.5554 140.323 23.7971C140.323 24.2711 140.17 24.6516 139.865 24.9379C139.56 25.1985 139.18 25.3288 138.725 25.3288C137.919 25.3288 137.368 24.8179 137.069 23.7962L136.679 22.4299H131.505L131.018 23.8939C130.713 24.8505 130.203 25.3288 129.488 25.3288C129.027 25.3288 128.667 25.1762 128.407 24.8702C128.108 24.5899 127.959 24.2325 127.959 23.7962C127.959 23.6205 127.969 23.4576 127.988 23.3076L128.115 22.8791L131.759 12.9431C132.018 12.2274 132.347 11.7165 132.743 11.4105V11.4105ZM132.382 19.5216H135.734L134.107 14.3094L132.382 19.5208V19.5216ZM123.467 13.1676L125.055 22.8791C125.101 23.2048 125.124 23.4774 125.124 23.6985C125.124 24.2385 124.971 24.6516 124.666 24.9379C124.341 25.2379 123.941 25.3871 123.467 25.3871C122.577 25.3871 122.055 24.7596 121.899 23.5031L120.895 15.0602C120.36 17.3029 119.808 19.5415 119.239 21.7759C118.823 23.4028 118.494 24.4014 118.255 24.7725C118.105 25.0331 117.924 25.1951 117.709 25.2611C117.515 25.3451 117.242 25.3871 116.891 25.3871C116.371 25.3871 115.958 25.2568 115.654 24.9971C115.348 24.7631 115.13 24.3396 115.001 23.7285L112.925 15.0602L111.815 23.3076C111.685 24.0036 111.5 24.5248 111.258 24.8694C110.979 25.1951 110.603 25.3579 110.129 25.3579C109.667 25.3579 109.288 25.2174 108.989 24.9379C108.684 24.6516 108.531 24.2385 108.531 23.6976C108.531 23.4379 108.563 23.1122 108.628 22.7222L110.382 13.0399C110.512 12.2976 110.74 11.7319 111.064 11.3411C111.389 10.9965 111.889 10.8242 112.565 10.8242C113.734 10.8242 114.482 11.4756 114.806 12.7759L116.959 21.2188L118.976 12.7759C119.281 11.4748 120.018 10.8242 121.188 10.8242C121.902 10.8242 122.422 11.0196 122.747 11.4096C123.071 11.7808 123.311 12.3662 123.467 13.1668V13.1676ZM143.285 23.0162V13.1076C143.285 11.5854 143.827 10.8242 144.911 10.8242C145.951 10.8242 146.47 11.5854 146.47 13.1076V23.0145C146.47 24.5308 145.951 25.2885 144.911 25.2885C143.827 25.2885 143.285 24.5308 143.285 23.0145V23.0162ZM96.4888 16.4659H102.412V13.1376C102.412 11.5956 102.945 10.8251 104.011 10.8251C105.095 10.8251 105.637 11.5965 105.637 13.1376V23.0745C105.637 24.5968 105.095 25.3579 104.011 25.3579C102.945 25.3579 102.412 24.5968 102.412 23.0745V19.4625H96.4888V23.0745C96.4888 24.5968 95.9592 25.3579 94.9008 25.3579C93.7902 25.3579 93.2349 24.5968 93.2349 23.0745V13.1376C93.2349 11.5956 93.7902 10.8251 94.9008 10.8251C95.9592 10.8251 96.4888 11.5965 96.4888 13.1376V16.4659ZM90.2728 20.7019C90.2728 21.3919 90.1427 22.0099 89.8826 22.5568C89.6567 23.1113 89.3145 23.6106 88.879 24.0208C88.3658 24.4448 87.7822 24.7753 87.1549 24.9971C86.4398 25.2243 85.6933 25.3363 84.9431 25.3288C84.2869 25.3288 83.6897 25.2739 83.1506 25.1625C82.6651 25.0247 82.1871 24.8619 81.7183 24.6748C81.3788 24.4849 81.0725 24.2409 80.8114 23.9522C80.5915 23.6925 80.4811 23.4225 80.4811 23.1422C80.4811 22.7325 80.624 22.3974 80.9089 22.1368C81.1887 21.8711 81.5652 21.7365 82.04 21.7365C82.2608 21.7365 82.5003 21.7691 82.7605 21.8342C82.9744 21.8994 83.2251 21.9774 83.5108 22.0691C83.7709 22.1531 84.0627 22.2414 84.3878 22.3322C84.713 22.3716 85.0467 22.3914 85.3915 22.3914C85.8526 22.3914 86.2231 22.2705 86.5021 22.0296C86.6388 21.895 86.7465 21.7338 86.8186 21.5559C86.8907 21.3779 86.9257 21.1871 86.9213 20.9951C86.9213 20.7345 86.8691 20.5065 86.7647 20.3119C86.6497 20.1056 86.4816 19.934 86.2779 19.8148C86.1025 19.6648 85.8621 19.5474 85.5566 19.4634C85.252 19.3519 84.9175 19.2319 84.5538 19.1016C83.9671 18.9313 83.3911 18.7257 82.8289 18.4862C82.3284 18.2205 81.9262 17.9462 81.6208 17.6668C81.3074 17.3576 81.0531 16.9936 80.8704 16.5928C80.7403 16.2225 80.6753 15.7536 80.6753 15.1871C80.668 14.5948 80.781 14.0072 81.0073 13.4599C81.2315 12.9329 81.5747 12.4652 82.0101 12.0936C82.4456 11.6831 82.9786 11.3814 83.6084 11.1851C84.1928 10.9451 84.8653 10.8251 85.6251 10.8251C86.2094 10.8251 86.7391 10.8894 87.2131 11.0196C87.6751 11.1311 88.0541 11.2605 88.3536 11.4105C88.7044 11.6051 88.9637 11.8331 89.1322 12.0936C89.2888 12.3336 89.3667 12.5942 89.3667 12.8736C89.3667 13.2645 89.2469 13.5799 89.0064 13.8208C88.766 14.0814 88.4315 14.2116 88.002 14.2116C87.8077 14.2116 87.5998 14.1791 87.3791 14.1139C87.1818 14.0675 86.9868 14.012 86.7947 13.9476C86.5804 13.8827 86.3624 13.8306 86.1418 13.7916C85.9437 13.7259 85.7362 13.6929 85.5275 13.6939C85.0475 13.6939 84.6668 13.8114 84.3878 14.0454C84.1277 14.2862 83.9977 14.5691 83.9977 14.8939C83.9977 15.1356 84.0533 15.3439 84.1637 15.5196C84.2937 15.6688 84.4563 15.7991 84.6514 15.9096C84.8653 15.9945 85.1254 16.0922 85.43 16.2028C85.7748 16.2868 86.1316 16.3948 86.5021 16.5242C87.7821 16.9614 88.7361 17.5039 89.3667 18.1545C89.9707 18.8059 90.2728 19.6545 90.2728 20.7028V20.7019ZM75.4047 10.8928C76.9705 10.8928 77.7525 11.4139 77.7525 12.4545C77.7525 13.4505 76.9697 13.9485 75.4047 13.9485H72.7352V16.5251H75.0154C76.5803 16.5251 77.3632 17.0256 77.3632 18.0276C77.3632 19.0494 76.5803 19.5602 75.0146 19.5602H72.7352V22.2636H75.5416C77.0544 22.2636 77.8116 22.7745 77.8116 23.7962C77.8116 24.7725 77.0544 25.2602 75.5408 25.2602H71.6631C71.2541 25.2602 70.8965 25.2285 70.5919 25.1625C70.3061 25.0982 70.0785 24.9996 69.91 24.8702C69.7415 24.6715 69.6183 24.4384 69.5489 24.1871C69.4776 23.8667 69.4449 23.539 69.4514 23.2108V13.2062C69.4514 12.8162 69.4839 12.4776 69.5489 12.1914C69.6336 11.8656 69.7543 11.6059 69.9091 11.4105C70.0785 11.2605 70.3061 11.1302 70.5919 11.0196C70.8965 10.9356 71.2764 10.8928 71.7316 10.8928H75.4047V10.8928ZM61.0236 10.9519C61.8937 10.9519 62.6638 11.0625 63.3329 11.2836C64.0088 11.5176 64.5735 11.8202 65.0278 12.1914C65.4659 12.5853 65.8205 13.0633 66.0708 13.5971C66.2847 14.1371 66.3925 14.7225 66.3925 15.3542C66.3925 16.3751 66.1102 17.2211 65.5446 17.8914C64.9406 18.5874 64.0961 19.0142 63.012 19.1702L65.5831 22.0296C66.2077 22.7256 66.5192 23.3342 66.5192 23.8554C66.5192 24.2908 66.3789 24.6714 66.0999 24.9971C65.8201 25.2576 65.4539 25.3871 64.9987 25.3871C64.6479 25.3871 64.3528 25.2902 64.1123 25.0948C63.8334 24.8805 63.5536 24.5874 63.2738 24.2162L59.4937 19.5216V22.9759C59.4937 24.5188 58.9521 25.2902 57.8672 25.2902C56.802 25.2902 56.2689 24.5188 56.2689 22.9759V13.2071C56.2689 12.8171 56.3048 12.4879 56.3759 12.2214C56.4417 11.9214 56.5581 11.6745 56.7267 11.4799C56.8832 11.2845 57.11 11.1542 57.4094 11.0891C57.6687 10.9982 58.0392 10.9519 58.52 10.9519H61.0236V10.9519ZM62.5243 14.3779C62.1735 14.0719 61.673 13.9185 61.0236 13.9185H59.4937V17.3736H60.9945C61.6636 17.3736 62.1735 17.2108 62.5243 16.8859C62.8683 16.5799 63.0402 16.1574 63.0402 15.6174C63.0402 15.0962 62.8691 14.6831 62.5243 14.3779V14.3779ZM51.0368 10.9519C52.5958 10.9519 53.3752 11.4628 53.3752 12.4836C53.3752 13.4608 52.5966 13.9485 51.0368 13.9485H48.4648V16.4959H50.7066C52.2518 16.4959 53.0253 16.9931 53.0253 17.9891C53.0253 18.9714 52.2518 19.4634 50.7066 19.4634H48.4648V22.9768C48.4648 24.5188 47.913 25.2894 46.8084 25.2894C45.7431 25.2894 45.2109 24.5179 45.2109 22.9768V13.2062C45.2109 12.8162 45.2332 12.4871 45.2794 12.2205C45.3821 11.9205 45.513 11.6736 45.6687 11.4791C45.8184 11.2836 46.0452 11.1534 46.3506 11.0882C46.6561 10.9974 47.0231 10.9511 47.4518 10.9511H51.0368V10.9519Z" fill="white"/>
<path fill-rule="evenodd" clip-rule="evenodd" d="M25.1421 14.1419C25.1932 14.091 25.2334 14.0301 25.2602 13.963C25.2869 13.896 25.2998 13.8241 25.2978 13.7519V12.4533C25.3012 12.3422 25.2793 12.2317 25.2338 12.1303C25.1883 12.0289 25.1204 11.9391 25.0351 11.8679C24.964 11.7825 24.8745 11.7144 24.7732 11.6688C24.672 11.6232 24.5617 11.6013 24.4507 11.6048H12.1547C12.6287 12.9316 12.7588 14.1068 12.544 15.1276L17.6204 18.3488C17.7504 18.4139 17.9027 18.4465 18.0781 18.4465H18.1072C18.2638 18.4465 18.4067 18.4139 18.5359 18.3488L25.1027 14.1813L25.1421 14.1419ZM25.0736 15.8699L18.5367 20.0476C18.3917 20.1097 18.2358 20.1426 18.0781 20.1445C17.9299 20.1461 17.7834 20.1129 17.6503 20.0476L12.0281 16.4648C11.7061 16.9377 11.3076 17.3534 10.849 17.6948V18.8759C10.849 20.8731 11.5575 22.5651 12.9727 23.9511C14.3827 25.3893 16.0845 26.1085 18.0781 26.1085H18.2441C20.1735 26.0631 21.8206 25.3439 23.1836 23.9511C24.5936 22.5651 25.2978 20.8739 25.2978 18.8768V15.4842C25.2956 15.5517 25.2755 15.6174 25.2396 15.6745C25.2139 15.7199 25.1814 15.7756 25.1421 15.8408C25.1293 15.8407 25.1166 15.8433 25.1049 15.8483C25.0931 15.8533 25.0825 15.8607 25.0736 15.8699ZM29.5947 29.5928C26.4058 32.7685 22.5667 34.3559 18.0781 34.3559C13.5896 34.3559 9.75127 32.7685 6.56154 29.5928C3.39319 26.3991 1.80859 22.5522 1.80859 18.0556C1.80859 13.5599 3.39319 9.71391 6.56325 6.51848C9.75212 3.35048 13.5913 1.76562 18.0798 1.76562C22.5684 1.76562 26.4067 3.35048 29.5955 6.51934C32.7656 9.71391 34.3502 13.5599 34.3502 18.0565C34.3502 22.5522 32.7656 26.3982 29.5955 29.5936L29.5947 29.5928ZM9.31918 12.7173C8.78015 13.1271 8.38998 13.6148 8.15041 14.1813C8.08539 14.2919 8.03319 14.4128 7.99383 14.5422C7.64303 15.5836 7.72859 16.8102 8.24795 18.2219C9.39704 17.8053 10.2646 17.2619 10.849 16.5916C11.0126 16.4126 11.1563 16.2163 11.2777 16.0062C11.5178 15.5709 11.6731 15.0939 11.7354 14.6005C11.8655 13.7553 11.7354 12.7885 11.3461 11.7016C11.3205 11.6828 11.3068 11.6596 11.3068 11.6331C10.5076 11.9391 9.84539 12.3008 9.31918 12.7173ZM10.2347 11.1453C10.1065 11.1067 9.9766 11.0741 9.84539 11.0476C7.501 10.3516 5.66913 11.2662 4.35063 13.7905C5.29865 14.2919 6.17565 14.5619 6.98079 14.6005H7.07833C7.12459 14.3186 7.21345 14.0455 7.34186 13.7905C7.58172 13.2154 7.94787 12.7018 8.41309 12.2879C8.8871 11.8516 9.49373 11.4711 10.2347 11.1453Z" fill="white"/>
</svg>
