<svg width="138" height="31" viewBox="0 0 138 31" fill="none" xmlns="http://www.w3.org/2000/svg">
<path d="M23.3978 5.52925C18.1015 5.15276 12.202 5.15277 6.9056 5.52925C5.7969 5.60806 4.95685 6.44819 4.87349 7.4751C4.60614 10.7684 4.57058 15.7023 4.81572 18.9923C4.89669 20.079 5.86078 21.0117 7.16507 21.0117H11.2538V26.0032L7.1734 26.0003C3.4302 26.0003 0.0703241 23.2547 -0.219905 19.3597C-0.484131 15.8139 -0.447637 10.6232 -0.159597 7.07496C0.129073 3.51893 3.01855 0.795791 6.54385 0.545203C12.0811 0.1516 18.2223 0.151598 23.7596 0.545202C27.2849 0.795789 30.1744 3.51893 30.4631 7.07496C30.7511 10.6232 30.7385 15.8139 30.4743 19.3597C30.184 23.2547 26.8319 26.0115 23.0887 26.0115L19.0505 26.0086L11.2538 31.0001V26.0032L19.0505 21.0117H23.0893C24.3936 21.0117 25.3576 20.079 25.4386 18.9923C25.6838 15.7023 25.6973 10.7684 25.4299 7.4751C25.3466 6.44819 24.5066 5.60806 23.3978 5.52925Z" fill="white"/>
<path d="M38.4023 22.1889H50.6046V19.1569H42.1V3.89258H38.4023V22.1889Z" fill="white"/>
<path d="M52.3726 22.1896H55.9646V8.5981H52.3726V22.1896ZM52.082 5.04338C52.082 6.21958 52.9536 7.10825 54.1686 7.10825C55.3835 7.10825 56.2551 6.21958 56.2551 5.04338C56.2551 3.86719 55.3835 2.97852 54.1686 2.97852C52.9536 2.97852 52.082 3.86719 52.082 5.04338Z" fill="white"/>
<path d="M70.0494 8.59766H66.4574L63.4993 18.5561L60.5412 8.59766H56.9492L61.6241 22.1892H65.3746L70.0494 8.59766Z" fill="white"/>
<path d="M76.462 22.504C79.4993 22.504 81.9556 20.7005 82.431 18.2174H79.288C78.9447 19.1584 77.9938 19.9425 76.462 19.9425C74.3754 19.9425 73.5567 18.5572 73.5567 16.9628V16.623H82.5366V14.2445C82.5366 10.9773 80.4765 8.28516 76.4091 8.28516C72.2889 8.28516 70.0703 10.8989 70.0703 14.5843V16.4401C70.0703 20.2562 72.5794 22.504 76.462 22.504ZM73.5567 13.9831C73.5567 12.1535 74.349 10.7944 76.4091 10.7944C78.3372 10.7944 79.2352 12.0751 79.2352 13.774V14.1138H73.5567V13.9831Z" fill="white"/>
<path d="M92.082 22.5555C96.7569 22.5555 99.6357 19.419 99.8206 15.6813H96.3871C96.1494 17.7462 94.8288 19.5497 92.082 19.5497C88.9918 19.5497 87.6712 17.4587 87.6712 14.5313V11.5516C87.6712 8.62417 88.9918 6.53317 92.082 6.53317C94.8288 6.53317 96.1494 8.33666 96.3871 10.4015H99.8206C99.6357 6.66385 96.7569 3.52734 92.082 3.52734C86.5091 3.52734 84 7.05592 84 11.7345V14.3483C84 19.0269 86.5091 22.5555 92.082 22.5555Z" fill="white"/>
<path d="M101.773 22.1898H105.366V14.1394C105.366 12.3098 106.395 11.3688 108.007 11.3688C109.75 11.3688 110.515 12.4928 110.515 14.061V22.1898H114.107V13.486C114.107 10.2711 112.233 8.28462 109.248 8.28462C107.478 8.28462 106.078 9.04261 105.366 10.2188V3.10938H101.773V22.1898Z" fill="white"/>
<path d="M120.961 22.504C122.546 22.504 124.289 21.8506 124.923 20.9357V22.1903H128.383V13.5127C128.383 10.35 126.032 8.28516 122.599 8.28516C119.641 8.28516 117.501 9.69659 116.709 12.3365H120.037C120.406 11.6046 121.173 11.0557 122.414 11.0557C123.893 11.0557 124.791 11.9967 124.791 13.2513V15.1071C124.157 14.5843 122.942 13.957 121.304 13.957C118.003 13.957 115.758 15.3162 115.758 18.2697C115.758 20.9096 117.871 22.504 120.961 22.504ZM121.885 20.1516C120.38 20.1516 119.244 19.4198 119.244 18.1652C119.244 16.9106 120.301 16.231 121.991 16.231C123.603 16.231 124.791 16.9367 124.791 18.139C124.791 19.2891 123.47 20.1516 121.885 20.1516Z" fill="white"/>
<path d="M135.095 22.1898H137.578V19.3147H136.125C135.174 19.3147 134.831 18.9487 134.831 18.0601V11.4734H137.762V8.59825H134.831V4.88672H131.212V8.59825H129.258V11.4734H131.212V18.3214C131.212 20.7261 132.454 22.1898 135.095 22.1898Z" fill="white"/>
</svg>
