<svg width="128" height="36" viewBox="0 0 128 36" fill="none" xmlns="http://www.w3.org/2000/svg">
<path d="M47.773 0.486328H1.07031V35.5134H47.773V0.486328Z" stroke="white"/>
<path d="M16.6133 0V35.571" stroke="white"/>
<path d="M32.1797 0V35.571" stroke="white"/>
<path d="M113.005 31.6679C112.053 31.709 111.101 31.5724 110.198 31.265V30.5685C111.076 30.9008 112.011 31.0566 112.949 31.0275C113.643 31.0635 114.328 30.8649 114.895 30.464C115.124 30.2928 115.309 30.0698 115.434 29.8127C115.559 29.5556 115.621 29.2724 115.614 28.9865C115.627 28.6571 115.544 28.3308 115.376 28.0473C115.174 27.7616 114.908 27.5284 114.598 27.3665C114.091 27.0987 113.561 26.8771 113.014 26.7047C112.234 26.4874 111.512 26.0989 110.902 25.5673C110.5 25.123 110.29 24.538 110.318 23.9397C110.311 23.588 110.386 23.2393 110.539 22.9221C110.691 22.6048 110.914 22.3275 111.193 22.113C111.839 21.6226 112.637 21.373 113.447 21.4061C114.355 21.4019 115.254 21.5835 116.089 21.9401L115.837 22.5382C115.087 22.2111 114.279 22.0355 113.461 22.0208C112.833 21.9854 112.212 22.1656 111.701 22.5315C111.488 22.6948 111.318 22.9061 111.204 23.1482C111.09 23.3903 111.036 23.6565 111.045 23.924C111.033 24.239 111.102 24.5519 111.247 24.8319C111.409 25.0968 111.635 25.3161 111.905 25.4699C112.405 25.7476 112.932 25.9759 113.476 26.1512C114.088 26.3438 114.675 26.6047 115.228 26.9294C115.578 27.1425 115.872 27.438 116.083 27.7898C116.272 28.1491 116.366 28.551 116.355 28.9571C116.368 29.3359 116.292 29.7126 116.132 30.0564C115.973 30.4002 115.734 30.7016 115.436 30.9353C114.733 31.4498 113.875 31.7083 113.005 31.6679V31.6679ZM80.6462 31.6679C79.6943 31.709 78.7432 31.5723 77.8413 31.265V30.5685C78.719 30.9014 79.6529 31.0571 80.5911 31.0275C81.2846 31.0635 81.97 30.8649 82.5371 30.464C82.7659 30.2926 82.9506 30.0692 83.0758 29.8122C83.201 29.5552 83.2633 29.2724 83.2573 28.9865C83.269 28.657 83.1855 28.3307 83.0169 28.0473C82.8163 27.7607 82.5494 27.5273 82.2387 27.3665C81.732 27.0987 81.2022 26.8771 80.6557 26.7047C79.8761 26.4865 79.1548 26.0981 78.5435 25.5673C78.1419 25.1229 77.9325 24.538 77.9601 23.9397C77.953 23.588 78.0284 23.2392 78.1805 22.9221C78.3326 22.6049 78.5566 22.3277 78.8352 22.113C79.4821 21.6225 80.2798 21.3728 81.0909 21.4061C81.999 21.4019 82.8981 21.5835 83.7333 21.9401L83.4806 22.5382C82.73 22.2111 81.9219 22.0354 81.1033 22.0208C80.4761 21.9881 79.8566 22.168 79.3445 22.5315C79.1321 22.6945 78.9616 22.906 78.8476 23.1482C78.7335 23.3904 78.6793 23.6565 78.6889 23.924C78.6766 24.2388 78.7447 24.5516 78.8884 24.8319C79.0508 25.097 79.2784 25.3164 79.5488 25.4699C80.0488 25.747 80.5737 25.9753 81.1175 26.1512C81.7287 26.3441 82.3169 26.605 82.8696 26.9294C83.2207 27.1419 83.5143 27.4375 83.7248 27.7898C83.913 28.1495 84.0052 28.5512 83.9937 28.9571C84.008 29.3359 83.9329 29.713 83.7732 30.0569C83.6136 30.4007 83.3745 30.7018 83.0758 30.9353C82.3735 31.4501 81.516 31.7086 80.6462 31.6679V31.6679ZM102.894 31.5334H102.196V21.5538H104.573C105.538 21.4821 106.5 21.723 107.317 22.2408C107.618 22.4896 107.856 22.8064 108.01 23.1653C108.164 23.5242 108.231 23.9149 108.204 24.3046C108.222 24.9121 108.035 25.5079 107.673 25.9963C107.26 26.4936 106.697 26.8419 106.067 26.9878L108.775 31.5315H107.944L105.372 27.1826H102.893V31.5315L102.894 31.5334ZM102.894 22.1814V26.5821H104.8C105.497 26.6252 106.188 26.4268 106.757 26.0206C106.994 25.8164 107.18 25.5599 107.301 25.2714C107.422 24.9828 107.475 24.67 107.454 24.3578C107.481 24.0477 107.433 23.7362 107.315 23.4485C107.196 23.1607 107.01 22.9055 106.773 22.704C106.103 22.3027 105.325 22.1209 104.547 22.1843L102.894 22.1814ZM58.0179 31.5334H57.3481V21.5538H58.4275L61.9621 30.331H62.0039L65.5395 21.5538H66.5913V31.5325H65.8872V23.9696C65.8872 23.4471 65.9145 22.8993 65.969 22.3311H65.9139L62.1806 31.5325H61.736L58.0179 22.3168H57.9628C57.9988 22.9006 58.0179 23.4841 58.0179 24.0504V31.5315V31.5334ZM69.1169 31.5334H68.3453L72.3579 21.512H72.8026L76.7344 31.5334H75.9495L74.5642 28.0102H70.5108L69.1178 31.5334H69.1169ZM72.5622 22.6114C72.4519 23.015 72.3186 23.4118 72.1612 23.7995L70.7626 27.3826H74.3333L72.9708 23.7829C72.8628 23.5105 72.7286 23.1261 72.5612 22.6076L72.5622 22.6114ZM99.5878 31.5334H94.1396V21.5538H99.5878V22.1952H94.8351V25.9702H99.3265V26.613H94.8351V30.8945H99.5916V31.5363L99.5878 31.5334ZM89.0638 31.5334H88.3606V22.2094H85.1168V21.5538H92.3048V22.2094H89.0638V31.5325V31.5334ZM69.2404 15.6946C68.6266 15.7241 68.0144 15.615 67.4484 15.3758C66.8823 15.1367 66.3776 14.7737 65.9709 14.3131C65.1321 13.2409 64.7106 11.9011 64.7841 10.5418C64.7087 9.18746 65.1339 7.85271 65.9794 6.79199C66.3897 6.3356 66.8964 5.97595 67.4626 5.7392C68.0288 5.50246 68.6406 5.3943 69.2537 5.4228C69.8667 5.39304 70.4782 5.5011 71.0438 5.7392C71.6094 5.97731 72.1142 6.33945 72.5213 6.79864C73.3576 7.8662 73.7782 9.20112 73.7033 10.5551C73.7761 11.9106 73.3532 13.2466 72.5147 14.314C72.1077 14.7738 71.603 15.1363 71.0372 15.3749C70.4714 15.6135 69.8595 15.7222 69.2461 15.6927L69.2404 15.6946ZM69.2537 6.09884C68.7378 6.06963 68.2218 6.15939 67.7458 6.36061C67.2698 6.56184 66.8462 6.86951 66.5077 7.25995C65.8087 8.2109 65.4665 9.37728 65.5414 10.5551C65.4684 11.7369 65.8063 12.9078 66.4973 13.8693C66.8334 14.2626 67.2555 14.5727 67.7315 14.7753C68.2076 14.9779 68.7239 15.0671 69.2404 15.0366C69.7576 15.0679 70.2756 14.9795 70.7531 14.7782C71.2305 14.5768 71.6544 14.2682 71.993 13.876C72.685 12.9111 73.0217 11.7362 72.9451 10.5513C73.0225 9.3715 72.6855 8.20172 71.993 7.24332C71.6543 6.85553 71.2318 6.55029 70.7569 6.35159C70.2819 6.15289 69.7676 6.06582 69.2537 6.09694V6.09884ZM59.4993 15.6946C58.5476 15.736 57.5968 15.5994 56.6953 15.2917V14.5972C57.5727 14.9295 58.5074 15.0846 59.4451 15.0542C60.1385 15.0892 60.8236 14.8907 61.391 14.4907C61.6199 14.3194 61.8047 14.096 61.9298 13.8389C62.0549 13.5819 62.1168 13.299 62.1103 13.0132C62.1229 12.6837 62.0397 12.3573 61.8709 12.074C61.6701 11.7875 61.4023 11.5541 61.0917 11.3932C60.5848 11.1262 60.0554 10.904 59.5097 10.7295C58.7297 10.512 58.0077 10.1242 57.3956 9.59404C56.9938 9.14973 56.7844 8.56477 56.8122 7.9664C56.8052 7.61486 56.8805 7.26626 57.0326 6.94924C57.1847 6.63223 57.4097 6.35567 57.6882 6.14113C58.3354 5.65133 59.1321 5.40184 59.943 5.43563C60.8501 5.42942 61.7487 5.61049 62.5826 5.96772L62.3327 6.56728C61.5821 6.24014 60.774 6.06403 59.9553 6.04943C59.3281 6.01757 58.7088 6.19774 58.1966 6.5611C57.984 6.72388 57.8137 6.93551 57.6996 7.17776C57.5855 7.42001 57.5311 7.68598 57.541 7.95357C57.5286 8.26837 57.5977 8.58115 57.7414 8.86146C57.903 9.12724 58.1299 9.34679 58.4009 9.4995C58.9005 9.7765 59.4261 10.0048 59.9696 10.1808C60.5813 10.3723 61.1687 10.6333 61.7208 10.959C62.0724 11.1717 62.3668 11.4672 62.5788 11.8193C62.7672 12.179 62.86 12.5808 62.8477 12.9866C62.8619 13.3654 62.7858 13.7421 62.6263 14.086C62.4668 14.4298 62.2281 14.7311 61.9298 14.9649C61.2261 15.477 60.3686 15.7338 59.4993 15.6927V15.6946ZM113.641 15.5592H112.942V5.58053H115.317C116.282 5.50787 117.245 5.74885 118.062 6.2675C118.363 6.51635 118.601 6.83314 118.755 7.19201C118.909 7.55089 118.975 7.94161 118.948 8.33127C118.968 8.93893 118.782 9.53508 118.42 10.024C118.008 10.5214 117.443 10.8697 116.813 11.0155L119.521 15.5592H118.69L116.117 11.2103H113.64V15.5592H113.641ZM113.641 6.20716V10.6079H115.546C116.243 10.6501 116.934 10.4518 117.503 10.0463C117.74 9.84175 117.925 9.58516 118.046 9.29664C118.166 9.00811 118.219 8.69553 118.198 8.38352C118.225 8.07345 118.178 7.76155 118.059 7.47374C117.941 7.18593 117.754 6.93089 117.517 6.72976C116.848 6.32851 116.07 6.14664 115.292 6.21001L113.641 6.20716ZM103.563 15.5583H102.793L106.806 5.53682H107.248L111.18 15.5583H110.395L109.009 12.036H104.953L103.56 15.5583H103.563ZM107.011 6.63616C106.899 7.03925 106.765 7.4358 106.608 7.8234L105.21 11.4065H108.779L107.416 7.80677C107.304 7.52558 107.171 7.14125 107.008 6.63141L107.011 6.63616ZM93.6531 15.5583H93.0687L90.3256 5.57958H91.0563L92.8027 12.0089L92.8407 12.1528L92.8711 12.2735C92.9139 12.4331 92.9538 12.5851 92.9937 12.7291C93.0433 12.9237 93.0969 13.1287 93.1523 13.3505C93.2078 13.5724 93.2495 13.7535 93.2816 13.9102C93.3137 14.0668 93.352 14.2469 93.388 14.4532C93.5018 13.8169 93.7371 12.8679 94.0854 11.6312L95.79 5.57768H96.5625L98.5645 12.5267C98.7902 13.3051 98.9534 13.9586 99.0614 14.4656C99.1189 14.1416 99.1951 13.7994 99.2904 13.4199C99.3877 13.019 100.226 9.91714 101.396 5.57768H102.1L99.3408 15.5564H98.7688L96.5777 7.85523C96.4006 7.2481 96.2636 6.72454 96.1663 6.29838C96.0894 6.71481 95.984 7.17396 95.8575 7.66045C95.7076 8.23061 94.8644 11.255 93.6559 15.5507L93.6531 15.5583ZM127.053 15.5583H121.604V5.57958H127.053V6.22284H122.295V9.99596H126.785V10.6378H122.295V14.9193H127.053V15.5611V15.5583ZM86.3159 15.5583H85.6118V6.23424H82.3689V5.57958H89.5569V6.23424H86.3159V15.5573V15.5583ZM77.0441 15.5583H76.3486V5.57958H81.8168V6.22284H77.0441V10.453H81.5498V11.102H77.0441V15.5583Z" fill="white" stroke="white" stroke-width="0.4"/>
<path d="M13.3075 24.2586C13.3075 21.3825 11.1922 20.4922 8.63236 20.4922H4.27344V32.5882H7.01917V28.2283H8.50295L10.8215 32.5882H13.8835L11.1592 27.7457C11.8325 27.4561 12.4002 26.9659 12.7846 26.3418C13.1691 25.7177 13.3517 24.9902 13.3075 24.2586V24.2586ZM8.40954 26.0586H7.01819V22.658H8.40954C9.83787 22.658 10.6172 23.0667 10.6172 24.2537C10.6172 25.4407 9.83884 26.0586 8.40954 26.0586Z" fill="white"/>
<path d="M26.3339 25.7795L24.7937 25.149C23.737 24.7219 22.9392 24.463 22.9392 23.7207C22.9392 23.0337 23.5512 22.6261 24.4784 22.6261C25.4067 22.6428 26.2998 22.9843 27.0023 23.5913L28.3752 21.8652C27.3346 20.8477 25.9387 20.2754 24.4833 20.2695C21.9789 20.2695 20.1789 21.8652 20.1789 23.8695C20.1891 24.6073 20.4312 25.3231 20.8707 25.9157C21.3101 26.5084 21.9249 26.9478 22.6279 27.1718L24.1846 27.8393C25.2422 28.2849 25.9291 28.5252 25.9291 29.2861C25.9291 30.01 25.3726 30.4536 24.241 30.4536C23.1355 30.3859 22.0871 29.9392 21.2725 29.1888L19.6953 31.0627C20.9241 32.1799 22.5239 32.8012 24.1846 32.8063C27.0607 32.8063 28.7303 31.0627 28.7303 29.0594C28.7476 28.3251 28.5221 27.6057 28.0888 27.0127C27.6555 26.4197 27.0387 25.9862 26.3339 25.7795Z" fill="white"/>
<path d="M35.3984 22.7923H38.7377V32.5882H41.4678V22.7923H44.7857V20.4922H35.3984V22.7923Z" fill="white"/>
</svg>

