<svg width="130" height="36" viewBox="0 0 130 36" fill="none" xmlns="http://www.w3.org/2000/svg">
<path d="M75.5896 28.6765V20.6348L64.1543 35.6277H70.2955L75.5896 28.6765Z" fill="white"/>
<path d="M69.4523 0L69.4322 0.0349412L53.247 21.2464V21.2326L37.0449 0V35.6273H42.3475V14.9908L53.247 29.2744V29.2892L64.1529 15.0056V27.5866L69.447 20.6333L69.4523 0Z" fill="white"/>
<path d="M27.8238 0L15.7829 24.5647L3.74298 0L0.439453 4.33165L15.7829 35.6273L33.2492 0H27.8238Z" fill="white"/>
<path d="M108.311 0V35.6273H126.133L129.778 30.8626H113.614V0H108.311Z" fill="white"/>
<path d="M91.399 21.5682H86.2012V35.6273H80.8965V0H91.399C98.5704 0 104.211 3.18282 104.211 10.7862C104.211 18.3896 98.5725 21.5682 91.399 21.5682ZM91.399 4.76788H86.2012V16.8004H91.399C95.4225 16.8004 98.9166 15.1645 98.9166 10.7862C98.9166 6.408 95.432 4.76788 91.399 4.76788Z" fill="white"/>
</svg>
