<svg width="67" height="21" viewBox="0 0 67 21" fill="none" xmlns="http://www.w3.org/2000/svg">
<path id="Vector" d="M58.014 11.2409C57.5444 11.1934 57.0756 11.1091 56.6047 11.1169C52.7797 11.1413 48.9693 11.166 45.1439 11.2089C39.3614 11.2814 33.5936 11.3542 27.8111 11.4267C20.366 11.517 12.9352 11.6261 5.4905 11.698C4.22529 11.7063 2.94662 11.659 1.68348 11.5752C1.31635 11.5485 0.922717 11.392 0.604677 11.1451C0.387472 10.9926 0.205493 10.5827 0.197861 10.2689C0.190228 9.95514 0.377881 9.46131 0.571088 9.37344C1.19565 9.07393 1.86431 8.77543 2.52674 8.75347C7.91519 8.54297 13.2881 8.36901 18.6753 8.21382C26.9912 7.99556 35.3209 7.81451 43.6363 7.61469C46.3738 7.5473 49.1252 7.51713 51.8623 7.46819C52.51 7.4459 53.1585 7.38674 54.2192 7.31843C53.6902 6.64243 53.4628 6.28681 53.204 6.02272C52.3549 5.19193 51.4596 4.45232 50.6554 3.58564C49.9235 2.77593 49.814 1.7589 50.2293 0.956617C50.6756 0.0812501 51.3527 0.0596299 52.0547 0.241481C52.3324 0.321531 52.6084 0.475329 52.8848 0.610689C56.4364 2.2772 60.0022 3.96247 63.5533 5.64742C63.7428 5.72548 63.902 5.83975 64.0906 5.95468C66.805 7.56541 66.9527 8.84156 64.6068 11.1129C63.1332 12.5369 61.5738 13.8484 60.0291 15.1601C58.3194 16.6157 56.5954 18.0526 54.8722 19.4525C53.7034 20.4038 52.7759 20.4383 52.2364 19.5776C51.6258 18.6046 51.8779 17.2083 53.0064 16.0901C53.8488 15.2605 54.7917 14.5439 55.6909 13.8079C56.5002 13.1436 57.3233 12.5166 58.1322 11.8708C58.0776 11.6851 58.0531 11.4631 58.014 11.2409Z" fill="black"/>
</svg>
