<svg width="51" height="44" viewBox="0 0 51 44" fill="none" xmlns="http://www.w3.org/2000/svg">
<path id="Vector" d="M14.6171 34.6047C14.6731 33.1208 15.7754 32.7255 16.3524 31.9409C16.7528 31.408 17.1469 30.8081 17.2582 30.1559C17.4944 28.7567 15.6853 27.2375 14.2805 27.6084C13.5822 27.8072 12.9061 28.1259 12.3728 28.5447C9.02944 31.1865 5.6941 33.8548 2.40246 36.5745C1.79246 37.0648 1.3475 37.7751 1.02119 38.506C0.512982 39.6101 1.48458 41.147 2.87162 41.5982C3.26142 41.7255 3.68063 41.8109 4.08201 41.8838C8.00664 42.5499 11.9295 43.2564 15.8479 43.8556C16.7613 43.9954 17.7272 43.9844 18.5718 43.8048C20.196 43.4625 20.3054 42.0161 18.8647 40.6927C18.4579 40.3239 17.9468 40.028 17.1797 39.49C17.8396 39.1183 18.257 38.8268 18.7716 38.6243C22.0287 37.32 25.276 36.0297 28.5411 34.7518C35.793 31.8885 41.0295 26.9649 45.3749 21.1868C46.7232 19.3782 47.7895 17.2885 48.4287 15.087C49.435 11.6407 50.1167 8.05018 50.6521 4.44052C51.2445 0.370076 49.375 4.22145 46.521 0.321068C46.0437 -0.326665 49.2303 2.21416 48.5211 1.8211C48.9269 1.58409 48.0002 1.53919 48.5211 1.8211C48.1153 2.05812 46.3505 -0.194912 46.521 0.321068C46.7602 1.1565 53.3208 5.92366 47.7386 1.20884C49.6428 5.70884 46.6105 1.43289 45.9606 4.4884C45.2539 7.811 44.8816 11.2639 43.4346 14.2759C40.2194 20.9093 35.0462 25.8564 28.2655 29.3005C24.5786 31.1797 20.5 32.5547 16.5864 34.1498C16.0344 34.3677 15.4065 34.4281 14.6171 34.6047Z" fill="black"/>
</svg>
