<svg width="65" height="30" viewBox="0 0 65 30" fill="none" xmlns="http://www.w3.org/2000/svg">
<path id="Vector" d="M50.3599 21.8837C49.4442 20.8412 48.365 20.9424 47.4603 20.5819C46.8394 20.34 46.1838 20.0481 45.7147 19.6202C44.7104 18.7011 45.2065 16.9836 46.5037 16.7596C47.157 16.6585 47.8637 16.6511 48.5197 16.765C52.6415 17.4906 56.7727 18.238 60.9007 19.0375C61.6575 19.1758 62.417 19.5291 63.0976 19.9385C64.1373 20.5515 64.2949 21.9899 63.4949 22.7961C63.2703 23.023 62.9985 23.2302 62.7331 23.4222C60.1103 25.2662 57.5127 27.1387 54.8553 28.9327C54.236 29.351 53.4875 29.6796 52.7331 29.8454C51.2842 30.1663 50.3495 29.1694 50.6778 27.7203C50.7734 27.3147 50.9919 26.9248 51.2648 26.2725C50.5392 26.2364 50.0472 26.1732 49.5329 26.2077C46.2639 26.4091 43.0107 26.6171 39.7512 26.8402C32.4969 27.3178 25.5789 25.6188 18.8429 22.9978C16.7436 22.1733 14.6954 21.0494 12.9097 19.6966C10.1098 17.5809 7.47449 15.249 4.94026 12.8523C2.09125 10.1458 0.900253 6.70674 0.798492 2.92114C0.784158 2.2913 0.899378 1.57305 1.21292 1.04469C1.44726 0.661448 2.10118 0.293243 2.55226 0.321476C3.00335 0.34971 3.62063 0.82176 3.79317 1.2504C4.10079 1.9316 4.16835 2.7441 4.27703 3.50252C4.74637 6.5863 6.14756 9.16858 8.57208 11.252C11.069 13.3835 13.3857 15.7248 16.2687 17.3761C22.6396 21.003 29.5228 22.7409 36.7568 22.8431C40.694 22.9033 44.6355 22.4663 48.5797 22.2442C49.1319 22.2078 49.6497 22.0322 50.3599 21.8837Z" fill="black"/>
</svg>
