<svg width="127" height="36" viewBox="0 0 127 36" fill="none" xmlns="http://www.w3.org/2000/svg">
<path d="M34.2197 8.82928V4.40234H17.0837L12.7605 8.82928H34.2197ZM34.2197 17.5826V13.1556H8.58348L4.25819 17.5826H34.2197ZM34.2197 26.4015L38.5079 21.9735H-0.0078125V26.4015H34.2197ZM17.0837 30.8433H34.2187V35.2702H17.0837V30.8433Z" fill="white"/>
<path fill-rule="evenodd" clip-rule="evenodd" d="M89.888 10.2716C88.0912 9.34891 86.1003 8.8676 84.0804 8.8676C82.0604 8.8676 80.0696 9.34891 78.2727 10.2716C76.5839 11.1756 75.1804 12.5322 74.2195 14.1893C73.2626 15.9284 72.7607 17.8812 72.7607 19.8662C72.7607 21.8512 73.2626 23.804 74.2195 25.5431C75.1824 27.2027 76.5841 28.5649 78.2706 29.4798C80.064 30.4162 82.0572 30.9052 84.0804 30.9052C86.1035 30.9052 88.0967 30.4162 89.8901 29.4798C91.5677 28.5602 92.9616 27.1992 93.9211 25.5441C94.878 23.805 95.3799 21.8522 95.3799 19.8672C95.3799 17.8822 94.878 15.9294 93.9211 14.1904C92.965 12.5369 91.5693 11.1808 89.8891 10.2727L89.888 10.2716ZM90.8378 19.8656C90.8624 21.1498 90.5616 22.4192 89.9632 23.5556C89.4102 24.5887 88.5786 25.446 87.5628 26.0301C86.4968 26.6091 85.303 26.9124 84.0899 26.9124C82.8768 26.9124 81.683 26.6091 80.617 26.0301C79.5975 25.4423 78.7597 24.5851 78.1954 23.5525C77.6088 22.4122 77.3028 21.1485 77.3028 19.8662C77.3028 18.5839 77.6088 17.3201 78.1954 16.1799C78.7567 15.1512 79.5948 14.3002 80.6148 13.7234C81.6855 13.156 82.8787 12.8594 84.0904 12.8594C85.3021 12.8594 86.4954 13.156 87.566 13.7234C88.5816 14.2977 89.413 15.1489 89.9632 16.1778C90.561 17.3129 90.8619 18.5808 90.8378 19.8635V19.8656V19.8656ZM104.737 8.74271L104.734 4.42271H110.748V0H103.132C101.548 0.00211765 100.263 1.27482 100.262 2.84612V8.74271H104.543L100.261 13.1686V30.6148H104.733V13.1696H106.459L110.768 8.74271H104.736H104.737ZM119.66 13.1696H122.609L126.896 8.74271H119.66V0H115.186V8.74271H119.475L115.186 13.176V27.7676C115.189 29.3389 116.473 30.6127 118.058 30.6148H124.731V26.2789H119.659V13.1696H119.66ZM65.2481 19.026C63.8864 18.6244 62.4999 18.3117 61.0975 18.09C59.8375 17.8571 58.8507 17.6453 58.1614 17.4653C57.564 17.3208 57.0054 17.0476 56.5245 16.6648C56.327 16.5006 56.1706 16.2926 56.0677 16.0573C55.9648 15.822 55.9181 15.566 55.9315 15.3095C55.9315 14.5599 56.2947 13.9701 57.0433 13.5064C57.8321 13.0172 59.0148 12.7694 60.5586 12.7694C62.3734 12.7366 64.1681 13.1506 65.7807 13.9786L68.7031 10.9747L68.4479 10.8116C67.3469 10.1462 66.1444 9.6655 64.8881 9.38859C63.4838 9.04469 62.0436 8.86945 60.5978 8.86659C57.8618 8.86659 55.6435 9.46482 54.0034 10.6454C52.3294 11.8482 51.4802 13.4693 51.4802 15.4652C51.4802 17.0185 51.8985 18.2478 52.7233 19.1213C53.5174 19.9684 54.517 20.5962 55.6277 20.9467C57.002 21.3565 58.405 21.6635 59.8248 21.8636C61.0552 22.0722 62.0155 22.2618 62.6784 22.4291C63.245 22.5599 63.7762 22.8128 64.2348 23.1702C64.6054 23.4731 64.8108 23.9326 64.7865 24.408C64.7865 26.0905 63.59 26.9068 60.4495 26.9068C59.1237 26.9054 57.8051 26.7114 56.5351 26.3308C55.6575 26.0687 54.8163 25.6977 54.031 25.2265L54.0204 25.2201L51.1562 28.1658L51.3723 28.3352C52.488 29.1786 53.7587 29.7945 55.112 30.1479C56.7564 30.618 58.46 30.8552 60.1721 30.8509C63.0373 30.8509 65.011 30.2665 66.6892 29.1166C68.4066 27.9392 69.278 26.3308 69.278 24.3307C69.278 22.8304 68.8735 21.6413 68.0752 20.7911C67.3013 19.9682 66.3272 19.36 65.2481 19.026V19.026Z" fill="white"/>
</svg>
