<svg width="20" height="24" viewBox="0 0 20 24" fill="none" xmlns="http://www.w3.org/2000/svg">
<path d="M18.6553 4.96244C18.5686 4.84748 18.4761 4.73712 18.378 4.63181C18.4767 4.36884 18.5516 4.09757 18.6019 3.82123C18.7505 2.81035 18.6215 1.7781 18.2286 0.834902C18.2286 0.834902 17.0341 0.461611 14.2931 2.30674C13.1294 1.98542 11.9274 1.82396 10.7202 1.82679C9.50946 1.82467 8.30403 1.98611 7.13656 2.30674C4.39554 0.44028 3.201 0.834902 3.201 0.834902C2.81289 1.76812 2.68392 2.78881 2.82771 3.78924C2.87832 4.07706 2.95691 4.35925 3.06235 4.63181C2.96636 4.73846 2.87037 4.85578 2.78505 4.96244C1.98915 5.96073 1.56668 7.20553 1.59052 8.48204C1.58799 8.78478 1.60223 9.08743 1.63318 9.3886C1.97441 14.1134 5.12079 15.2119 8.11778 15.5532C7.69357 15.9477 7.40594 16.4669 7.29654 17.0357C7.19741 17.4151 7.15076 17.8062 7.15789 18.1983V19.595C5.96526 19.701 4.74058 19.5274 4.3612 18.463C3.95335 17.4445 3.27723 16.5555 2.40466 15.8904C2.34124 15.8557 2.28094 15.8157 2.22441 15.7706C2.14778 15.5691 2.01196 15.3955 1.83479 15.2726C1.65763 15.1497 1.44742 15.0833 1.23182 15.0822H1.22669C0.944691 15.0821 0.674139 15.1937 0.474251 15.3926C0.274362 15.5915 0.161419 15.8615 0.160141 16.1435C0.155981 17.0101 1.02307 17.5694 1.37876 17.76C1.79357 18.1779 2.12729 18.6692 2.36302 19.2088C2.75152 20.3003 3.88733 21.9585 7.12602 21.7429C7.12709 21.7804 7.12816 21.8158 7.12864 21.8481L7.13332 22.1335C7.13328 22.2735 7.16084 22.4122 7.21443 22.5417C7.26801 22.6711 7.34658 22.7887 7.44562 22.8877C7.54467 22.9868 7.66226 23.0653 7.79167 23.1189C7.92109 23.1725 8.05979 23.2001 8.19986 23.2L8.20318 23.1994V23.2H13.2278C13.3679 23.2001 13.5066 23.1725 13.636 23.1189C13.7654 23.0654 13.883 22.9868 13.9821 22.8877C14.0811 22.7887 14.1597 22.6711 14.2132 22.5417C14.2668 22.4123 14.2944 22.2736 14.2944 22.1335C14.2944 22.1335 14.3022 18.7636 14.3022 18.1983C14.3093 17.8063 14.2626 17.4152 14.1635 17.0358L14.1616 17.0293L14.1652 17.0358C14.156 16.9985 14.142 16.968 14.132 16.9318C14.0129 16.4035 13.7377 15.9232 13.3422 15.5532L13.3546 15.5755C13.3473 15.5689 13.3405 15.5596 13.3332 15.5532C16.3302 15.2119 19.4551 14.0921 19.7964 9.38859C19.8274 9.08742 19.8416 8.78477 19.8391 8.48203C19.858 7.20807 19.4402 5.96602 18.6553 4.96244Z" fill="white"/>
</svg>
