<svg width="24" height="24" viewBox="0 0 24 24" fill="none" xmlns="http://www.w3.org/2000/svg">
<path d="M19.1291 0.800049H5.53757C3.01343 0.800049 0.96759 2.84588 0.96759 5.37003V18.6301C0.96759 21.1542 3.01343 23.2 5.53757 23.2H19.1291C21.6533 23.2 23.6991 21.1542 23.6991 18.6301V5.37003C23.6991 2.84588 21.6533 0.800049 19.1291 0.800049ZM12.3333 17.3514C9.37825 17.3514 6.98197 14.9551 6.98197 12C6.98197 9.04495 9.37825 6.64867 12.3333 6.64867C15.2884 6.64867 17.6847 9.04495 17.6847 12C17.6847 14.9551 15.2884 17.3514 12.3333 17.3514ZM19.2333 6.51134C18.6034 6.51134 18.092 5.99988 18.092 5.37003C18.092 4.74018 18.6034 4.22872 19.2333 4.22872C19.8632 4.22872 20.3746 4.74018 20.3746 5.37003C20.3746 5.99988 19.8632 6.51134 19.2333 6.51134Z" fill="white"/>
</svg>
