<svg width="25" height="24" viewBox="0 0 25 24" fill="none" xmlns="http://www.w3.org/2000/svg">
<path d="M6.27514 8.07883V23.1982H1.24065V8.07883H6.27514ZM6.59522 3.41108C6.59616 3.43814 6.59709 3.46987 6.59709 3.50253C6.59709 4.20148 6.30034 4.83044 5.82628 5.2709L5.82442 5.27184C5.31584 5.73656 4.63555 6.02118 3.88807 6.02118C3.84235 6.02118 3.79569 6.02025 3.74996 6.01838H3.7565H3.7257C3.68744 6.02025 3.64265 6.02118 3.59786 6.02118C2.86625 6.02118 2.20182 5.73563 1.70817 5.2709L1.7091 5.27184C1.23878 4.81645 0.947632 4.18002 0.947632 3.47547C0.947632 3.45307 0.947632 3.43068 0.948565 3.40735V3.41108C0.947632 3.39148 0.947632 3.36909 0.947632 3.34669C0.947632 2.63561 1.24998 1.99545 1.73243 1.54659L1.7343 1.54566C2.24195 1.08373 2.92037 0.800049 3.66411 0.800049C3.70704 0.800049 3.74903 0.800982 3.79196 0.802848H3.78636C3.82649 0.800982 3.87221 0.800049 3.9198 0.800049C4.65235 0.800049 5.31957 1.0828 5.81789 1.54472L5.81602 1.54286C6.29661 2.00665 6.59522 2.65614 6.59522 3.37562V3.41481V3.41295V3.41108ZM24.3835 14.5346V23.1982H19.3648V15.1122C19.3695 15.0385 19.3714 14.9526 19.3714 14.8668C19.3714 14.0306 19.139 13.2496 18.7349 12.5833L18.7461 12.6029C18.3477 12.0467 17.7038 11.6893 16.9768 11.6893C16.9208 11.6893 16.8648 11.6912 16.8089 11.6958H16.8163C16.7911 11.6949 16.7622 11.694 16.7333 11.694C16.1547 11.694 15.6228 11.8927 15.2019 12.2259L15.2075 12.2221C14.7848 12.5646 14.4535 13.0023 14.2445 13.5053L14.237 13.5267C14.1288 13.858 14.0672 14.2387 14.0672 14.6344C14.0672 14.6792 14.0681 14.724 14.07 14.7688V14.7623V23.2H9.05135C9.07188 19.142 9.08214 15.8516 9.08214 13.3289C9.08214 10.8062 9.07717 9.30099 9.06721 8.81325L9.05228 8.0807H14.0709V10.2774H14.0401C14.2398 9.95546 14.446 9.67643 14.6728 9.41514L14.6653 9.42354C14.9276 9.13519 15.2094 8.87484 15.5127 8.64154L15.5276 8.63034C15.9046 8.34012 16.3469 8.11243 16.8266 7.97339L16.8546 7.96685C17.3566 7.81661 17.9343 7.72983 18.5315 7.72983H18.6052H18.6015C18.6677 7.72703 18.7452 7.72516 18.8227 7.72516C20.3913 7.72516 21.8042 8.39145 22.7943 9.45714L22.7971 9.46087C23.8559 10.6155 24.3853 12.3064 24.3853 14.5336L24.3835 14.5346Z" fill="white"/>
</svg>
