<svg width="30" height="30" viewBox="0 0 30 30" fill="none" xmlns="http://www.w3.org/2000/svg">
<g clip-path="url(#clip0_2119_2719)">
<path d="M8.775 16.25C6.0125 16.25 3.775 18.4875 3.775 21.25C3.775 24.0125 6.0125 26.25 8.775 26.25C11.5375 26.25 13.775 24.0125 13.775 21.25C13.775 18.4875 11.5375 16.25 8.775 16.25ZM16.25 16.25V26.25H26.25V16.25H16.25ZM8.75 2.5L2.5 13.75H15L8.75 2.5ZM24.0625 3.125C22.7375 3.125 21.8 3.825 21.25 4.5875C20.7 3.825 19.7625 3.125 18.4375 3.125C16.4875 3.125 15 4.725 15 6.5625C15 9.0625 18.025 10.8375 21.25 13.75C24.475 10.8375 27.5 9.0625 27.5 6.5625C27.5 4.725 26.0125 3.125 24.0625 3.125Z" fill="#1A90FF"/>
</g>
<defs>
<clipPath id="clip0_2119_2719">
<rect width="30" height="30" fill="white"/>
</clipPath>
</defs>
</svg>
