<svg width="30" height="30" viewBox="0 0 30 30" fill="none" xmlns="http://www.w3.org/2000/svg">
<g clip-path="url(#clip0_2119_2727)">
<path d="M15 7.5C16.3807 7.5 17.5 6.38071 17.5 5C17.5 3.61929 16.3807 2.5 15 2.5C13.6193 2.5 12.5 3.61929 12.5 5C12.5 6.38071 13.6193 7.5 15 7.5Z" fill="#1A90FF"/>
<path d="M19.8625 10.1375C19.375 9.65 18.5375 8.75 16.9125 8.75C16.65 8.75 15.1375 8.75 13.7375 8.75C10.3 8.7375 7.5 5.9375 7.5 2.5H5C5 6.45 7.6375 9.8 11.25 10.8875V27.5H13.75V20H16.25V27.5H18.75V12.5625L23.6875 17.5L25.45 15.7375L19.8625 10.1375Z" fill="#1A90FF"/>
</g>
<defs>
<clipPath id="clip0_2119_2727">
<rect width="30" height="30" fill="white"/>
</clipPath>
</defs>
</svg>
