<svg width="26" height="26" viewBox="0 0 26 26" fill="none" xmlns="http://www.w3.org/2000/svg">
<g id="Highlight off" clip-path="url(#clip0_1026_4541)">
<path id="Vector" d="M15.8052 8.66663L12.9993 11.4725L10.1935 8.66663L8.66602 10.1941L11.4718 13L8.66602 15.8058L10.1935 17.3333L12.9993 14.5275L15.8052 17.3333L17.3327 15.8058L14.5268 13L17.3327 10.1941L15.8052 8.66663ZM12.9993 2.16663C7.00851 2.16663 2.16602 7.00913 2.16602 13C2.16602 18.9908 7.00851 23.8333 12.9993 23.8333C18.9902 23.8333 23.8327 18.9908 23.8327 13C23.8327 7.00913 18.9902 2.16663 12.9993 2.16663ZM12.9993 21.6666C8.22185 21.6666 4.33268 17.7775 4.33268 13C4.33268 8.22246 8.22185 4.33329 12.9993 4.33329C17.7768 4.33329 21.666 8.22246 21.666 13C21.666 17.7775 17.7768 21.6666 12.9993 21.6666Z" fill="#EB3223"/>
</g>
<defs>
<clipPath id="clip0_1026_4541">
<rect width="26" height="26" fill="white"/>
</clipPath>
</defs>
</svg>
