<svg width="100%" viewBox="0 0 170 20" fill="none" xmlns="http://www.w3.org/2000/svg">
<path d="M1.30711 14.7112H3.04992C3.76883 14.7112 4.35702 15.3167 4.35702 16.0567V17.8508C4.35702 18.5909 3.76883 19.1963 3.04992 19.1963H1.30711C0.588198 19.1963 0 18.5909 0 17.8508V16.0567C0 15.3167 0.588198 14.7112 1.30711 14.7112Z" fill="#1A90FF"/>
<path d="M166.841 5.28101H170L165.785 19.1513H161.667L158.9 8.02816L156.188 19.1513H152.06L147.79 5.28101H150.971L154.238 16.7742L157.212 5.28101H160.621L163.541 16.7742L166.841 5.28101Z" fill="#1A90FF"/>
<path d="M134.697 5.28101H143.542C144.904 5.28101 145.59 6.03228 145.59 7.53478V12.8833H135.994V16.5723C135.994 16.9536 136.037 17.2003 136.135 17.3012C136.233 17.4021 136.451 17.4582 136.8 17.4582H141.484C141.81 17.4582 142.028 17.4021 142.126 17.3012C142.235 17.2003 142.278 16.9536 142.278 16.5723V15.0025H145.535V16.8863C145.535 18.3888 144.849 19.1401 143.488 19.1401H134.687C133.325 19.1401 132.639 18.3888 132.639 16.8863V7.53478C132.66 6.03228 133.336 5.28101 134.697 5.28101ZM135.994 11.2014H142.333V7.85997C142.333 7.50114 142.278 7.25447 142.181 7.14234C142.083 7.03022 141.865 6.97416 141.538 6.97416H136.8C136.451 6.97416 136.233 7.03022 136.135 7.14234C136.037 7.25447 135.994 7.48995 135.994 7.85997V11.2014Z" fill="#1A90FF"/>
<path d="M128.336 5.24805H130.591V7.10938H127.748C126.561 7.10938 125.962 7.827 125.962 9.25102V19.1407H122.628V5.28169H125.962V6.99725C126.288 5.83109 127.083 5.25924 128.336 5.24805Z" fill="#1A90FF"/>
<path d="M119.099 7.51255H115.603V3.93567C115.603 3.55443 115.559 3.30774 115.461 3.20683C115.363 3.10591 115.145 3.04985 114.797 3.04985H109.721C109.372 3.04985 109.155 3.10591 109.067 3.20683C108.98 3.30774 108.926 3.55443 108.926 3.93567V16.5726C108.926 16.9538 108.969 17.2005 109.067 17.3014C109.165 17.4023 109.383 17.4584 109.721 17.4584H114.797C115.145 17.4584 115.363 17.4023 115.461 17.3014C115.559 17.2005 115.603 16.9538 115.603 16.5726V13.0069H119.099V16.8978C119.099 18.4003 118.413 19.1515 117.052 19.1515H107.477C106.115 19.1515 105.429 18.4003 105.429 16.8978V3.6217C105.429 2.11918 106.115 1.36792 107.477 1.36792H117.052C118.413 1.36792 119.099 2.11918 119.099 3.6217V7.51255Z" fill="#1A90FF"/>
<path d="M97.7609 16.5838V13.9487C97.7609 13.5899 97.7064 13.3432 97.5977 13.2311C97.4887 13.119 97.2599 13.0629 96.9222 13.0629H90.8331C89.4066 13.0629 88.6982 12.3117 88.6982 10.7979V7.52375C88.6982 6.02125 89.4066 5.26998 90.8331 5.25879H98.9808C100.408 5.25879 101.116 6.01002 101.116 7.52375V9.27296H97.7064V7.81529C97.7064 7.43408 97.6522 7.18737 97.5432 7.08648C97.4342 6.98554 97.2054 6.92948 96.8676 6.92948H93.0225C92.6741 6.92948 92.4564 6.98554 92.3474 7.08648C92.2384 7.18737 92.1838 7.43408 92.1838 7.81529V10.5064C92.1838 10.8876 92.2384 11.1343 92.3474 11.2352C92.4564 11.3361 92.6852 11.3922 93.0225 11.3922H99.0899C100.517 11.3922 101.225 12.1435 101.225 13.646V16.8753C101.225 18.3778 100.517 19.1291 99.0899 19.1291H90.9204C89.4935 19.1291 88.7855 18.3778 88.7855 16.8753V15.1261H92.1949V16.5838C92.1949 16.9426 92.2494 17.1893 92.3585 17.3014C92.4671 17.4135 92.6958 17.4696 93.0336 17.4696H96.9332C97.271 17.4696 97.4997 17.4135 97.6084 17.3014C97.7174 17.1893 97.7609 16.9426 97.7609 16.5838Z" fill="white"/>
<path d="M84.3087 5.23657H86.6617V7.09792H83.6877C82.446 7.09792 81.8254 7.81551 81.8254 9.23958V19.1294H78.3394V5.25899H81.8254V6.97457C82.1627 5.81962 82.9908 5.23657 84.3087 5.23657Z" fill="white"/>
<path d="M63.068 5.25879H72.3266C73.7535 5.25879 74.4619 6.01002 74.4619 7.52375V12.8723H64.4187V16.5613C64.4187 16.9426 64.4732 17.1893 64.5712 17.2902C64.6692 17.3911 64.8979 17.4472 65.2574 17.4472H70.1593C70.5077 17.4472 70.7254 17.3911 70.8344 17.2902C70.9435 17.1893 70.998 16.9426 70.998 16.5613V14.9915H74.4073V16.8753C74.4073 18.3778 73.6994 19.1291 72.2725 19.1291H63.068C61.6411 19.1291 60.9331 18.3778 60.9331 16.8753V7.52375C60.9331 6.01002 61.6411 5.25879 63.068 5.25879ZM64.4187 11.1792H71.0525V7.83771C71.0525 7.47892 70.998 7.23225 70.889 7.12012C70.7799 7.00796 70.5512 6.9519 70.2138 6.9519H65.2574C64.8979 6.9519 64.6692 7.00796 64.5712 7.12012C64.4732 7.23225 64.4187 7.46769 64.4187 7.83771V11.1792Z" fill="white"/>
<path d="M53.3191 0H56.8157V19.1291H53.3191V18.2433C53.1014 18.8376 52.6001 19.1291 51.8052 19.1291H45.6945C44.2675 19.1291 43.5596 18.3779 43.5596 16.8753V7.52382C43.5596 6.02132 44.2675 5.27005 45.6945 5.25882H51.8052C52.6001 5.25882 53.1014 5.55036 53.3191 6.14463V0ZM47.8839 17.4472H52.3713C52.7202 17.4472 52.9596 17.3799 53.1014 17.2342C53.2428 17.0884 53.3191 16.8529 53.3191 16.5053V7.89384C53.3191 7.54624 53.2428 7.3108 53.1014 7.16503C52.9596 7.01926 52.7091 6.95197 52.3713 6.95197H47.8839C47.5244 6.95197 47.2956 7.00803 47.1977 7.12015C47.0993 7.23228 47.0452 7.46776 47.0452 7.83778V16.5614C47.0452 16.9426 47.0993 17.1893 47.1977 17.2902C47.2956 17.3911 47.5244 17.4472 47.8839 17.4472Z" fill="white"/>
<path d="M28.4513 5.25879H37.5139C38.9409 5.25879 39.6487 6.01002 39.6487 7.52375V16.8753C39.6487 18.3778 38.9409 19.1291 37.5139 19.1291H28.4513C27.0244 19.1291 26.3164 18.3778 26.3164 16.8753V7.52375C26.3164 6.01002 27.0244 5.25879 28.4513 5.25879ZM36.1959 16.5501V7.83771C36.1959 7.47892 36.1415 7.23225 36.0434 7.12012C35.9454 7.00796 35.7167 6.9519 35.3572 6.9519H30.6189C30.2813 6.9519 30.0525 7.00796 29.9436 7.12012C29.8347 7.23225 29.7802 7.46769 29.7802 7.83771V16.5613C29.7802 16.9426 29.8347 17.1893 29.9436 17.2902C30.0525 17.3911 30.2813 17.4472 30.6189 17.4472H35.3572C35.7167 17.4472 35.9454 17.3911 36.0434 17.2902C36.1415 17.178 36.1959 16.9426 36.1959 16.5501Z" fill="white"/>
<path d="M22.8526 7.49037H19.2036V3.91345C19.2036 3.53221 19.1491 3.28553 19.0511 3.18462C18.953 3.0837 18.7243 3.02763 18.3648 3.02763H13.0601C12.7007 3.02763 12.4719 3.0837 12.3739 3.18462C12.2759 3.28553 12.2214 3.53221 12.2214 3.91345V16.5504C12.2214 16.9316 12.265 17.1783 12.3739 17.2792C12.4828 17.3801 12.7007 17.4362 13.0601 17.4362H18.3648C18.7243 17.4362 18.953 17.3801 19.0511 17.2792C19.1491 17.1783 19.2036 16.9316 19.2036 16.5504V12.9735H22.8526V16.8643C22.8526 18.3669 22.1446 19.1181 20.7176 19.1181H10.6965C9.26955 19.1181 8.56152 18.3669 8.56152 16.8643V3.59949C8.56152 2.09697 9.26955 1.3457 10.6965 1.3457H20.7067C22.1337 1.3457 22.8417 2.09697 22.8417 3.59949V7.49037H22.8526Z" fill="white"/>
</svg>
