<svg width="100%" viewBox="0 0 219 24" fill="none" xmlns="http://www.w3.org/2000/svg">
<path d="M1.91027 18.3088H4.15C5.07389 18.3088 5.82979 19.0542 5.82979 19.9652V22.1737C5.82979 23.0847 5.07389 23.83 4.15 23.83H1.91027C0.986377 23.83 0.230469 23.0847 0.230469 22.1737V19.9652C0.230469 19.0542 0.986377 18.3088 1.91027 18.3088Z" fill="#1A90FF"/>
<path d="M214.643 6.69922H218.703L213.285 23.7736H207.994L204.438 10.081L200.953 23.7736H195.647L190.16 6.69922H194.248L198.447 20.8473L202.268 6.69922H206.65L210.402 20.8473L214.643 6.69922Z" fill="#1A90FF"/>
<path d="M173.333 6.69922H184.7C186.45 6.69922 187.331 7.62403 187.331 9.47362V16.0577H174.999V20.5989C174.999 21.0682 175.055 21.3718 175.181 21.4961C175.307 21.6203 175.587 21.6893 176.035 21.6893H182.054C182.474 21.6893 182.754 21.6203 182.88 21.4961C183.02 21.3718 183.076 21.0682 183.076 20.5989V18.6664H187.261V20.9853C187.261 22.835 186.379 23.7597 184.63 23.7597H173.319C171.569 23.7597 170.688 22.835 170.688 20.9853V9.47362C170.715 7.62403 171.584 6.69922 173.333 6.69922ZM174.999 13.9872H183.146V9.87392C183.146 9.4322 183.076 9.12855 182.95 8.99052C182.824 8.8525 182.544 8.78348 182.124 8.78348H176.035C175.587 8.78348 175.307 8.8525 175.181 8.99052C175.055 9.12855 174.999 9.41843 174.999 9.87392V13.9872Z" fill="#1A90FF"/>
<path d="M165.159 6.6582H168.057V8.94951H164.403C162.878 8.94951 162.108 9.83291 162.108 11.5859V23.7601H157.824V6.69962H162.108V8.81148C162.528 7.37593 163.55 6.67198 165.159 6.6582Z" fill="#1A90FF"/>
<path d="M153.287 9.44685H148.794V5.04371C148.794 4.5744 148.737 4.27074 148.611 4.14651C148.485 4.02228 148.205 3.95327 147.757 3.95327H141.234C140.786 3.95327 140.506 4.02228 140.394 4.14651C140.282 4.27074 140.212 4.5744 140.212 5.04371V20.5997C140.212 21.0691 140.268 21.3727 140.394 21.4969C140.52 21.6212 140.8 21.6902 141.234 21.6902H147.757C148.205 21.6902 148.485 21.6212 148.611 21.4969C148.737 21.3727 148.794 21.0691 148.794 20.5997V16.2104H153.287V21C153.287 22.8496 152.405 23.7744 150.655 23.7744H138.351C136.601 23.7744 135.719 22.8496 135.719 21V4.65722C135.719 2.80761 136.601 1.88281 138.351 1.88281H150.655C152.405 1.88281 153.287 2.80761 153.287 4.65722V9.44685Z" fill="#1A90FF"/>
<path d="M125.865 20.6149V17.3712C125.865 16.9294 125.795 16.6258 125.656 16.4878C125.516 16.3497 125.222 16.2807 124.788 16.2807H116.962C115.129 16.2807 114.219 15.3559 114.219 13.4925V9.462C114.219 7.61242 115.129 6.6876 116.962 6.67383H127.433C129.267 6.67383 130.177 7.59859 130.177 9.462V11.6153H125.795V9.82089C125.795 9.35162 125.726 9.04792 125.586 8.92372C125.446 8.79946 125.152 8.73045 124.717 8.73045H119.776C119.328 8.73045 119.049 8.79946 118.908 8.92372C118.768 9.04792 118.698 9.35162 118.698 9.82089V13.1336C118.698 13.6029 118.768 13.9066 118.908 14.0308C119.049 14.155 119.342 14.2241 119.776 14.2241H127.573C129.407 14.2241 130.317 15.1489 130.317 16.9985V20.9738C130.317 22.8233 129.407 23.7482 127.573 23.7482H117.075C115.241 23.7482 114.331 22.8233 114.331 20.9738V18.8205H118.712V20.6149C118.712 21.0566 118.782 21.3602 118.923 21.4983C119.062 21.6363 119.356 21.7053 119.79 21.7053H124.802C125.236 21.7053 125.53 21.6363 125.669 21.4983C125.81 21.3602 125.865 21.0566 125.865 20.6149Z" fill="#292929"/>
<path d="M108.578 6.64453H111.601V8.93584H107.779C106.184 8.93584 105.386 9.81919 105.386 11.5722V23.7465H100.906V6.67213H105.386V8.78399C105.82 7.36226 106.884 6.64453 108.578 6.64453Z" fill="#292929"/>
<path d="M81.2807 6.67383H93.1792C95.013 6.67383 95.9233 7.59859 95.9233 9.462V16.0461H83.0165V20.5873C83.0165 21.0566 83.0866 21.3602 83.2125 21.4845C83.3384 21.6087 83.6324 21.6777 84.0944 21.6777H90.3939C90.8417 21.6777 91.1215 21.6087 91.2616 21.4845C91.4017 21.3602 91.4718 21.0566 91.4718 20.5873V18.6548H95.8532V20.9738C95.8532 22.8233 94.9434 23.7482 93.1096 23.7482H81.2807C79.4469 23.7482 78.5371 22.8233 78.5371 20.9738V9.462C78.5371 7.59859 79.4469 6.67383 81.2807 6.67383ZM83.0165 13.9618H91.5418V9.84848C91.5418 9.40681 91.4718 9.10316 91.3316 8.96513C91.1915 8.82706 90.8976 8.75804 90.464 8.75804H84.0944C83.6324 8.75804 83.3384 8.82706 83.2125 8.96513C83.0866 9.10316 83.0165 9.39299 83.0165 9.84848V13.9618Z" fill="#292929"/>
<path d="M68.7531 0.199219H73.2468V23.7472H68.7531V22.6568C68.4734 23.3883 67.8291 23.7472 66.8076 23.7472H58.9545C57.1207 23.7472 56.2109 22.8224 56.2109 20.9728V9.46105C56.2109 7.61147 57.1207 6.68665 58.9545 6.67283H66.8076C67.8291 6.67283 68.4734 7.03172 68.7531 7.76327V0.199219ZM61.7682 21.6767H67.5352C67.9835 21.6767 68.2911 21.5939 68.4734 21.4145C68.6552 21.235 68.7531 20.9452 68.7531 20.5173V9.91654C68.7531 9.48864 68.6552 9.19882 68.4734 9.01937C68.2911 8.83993 67.9693 8.7571 67.5352 8.7571H61.7682C61.3062 8.7571 61.0122 8.82611 60.8863 8.96413C60.7599 9.10216 60.6904 9.39204 60.6904 9.84753V20.5863C60.6904 21.0556 60.7599 21.3593 60.8863 21.4835C61.0122 21.6077 61.3062 21.6767 61.7682 21.6767Z" fill="#292929"/>
<path d="M36.7944 6.67383H48.441C50.2748 6.67383 51.1845 7.59859 51.1845 9.462V20.9738C51.1845 22.8233 50.2748 23.7482 48.441 23.7482H36.7944C34.9606 23.7482 34.0508 22.8233 34.0508 20.9738V9.462C34.0508 7.59859 34.9606 6.67383 36.7944 6.67383ZM46.7472 20.5735V9.84848C46.7472 9.40681 46.6773 9.10316 46.5513 8.96513C46.4253 8.82706 46.1313 8.75804 45.6694 8.75804H39.5801C39.1462 8.75804 38.8522 8.82706 38.7122 8.96513C38.5722 9.10316 38.5022 9.39299 38.5022 9.84848V20.5873C38.5022 21.0566 38.5722 21.3602 38.7122 21.4845C38.8522 21.6087 39.1462 21.6777 39.5801 21.6777H45.6694C46.1313 21.6777 46.4253 21.6087 46.5513 21.4845C46.6773 21.3464 46.7472 21.0566 46.7472 20.5735Z" fill="#292929"/>
<path d="M29.5982 9.41954H24.9088V5.01636C24.9088 4.54706 24.8388 4.24339 24.7128 4.11917C24.5868 3.99494 24.2928 3.92592 23.8309 3.92592H17.0137C16.5518 3.92592 16.2578 3.99494 16.1318 4.11917C16.0059 4.24339 15.9359 4.54706 15.9359 5.01636V20.5724C15.9359 21.0417 15.9919 21.3453 16.1318 21.4696C16.2718 21.5938 16.5518 21.6628 17.0137 21.6628H23.8309C24.2928 21.6628 24.5868 21.5938 24.7128 21.4696C24.8388 21.3453 24.9088 21.0417 24.9088 20.5724V16.1692H29.5982V20.9589C29.5982 22.8085 28.6883 23.7333 26.8545 23.7333H13.9761C12.1423 23.7333 11.2324 22.8085 11.2324 20.9589V4.62988C11.2324 2.78027 12.1423 1.85547 13.9761 1.85547H26.8405C28.6743 1.85547 29.5842 2.78027 29.5842 4.62988V9.41954H29.5982Z" fill="#292929"/>
</svg>
