<svg width="100%" viewBox="0 0 471 451" fill="none" xmlns="http://www.w3.org/2000/svg">
<path d="M260.172 434.936C267.292 434.936 274.304 434.662 281.187 434.118C307.105 432.07 359.254 427.949 399.972 391.186C478.168 320.583 466.125 173.005 391.269 86.1181C381.693 75.0022 315.786 0.955109 212.99 0.955109C212.302 0.955109 211.615 0.958313 210.923 0.964691C134.794 1.70065 81.3597 42.7584 74.8627 47.8735C66.6555 54.3347 48.5527 69.6911 32.2368 94.0512C-6.09946 151.289 -9.46811 231.193 19.2111 295.2C61.7803 390.198 169.098 434.936 260.172 434.936ZM158.945 156.986C158.992 156.986 159.038 156.987 159.085 156.993C160.88 157.224 162.714 157.353 164.533 157.376C165.137 157.382 165.62 157.857 165.614 158.434C165.605 159.005 165.117 159.466 164.519 159.466H164.504C162.597 159.442 160.675 159.306 158.791 159.064C158.194 158.986 157.774 158.461 157.854 157.889C157.929 157.361 158.404 156.986 158.945 156.986ZM175.63 156.235C176.128 156.235 176.582 156.56 176.699 157.046C176.834 157.607 176.467 158.168 175.878 158.298C174.025 158.708 172.122 159.013 170.229 159.206C170.189 159.211 170.15 159.213 170.11 159.213C169.56 159.213 169.084 158.816 169.024 158.279C168.961 157.706 169.395 157.191 169.995 157.13C171.802 156.944 173.616 156.653 175.386 156.262C175.468 156.243 175.549 156.235 175.63 156.235ZM148.13 154.279C148.265 154.279 148.402 154.303 148.534 154.352C150.219 154.991 151.966 155.539 153.726 155.982C154.31 156.128 154.659 156.7 154.505 157.258C154.377 157.726 153.933 158.037 153.447 158.037C153.356 158.037 153.262 158.026 153.169 158.002C151.323 157.538 149.493 156.965 147.726 156.294C147.166 156.081 146.89 155.474 147.114 154.937C147.284 154.528 147.695 154.279 148.13 154.279ZM186.131 152.579C186.53 152.579 186.913 152.788 187.107 153.148C187.382 153.663 187.169 154.292 186.63 154.555C184.935 155.381 183.166 156.117 181.376 156.74C181.251 156.783 181.124 156.804 181 156.804C180.553 156.804 180.134 156.539 179.973 156.117C179.766 155.576 180.058 154.975 180.625 154.778C182.332 154.182 184.019 153.483 185.635 152.692C185.796 152.616 185.964 152.579 186.131 152.579ZM138.329 149.166C138.55 149.166 138.773 149.229 138.965 149.361C140.443 150.371 142 151.303 143.593 152.135C144.124 152.41 144.319 153.044 144.029 153.553C143.83 153.9 143.455 154.096 143.068 154.096C142.891 154.096 142.711 154.054 142.544 153.968C140.874 153.097 139.242 152.119 137.692 151.061C137.202 150.725 137.088 150.072 137.438 149.604C137.652 149.318 137.989 149.166 138.329 149.166ZM193.214 148.312C193.542 148.312 193.868 148.453 194.084 148.721C194.452 149.178 194.361 149.835 193.881 150.185C193.15 150.72 192.388 151.246 191.612 151.746C191.423 151.867 191.21 151.926 190.999 151.926C190.647 151.926 190.304 151.765 190.092 151.467C189.753 150.99 189.883 150.34 190.385 150.016C191.125 149.538 191.854 149.036 192.549 148.527C192.748 148.382 192.982 148.312 193.214 148.312ZM130.087 141.962C130.396 141.962 130.703 142.086 130.92 142.327C132.099 143.641 133.379 144.903 134.721 146.078C135.166 146.467 135.196 147.128 134.787 147.553C134.572 147.778 134.277 147.893 133.98 147.893C133.716 147.893 133.451 147.802 133.242 147.619C131.836 146.387 130.494 145.065 129.258 143.686C128.864 143.249 128.918 142.59 129.376 142.214C129.582 142.045 129.835 141.962 130.087 141.962ZM82.7345 138.735C83.6789 138.735 84.4664 139.458 84.4981 140.371C84.5315 141.304 83.7656 142.086 82.7879 142.118C81.967 142.144 81.1478 142.158 80.3336 142.158C79.1707 142.158 77.9978 142.131 76.8465 142.077C75.8688 142.031 75.1163 141.237 75.1631 140.304C75.2097 139.397 75.994 138.695 76.935 138.695C76.9633 138.695 76.9917 138.696 77.0201 138.698C78.1129 138.749 79.2158 138.774 80.3236 138.774C81.1045 138.774 81.887 138.762 82.6695 138.736C82.6912 138.735 82.7129 138.735 82.7345 138.735ZM97.7641 136.664C98.5499 136.664 99.2707 137.172 99.4759 137.933C99.7212 138.837 99.1522 139.759 98.2045 139.993C96.2958 140.465 94.3404 140.866 92.3916 141.183C92.2915 141.201 92.1897 141.209 92.0913 141.209C91.2437 141.209 90.4946 140.625 90.3477 139.8C90.1826 138.881 90.8316 138.007 91.7943 137.849C93.6463 137.546 95.505 137.167 97.3169 136.719C97.4671 136.681 97.6172 136.664 97.7641 136.664ZM61.9438 136.388C62.1006 136.388 62.2592 136.409 62.4177 136.45C64.2263 136.93 66.075 137.341 67.9153 137.67C68.8763 137.844 69.5086 138.728 69.3284 139.646C69.1683 140.458 68.4241 141.024 67.5899 141.024C67.4814 141.024 67.3697 141.014 67.2596 140.995C65.3224 140.646 63.3754 140.214 61.47 139.71C60.5273 139.459 59.975 138.528 60.237 137.627C60.4539 136.879 61.168 136.388 61.9438 136.388ZM123.894 133.078C124.294 133.078 124.681 133.288 124.873 133.653C125.687 135.2 126.61 136.718 127.62 138.164C127.955 138.645 127.82 139.294 127.316 139.612C127.129 139.732 126.919 139.788 126.71 139.788C126.357 139.788 126.009 139.625 125.799 139.322C124.741 137.806 123.772 136.213 122.918 134.591C122.646 134.075 122.864 133.447 123.405 133.189C123.562 133.113 123.729 133.078 123.894 133.078ZM111.951 131.499C112.593 131.499 113.212 131.834 113.526 132.417C113.975 133.248 113.633 134.268 112.762 134.695C111.008 135.557 109.191 136.358 107.366 137.076C107.146 137.162 106.917 137.205 106.692 137.205C105.996 137.205 105.336 136.81 105.054 136.157C104.681 135.294 105.112 134.305 106.016 133.949C107.751 133.267 109.475 132.506 111.142 131.687C111.4 131.56 111.677 131.499 111.951 131.499ZM47.862 130.993C48.1456 130.993 48.4326 131.058 48.6979 131.193C50.353 132.041 52.0632 132.829 53.78 133.538C54.6776 133.908 55.0914 134.903 54.7027 135.762C54.414 136.401 53.7617 136.783 53.0759 136.783C52.8423 136.783 52.6038 136.737 52.3752 136.643C50.5666 135.897 48.7663 135.068 47.0244 134.175C46.1618 133.734 45.8381 132.708 46.3003 131.886C46.619 131.316 47.2313 130.993 47.862 130.993ZM122.326 125.223C122.858 125.223 123.383 125.451 123.732 125.885C124.328 126.628 124.181 127.689 123.403 128.258C122.634 128.82 121.847 129.373 121.062 129.898C120.752 130.107 120.397 130.206 120.045 130.206C119.487 130.206 118.939 129.956 118.595 129.487C118.031 128.723 118.224 127.668 119.025 127.131C119.769 126.631 120.519 126.107 121.249 125.572C121.57 125.336 121.948 125.223 122.326 125.223ZM35.3502 122.784C35.7606 122.784 36.1711 122.919 36.5064 123.195C37.9246 124.364 39.4146 125.49 40.9312 126.543C41.7237 127.093 41.8989 128.151 41.3233 128.906C40.9779 129.361 40.4373 129.604 39.89 129.604C39.528 129.604 39.1643 129.498 38.8506 129.28C37.2522 128.171 35.6855 126.986 34.1923 125.757C33.4514 125.146 33.368 124.079 34.007 123.372C34.3591 122.983 34.853 122.784 35.3502 122.784ZM210.155 123.19C210.237 123.19 210.32 123.2 210.404 123.217C210.993 123.348 211.361 123.907 211.226 124.469C211.018 125.334 210.779 126.206 210.517 127.056C210.377 127.512 209.942 127.807 209.468 127.807C209.366 127.807 209.262 127.794 209.159 127.765C208.58 127.601 208.248 127.021 208.418 126.469C208.667 125.656 208.895 124.826 209.092 124.003C209.209 123.52 209.658 123.19 210.155 123.19ZM211.291 112.402C211.864 112.412 212.396 112.848 212.409 113.425C212.416 113.749 212.419 114.072 212.419 114.392C212.419 115.918 212.337 117.463 212.176 118.983C212.117 119.52 211.642 119.921 211.088 119.921C211.051 119.921 211.013 119.918 210.976 119.915C210.374 119.856 209.937 119.345 209.998 118.77C210.153 117.322 210.232 115.848 210.232 114.392C210.232 114.086 210.227 113.777 210.22 113.468C210.208 112.891 210.687 112.414 211.291 112.402ZM25.004 112.168C25.5446 112.168 26.0785 112.404 26.4256 112.85C27.5434 114.285 28.7397 115.694 29.9827 117.038C30.6301 117.739 30.56 118.808 29.8275 119.426C29.4905 119.709 29.0717 119.85 28.6563 119.85C28.1641 119.85 27.6769 119.655 27.3265 119.278C26.0185 117.863 24.7604 116.38 23.5825 114.87C22.9985 114.12 23.162 113.06 23.9479 112.503C24.2649 112.278 24.6353 112.168 25.004 112.168ZM209.693 101.669C210.173 101.669 210.617 101.973 210.751 102.438C211.258 104.219 211.657 106.051 211.932 107.883C212.017 108.455 211.603 108.984 211.004 109.067C210.953 109.073 210.899 109.076 210.848 109.076C210.312 109.076 209.845 108.7 209.766 108.181C209.503 106.434 209.124 104.686 208.638 102.988C208.48 102.43 208.824 101.857 209.408 101.706C209.503 101.68 209.6 101.669 209.693 101.669ZM205.37 91.6346C205.752 91.6346 206.121 91.8258 206.323 92.1651C207.277 93.7756 208.133 95.461 208.87 97.1686C209.101 97.7023 208.835 98.314 208.276 98.5338C208.14 98.5864 207.999 98.6119 207.859 98.6119C207.429 98.6119 207.022 98.3682 206.848 97.9651C206.144 96.3355 205.328 94.7298 204.417 93.1941C204.12 92.6924 204.305 92.0536 204.831 91.77C205.003 91.6792 205.188 91.6346 205.37 91.6346ZM198.603 82.9225C198.891 82.9225 199.18 83.0309 199.395 83.2459C200.73 84.5824 201.991 86.0146 203.146 87.5008C203.506 87.9644 203.405 88.6191 202.919 88.9632C202.724 89.1018 202.495 89.1686 202.268 89.1686C201.935 89.1686 201.604 89.0221 201.389 88.7465C200.288 87.3271 199.083 85.962 197.812 84.6892C197.395 84.2702 197.41 83.6091 197.849 83.2109C198.06 83.0197 198.332 82.9225 198.603 82.9225ZM149.41 74.2391C150.389 74.2567 151.167 75.0277 151.148 75.9627C151.11 77.8823 150.985 79.8194 150.776 81.7198C150.681 82.588 149.912 83.2348 149.016 83.2348C148.954 83.2348 148.892 83.2315 148.829 83.2252C147.856 83.128 147.151 82.2949 147.252 81.3662C147.449 79.5613 147.569 77.7214 147.606 75.8974C147.624 74.9751 148.414 74.2391 149.376 74.2391H149.41ZM189.823 76.044C190.023 76.044 190.225 76.0966 190.407 76.2065C192.041 77.1942 193.629 78.2901 195.127 79.4626C195.593 79.8289 195.661 80.4868 195.279 80.9329C195.062 81.1846 194.749 81.3152 194.431 81.3152C194.188 81.3152 193.943 81.2372 193.739 81.0779C192.309 79.9596 190.794 78.9146 189.236 77.9715C188.725 77.6641 188.574 77.0189 188.897 76.5299C189.106 76.2161 189.459 76.044 189.823 76.044ZM179.557 71.4179C179.671 71.4179 179.784 71.4338 179.898 71.4689C181.734 72.0456 183.555 72.737 185.305 73.5271C185.852 73.774 186.086 74.3968 185.827 74.9177C185.64 75.2953 185.247 75.5167 184.838 75.5167C184.681 75.5167 184.522 75.4848 184.371 75.4164C182.701 74.6629 180.967 74.0034 179.215 73.4554C178.641 73.2754 178.329 72.6844 178.518 72.1364C178.668 71.6967 179.097 71.4179 179.557 71.4179ZM168.425 69.3343C168.447 69.3343 168.467 69.3359 168.487 69.3359C170.424 69.4665 172.366 69.7103 174.261 70.0655C174.854 70.1754 175.241 70.725 175.126 71.2905C175.024 71.7891 174.565 72.1348 174.053 72.1348C173.983 72.1348 173.913 72.1284 173.841 72.1157C172.036 71.778 170.182 71.5438 168.335 71.4211C167.731 71.3813 167.277 70.8827 167.319 70.306C167.359 69.7501 167.848 69.3343 168.425 69.3343ZM162.747 69.2913C163.311 69.2913 163.784 69.7342 163.812 70.2837C163.844 70.8604 163.38 71.351 162.777 71.3813C162.537 71.3924 162.297 71.4068 162.053 71.4243C160.442 71.5311 158.828 71.719 157.258 71.9866C157.193 71.9978 157.128 72.0025 157.065 72.0025C156.544 72.0025 156.084 71.6458 155.988 71.1408C155.883 70.5721 156.28 70.0304 156.874 69.9285C158.521 69.6497 160.213 69.4522 161.896 69.3407C162.153 69.3216 162.409 69.3072 162.664 69.2945C162.692 69.2929 162.721 69.2913 162.747 69.2913ZM147.965 59.5677C148.792 59.5677 149.528 60.1188 149.7 60.9201C150.104 62.7903 150.427 64.705 150.663 66.6103C150.778 67.5374 150.084 68.3785 149.111 68.4884C149.041 68.4964 148.971 68.4996 148.902 68.4996C148.017 68.4996 147.251 67.8672 147.144 67.007C146.92 65.1973 146.613 63.3781 146.23 61.6003C146.033 60.6859 146.65 59.7907 147.608 59.6027C147.728 59.5788 147.848 59.5677 147.965 59.5677ZM143.178 45.5621C143.85 45.5621 144.494 45.9301 144.791 46.5513C145.626 48.2941 146.388 50.0926 147.06 51.8974C147.389 52.7768 146.909 53.7437 145.988 54.0575C145.791 54.1244 145.589 54.1563 145.392 54.1563C144.665 54.1563 143.982 53.7246 143.724 53.0316C143.085 51.3192 142.36 49.6115 141.568 47.9563C141.162 47.1073 141.555 46.1037 142.444 45.715C142.682 45.6115 142.933 45.5621 143.178 45.5621ZM135.229 32.9281C135.763 32.9281 136.289 33.1559 136.639 33.5908C137.857 35.1121 139.023 36.7019 140.103 38.3172C140.629 39.1057 140.387 40.1507 139.561 40.6525C139.265 40.8325 138.937 40.9185 138.61 40.9185C138.026 40.9185 137.453 40.6429 137.115 40.1364C136.09 38.6023 134.982 37.0921 133.825 35.6473C133.231 34.905 133.379 33.8441 134.155 33.2754C134.477 33.0412 134.854 32.9281 135.229 32.9281ZM124.546 22.2965C124.947 22.2965 125.349 22.4239 125.679 22.6883C127.222 23.9165 128.727 25.2196 130.152 26.5641C130.848 27.2188 130.855 28.2909 130.167 28.9552C129.82 29.2897 129.365 29.4585 128.908 29.4585C128.457 29.4585 128.007 29.2961 127.663 28.9695C126.308 27.6935 124.878 26.4542 123.412 25.2865C122.661 24.6891 122.559 23.6218 123.185 22.905C123.535 22.5035 124.039 22.2965 124.546 22.2965Z" fill="url(#paint0_linear_1801_3223)"/>
<path d="M149.016 83.2344C149.912 83.2344 150.681 82.5876 150.776 81.7194C150.985 79.819 151.11 77.8819 151.148 75.9624C151.166 75.0273 150.389 74.2563 149.41 74.2387H149.376C148.413 74.2387 147.624 74.9747 147.606 75.897C147.569 77.721 147.449 79.5609 147.252 81.3658C147.15 82.2945 147.856 83.1276 148.829 83.2248C148.892 83.2312 148.954 83.2344 149.016 83.2344ZM148.902 68.4992C148.971 68.4992 149.041 68.496 149.111 68.488C150.084 68.3781 150.778 67.537 150.663 66.6099C150.427 64.7047 150.104 62.7899 149.7 60.9197C149.528 60.1185 148.792 59.5673 147.965 59.5673C147.848 59.5673 147.728 59.5784 147.608 59.6023C146.65 59.7903 146.033 60.6855 146.229 61.5999C146.613 63.3777 146.92 65.1969 147.144 67.0065C147.251 67.8668 148.016 68.4992 148.902 68.4992ZM145.392 54.1559C145.589 54.1559 145.791 54.124 145.988 54.0571C146.909 53.7433 147.389 52.7763 147.06 51.897C146.388 50.0922 145.626 48.2937 144.791 46.5509C144.494 45.9297 143.85 45.5617 143.178 45.5617C142.933 45.5617 142.682 45.6111 142.444 45.7146C141.554 46.1033 141.162 47.1069 141.568 47.9559C142.36 49.6111 143.084 51.3188 143.723 53.0312C143.982 53.7242 144.664 54.1559 145.392 54.1559ZM138.61 40.9181C138.937 40.9181 139.265 40.8321 139.561 40.6521C140.387 40.1503 140.628 39.1053 140.103 38.3168C139.023 36.7015 137.857 35.1117 136.639 33.5904C136.289 33.1555 135.763 32.9277 135.229 32.9277C134.854 32.9277 134.477 33.0408 134.155 33.2749C133.379 33.8436 133.23 34.9046 133.824 35.6469C134.982 37.0918 136.09 38.6019 137.115 40.136C137.453 40.6425 138.026 40.9181 138.61 40.9181ZM128.907 29.4581C129.365 29.4581 129.82 29.2893 130.167 28.9548C130.855 28.2905 130.848 27.2184 130.152 26.5637C128.727 25.2192 127.222 23.9161 125.679 22.6879C125.349 22.4235 124.947 22.2961 124.546 22.2961C124.039 22.2961 123.535 22.5031 123.185 22.9046C122.559 23.6214 122.661 24.6887 123.412 25.2861C124.878 26.4537 126.308 27.6931 127.663 28.9691C128.007 29.2957 128.457 29.4581 128.907 29.4581Z" fill="url(#paint1_linear_1801_3223)"/>
<path d="M116.79 20.332C117.382 20.332 117.959 20.0501 118.295 19.5339C118.812 18.7406 118.557 17.6988 117.728 17.205C116.024 16.1935 114.254 15.2392 112.467 14.3711C112.21 14.2452 111.935 14.1863 111.664 14.1863C111.019 14.1863 110.398 14.524 110.084 15.1102C109.64 15.9418 109.987 16.9597 110.858 17.385C112.557 18.2102 114.237 19.1166 115.855 20.0772C116.147 20.2508 116.469 20.332 116.79 20.332ZM51.8749 16.305C52.1202 16.305 52.3705 16.2572 52.6074 16.1536C54.3392 15.4017 56.1312 14.712 57.9298 14.1034C58.8508 13.7928 59.3346 12.8258 59.0076 11.9465C58.7507 11.252 58.0666 10.8187 57.3375 10.8187C57.1423 10.8187 56.942 10.849 56.7468 10.9159C54.8531 11.5562 52.9661 12.2827 51.1425 13.0728C50.2515 13.4599 49.8578 14.4635 50.2615 15.3125C50.5585 15.937 51.2025 16.305 51.8749 16.305ZM102.865 14.0015C103.601 14.0015 104.288 13.5618 104.54 12.8609C104.859 11.9784 104.368 11.0146 103.442 10.7104C101.547 10.0859 99.5997 9.53315 97.6559 9.0664C97.5107 9.03295 97.3672 9.01703 97.2254 9.01703C96.4312 9.01703 95.7071 9.52677 95.5052 10.2962C95.2667 11.201 95.8423 12.1202 96.7916 12.348C98.6386 12.7908 100.487 13.3165 102.288 13.9091C102.479 13.9712 102.675 14.0015 102.865 14.0015ZM66.5557 11.7617C66.6725 11.7617 66.791 11.7506 66.9094 11.7283C68.7765 11.3651 70.6835 11.0752 72.5789 10.8649C73.5516 10.7566 74.2473 9.91546 74.1339 8.98834C74.0288 8.12972 73.2663 7.49252 72.382 7.49252C72.3119 7.49252 72.2402 7.49572 72.1685 7.50368C70.1746 7.7267 68.1675 8.03096 66.2037 8.41169C65.246 8.59807 64.6253 9.49172 64.8205 10.4077C64.9924 11.209 65.7299 11.7617 66.5557 11.7617ZM87.8086 10.7996C88.7029 10.7996 89.4721 10.156 89.5688 9.28784C89.6723 8.35912 88.9682 7.52598 87.9955 7.42562C86.0033 7.22331 83.9762 7.09906 81.9673 7.05923H81.9306C80.9696 7.05923 80.1804 7.79361 80.1604 8.71436C80.1387 9.64945 80.9162 10.422 81.8939 10.4411C83.801 10.4794 85.7264 10.5973 87.6201 10.79C87.6835 10.7964 87.7469 10.7996 87.8086 10.7996Z" fill="#DEE8FD"/>
<path d="M41.0638 22.1777C41.4125 22.1777 41.7645 22.0806 42.0732 21.8751C42.8223 21.3781 43.5965 20.8858 44.3706 20.4143C45.1965 19.9125 45.4401 18.8675 44.9129 18.079C44.5759 17.574 44.0036 17.2968 43.4179 17.2968C43.0926 17.2968 42.7622 17.3812 42.4686 17.5612C41.6527 18.0567 40.8385 18.5744 40.0493 19.0985C39.2468 19.6305 39.0482 20.6851 39.6072 21.4513C39.9509 21.9245 40.5031 22.1777 41.0638 22.1777Z" fill="#DEE8FD"/>
<path d="M12.2863 65.8125C13.1406 65.8125 13.8931 65.2199 14.0332 64.3884C14.1784 63.5281 14.3436 62.6552 14.5271 61.795C14.7206 60.8806 14.1016 59.9869 13.1423 59.8022C13.0238 59.7783 12.9037 59.7671 12.7869 59.7671C11.9593 59.7671 11.2235 60.3215 11.0533 61.1227C10.8614 62.0275 10.6879 62.9467 10.5344 63.8531C10.3809 64.7755 11.0383 65.6437 12.0043 65.7918C12.0994 65.8061 12.1929 65.8125 12.2863 65.8125Z" fill="#DEE8FD"/>
<path d="M80.3328 142.158C81.147 142.158 81.9662 142.144 82.7871 142.118C83.7648 142.087 84.5306 141.304 84.4972 140.371C84.4655 139.458 83.678 138.735 82.7337 138.735C82.712 138.735 82.6903 138.735 82.6686 138.736C81.8861 138.762 81.1036 138.775 80.3228 138.775C79.2149 138.775 78.112 138.749 77.0192 138.698C76.9908 138.697 76.9625 138.695 76.9341 138.695C75.9931 138.695 75.2089 139.398 75.1622 140.304C75.1155 141.237 75.868 142.031 76.8457 142.077C77.9969 142.131 79.1698 142.158 80.3328 142.158ZM92.0904 141.209C92.1889 141.209 92.2907 141.201 92.3908 141.183C94.3395 140.866 96.2949 140.465 98.2037 139.993C99.1514 139.759 99.7203 138.837 99.4751 137.934C99.2698 137.172 98.5491 136.664 97.7632 136.664C97.6164 136.664 97.4662 136.682 97.3161 136.72C95.5041 137.167 93.6454 137.546 91.7934 137.849C90.8307 138.007 90.1817 138.881 90.3469 139.801C90.4937 140.626 91.2429 141.209 92.0904 141.209ZM67.5891 141.024C68.4233 141.024 69.1674 140.458 69.3276 139.646C69.5078 138.729 68.8754 137.844 67.9144 137.671C66.0741 137.341 64.2254 136.93 62.4168 136.451C62.2583 136.409 62.0998 136.388 61.943 136.388C61.1671 136.388 60.453 136.879 60.2361 137.628C59.9742 138.528 60.5264 139.46 61.4691 139.71C63.3745 140.215 65.3216 140.646 67.2587 140.995C67.3688 141.014 67.4806 141.024 67.5891 141.024ZM106.691 137.206C106.916 137.206 107.145 137.163 107.365 137.077C109.191 136.358 111.007 135.557 112.761 134.695C113.632 134.268 113.974 133.249 113.525 132.417C113.212 131.834 112.592 131.499 111.95 131.499C111.677 131.499 111.4 131.56 111.141 131.687C109.474 132.506 107.751 133.268 106.015 133.95C105.111 134.305 104.681 135.294 105.053 136.157C105.335 136.811 105.995 137.206 106.691 137.206ZM53.0751 136.783C53.7608 136.783 54.4132 136.401 54.7018 135.762C55.0906 134.904 54.6768 133.908 53.7792 133.539C52.0623 132.83 50.3521 132.041 48.697 131.194C48.4317 131.058 48.1448 130.993 47.8611 130.993C47.2305 130.993 46.6181 131.316 46.2995 131.887C45.8373 132.709 46.1609 133.734 47.0236 134.176C48.7654 135.068 50.5657 135.898 52.3743 136.643C52.6029 136.737 52.8415 136.783 53.0751 136.783ZM39.8892 129.604C40.4365 129.604 40.9771 129.362 41.3224 128.906C41.898 128.151 41.7229 127.093 40.9303 126.544C39.4137 125.491 37.9238 124.365 36.5056 123.195C36.1702 122.92 35.7598 122.784 35.3493 122.784C34.8521 122.784 34.3583 122.983 34.0062 123.372C33.3672 124.079 33.4506 125.147 34.1914 125.757C35.6847 126.987 37.2514 128.172 38.8498 129.28C39.1634 129.499 39.5271 129.604 39.8892 129.604ZM28.6555 119.85C29.0709 119.85 29.4897 119.71 29.8267 119.426C30.5592 118.808 30.6292 117.739 29.9819 117.038C28.7389 115.694 27.5426 114.286 26.4247 112.85C26.0777 112.404 25.5438 112.169 25.0032 112.169C24.6345 112.169 24.264 112.278 23.947 112.503C23.1612 113.061 22.9977 114.12 23.5816 114.87C24.7596 116.38 26.0176 117.864 27.3257 119.278C27.6761 119.656 28.1633 119.85 28.6555 119.85Z" fill="url(#paint2_linear_1801_3223)"/>
<path d="M19.9167 107.99C20.2054 107.99 20.499 107.922 20.7693 107.78C21.6269 107.331 21.9389 106.302 21.4684 105.484C20.5641 103.914 19.7198 102.289 18.959 100.655C18.6654 100.024 18.018 99.6493 17.339 99.6493C17.0987 99.6493 16.8551 99.6955 16.6215 99.7943C15.7272 100.173 15.3234 101.174 15.7222 102.028C16.5231 103.75 17.4107 105.461 18.3634 107.112C18.6854 107.673 19.2927 107.99 19.9167 107.99ZM14.1172 94.582C14.279 94.582 14.4442 94.5613 14.6077 94.5167C15.5487 94.257 16.0909 93.3203 15.8207 92.4235C15.3018 90.7047 14.8546 88.9444 14.4892 87.1858C14.3207 86.3813 13.5782 85.8253 12.7523 85.8253C12.6372 85.8253 12.5221 85.8349 12.407 85.8572C11.4459 86.0388 10.8236 86.9293 11.0138 87.8452C11.3976 89.6963 11.8697 91.5506 12.4153 93.3586C12.6389 94.0993 13.348 94.582 14.1172 94.582ZM11.5461 80.2961C11.5811 80.2961 11.6178 80.2945 11.6545 80.2929C12.6322 80.2355 13.3747 79.4342 13.3146 78.5023C13.2312 77.1865 13.1878 75.8516 13.1878 74.5358C13.1878 74.0595 13.1945 73.5832 13.2045 73.1101C13.2262 72.1766 12.4504 71.4024 11.4726 71.3817C11.4476 71.3817 11.4242 71.3801 11.3992 71.3801C10.4432 71.3801 9.68405 72.1256 9.66236 73.0368C9.65068 73.5354 9.64567 74.034 9.64567 74.5358C9.64567 75.9201 9.69072 77.3235 9.77915 78.7078C9.83588 79.6047 10.6167 80.2961 11.5461 80.2961Z" fill="#DEE8FD"/>
<path d="M120.044 130.205C120.396 130.205 120.752 130.106 121.062 129.898C121.846 129.372 122.634 128.819 123.403 128.257C124.181 127.688 124.327 126.627 123.732 125.885C123.383 125.45 122.857 125.222 122.325 125.222C121.948 125.222 121.569 125.335 121.249 125.571C120.518 126.106 119.769 126.63 119.025 127.131C118.224 127.667 118.031 128.722 118.595 129.487C118.938 129.955 119.487 130.205 120.044 130.205Z" fill="url(#paint3_linear_1801_3223)"/>
<path d="M117.651 110.588C117.429 110.849 117.056 110.946 116.725 110.83L107.267 107.51C103.538 110.252 99.325 112.445 94.7451 113.948L92.4392 123.308C92.3575 123.636 92.0672 123.878 91.7168 123.913L79.6905 125.076C79.3384 125.11 79.0031 124.926 78.8563 124.621L74.6301 115.894C69.8266 115.298 65.2383 113.955 61.0104 111.983L52.4428 117.047C52.1425 117.224 51.7571 117.2 51.4835 116.989L42.1184 109.691C41.8448 109.478 41.743 109.122 41.8648 108.805L45.3418 99.7762C42.4704 96.2159 40.173 92.1936 38.5996 87.8208L28.7957 85.6177C28.452 85.5413 28.1984 85.2641 28.1617 84.928L26.9437 73.4473C26.9087 73.1112 27.0989 72.791 27.4209 72.6492L36.5607 68.6157C37.1847 64.0295 38.5912 59.6488 40.6568 55.6122L35.3528 47.4305C35.1676 47.1438 35.1926 46.7758 35.4145 46.5146L43.0577 37.5747C43.2813 37.3119 43.6534 37.2147 43.9854 37.331L53.4422 40.6524C57.1712 37.9108 61.3841 35.7173 65.9641 34.2151L68.2699 24.8547C68.3516 24.5265 68.6419 24.2828 68.9923 24.2493L81.0186 23.0864C81.3707 23.0514 81.706 23.2346 81.8545 23.5404L86.079 32.2684C90.8825 32.8642 95.4708 34.2071 99.6987 36.1792L108.268 31.1151C108.568 30.9367 108.954 30.9606 109.227 31.174L118.591 38.4699C118.864 38.6834 118.966 39.0387 118.844 39.3557L115.367 48.3863C118.239 51.9451 120.536 55.969 122.11 60.3417L131.913 62.5433C132.257 62.6213 132.512 62.8985 132.547 63.233L133.765 74.7153C133.8 75.0514 133.61 75.37 133.29 75.5118L124.148 79.5469C123.524 84.1315 122.118 88.5122 120.052 92.5504L125.356 100.73C125.543 101.017 125.518 101.385 125.295 101.646L117.651 110.588Z" fill="#91B3FA"/>
<path d="M80.3371 65.1862C80.7943 65.1862 81.2548 65.2165 81.7153 65.2818C86.7974 65.997 90.3212 70.5259 89.5737 75.3782C88.8246 80.2304 84.0811 83.598 78.999 82.8811C73.9168 82.1659 70.393 77.6354 71.1405 72.7848C71.5042 70.4335 72.804 68.3594 74.8011 66.9417C76.4246 65.7899 78.3516 65.1862 80.3371 65.1862ZM80.3655 85.6816C86.2885 85.6816 91.4891 81.5303 92.3767 75.7732C93.3545 69.4443 88.7562 63.5375 82.129 62.6056C78.9172 62.1516 75.7154 62.9225 73.111 64.7704C70.5048 66.6183 68.8097 69.3248 68.3375 72.3897C67.3598 78.7187 71.9581 84.6239 78.5852 85.5574C79.1825 85.6418 79.7782 85.6816 80.3655 85.6816Z" fill="#BDD0FB"/>
<path d="M80.1163 102.436C81.1341 102.436 82.1568 102.388 83.183 102.287C83.505 102.257 83.827 102.22 84.149 102.179C85.7357 101.977 87.3024 101.653 88.8257 101.215C88.8474 101.211 88.8674 101.204 88.8891 101.198C88.9475 101.18 89.0059 101.164 89.0643 101.145C89.1794 101.112 89.2929 101.077 89.408 101.042C89.7066 100.949 89.8968 100.685 89.8985 100.4C89.8985 100.33 89.8868 100.26 89.8635 100.189C89.7434 99.8342 89.3429 99.6415 88.9709 99.7546C87.0555 100.347 85.06 100.747 83.0395 100.941C73.007 101.913 63.6469 97.7585 57.8173 90.7111C54.5738 86.7908 52.4232 81.9752 51.8592 76.6482C51.7591 75.7131 51.7107 74.7812 51.7107 73.8557C51.7107 67.6207 53.9398 61.6263 58.1226 56.731C62.9295 51.1078 69.7418 47.6095 77.3033 46.8784C92.9218 45.3682 106.904 56.2659 108.484 71.1715C108.582 72.0906 108.63 73.0114 108.63 73.929C108.629 77.9051 107.718 81.8366 105.944 85.4399C105.899 85.5339 105.877 85.6311 105.877 85.7267C105.877 85.9816 106.028 86.2253 106.284 86.34C106.64 86.4977 107.062 86.3543 107.227 86.015C109.089 82.2332 110.047 78.1042 110.047 73.929C110.047 72.9652 109.997 71.9998 109.895 71.0361C108.235 55.3865 93.5458 43.9473 77.1615 45.5307C69.2212 46.2985 62.0702 49.9736 57.0248 55.8756C52.6334 61.0146 50.2942 67.3085 50.2925 73.8525C50.2925 74.8242 50.3442 75.8039 50.4494 76.7836C51.2536 84.3647 55.101 91.1922 61.2827 96.0094C66.6668 100.204 73.2606 102.436 80.1163 102.436Z" fill="#BDD0FB"/>
<path d="M209.467 127.807C209.941 127.807 210.377 127.512 210.517 127.056C210.779 126.206 211.017 125.334 211.226 124.469C211.361 123.907 210.992 123.348 210.403 123.217C210.32 123.2 210.237 123.19 210.155 123.19C209.658 123.19 209.209 123.52 209.092 124.002C208.895 124.826 208.667 125.656 208.418 126.468C208.248 127.021 208.58 127.601 209.159 127.765C209.262 127.794 209.366 127.807 209.467 127.807Z" fill="url(#paint4_linear_1801_3223)"/>
<path d="M211.087 119.922C211.64 119.922 212.116 119.52 212.174 118.984C212.336 117.464 212.418 115.919 212.418 114.393C212.418 114.072 212.415 113.749 212.408 113.426C212.395 112.849 211.862 112.413 211.29 112.403C210.686 112.414 210.207 112.892 210.219 113.469C210.226 113.778 210.231 114.087 210.231 114.393C210.231 115.849 210.152 117.322 209.997 118.77C209.935 119.345 210.372 119.857 210.975 119.915C211.011 119.919 211.05 119.922 211.087 119.922ZM210.846 109.077C210.898 109.077 210.951 109.074 211.003 109.067C211.602 108.984 212.016 108.455 211.931 107.884C211.655 106.052 211.257 104.22 210.75 102.439C210.616 101.974 210.172 101.669 209.692 101.669C209.598 101.669 209.501 101.681 209.406 101.706C208.822 101.857 208.479 102.431 208.637 102.988C209.123 104.686 209.501 106.434 209.765 108.182C209.844 108.701 210.311 109.077 210.846 109.077ZM207.858 98.6124C207.998 98.6124 208.138 98.5869 208.275 98.5343C208.834 98.3145 209.099 97.7028 208.869 97.1692C208.132 95.4615 207.276 93.7761 206.321 92.1656C206.12 91.8263 205.751 91.6351 205.369 91.6351C205.187 91.6351 205.002 91.6797 204.83 91.7705C204.304 92.0541 204.119 92.6929 204.416 93.1946C205.327 94.7303 206.143 96.336 206.847 97.9657C207.021 98.3687 207.428 98.6124 207.858 98.6124ZM202.267 89.1692C202.494 89.1692 202.723 89.1023 202.918 88.9637C203.403 88.6196 203.505 87.9648 203.145 87.5013C201.99 86.015 200.729 84.5829 199.394 83.2464C199.179 83.0314 198.89 82.923 198.601 82.923C198.331 82.923 198.059 83.0202 197.847 83.2114C197.408 83.6096 197.393 84.2707 197.811 84.6897C199.082 85.9625 200.287 87.3277 201.388 88.747C201.603 89.0226 201.933 89.1692 202.267 89.1692ZM194.43 81.3157C194.747 81.3157 195.061 81.1851 195.278 80.9334C195.66 80.4874 195.592 79.8294 195.126 79.4631C193.628 78.2906 192.039 77.1946 190.406 76.207C190.224 76.0971 190.022 76.0445 189.822 76.0445C189.458 76.0445 189.105 76.2165 188.896 76.5304C188.572 77.0194 188.724 77.6646 189.235 77.972C190.793 78.9151 192.308 79.9601 193.738 81.0784C193.941 81.2376 194.187 81.3157 194.43 81.3157ZM184.837 75.5172C185.245 75.5172 185.639 75.2958 185.826 74.9182C186.085 74.3973 185.851 73.7745 185.304 73.5276C183.554 72.7374 181.733 72.0461 179.896 71.4694C179.783 71.4344 179.669 71.4184 179.556 71.4184C179.095 71.4184 178.667 71.6972 178.516 72.1369C178.328 72.6849 178.64 73.2759 179.214 73.4559C180.966 74.0039 182.699 74.6634 184.369 75.4169C184.521 75.4853 184.68 75.5172 184.837 75.5172ZM174.052 72.1353C174.564 72.1353 175.023 71.7896 175.124 71.291C175.24 70.7255 174.853 70.1759 174.26 70.066C172.365 69.7107 170.423 69.467 168.486 69.3364C168.466 69.3364 168.446 69.3348 168.424 69.3348C167.847 69.3348 167.358 69.7506 167.318 70.3065C167.276 70.8832 167.73 71.3818 168.334 71.4216C170.181 71.5443 172.034 71.7785 173.84 72.1162C173.912 72.1289 173.982 72.1353 174.052 72.1353ZM157.063 72.0031C157.127 72.0031 157.192 71.9983 157.257 71.9871C158.827 71.7195 160.44 71.5315 162.052 71.4248C162.296 71.4073 162.536 71.3929 162.776 71.3818C163.379 71.3515 163.842 70.8609 163.811 70.2842C163.782 69.7347 163.31 69.2918 162.746 69.2918C162.719 69.2918 162.691 69.2934 162.663 69.295C162.407 69.3077 162.152 69.3221 161.895 69.3412C160.212 69.4527 158.52 69.6502 156.873 69.929C156.279 70.0309 155.882 70.5726 155.987 71.1413C156.082 71.6462 156.543 72.0031 157.063 72.0031Z" fill="url(#paint5_linear_1801_3223)"/>
<path d="M164.504 159.465H164.519C165.116 159.465 165.605 159.004 165.613 158.433C165.62 157.856 165.136 157.381 164.532 157.375C162.713 157.353 160.88 157.224 159.085 156.993C159.038 156.986 158.991 156.985 158.944 156.985C158.404 156.985 157.928 157.361 157.853 157.888C157.773 158.46 158.194 158.985 158.791 159.063C160.675 159.306 162.597 159.441 164.504 159.465ZM170.11 159.212C170.15 159.212 170.188 159.21 170.228 159.205C172.122 159.012 174.024 158.707 175.878 158.297C176.467 158.167 176.834 157.606 176.698 157.045C176.582 156.559 176.128 156.234 175.629 156.234C175.549 156.234 175.467 156.242 175.385 156.261C173.615 156.652 171.802 156.943 169.995 157.13C169.394 157.19 168.96 157.705 169.024 158.278C169.084 158.815 169.559 159.212 170.11 159.212ZM153.447 158.036C153.932 158.036 154.376 157.725 154.505 157.257C154.658 156.699 154.309 156.128 153.725 155.981C151.965 155.538 150.218 154.99 148.533 154.351C148.401 154.302 148.265 154.278 148.129 154.278C147.694 154.278 147.283 154.527 147.113 154.936C146.89 155.473 147.165 156.08 147.726 156.293C149.493 156.964 151.323 157.537 153.168 158.001C153.262 158.025 153.355 158.036 153.447 158.036ZM181 156.803C181.123 156.803 181.25 156.782 181.375 156.739C183.165 156.116 184.934 155.38 186.629 154.554C187.168 154.291 187.382 153.662 187.106 153.147C186.913 152.787 186.529 152.578 186.13 152.578C185.963 152.578 185.795 152.615 185.635 152.691C184.018 153.482 182.331 154.181 180.624 154.777C180.057 154.974 179.765 155.575 179.972 156.116C180.134 156.539 180.553 156.803 181 156.803ZM143.067 154.095C143.454 154.095 143.83 153.899 144.028 153.552C144.319 153.044 144.123 152.409 143.593 152.134C141.999 151.302 140.443 150.37 138.964 149.361C138.773 149.228 138.549 149.165 138.329 149.165C137.988 149.165 137.651 149.317 137.438 149.603C137.087 150.071 137.201 150.724 137.691 151.06C139.241 152.118 140.873 153.096 142.543 153.967C142.71 154.053 142.89 154.095 143.067 154.095ZM133.979 147.892C134.276 147.892 134.571 147.777 134.787 147.552C135.195 147.127 135.165 146.466 134.72 146.077C133.379 144.902 132.099 143.64 130.919 142.326C130.702 142.085 130.395 141.961 130.087 141.961C129.835 141.961 129.581 142.044 129.376 142.213C128.917 142.589 128.864 143.248 129.257 143.685C130.494 145.064 131.835 146.386 133.242 147.618C133.45 147.801 133.716 147.892 133.979 147.892ZM126.71 139.787C126.918 139.787 127.128 139.731 127.315 139.611C127.819 139.293 127.954 138.644 127.619 138.163C126.61 136.717 125.687 135.199 124.873 133.652C124.681 133.287 124.294 133.077 123.893 133.077C123.728 133.077 123.561 133.112 123.404 133.188C122.864 133.447 122.645 134.074 122.917 134.59C123.771 136.212 124.741 137.805 125.799 139.321C126.009 139.624 126.356 139.787 126.71 139.787Z" fill="url(#paint6_linear_1801_3223)"/>
<path d="M190.998 151.926C191.208 151.926 191.422 151.867 191.61 151.746C192.386 151.246 193.149 150.72 193.879 150.185C194.36 149.834 194.45 149.178 194.083 148.721C193.866 148.453 193.541 148.311 193.212 148.311C192.98 148.311 192.747 148.381 192.548 148.526C191.852 149.036 191.123 149.538 190.384 150.016C189.882 150.339 189.752 150.989 190.09 151.467C190.302 151.765 190.646 151.926 190.998 151.926Z" fill="url(#paint7_linear_1801_3223)"/>
<path d="M190.091 138.429C189.94 138.605 189.692 138.67 189.47 138.592L183.141 136.37C180.645 138.205 177.827 139.672 174.762 140.679L173.217 146.941C173.164 147.161 172.971 147.323 172.735 147.345L164.688 148.124C164.453 148.147 164.228 148.026 164.129 147.82L161.301 141.98C158.088 141.582 155.018 140.683 152.188 139.363L146.455 142.753C146.253 142.871 145.996 142.855 145.813 142.713L139.546 137.83C139.363 137.687 139.294 137.45 139.376 137.238L141.704 131.196C139.781 128.812 138.245 126.122 137.192 123.196L130.632 121.722C130.401 121.669 130.231 121.485 130.208 121.26L129.392 113.577C129.369 113.352 129.497 113.137 129.711 113.043L135.827 110.343C136.246 107.275 137.185 104.344 138.568 101.642L135.02 96.1673C134.895 95.9761 134.911 95.7308 135.061 95.5556L140.175 89.5723C140.324 89.3971 140.574 89.3318 140.794 89.4098L147.124 91.632C149.619 89.7969 152.438 88.3298 155.503 87.3246L157.047 81.0609C157.1 80.8411 157.294 80.6786 157.529 80.6563L165.578 79.8773C165.813 79.855 166.036 79.9777 166.135 80.1816L168.963 86.0215C172.176 86.4198 175.246 87.3182 178.076 88.6388L183.811 85.2505C184.011 85.131 184.269 85.147 184.451 85.2903L190.718 90.1729C190.902 90.3146 190.97 90.5536 190.888 90.7654L188.561 96.8077C190.483 99.1892 192.019 101.881 193.074 104.808L199.633 106.281C199.863 106.332 200.033 106.517 200.056 106.743L200.872 114.426C200.896 114.649 200.769 114.864 200.554 114.958L194.437 117.658C194.02 120.726 193.079 123.658 191.696 126.359L195.246 131.834C195.37 132.026 195.353 132.272 195.204 132.448L190.091 138.429Z" fill="#91B3FA"/>
<path d="M165.127 108.189C165.422 108.189 165.719 108.209 166.019 108.251C169.339 108.719 171.642 111.679 171.153 114.849C170.916 116.385 170.067 117.742 168.762 118.667C167.456 119.593 165.852 119.977 164.242 119.752C162.634 119.526 161.214 118.715 160.243 117.469C159.274 116.222 158.87 114.69 159.107 113.154C159.552 110.269 162.158 108.189 165.127 108.189ZM165.148 121.904C166.912 121.904 168.624 121.367 170.067 120.343C171.84 119.085 172.995 117.242 173.317 115.153C173.983 110.844 170.853 106.82 166.338 106.185C161.815 105.555 157.608 108.539 156.943 112.85C156.621 114.938 157.168 117.022 158.488 118.715C159.806 120.408 161.736 121.512 163.924 121.818C164.332 121.876 164.741 121.904 165.148 121.904Z" fill="#BDD0FB"/>
<path d="M164.992 133.566C165.685 133.566 166.384 133.533 167.086 133.466C168.483 133.331 169.866 133.061 171.201 132.662C171.261 132.642 171.319 132.625 171.379 132.606C171.843 132.462 172.137 132.055 172.137 131.613C172.137 131.507 172.12 131.397 172.083 131.29C171.898 130.74 171.279 130.443 170.705 130.618C169.464 131.003 168.171 131.261 166.866 131.387C166.794 131.394 166.722 131.4 166.651 131.406C163.561 131.677 160.516 131.201 157.739 130.059C156.233 129.439 154.805 128.62 153.49 127.615L153.458 127.591C153.426 127.566 153.393 127.54 153.361 127.515C149.549 124.545 147.176 120.335 146.681 115.66C146.616 115.056 146.584 114.452 146.584 113.853C146.584 109.816 148.027 105.936 150.735 102.766C153.847 99.1259 158.257 96.8623 163.152 96.3891C168.044 95.9176 172.844 97.2908 176.656 100.26C180.469 103.231 182.841 107.441 183.337 112.115C183.402 112.709 183.432 113.305 183.432 113.899C183.432 116.474 182.841 119.019 181.694 121.351C181.623 121.495 181.59 121.646 181.59 121.796C181.59 122.188 181.822 122.564 182.219 122.74C182.766 122.984 183.417 122.763 183.674 122.239C184.959 119.629 185.619 116.781 185.621 113.901C185.621 113.237 185.586 112.571 185.516 111.905C184.96 106.675 182.306 101.965 178.04 98.6416C173.773 95.3187 168.411 93.7751 162.932 94.3087C157.454 94.8392 152.52 97.372 149.04 101.447C146.01 104.991 144.397 109.334 144.395 113.848C144.395 114.519 144.43 115.194 144.502 115.87C145.578 125.995 154.554 133.566 164.992 133.566Z" fill="#BDD0FB"/>
<path d="M267.418 435.949H440.855V205.494C440.855 193.391 430.578 183.576 417.899 183.576H270.077C257.4 183.576 247.122 193.391 247.122 205.494V416.57C247.122 427.272 256.209 435.949 267.418 435.949Z" fill="#7D97F4"/>
<path d="M276.141 435.949H469.875V190.017C469.875 186.46 466.855 183.576 463.13 183.576H282.885C279.161 183.576 276.141 186.46 276.141 190.017V435.949Z" fill="#91B3FA"/>
<path d="M70.7919 341.37C70.7919 341.37 95.642 337.396 96.9968 337.396H166.175C170.791 337.396 174.57 341.004 174.57 345.412V352.66C174.57 357.068 170.791 360.676 166.175 360.676H96.9968C96.3427 360.676 95.7087 360.596 95.0964 360.459C86.996 359.18 78.8939 352.822 70.7919 341.37Z" fill="url(#paint8_linear_1801_3223)"/>
<path d="M71.0594 342.35C-23.2272 128.427 151.446 128.242 129.691 330.686L71.0594 342.35Z" fill="url(#paint9_linear_1801_3223)"/>
<path d="M77.5556 340.301C-16.7326 122.295 162.998 128.127 141.241 334.434L77.5556 340.301Z" fill="url(#paint10_linear_1801_3223)"/>
<path d="M123.464 430.572H130.809V354.727H123.464V430.572Z" fill="url(#paint11_linear_1801_3223)"/>
<path d="M94.967 432.035H159.305V427.925C159.305 427.674 159.093 427.47 158.829 427.47H95.4809C95.1973 427.47 94.967 427.689 94.967 427.96V432.035Z" fill="url(#paint12_linear_1801_3223)"/>
<path d="M166.085 420.149C166.085 420.149 187.061 434.585 183.419 444.283C183.419 444.283 160.468 434.829 157.695 427.381C154.923 419.934 158.165 416.646 158.165 416.646L166.085 420.149Z" fill="url(#paint13_linear_1801_3223)"/>
<path d="M162.931 408.053L159.502 417.52C158.985 418.949 159.502 420.575 160.84 421.383C161.511 421.787 162.427 422.16 163.678 422.431C165.445 422.813 167.269 422.034 168.12 420.507L172.223 413.131L162.931 408.053Z" fill="url(#paint14_linear_1801_3223)"/>
<path d="M129.554 322.84C129.554 322.84 172.639 329.969 191.12 346.27C209.6 362.57 174.155 414.566 174.155 414.566C174.155 414.566 168.349 414.533 161.311 408.773C161.311 408.773 182.327 369.666 164.215 358.264C143.853 345.442 120.387 342.555 120.387 342.555L129.137 324.097L129.554 322.84Z" fill="#09005D"/>
<path d="M179.773 438.92C175.159 436.881 162.099 428.153 159.896 427.767C157.694 427.382 153.877 429.852 153.877 429.852C153.877 429.852 152.947 431.449 153.94 434.23C157.007 437.771 163.814 444.524 172.964 447.039C179.696 448.89 184.404 447.165 187.336 445.145C185.723 442.8 182.846 440.279 179.773 438.92Z" fill="url(#paint15_linear_1801_3223)"/>
<path d="M172.964 447.039C163.814 444.524 157.007 437.771 153.94 434.23C154.612 436.109 156.161 438.531 159.469 441.369C167.673 448.41 183.343 450.948 186.68 450.459C189.353 450.067 189.101 447.711 187.336 445.145C184.404 447.165 179.696 448.89 172.964 447.039Z" fill="url(#paint16_linear_1801_3223)"/>
<path d="M149.963 423.691C150.015 424.905 152.613 429.067 154.131 431.403C154.852 432.511 156.116 433.19 157.484 433.193C158.352 433.196 159.35 433.123 160.256 432.876C161.616 432.503 162.378 431.119 161.981 429.824L159.014 420.15L149.963 423.691Z" fill="url(#paint17_linear_1801_3223)"/>
<path d="M88.0812 310.495C88.0812 310.495 78.5126 334.922 88.0812 342.35C97.6482 349.778 120.474 358.141 125.573 372.939C130.672 387.734 139.325 416.489 150.906 426.672C150.906 426.672 159.041 425.92 162.086 422.825C162.086 422.825 155.491 379.898 151.141 368.883C147.375 359.346 141.824 345.577 131.189 337.882C128.144 335.679 128.675 332.19 130.086 328.8L132.656 322.629L88.0812 310.495Z" fill="#0C0179"/>
<path d="M187.872 291.348C171.828 292.272 176.827 267.801 177.117 266.827L152.767 283.248C152.767 283.248 154.055 296.334 174.3 303.198C179.423 304.936 184.104 305.013 188.242 304.164C186.477 299.249 186.836 294.84 187.872 291.348Z" fill="url(#paint18_linear_1801_3223)"/>
<path d="M218.895 283.982C212.916 280.013 206.144 283.982 206.144 283.982C198.151 288.975 192.238 291.097 187.874 291.348C186.838 294.84 186.48 299.25 188.245 304.164C197.2 302.326 203.606 296.139 206.391 292.962C207.392 291.82 209.167 291.621 210.394 292.545C211.638 293.483 212.846 294.769 212.628 296.121C212.196 298.788 215.438 299.637 215.681 298.668C215.926 297.701 214.573 291.967 214.573 291.967C214.573 291.967 221.057 298.192 223.588 300.583C226.119 302.976 229.301 300.583 229.301 300.583C229.301 300.583 224.874 287.954 218.895 283.982Z" fill="url(#paint19_linear_1801_3223)"/>
<path d="M113.068 229.035C113.068 229.035 136.408 220.113 179.845 254.351C179.845 254.351 183.472 261.521 179.514 267.904C175.557 274.286 137.843 305.383 132.659 322.629C132.659 322.629 110.191 329.599 86.9564 313.071C86.9564 313.071 89.0069 265.075 113.068 229.035Z" fill="url(#paint20_linear_1801_3223)"/>
<path d="M159.21 221.073L147.72 234.371C146.578 235.692 146.328 237.529 147.117 239.066C148.711 242.172 152.495 246.693 160.887 246.069C163.383 245.882 165.596 244.444 166.685 242.292L174.719 226.435L159.21 221.073Z" fill="url(#paint21_linear_1801_3223)"/>
<path d="M94.9977 285.993C92.2898 275.457 119.734 251.968 119.734 251.968L113.069 229.036C113.069 229.036 53.8067 266.704 68.908 296.994C71.0736 301.335 73.9484 304.378 77.2836 306.412C82.0554 294.148 89.6603 288.523 94.9977 285.993Z" fill="url(#paint22_linear_1801_3223)"/>
<path d="M94.975 284.459C94.6831 284.459 94.4178 284.269 94.346 283.987C91.5747 273.216 118.147 250.324 119.278 249.354C119.545 249.128 119.954 249.147 120.194 249.402C120.432 249.657 120.411 250.049 120.144 250.277C119.872 250.509 93.0179 273.636 95.6057 283.691C95.6908 284.024 95.4772 284.359 95.1302 284.44C95.0785 284.453 95.0268 284.459 94.975 284.459Z" fill="url(#paint23_linear_1801_3223)"/>
<path d="M136.566 285.085C136.566 285.085 104.026 297.147 96.0845 288.075C95.5456 287.458 95.1952 286.759 94.9967 285.993C89.6592 288.523 82.0544 294.147 77.2826 306.412C94.396 316.852 123.647 300.604 131.558 295.812C132.859 295.025 134.419 294.748 135.929 295.047C138.979 295.651 144.25 296.538 147.091 296.121C151.249 295.509 157.222 309.513 163.961 305.193C163.961 305.193 158.19 280.852 136.566 285.085Z" fill="url(#paint24_linear_1801_3223)"/>
<path d="M184.207 201.538C184.323 201.967 181.515 231.037 181.515 231.037L164.163 229.153L162.537 201.223C162.537 201.223 182.272 194.381 184.207 201.538Z" fill="url(#paint25_linear_1801_3223)"/>
<path d="M167.056 207.011L166.706 221.778C166.703 221.967 166.724 222.152 166.773 222.335C167.075 223.458 168.409 227.249 172.389 225.709C175.999 224.31 179.316 223.085 181.755 223.527C182.852 223.726 183.607 224.683 183.506 225.742C183.25 228.384 182.558 234.326 181.131 239.401C180.843 240.43 179.768 241.067 178.669 240.882C175.355 240.325 168.401 238.963 163.075 236.616C162.353 236.298 161.869 235.637 161.816 234.88C161.555 231.189 160.723 219.971 159.984 216.881C159.29 213.978 155.31 212.615 153.597 212.154C153.034 212.005 152.566 211.643 152.292 211.152C151.323 209.413 149.791 205.316 155.147 203.009C156.268 202.526 156.743 201.265 156.203 200.21C155.13 198.109 154.399 194.808 158.485 192.521C162.636 190.193 166.154 192.075 168.122 193.696C168.92 194.353 170.074 194.345 170.897 193.719C171.364 193.362 172.002 193.194 172.837 193.578C173.965 194.096 175.313 193.521 175.734 192.398C176.545 190.238 178.423 187.82 182.78 188.071C190.51 188.516 192.292 196.454 190.83 201.367C189.37 206.281 181.018 205.343 176.66 203.399C173.346 201.922 169.532 204.234 167.895 205.427C167.377 205.805 167.071 206.388 167.056 207.011Z" fill="url(#paint26_linear_1801_3223)"/>
<path d="M159.912 222.259C159.912 222.259 162.073 213.593 158.634 211.887C155.194 210.179 150.57 211.737 152.309 217.669C154.473 225.047 159.912 222.259 159.912 222.259Z" fill="url(#paint27_linear_1801_3223)"/>
<path d="M153.237 308.87C153.288 308.871 153.342 308.873 153.394 308.873L221.665 308.801C223.354 308.8 224.72 307.494 224.719 305.881C224.717 304.269 223.342 302.938 221.659 302.966L153.387 303.038C151.7 303.04 150.334 304.347 150.335 305.958C150.337 307.519 151.622 308.793 153.237 308.87Z" fill="url(#paint28_linear_1801_3223)"/>
<path d="M283.037 249.688H226.179C221.985 249.688 218.167 251.998 216.378 255.62L190.093 308.836H260.751C263.454 308.836 265.883 307.259 266.876 304.858L287.26 255.616C288.438 252.771 286.24 249.688 283.037 249.688Z" fill="url(#paint29_linear_1801_3223)"/>
<path d="M242.981 276.973C241.748 280.628 242.659 284.177 245.014 284.902C247.369 285.625 250.277 283.248 251.509 279.594C252.742 275.939 251.831 272.389 249.477 271.665C247.121 270.942 244.213 273.319 242.981 276.973Z" fill="#7D97F4"/>
<path d="M273.819 448.676C274.198 448.676 274.582 448.606 274.952 448.459C276.407 447.881 277.079 446.321 276.454 444.975L216.284 315.685C215.658 314.34 213.971 313.719 212.515 314.297C211.06 314.876 210.387 316.435 211.013 317.781L271.183 447.072C271.65 448.075 272.708 448.676 273.819 448.676Z" fill="url(#paint30_linear_1801_3223)"/>
<path d="M206.038 448.676C207.149 448.676 208.207 448.075 208.674 447.072L268.844 317.781C269.47 316.435 268.797 314.876 267.343 314.297C265.888 313.719 264.199 314.339 263.573 315.685L203.404 444.975C202.778 446.321 203.45 447.881 204.905 448.459C205.276 448.606 205.659 448.676 206.038 448.676Z" fill="url(#paint31_linear_1801_3223)"/>
<path d="M87.5698 448.676C87.9468 448.676 88.3322 448.606 88.701 448.459C90.1575 447.881 90.8299 446.321 90.2026 444.975L30.0345 315.685C29.4071 314.34 27.722 313.719 26.2654 314.297C24.8088 314.876 24.1364 316.435 24.7638 317.781L84.9319 447.072C85.3991 448.075 86.4569 448.676 87.5698 448.676Z" fill="url(#paint32_linear_1801_3223)"/>
<path d="M19.7882 448.676C20.8994 448.676 21.9572 448.075 22.4244 447.072L82.5942 317.781C83.2198 316.435 82.5474 314.876 81.0925 314.297C79.6376 313.719 77.9491 314.339 77.3235 315.685L17.1537 444.975C16.528 446.321 17.2004 447.881 18.6553 448.459C19.024 448.606 19.4095 448.676 19.7882 448.676Z" fill="url(#paint33_linear_1801_3223)"/>
<path d="M12.731 311.694C12.5775 310.846 12.786 309.97 13.2999 309.303C13.8155 308.637 14.5813 308.251 15.3888 308.251H289.115C290.178 308.251 291.168 308.83 291.74 309.787C292.312 310.745 292.389 311.947 291.943 312.978L288.977 319.841C288.298 321.411 286.826 322.418 285.206 322.418H17.2658C15.7609 322.418 14.4662 321.276 14.1792 319.696L12.731 311.694Z" fill="#BDD0FB"/>
<path d="M368.886 300.01C368.886 300.01 339.868 251.396 348.871 244.156C357.872 236.915 358.032 257.947 361.674 254.968C365.318 251.989 359.377 234.428 360.995 222.226C362.614 210.023 366.129 193.698 370.669 210.103C375.207 226.506 374.642 242.68 376.607 234.323C378.574 225.966 385.355 182.404 394.076 195.403C402.797 208.402 404.627 225.324 395.836 235.185C387.045 245.044 375.244 256.053 389.753 248.786C404.262 241.517 414.151 244.758 398.632 257.926C398.632 257.926 375.296 276.367 385.427 275.502C395.558 274.638 411.688 284.848 395.065 292.225C395.065 292.225 371.45 295.5 368.886 300.01Z" fill="#A8D29F"/>
<path d="M380.942 344.344C380.942 344.344 437.498 341.782 434.995 329.279C432.492 316.775 414.033 325.148 405.82 325.942C397.607 326.736 402.426 321.374 419.156 310.129C435.886 298.886 445.084 282.416 427.369 290.096C409.654 297.776 402.574 312.196 403.774 302.024C404.973 291.853 427.744 263.217 408.484 274.943C389.224 286.668 390.541 297.518 389.96 306.078C389.379 314.638 386.814 289.511 380.792 293.255C374.771 296.998 378.189 300.844 380.345 310.794C382.501 320.742 376.465 312.723 374.471 309.457C372.475 306.19 367.575 314.024 372.377 324.831C377.177 335.638 380.942 344.344 380.942 344.344Z" fill="url(#paint34_linear_1801_3223)"/>
<path d="M369.677 401.266C369.716 401.296 369.741 401.336 369.751 401.374C369.756 401.377 369.757 401.45 369.754 401.393L369.746 401.24L369.714 400.627L369.662 399.372L369.574 396.837L369.437 391.748L369.253 381.552C369.162 374.753 369.13 367.953 369.153 361.151C369.195 347.55 369.452 333.947 369.996 320.361C370.278 313.567 370.638 306.777 371.085 299.996C371.558 293.216 372.13 286.446 372.854 279.693C373.585 272.942 374.506 266.213 375.73 259.548C376.983 252.901 378.497 246.26 380.998 240.039L381.011 240.007C381.257 239.395 380.937 238.709 380.296 238.475C379.661 238.242 378.949 238.54 378.698 239.142C375.987 245.619 374.371 252.342 372.999 259.067C371.663 265.804 370.637 272.581 369.804 279.368C368.976 286.158 368.304 292.96 367.732 299.767C367.184 306.573 366.726 313.387 366.345 320.201C365.606 333.831 365.152 347.47 364.915 361.113C364.795 367.932 364.729 374.755 364.722 381.578L364.762 391.816L364.825 396.942L364.877 399.513L364.914 400.812L364.939 401.474L364.945 401.64C364.945 401.689 364.96 401.869 364.974 401.978C365.002 402.229 365.046 402.479 365.102 402.722C365.523 403.929 366.889 404.581 368.152 404.178C369.415 403.776 370.099 402.473 369.677 401.266Z" fill="#B0E0A5"/>
<path d="M369.988 403.886C370.008 403.946 370.018 404.011 370.015 404.074C370.016 404.091 370.005 404.169 370.01 404.134L370.023 404.037L370.081 403.651L370.208 402.86L370.475 401.252L371.034 398.027L372.204 391.573C373.003 387.271 373.835 382.973 374.698 378.681C376.422 370.097 378.268 361.534 380.272 353.009C382.287 344.488 384.455 336 386.963 327.618C388.22 323.428 389.577 319.271 391.1 315.181C392.637 311.107 394.319 307.059 396.512 303.373L396.529 303.342C396.868 302.774 396.659 302.049 396.062 301.725C395.474 301.407 394.727 301.598 394.382 302.151C391.954 306.039 390.159 310.138 388.495 314.262C386.852 318.394 385.385 322.576 384.022 326.78C381.302 335.191 378.932 343.683 376.715 352.207C374.511 360.733 372.467 369.292 370.545 377.877C369.583 382.168 368.65 386.466 367.752 390.772L366.431 397.238L365.793 400.483L365.485 402.114L365.335 402.943L365.261 403.368L365.243 403.475L365.21 403.737C365.191 403.937 365.183 404.137 365.188 404.335C365.318 405.6 366.498 406.525 367.822 406.401C369.149 406.277 370.118 405.15 369.988 403.886Z" fill="url(#paint35_linear_1801_3223)"/>
<path d="M357.864 309.824C357.864 309.824 300.529 301.101 306 289.493C311.469 277.885 327.393 290.113 335.19 292.703C342.987 295.293 344.108 294.001 330.561 279.36C317.017 264.719 315.754 249.528 331.122 260.919C346.49 272.309 341.17 282.874 342.473 272.714C343.776 262.554 323.234 223.763 339.122 239.43C355.011 255.099 356.953 268.434 355.44 276.889C353.927 285.345 362.523 261.471 367.471 266.444C372.422 271.419 368.162 274.402 363.649 283.604C359.137 292.806 366.954 286.34 369.689 283.604C372.422 280.868 375.286 289.573 367.993 299.024C360.699 308.473 357.864 309.824 357.864 309.824Z" fill="url(#paint36_linear_1801_3223)"/>
<path d="M362.186 402.722C362.24 402.507 362.281 402.282 362.306 402.057C362.32 401.963 362.333 401.796 362.333 401.759L362.338 401.635L362.355 401.133L362.38 400.157L362.415 398.229L362.453 394.392L362.465 386.731C362.446 381.626 362.385 376.522 362.283 371.418C362.081 361.211 361.717 351.008 361.138 340.81C360.544 330.613 359.747 320.42 358.477 310.256C357.842 305.175 357.062 300.103 356.048 295.056C355.007 290.016 353.785 284.979 351.732 280.103C351.476 279.496 350.752 279.201 350.117 279.445C349.488 279.687 349.179 280.364 349.419 280.966L349.432 281.001C351.276 285.621 352.396 290.577 353.317 295.537C354.218 300.51 354.893 305.536 355.427 310.58C356.492 320.67 357.092 330.817 357.489 340.969C357.87 351.125 358.038 361.291 358.045 371.458C358.05 376.541 358.013 381.624 357.933 386.706L357.776 394.323L357.666 398.124L357.596 400.015L357.555 400.949L357.53 401.401L357.523 401.514C357.521 401.557 357.525 401.47 357.531 401.454C357.543 401.388 357.57 401.323 357.61 401.266C357.189 402.473 357.872 403.776 359.136 404.178C360.399 404.581 361.764 403.929 362.186 402.722Z" fill="url(#paint37_linear_1801_3223)"/>
<path d="M389.632 392.167H342.157C339.045 392.167 336.745 394.931 337.444 397.826C340.48 410.391 344.121 423.138 351.571 436.078C352.945 438.469 355.565 439.967 358.421 439.967H373.913C376.726 439.967 379.308 438.492 380.641 436.126C386.609 425.539 392.35 412.918 395.184 398.594C395.844 395.261 393.186 392.167 389.632 392.167Z" fill="url(#paint38_linear_1801_3223)"/>
<path d="M450.441 47.3161C450.441 47.3161 468.877 57.0668 470.402 73.5686C471.927 90.0704 470.529 158.563 433.562 175.421C396.595 192.278 347.663 188.393 328.933 186.552C310.202 184.708 299.818 172.554 297.499 164.186C295.178 155.818 291.43 124.646 311.135 114.591C330.838 104.536 351.534 89.1321 372.212 74.1325C392.891 59.1329 428.33 34.647 450.441 47.3161Z" fill="#EE9849"/>
<path d="M316.945 120.281C316.945 120.281 321.921 120.531 322.531 130.306C322.531 130.306 310.994 140.179 295.409 142.53C294.239 142.707 297.045 134.905 297.466 133.848C299.473 128.819 305.793 125.581 316.945 120.281Z" fill="url(#paint39_linear_1801_3223)"/>
<path d="M372.978 108.789H362.478C362.478 108.789 330.252 74.8069 309.115 71.3788C309.115 71.3788 294.403 89.3095 309.9 122.815C311.146 125.51 314.633 126.707 317.233 125.122C318.012 124.647 318.569 124.011 318.909 123.213L317.663 94.6062C317.663 94.6062 345.153 117.561 349.929 121.991C354.708 126.421 378.995 123.721 372.978 108.789Z" fill="url(#paint40_linear_1801_3223)"/>
<path d="M271.468 180.133C275.868 176.451 282.879 172.321 293 171.137L296.422 173.136C296.422 173.136 294.24 176.209 290.252 179.456C286.588 181.488 280.93 184.241 276.238 184.837C271.679 185.417 271.005 182.787 271.468 180.133Z" fill="url(#paint41_linear_1801_3223)"/>
<path d="M297.466 133.848C300.177 134.684 301.37 138.351 308.248 135.927C314.901 133.58 319.848 130.555 322.394 128.811C322.451 129.284 322.498 129.778 322.531 130.305C322.531 130.305 310.366 141.352 294.781 143.702C293.612 143.879 292.684 142.764 293.106 141.706C293.864 139.81 295.227 136.935 297.466 133.848Z" fill="#7D97F4"/>
<path d="M268.157 183.278C269.023 182.336 270.131 181.255 271.47 180.133C271.007 182.787 271.681 185.417 276.24 184.837C280.932 184.241 286.59 181.489 290.254 179.456C285.662 183.196 278.673 187.166 269.854 186.934C267.895 186.881 266.862 184.681 268.157 183.278Z" fill="#91B3FA"/>
<path d="M372.597 116.041L323.428 116.55C323.428 116.55 295.349 138.73 290.255 172.551C290.255 172.551 289.411 175.04 294.487 175.465C294.487 175.465 311.463 164.879 322.532 146.163C336.105 123.213 362.994 133.544 362.994 133.544C371.83 127.463 384.313 126.224 393.719 124.198L372.597 116.041Z" fill="url(#paint42_linear_1801_3223)"/>
<path d="M371.434 78.2263C371.434 78.2263 366.141 103.553 340.205 113.572L330.98 112.535L328.803 115.848L350.443 116.506C350.443 116.506 368.941 109.511 378.741 90.4509C379.065 89.8217 384.462 79.1821 371.434 78.2263Z" fill="url(#paint43_linear_1801_3223)"/>
<path d="M368.599 115.627C368.599 115.627 374.619 100.007 375.912 84.827C375.912 84.827 371.509 81.214 368.756 79.6545C367.865 79.1495 367.528 78.0822 367.979 77.1902C370.003 73.1886 382.24 57.4737 383.157 57.2539C388.139 56.0671 408.574 46.7911 422.965 65.5868C429.142 73.6521 421.74 98.4837 393.718 124.198L387.938 125.254L368.599 115.627Z" fill="url(#paint44_linear_1801_3223)"/>
<path d="M391.791 88.2504C391.791 88.2504 375.068 107.156 353.686 109.92C353.686 109.92 348.162 105.109 344.053 106.826C339.943 108.544 334.311 116.123 334.311 116.123H361.763C361.763 116.123 387.72 115.25 400.691 100.222C399.648 94.9633 396.522 91.8219 391.791 88.2504Z" fill="url(#paint45_linear_1801_3223)"/>
<path d="M401.549 43.9936L405.208 55.6464C405.376 56.18 405.169 56.7583 404.687 57.0737C402.925 58.2254 398.321 60.5161 392.005 58.2891C391.282 58.0343 390.788 57.3907 390.725 56.6579L389.857 46.5074L401.549 43.9936Z" fill="url(#paint46_linear_1801_3223)"/>
<path d="M380.12 34.559C380.12 34.559 381.919 46.637 386.779 50.3519C391.639 54.0652 401.107 51.2695 404.305 42.1639L397.933 26.594L380.12 34.559Z" fill="url(#paint47_linear_1801_3223)"/>
<path d="M398.654 36.6704C398.284 36.7835 397.897 36.5574 397.839 36.191C397.664 35.0759 397.226 32.8696 396.34 31.3658C396.34 31.3658 396.803 29.7824 392.145 32.175C387.487 34.5693 380.49 38.0866 376.37 35.9918C372.354 33.9496 368.286 23.6748 378.901 25.5785C379.304 25.6517 379.676 25.3443 379.645 24.9524C379.515 23.2638 379.691 19.3785 383.811 18.1328C387.667 16.9651 385.597 18.8576 386.467 19.8596C386.723 20.1559 386.144 18.8544 391.623 19.6159C393.503 19.8771 395.915 15.1109 400.533 17.0544C404.337 18.6553 404.929 20.8919 404.866 22.2857C404.846 22.7381 405.325 23.044 405.756 22.8544C406.92 22.3415 408.794 22.0755 410.589 24.2228C413.071 27.1922 409.525 29.7664 408.461 30.4403C408.287 30.5518 408.178 30.735 408.177 30.9341C408.167 32.4777 407.915 39.2129 404.38 43.0106C404.074 43.3403 403.508 43.2432 403.33 42.8369L400.608 36.6466C400.482 36.3582 400.146 36.2101 399.835 36.3073L398.654 36.6704Z" fill="url(#paint48_linear_1801_3223)"/>
<path d="M398.595 37.926C398.595 37.926 400.257 31.4617 402.782 33.5612C405.306 35.6592 402.124 40.2773 399.231 41.1582L398.595 37.926Z" fill="url(#paint49_linear_1801_3223)"/>
<path d="M335.695 117.592L323.369 78.345C322.866 76.7441 321.377 75.6067 319.63 75.4936L302.987 74.4055C301.297 74.2956 300.037 75.8727 300.599 77.4004L314.379 114.882C314.823 116.089 315.959 116.943 317.292 117.071L333.68 118.809L335.695 117.592Z" fill="#7D97F4"/>
<path d="M312.962 91.6448C313.881 93.4178 315.471 94.458 316.51 93.9658C317.552 93.4735 317.648 91.6368 316.727 89.8638C315.808 88.0892 314.218 87.0506 313.179 87.5428C312.139 88.0351 312.041 89.8718 312.962 91.6448Z" fill="#91B3FA"/>
<path d="M333.678 118.809C333.704 118.809 333.731 118.809 333.758 118.807L368.677 117.122C369.541 117.08 370.205 116.378 370.162 115.554C370.119 114.729 369.38 114.082 368.52 114.136L333.601 115.822C332.737 115.863 332.073 116.566 332.116 117.389C332.158 118.189 332.85 118.809 333.678 118.809Z" fill="#7D97F4"/>
<path d="M375.911 85.0918C376.063 85.0918 376.188 84.9723 376.188 84.8257C376.163 77.8612 378.979 68.6139 379.008 68.5215C379.051 68.3813 378.967 68.2347 378.82 68.1933C378.671 68.1535 378.519 68.2316 378.476 68.3733C378.447 68.4657 375.609 77.7847 375.634 84.8274C375.634 84.9739 375.758 85.0918 375.911 85.0918Z" fill="url(#paint50_linear_1801_3223)"/>
<path d="M391.79 88.5156C391.871 88.5156 391.953 88.4806 392.008 88.4153C392.084 88.3213 399.722 79.0516 402.347 72.7004C402.404 72.5634 402.334 72.4089 402.192 72.3563C402.049 72.3021 401.888 72.369 401.833 72.5044C399.236 78.7856 391.649 87.9947 391.572 88.0871C391.478 88.2018 391.498 88.3675 391.618 88.4583C391.668 88.4965 391.73 88.5156 391.79 88.5156Z" fill="url(#paint51_linear_1801_3223)"/>
<path d="M402.541 102.688L402.747 102.603C413.796 98.0853 420.621 85.4911 420.688 85.3653C420.758 85.2331 420.703 85.0738 420.567 85.0085C420.434 84.9432 420.267 84.9926 420.195 85.1232C420.128 85.2474 413.477 97.5198 402.734 102.031L401.596 100.496C401.505 100.374 401.333 100.349 401.209 100.432C401.084 100.516 401.055 100.682 401.143 100.801L402.541 102.688Z" fill="url(#paint52_linear_1801_3223)"/>
<defs>
<linearGradient id="paint0_linear_1801_3223" x1="-27.3357" y1="491.358" x2="290.114" y2="132.479" gradientUnits="userSpaceOnUse">
<stop stop-color="#DAE3FE"/>
<stop offset="1" stop-color="#E9EFFD"/>
</linearGradient>
<linearGradient id="paint1_linear_1801_3223" x1="-27.3358" y1="491.357" x2="290.114" y2="132.479" gradientUnits="userSpaceOnUse">
<stop stop-color="#C4D5FD"/>
<stop offset="1" stop-color="#CEDDFC"/>
</linearGradient>
<linearGradient id="paint2_linear_1801_3223" x1="-27.3365" y1="491.358" x2="290.113" y2="132.479" gradientUnits="userSpaceOnUse">
<stop stop-color="#C4D5FD"/>
<stop offset="1" stop-color="#CEDDFC"/>
</linearGradient>
<linearGradient id="paint3_linear_1801_3223" x1="-27.3356" y1="491.358" x2="290.115" y2="132.48" gradientUnits="userSpaceOnUse">
<stop stop-color="#C4D5FD"/>
<stop offset="1" stop-color="#CEDDFC"/>
</linearGradient>
<linearGradient id="paint4_linear_1801_3223" x1="-27.3343" y1="491.359" x2="290.117" y2="132.482" gradientUnits="userSpaceOnUse">
<stop stop-color="#C4D5FD"/>
<stop offset="1" stop-color="#CEDDFC"/>
</linearGradient>
<linearGradient id="paint5_linear_1801_3223" x1="-27.3369" y1="491.358" x2="290.113" y2="132.48" gradientUnits="userSpaceOnUse">
<stop stop-color="#C4D5FD"/>
<stop offset="1" stop-color="#CEDDFC"/>
</linearGradient>
<linearGradient id="paint6_linear_1801_3223" x1="-27.3362" y1="491.357" x2="290.114" y2="132.478" gradientUnits="userSpaceOnUse">
<stop stop-color="#C4D5FD"/>
<stop offset="1" stop-color="#CEDDFC"/>
</linearGradient>
<linearGradient id="paint7_linear_1801_3223" x1="-27.3375" y1="491.358" x2="290.113" y2="132.479" gradientUnits="userSpaceOnUse">
<stop stop-color="#C4D5FD"/>
<stop offset="1" stop-color="#CEDDFC"/>
</linearGradient>
<linearGradient id="paint8_linear_1801_3223" x1="99.8231" y1="302.963" x2="142.815" y2="384.25" gradientUnits="userSpaceOnUse">
<stop stop-color="#FF928E"/>
<stop offset="1" stop-color="#FE7062"/>
</linearGradient>
<linearGradient id="paint9_linear_1801_3223" x1="231.909" y1="167.985" x2="92.5789" y2="268.257" gradientUnits="userSpaceOnUse">
<stop stop-color="#E1473D"/>
<stop offset="1" stop-color="#E9605A"/>
</linearGradient>
<linearGradient id="paint10_linear_1801_3223" x1="111.29" y1="347.482" x2="85.6066" y2="184.449" gradientUnits="userSpaceOnUse">
<stop stop-color="#FF928E"/>
<stop offset="1" stop-color="#FE7062"/>
</linearGradient>
<linearGradient id="paint11_linear_1801_3223" x1="132.871" y1="427.088" x2="118.366" y2="331.528" gradientUnits="userSpaceOnUse">
<stop stop-color="#FF928E"/>
<stop offset="1" stop-color="#FE7062"/>
</linearGradient>
<linearGradient id="paint12_linear_1801_3223" x1="126.748" y1="427.627" x2="111.611" y2="327.897" gradientUnits="userSpaceOnUse">
<stop stop-color="#FF928E"/>
<stop offset="1" stop-color="#FE7062"/>
</linearGradient>
<linearGradient id="paint13_linear_1801_3223" x1="183.963" y1="405.6" x2="171.923" y2="430.4" gradientUnits="userSpaceOnUse">
<stop stop-color="#09005D"/>
<stop offset="1" stop-color="#1A0F91"/>
</linearGradient>
<linearGradient id="paint14_linear_1801_3223" x1="159.304" y1="415.29" x2="172.222" y2="415.29" gradientUnits="userSpaceOnUse">
<stop stop-color="#FEBBBA"/>
<stop offset="1" stop-color="#FF928E"/>
</linearGradient>
<linearGradient id="paint15_linear_1801_3223" x1="176.438" y1="430.219" x2="134.077" y2="488.238" gradientUnits="userSpaceOnUse">
<stop stop-color="#09005D"/>
<stop offset="1" stop-color="#1A0F91"/>
</linearGradient>
<linearGradient id="paint16_linear_1801_3223" x1="153.94" y1="442.373" x2="188.675" y2="442.373" gradientUnits="userSpaceOnUse">
<stop stop-color="#4042E2"/>
<stop offset="1" stop-color="#4F52FF"/>
</linearGradient>
<linearGradient id="paint17_linear_1801_3223" x1="149.963" y1="426.672" x2="162.087" y2="426.672" gradientUnits="userSpaceOnUse">
<stop stop-color="#FEBBBA"/>
<stop offset="1" stop-color="#FF928E"/>
</linearGradient>
<linearGradient id="paint18_linear_1801_3223" x1="196.73" y1="317.512" x2="254.814" y2="399.249" gradientUnits="userSpaceOnUse">
<stop stop-color="#4042E2"/>
<stop offset="1" stop-color="#4F52FF"/>
</linearGradient>
<linearGradient id="paint19_linear_1801_3223" x1="187.01" y1="293.192" x2="229.302" y2="293.192" gradientUnits="userSpaceOnUse">
<stop stop-color="#FEBBBA"/>
<stop offset="1" stop-color="#FF928E"/>
</linearGradient>
<linearGradient id="paint20_linear_1801_3223" x1="167.505" y1="244.835" x2="75.499" y2="314.918" gradientUnits="userSpaceOnUse">
<stop stop-color="#4042E2"/>
<stop offset="1" stop-color="#4F52FF"/>
</linearGradient>
<linearGradient id="paint21_linear_1801_3223" x1="146.659" y1="233.599" x2="174.718" y2="233.599" gradientUnits="userSpaceOnUse">
<stop stop-color="#FEBBBA"/>
<stop offset="1" stop-color="#FF928E"/>
</linearGradient>
<linearGradient id="paint22_linear_1801_3223" x1="153.868" y1="226.931" x2="61.8618" y2="297.015" gradientUnits="userSpaceOnUse">
<stop stop-color="#4042E2"/>
<stop offset="1" stop-color="#4F52FF"/>
</linearGradient>
<linearGradient id="paint23_linear_1801_3223" x1="68.056" y1="170.552" x2="89.0069" y2="226.874" gradientUnits="userSpaceOnUse">
<stop stop-color="#09005D"/>
<stop offset="1" stop-color="#1A0F91"/>
</linearGradient>
<linearGradient id="paint24_linear_1801_3223" x1="127.523" y1="293.677" x2="27.3919" y2="475.92" gradientUnits="userSpaceOnUse">
<stop stop-color="#FEBBBA"/>
<stop offset="1" stop-color="#FF928E"/>
</linearGradient>
<linearGradient id="paint25_linear_1801_3223" x1="177.594" y1="203.368" x2="156.932" y2="255.319" gradientUnits="userSpaceOnUse">
<stop stop-color="#FEBBBA"/>
<stop offset="1" stop-color="#FF928E"/>
</linearGradient>
<linearGradient id="paint26_linear_1801_3223" x1="154.449" y1="220.11" x2="194.778" y2="209.209" gradientUnits="userSpaceOnUse">
<stop stop-color="#09005D"/>
<stop offset="1" stop-color="#1A0F91"/>
</linearGradient>
<linearGradient id="paint27_linear_1801_3223" x1="137.031" y1="249.603" x2="155.697" y2="215.458" gradientUnits="userSpaceOnUse">
<stop stop-color="#FEBBBA"/>
<stop offset="1" stop-color="#FF928E"/>
</linearGradient>
<linearGradient id="paint28_linear_1801_3223" x1="141.654" y1="291.551" x2="195.345" y2="309.995" gradientUnits="userSpaceOnUse">
<stop stop-color="#09005D"/>
<stop offset="1" stop-color="#1A0F91"/>
</linearGradient>
<linearGradient id="paint29_linear_1801_3223" x1="216.1" y1="257.624" x2="253.229" y2="298.727" gradientUnits="userSpaceOnUse">
<stop stop-color="#09005D"/>
<stop offset="1" stop-color="#1A0F91"/>
</linearGradient>
<linearGradient id="paint30_linear_1801_3223" x1="276.687" y1="381.378" x2="210.778" y2="381.378" gradientUnits="userSpaceOnUse">
<stop stop-color="#4042E2"/>
<stop offset="1" stop-color="#4F52FF"/>
</linearGradient>
<linearGradient id="paint31_linear_1801_3223" x1="269.078" y1="381.378" x2="203.169" y2="381.378" gradientUnits="userSpaceOnUse">
<stop stop-color="#4042E2"/>
<stop offset="1" stop-color="#4F52FF"/>
</linearGradient>
<linearGradient id="paint32_linear_1801_3223" x1="90.4378" y1="381.378" x2="24.5292" y2="381.378" gradientUnits="userSpaceOnUse">
<stop stop-color="#4042E2"/>
<stop offset="1" stop-color="#4F52FF"/>
</linearGradient>
<linearGradient id="paint33_linear_1801_3223" x1="82.8277" y1="381.378" x2="16.9191" y2="381.378" gradientUnits="userSpaceOnUse">
<stop stop-color="#4042E2"/>
<stop offset="1" stop-color="#4F52FF"/>
</linearGradient>
<linearGradient id="paint34_linear_1801_3223" x1="436.969" y1="308.258" x2="370.333" y2="308.258" gradientUnits="userSpaceOnUse">
<stop stop-color="#5DD543"/>
<stop offset="0.451042" stop-color="#7CAD72"/>
</linearGradient>
<linearGradient id="paint35_linear_1801_3223" x1="396.691" y1="353.991" x2="365.186" y2="353.991" gradientUnits="userSpaceOnUse">
<stop stop-color="#A2CA9A"/>
<stop offset="1" stop-color="#A2CA9A"/>
</linearGradient>
<linearGradient id="paint36_linear_1801_3223" x1="372.613" y1="272.787" x2="305.632" y2="272.787" gradientUnits="userSpaceOnUse">
<stop stop-color="#A8D29F"/>
<stop offset="1" stop-color="#428633"/>
</linearGradient>
<linearGradient id="paint37_linear_1801_3223" x1="362.465" y1="341.828" x2="349.338" y2="341.828" gradientUnits="userSpaceOnUse">
<stop stop-color="#A8D29F"/>
<stop offset="0.473958" stop-color="#A2CA9A"/>
</linearGradient>
<linearGradient id="paint38_linear_1801_3223" x1="324.84" y1="312.897" x2="413.627" y2="520.969" gradientUnits="userSpaceOnUse">
<stop stop-color="#4042E2"/>
<stop offset="1" stop-color="#4F52FF"/>
</linearGradient>
<linearGradient id="paint39_linear_1801_3223" x1="311.918" y1="129.57" x2="294.75" y2="148.351" gradientUnits="userSpaceOnUse">
<stop stop-color="#09005D"/>
<stop offset="1" stop-color="#1A0F91"/>
</linearGradient>
<linearGradient id="paint40_linear_1801_3223" x1="280.948" y1="-35.8854" x2="302.15" y2="22.5078" gradientUnits="userSpaceOnUse">
<stop stop-color="#09005D"/>
<stop offset="1" stop-color="#1A0F91"/>
</linearGradient>
<linearGradient id="paint41_linear_1801_3223" x1="287.988" y1="174.717" x2="254.99" y2="200.083" gradientUnits="userSpaceOnUse">
<stop stop-color="#09005D"/>
<stop offset="1" stop-color="#1A0F91"/>
</linearGradient>
<linearGradient id="paint42_linear_1801_3223" x1="270.01" y1="-31.9124" x2="291.212" y2="26.481" gradientUnits="userSpaceOnUse">
<stop stop-color="#09005D"/>
<stop offset="1" stop-color="#1A0F91"/>
</linearGradient>
<linearGradient id="paint43_linear_1801_3223" x1="343.112" y1="86.3569" x2="365.029" y2="113.656" gradientUnits="userSpaceOnUse">
<stop stop-color="#FEBBBA"/>
<stop offset="1" stop-color="#FF928E"/>
</linearGradient>
<linearGradient id="paint44_linear_1801_3223" x1="430.609" y1="-37.2599" x2="396.553" y2="87.883" gradientUnits="userSpaceOnUse">
<stop stop-color="#FF928E"/>
<stop offset="1" stop-color="#FE7062"/>
</linearGradient>
<linearGradient id="paint45_linear_1801_3223" x1="370.121" y1="110.286" x2="326.575" y2="47.8902" gradientUnits="userSpaceOnUse">
<stop stop-color="#FEBBBA"/>
<stop offset="1" stop-color="#FF928E"/>
</linearGradient>
<linearGradient id="paint46_linear_1801_3223" x1="398.445" y1="60.1705" x2="396.889" y2="45.5002" gradientUnits="userSpaceOnUse">
<stop stop-color="#FEBBBA"/>
<stop offset="1" stop-color="#FF928E"/>
</linearGradient>
<linearGradient id="paint47_linear_1801_3223" x1="389.346" y1="47.3873" x2="396.25" y2="23.5389" gradientUnits="userSpaceOnUse">
<stop stop-color="#FEBBBA"/>
<stop offset="1" stop-color="#FF928E"/>
</linearGradient>
<linearGradient id="paint48_linear_1801_3223" x1="396.117" y1="4.00777" x2="389.744" y2="42.0813" gradientUnits="userSpaceOnUse">
<stop stop-color="#09005D"/>
<stop offset="1" stop-color="#1A0F91"/>
</linearGradient>
<linearGradient id="paint49_linear_1801_3223" x1="397.134" y1="49.6409" x2="404.037" y2="25.7923" gradientUnits="userSpaceOnUse">
<stop stop-color="#FEBBBA"/>
<stop offset="1" stop-color="#FF928E"/>
</linearGradient>
<linearGradient id="paint50_linear_1801_3223" x1="379.019" y1="76.6378" x2="375.634" y2="76.6378" gradientUnits="userSpaceOnUse">
<stop stop-color="#E1473D"/>
<stop offset="1" stop-color="#E9605A"/>
</linearGradient>
<linearGradient id="paint51_linear_1801_3223" x1="402.367" y1="80.4264" x2="391.513" y2="80.4264" gradientUnits="userSpaceOnUse">
<stop stop-color="#E1473D"/>
<stop offset="1" stop-color="#E9605A"/>
</linearGradient>
<linearGradient id="paint52_linear_1801_3223" x1="420.719" y1="93.8336" x2="401.092" y2="93.8336" gradientUnits="userSpaceOnUse">
<stop stop-color="#E1473D"/>
<stop offset="1" stop-color="#E9605A"/>
</linearGradient>
</defs>
</svg>
