<svg width="37" height="37" viewBox="0 0 37 37" fill="none" xmlns="http://www.w3.org/2000/svg">
<g clip-path="url(#clip0_1821_1938)">
<path d="M27.2031 17.0156C27.2031 18.0101 27.2031 18.9898 27.2031 19.9844C28.9844 19.9844 31.3 19.9844 33.1406 19.9844C33.1406 18.9898 33.1406 18.0101 33.1406 17.0156C31.3 17.0156 28.9844 17.0156 27.2031 17.0156Z" fill="#F0656F"/>
<path d="M24.2344 26.8274C25.6594 27.8813 27.5148 29.2766 28.9844 30.375C29.5781 29.5883 30.1719 28.7867 30.7656 28C29.2961 26.9016 27.4406 25.5063 26.0156 24.4375C25.4219 25.2391 24.8281 26.0406 24.2344 26.8274Z" fill="#F0656F"/>
<path d="M30.7656 8.99998C30.1719 8.21327 29.5781 7.4117 28.9844 6.62498C27.5148 7.72342 25.6594 9.11873 24.2344 10.1875C24.8281 10.9742 25.4219 11.7758 26.0156 12.5625C27.4406 11.4937 29.2961 10.1133 30.7656 8.99998Z" fill="#F0656F"/>
<path d="M12.3594 14.0469H3.45312V22.9531H7.90625V28.8906H10.875V22.9531H12.3594L19.7813 27.4063V9.59375L12.3594 14.0469Z" fill="#F0656F"/>
<path d="M23.4922 18.5C23.4922 16.5258 22.6313 14.7445 21.2656 13.5273V23.4578C22.6313 22.2555 23.4922 20.4742 23.4922 18.5Z" fill="#F0656F"/>
</g>
<defs>
<clipPath id="clip0_1821_1938">
<rect width="35.625" height="35.625" fill="white" transform="translate(0.484375 0.6875)"/>
</clipPath>
</defs>
</svg>
