<svg width="100%" viewBox="0 0 689 463" fill="none" xmlns="http://www.w3.org/2000/svg">
<path d="M649.019 349.446H649.022C632.164 340.038 620.067 329.171 623.21 310.09C625.57 295.777 634.485 284.098 641.094 272.55C673.545 215.866 668.374 177.248 643.349 152.309C601.977 111.082 506.351 107.235 436.739 120.953C380.487 132.04 348.921 155.76 326.758 177.275C311.973 191.626 301.377 205 290.426 212.976C284.448 217.328 278.368 220.077 271.445 220.502C232.812 222.871 156.688 175.637 68.1601 260.886C38.84 289.122 23.717 323.631 23.1174 362.993C22.37 412.334 43.0735 448.391 49.3225 461.609L669.986 461.538C708.229 383.524 649.019 349.446 649.019 349.446Z" fill="#EBF3FA"/>
<path d="M378.195 461.568H568.994C568.994 461.568 599.297 450.011 597.703 435.069C596.106 420.126 547.061 439.253 547.061 439.253C547.061 439.253 550.649 424.11 537.691 420.126C524.733 416.142 480.473 460.173 463.525 440.846C446.578 421.522 463.821 391.436 426.49 391.235C389.159 391.038 378.195 461.568 378.195 461.568Z" fill="#A8D29F"/>
<path d="M274.86 460.408H429.488C434.335 460.408 438.304 456.445 438.304 451.601V142.59C438.304 137.746 434.335 133.783 429.488 133.783H274.86C270.012 133.783 266.047 137.746 266.047 142.59V451.601C266.047 456.445 270.012 460.408 274.86 460.408Z" fill="#4A75CB"/>
<path d="M258.165 460.408H412.792C417.64 460.408 421.605 456.445 421.605 451.601V142.59C421.605 137.746 417.64 133.783 412.792 133.783H258.165C253.317 133.783 249.352 137.746 249.352 142.59V451.601C249.352 456.445 253.317 460.408 258.165 460.408Z" fill="#AFCDFB"/>
<path d="M310.232 146.145H355.01C355.97 146.145 356.753 146.928 356.753 147.885C356.753 148.844 355.97 149.627 355.01 149.627H310.232C309.275 149.627 308.488 148.844 308.488 147.885C308.488 146.928 309.275 146.145 310.232 146.145Z" fill="#4A75CB"/>
<path d="M362.959 146.147C363.919 146.147 364.703 146.93 364.703 147.887C364.703 148.846 363.919 149.629 362.959 149.629C362.002 149.629 361.219 148.846 361.219 147.887C361.219 146.93 362.002 146.147 362.959 146.147Z" fill="#4A75CB"/>
<path d="M344.58 442.364C344.58 436.16 339.55 431.133 333.345 431.133C327.14 431.133 322.109 436.16 322.109 442.364C322.109 448.565 327.14 453.592 333.345 453.592C339.55 453.592 344.58 448.565 344.58 442.364Z" fill="#4A75CB"/>
<path d="M264.051 423.869H407.266V159.681H264.051V423.869Z" fill="#D5E7F7"/>
<path d="M264.051 423.891H407.266V393.222H264.051V423.891Z" fill="#D5E7F7"/>
<path d="M537.195 245.728C537.195 245.728 538.457 239.676 541.609 238.289C544.764 236.903 546.654 231.359 547.917 232.871C549.179 234.383 547.537 244.467 545.141 245.728C542.746 246.986 541.609 248.289 541.609 248.289L537.195 245.728Z" fill="#F4AC75"/>
<path d="M483.069 221.648C483.069 221.648 503.169 256.68 510.46 263.126L537.196 243.208C537.196 243.208 541.077 244.397 542.776 248.288C542.776 248.288 526.54 281.345 510.553 282.746C494.568 284.148 472.133 243.124 472.133 243.124L483.069 221.648Z" fill="#E58638"/>
<path d="M420.87 438.406C420.87 438.406 416.223 442.713 417.129 445.77C418.035 448.827 422.228 450.865 422.796 454.604C423.364 458.343 425.628 460.381 427.671 460.381C429.71 460.381 437.396 460.381 437.396 460.381C437.396 460.381 438.897 457.751 435.27 456.956C431.645 456.164 430.275 451.774 430.503 447.694C430.73 443.618 430.162 438.182 430.162 438.182L422.455 436.368L420.87 438.406Z" fill="#233862"/>
<path d="M478.788 460.223C478.922 460.292 479.158 460.354 479.478 460.408H505.128C504.928 459.515 504.139 457.674 501.002 457.163C496.94 456.505 489.898 454.147 488.33 448.953C488.28 448.786 488.235 448.618 488.196 448.445C486.949 442.892 477.881 450.143 477.881 450.143C477.881 450.143 477.855 450.364 477.816 450.74C477.603 452.778 477.065 459.362 478.788 460.223Z" fill="#233862"/>
<path d="M499.923 311.781C499.923 311.781 498.547 328.95 496.929 349.589C494.728 377.625 492.085 412.062 491.821 418.586C491.37 429.912 489.555 448.035 489.555 448.035C489.555 448.035 485.248 452.339 476.632 450.525C476.632 450.525 468.956 424.656 466.763 397.286C466.728 396.838 466.695 396.387 466.662 395.936C464.619 368.073 461.449 309.402 461.449 309.402L499.923 311.781Z" fill="#2B478B"/>
<path d="M499.919 311.782C499.919 311.782 498.543 328.951 496.925 349.59L466.76 397.287C466.724 396.839 466.691 396.388 466.658 395.936C464.615 368.074 461.445 309.403 461.445 309.403L499.919 311.782Z" fill="#233862"/>
<path d="M493.635 313.818C493.635 313.818 468.813 375.998 452.49 405.22C436.171 434.442 431.069 442.598 431.069 442.598C431.069 442.598 421.72 438.859 420.871 436.31C420.871 436.31 427.112 379.898 438.04 366.144C444.216 358.374 451.471 335.054 451.812 326.899C452.152 318.746 454.022 302.605 454.022 302.605L493.635 313.818Z" fill="#2B478B"/>
<path d="M480.905 217.839C482.008 211.33 482.041 207.468 482.041 207.468L469.448 197.325C469.917 211.273 460.973 217.979 460.973 217.979C460.973 217.979 477.756 226.234 487.457 223.176C487.457 223.176 485.068 220.125 480.905 217.839Z" fill="#F4AC75"/>
<path d="M484.91 211.379C484.91 211.379 468.669 211.322 468.863 201.215C469.054 191.108 467.087 184.294 477.464 183.902C487.841 183.514 489.782 187.408 490.539 190.797C491.295 194.186 489.139 211.134 484.91 211.379Z" fill="#F4AC75"/>
<path d="M500.994 313.211C500.704 313.453 500.363 313.6 499.974 313.6C496.334 313.552 485.712 315.572 476.725 314.649C469.147 313.922 462.442 311.681 455.241 308.453C454.284 308.026 452.083 306.851 452.134 305.785C452.164 304.613 452.28 302.919 452.427 300.782C452.935 293.352 453.823 280.576 452.959 265.837C452.804 263.093 452.72 260.37 452.711 257.69C452.636 237.711 456.602 220.141 464.565 214.194C465.247 213.707 469.422 215.745 473.262 217.637C476.806 219.385 480.353 219.58 483.702 218.901L487.055 221.863C491.134 225.646 495.602 230.793 497.545 238.608C499.199 245.257 500.168 257.247 500.703 269.671C500.946 275.301 501.14 280.983 501.191 286.371V286.562C501.236 287.097 501.236 287.68 501.236 288.215C501.433 302.049 501.236 313.017 500.994 313.211Z" fill="#EE9849"/>
<path d="M452.426 300.781C452.934 293.352 453.822 280.576 452.958 265.836C452.803 263.093 452.719 260.37 452.71 257.689C456.029 249.644 458.742 243.81 458.742 243.81H467.103C467.103 243.81 473.234 285.665 452.426 300.781Z" fill="#E58638"/>
<path d="M435.861 314.477L425.206 312.959C425.098 312.944 424.994 312.947 424.892 312.962C424.446 313.034 424.081 313.387 424.016 313.853L423.54 317.185L436.28 318.999L436.755 315.67C436.836 315.093 436.435 314.558 435.861 314.477ZM397.621 338.078L399.849 322.451C400.513 317.795 404.867 314.528 409.529 315.192L421.788 316.937L422.263 313.605C422.481 312.063 423.914 310.99 425.457 311.208L436.109 312.726C436.854 312.831 437.515 313.222 437.97 313.826C438.424 314.433 438.616 315.174 438.508 315.918L438.032 319.25L445.135 320.26C445.416 320.302 445.694 320.356 445.963 320.422L449.863 320.977C454.504 321.638 457.761 325.974 457.1 330.616L454.896 346.06C454.235 350.702 449.896 353.956 445.255 353.296L442.342 352.88C441.735 352.925 441.116 352.91 440.491 352.821L404.885 347.749C400.226 347.085 396.957 342.734 397.621 338.078Z" fill="#233862"/>
<path d="M436.152 303.384L434.564 306.118C434.564 306.118 437.674 312.699 430.296 315.159C430.296 315.159 427.12 315.96 426.851 313.76C426.579 311.56 427.045 312.424 426.585 309.319C426.124 306.217 427.338 303.449 429.629 302.711L431.439 300.981L436.152 303.384Z" fill="#F4AC75"/>
<path d="M431.947 304.131C434.958 304.716 438.221 304.48 438.221 304.48C438.221 304.48 447.163 276.878 448.314 274.356C449.465 271.833 474.87 241.99 474.87 241.99L464.287 215.52C464.287 215.52 436.806 261.391 434.016 267.838C429.405 278.489 427.805 302.37 427.805 302.37C427.805 302.37 429.581 303.67 431.947 304.131Z" fill="#EE9849"/>
<path d="M469.01 200.266C469.01 200.266 470.679 200.269 470.796 197.994C470.912 195.717 471.412 192.803 473.134 193.655C474.857 194.507 474.701 195.974 475.589 195.251C476.481 194.531 477.1 190.959 482.545 191.626C487.988 192.295 489.863 194.546 492.564 193.867C495.261 193.192 496.039 189.414 496.039 189.414C496.039 189.414 495.094 190.648 493.943 190.899C493.943 190.899 499.107 185.882 494.923 181.13C490.737 176.381 485.354 178.111 482.519 177.807C476.268 177.131 472.21 176.823 469.498 180.544C466.788 184.262 465.706 195.681 469.01 200.266Z" fill="#2B478B"/>
<path d="M538.267 240.416L544.787 227.2C544.912 226.946 545.226 226.839 545.481 226.964L549.108 228.751C549.365 228.88 549.47 229.191 549.344 229.448L542.828 242.66C542.702 242.917 542.388 243.022 542.131 242.896L538.504 241.109C538.249 240.983 538.142 240.67 538.267 240.416Z" fill="#2B478B"/>
<path d="M541.646 242.217L548.273 228.78C548.369 228.586 548.605 228.505 548.802 228.601L550.928 229.647C551.123 229.743 551.204 229.982 551.108 230.176L544.481 243.612C544.385 243.807 544.146 243.887 543.952 243.792L541.825 242.746C541.631 242.65 541.55 242.411 541.646 242.217Z" fill="#233862"/>
<path d="M481.8 211.149C481.8 211.149 481.653 212.897 481.372 214.789C481.372 214.789 474.694 211.938 472.344 207.942C472.344 207.942 475.28 210.357 481.8 211.149Z" fill="#C97C47"/>
<path d="M159.852 399.555L165.297 397.747L160.222 382.496L154.777 384.304L159.852 399.555Z" fill="#2B478B"/>
<path d="M159.852 399.555L161.382 399.047L156.307 383.796L154.777 384.304L159.852 399.555Z" fill="#233862"/>
<path d="M106.621 460.05C106.621 460.05 94.7015 461.069 94.1925 458.812C94.125 458.511 92.4491 447.232 92.4491 447.232L90.6547 434.659C90.5058 433.616 91.5656 432.782 92.5265 433.218C93.5137 433.667 94.6053 434.596 95.2372 436.503C96.5964 440.603 100.603 447.205 106.547 448.929C112.801 450.743 106.621 460.05 106.621 460.05Z" fill="#163560"/>
<path d="M227.728 438.104C227.728 438.104 181.568 402.857 168.436 402.472C155.304 402.089 112.709 460.348 112.709 460.348H128.659C128.659 460.348 156.765 445.402 166.652 431.198C167.647 429.766 169.774 429.832 170.697 431.308C175.808 439.47 189.171 459.487 197.811 460.348C207.087 461.274 227.728 438.104 227.728 438.104Z" fill="#233862"/>
<path d="M223.309 342.194C223.309 342.194 223.602 344.504 223.975 347.355C224.475 351.058 225.142 355.657 225.578 357.092L239.467 360.609L240.486 350.517C240.486 350.517 237.008 343.548 237.029 333.682L223.309 342.194Z" fill="#FFB27D"/>
<path d="M249.312 440.575L207.904 446.176C207.904 446.176 207.794 445.369 207.605 444.012C207.549 443.591 212.752 444.123 212.74 443.665C212.647 439.637 210.626 439.195 211.308 433.854C211.759 430.33 210.186 420.887 209.107 417.871C207.866 414.395 207.294 407.794 207.04 401.521C206.723 393.661 206.906 386.318 206.903 386.267C206.499 381.261 207.689 375.706 209.684 370.422C213.622 360.004 220.961 354.104 224.412 350.605C224.412 350.605 228.623 351.645 239.572 348.363C239.898 348.265 240.837 349.642 241.255 350.443C241.255 350.443 246.45 356.522 248.397 371.133C250.14 384.214 249.312 440.575 249.312 440.575Z" fill="#C65447"/>
<path d="M238.165 377.045C238.087 378.877 221.845 430.537 223.834 434.351C233.467 452.787 212.712 445.196 211.396 440.441C211.845 436.918 210.185 420.887 209.106 417.872C207.864 414.396 207.293 407.794 207.039 401.521C207.446 399.232 208.397 396.868 209.683 394.582C215.718 393.64 238.769 362.819 238.165 377.045Z" fill="#B23F36"/>
<path d="M249.384 434.691C249.384 434.691 249.36 437.925 249.339 442.724C249.309 450.393 247.822 460.348 240.316 460.348C228.115 460.348 105.994 460.348 105.994 460.348C105.994 460.348 102.285 457.846 102.024 453.076C101.748 448.02 103.347 446.227 103.347 446.227C103.347 446.227 151.432 444.556 161.195 441.287C210.129 424.897 249.384 434.691 249.384 434.691Z" fill="#2B478B"/>
<path d="M223.309 342.196C223.309 342.196 223.602 344.506 223.975 347.357C236.808 343.616 237.029 333.685 237.029 333.685L223.309 342.196Z" fill="#E8945B"/>
<path d="M221.289 342.934C221.289 342.934 236.888 343.397 237.026 333.687C237.163 323.975 239.269 317.495 229.316 316.79C219.363 316.082 217.378 319.761 216.54 322.991C215.706 326.222 217.237 342.566 221.289 342.934Z" fill="#FFB27D"/>
<path d="M237.305 337.488C237.305 337.488 235.657 337.213 235.923 334.945C236.186 332.677 236.183 329.712 234.338 330.265C232.493 330.818 232.4 332.294 231.643 331.43C230.884 330.57 230.872 326.936 225.378 326.682C219.887 326.431 217.657 328.34 215.103 327.22C212.549 326.096 212.414 322.235 212.414 322.235C212.414 322.235 213.141 323.612 214.238 324.052C214.238 324.052 209.977 318.227 214.908 314.234C219.843 310.242 224.873 312.857 227.726 313.03C234.015 313.409 238.079 313.786 240.134 317.916C242.188 322.046 241.339 333.514 237.305 337.488Z" fill="#233862"/>
<path d="M218.942 338.105C218.942 338.105 218.84 339.309 221.284 339.722C221.284 339.722 223.443 339.883 223.628 338.804C223.628 338.804 221.535 338.784 218.942 338.105Z" fill="white"/>
<path d="M171.358 399.298L168.82 399.215C168.82 399.215 163.642 394.418 162.471 397.72C162.471 397.72 155.771 395.055 155.483 396.895C155.293 398.106 156.979 399.49 159.786 401.54C161.911 403.088 166.46 404.445 168.243 403.659L170.221 402.771L171.358 399.298Z" fill="#E49963"/>
<path d="M234.416 350.695C234.416 350.695 224.505 354.875 219.358 363.811C215.931 369.767 210.024 379.896 206.466 385.992C204.57 389.238 201.406 391.542 197.733 392.349L185.707 394.994L168.818 399.214C168.818 399.214 168.418 399.928 168.515 401.1C168.654 402.758 169.741 403.093 169.741 403.093C169.741 403.093 185.51 406.885 191.123 407.307C204.952 408.347 211.508 406.536 213.541 405.789C213.993 405.621 214.4 405.379 214.773 405.077C216.894 403.356 225.019 396.551 229.299 390.051C233.459 383.727 244.936 367.296 244.936 367.296L234.416 350.695Z" fill="#C65447"/>
<path d="M206.824 385.381L215.203 370.991L206.961 381.484C206.961 381.484 206.752 383.22 206.824 385.381Z" fill="#B23F36"/>
<path d="M372.998 63.5085C372.998 63.5085 369.469 61.0967 369.367 63.7655C369.269 66.4372 370.976 70.6003 371.951 68.4635C372.929 66.3267 373.375 65.5257 372.998 63.5085Z" fill="#E49963"/>
<path d="M688.135 463.035H0.866088C0.0804656 463.035 -0.5625 462.393 -0.5625 461.61C-0.5625 460.824 0.0804656 460.181 0.866088 460.181H688.135C688.922 460.181 689.565 460.824 689.565 461.61C689.565 462.393 688.922 463.035 688.135 463.035Z" fill="#2E3552"/>
<path d="M385.855 210.011H283.551C279.271 210.011 275.77 213.508 275.77 217.784V230.097C275.77 232.052 276.502 233.842 277.704 235.214L275.77 244.051L286.93 237.873H385.855C390.135 237.873 393.634 234.374 393.634 230.097V217.784C393.634 213.508 390.135 210.011 385.855 210.011Z" fill="#A8D29F"/>
<path d="M282.965 219.395H386.448C387.142 219.395 387.71 218.827 387.71 218.13C387.71 217.437 387.142 216.869 386.448 216.869H282.965C282.271 216.869 281.703 217.437 281.703 218.13C281.703 218.827 282.271 219.395 282.965 219.395Z" fill="white"/>
<path d="M386.448 222.393H282.965C282.271 222.393 281.703 222.96 281.703 223.654C281.703 224.35 282.271 224.918 282.965 224.918H386.448C387.142 224.918 387.71 224.35 387.71 223.654C387.71 222.96 387.142 222.393 386.448 222.393Z" fill="white"/>
<path d="M386.448 227.713H282.965C282.271 227.713 281.703 228.281 281.703 228.974C281.703 229.67 282.271 230.238 282.965 230.238H386.448C387.142 230.238 387.71 229.67 387.71 228.974C387.71 228.281 387.142 227.713 386.448 227.713Z" fill="white"/>
<path d="M283.551 265.066H385.855C390.135 265.066 393.634 268.562 393.634 272.839V285.155C393.634 287.106 392.901 288.897 391.702 290.268L393.634 299.105L382.476 292.928H283.551C279.271 292.928 275.77 289.429 275.77 285.155V272.839C275.77 268.562 279.271 265.066 283.551 265.066Z" fill="#F1A34F"/>
<path d="M386.439 274.449H282.956C282.263 274.449 281.691 273.881 281.691 273.185C281.691 272.492 282.263 271.924 282.956 271.924H386.439C387.133 271.924 387.701 272.492 387.701 273.185C387.701 273.881 387.133 274.449 386.439 274.449Z" fill="white"/>
<path d="M282.953 277.447H386.435C387.129 277.447 387.697 278.015 387.697 278.712C387.697 279.405 387.129 279.973 386.435 279.973H282.953C282.259 279.973 281.688 279.405 281.688 278.712C281.688 278.015 282.259 277.447 282.953 277.447Z" fill="white"/>
<path d="M282.956 282.768H386.439C387.133 282.768 387.701 283.335 387.701 284.029C387.701 284.725 387.133 285.293 386.439 285.293H282.956C282.263 285.293 281.691 284.725 281.691 284.029C281.691 283.335 282.263 282.768 282.956 282.768Z" fill="white"/>
<path d="M385.855 320.121H283.551C279.271 320.121 275.77 323.621 275.77 327.898V340.21C275.77 342.165 276.502 343.955 277.704 345.324L275.77 354.164L286.93 347.984H385.855C390.135 347.984 393.634 344.487 393.634 340.21V327.898C393.634 323.621 390.135 320.121 385.855 320.121Z" fill="#699DEE"/>
<path d="M282.965 329.504H386.448C387.142 329.504 387.71 328.936 387.71 328.243C387.71 327.546 387.142 326.979 386.448 326.979H282.965C282.271 326.979 281.703 327.546 281.703 328.243C281.703 328.936 282.271 329.504 282.965 329.504Z" fill="white"/>
<path d="M386.448 332.504H282.965C282.271 332.504 281.703 333.072 281.703 333.768C281.703 334.461 282.271 335.029 282.965 335.029H386.448C387.142 335.029 387.71 334.461 387.71 333.768C387.71 333.072 387.142 332.504 386.448 332.504Z" fill="white"/>
<path d="M386.448 337.824H282.965C282.271 337.824 281.703 338.392 281.703 339.088C281.703 339.782 282.271 340.35 282.965 340.35H386.448C387.142 340.35 387.71 339.782 387.71 339.088C387.71 338.392 387.142 337.824 386.448 337.824Z" fill="white"/>
<path d="M283.551 375.178H385.855C390.135 375.178 393.634 378.678 393.634 382.954V395.267C393.634 397.222 392.901 399.012 391.702 400.381L393.634 409.221L382.476 403.043H283.551C279.271 403.043 275.77 399.544 275.77 395.267V382.954C275.77 378.678 279.271 375.178 283.551 375.178Z" fill="#A8D29F"/>
<path d="M386.439 384.559H282.956C282.263 384.559 281.691 383.991 281.691 383.297C281.691 382.601 282.263 382.033 282.956 382.033H386.439C387.133 382.033 387.701 382.601 387.701 383.297C387.701 383.991 387.133 384.559 386.439 384.559Z" fill="white"/>
<path d="M282.953 387.56H386.435C387.129 387.56 387.697 388.13 387.697 388.824C387.697 389.517 387.129 390.088 386.435 390.088H282.953C282.259 390.088 281.688 389.517 281.688 388.824C281.688 388.13 282.259 387.56 282.953 387.56Z" fill="white"/>
<path d="M282.956 392.879H386.439C387.133 392.879 387.701 393.447 387.701 394.143C387.701 394.836 387.133 395.404 386.439 395.404H282.956C282.263 395.404 281.691 394.836 281.691 394.143C281.691 393.447 282.263 392.879 282.956 392.879Z" fill="white"/>
<path d="M305.699 185.462C305.699 193.72 298.997 200.414 290.734 200.414C282.471 200.414 275.77 193.72 275.77 185.462C275.77 177.202 282.471 170.508 290.734 170.508C298.997 170.508 305.699 177.202 305.699 185.462Z" fill="#699DEE"/>
<path d="M388.853 199.82H314.809C312.169 199.82 310.027 197.681 310.027 195.039C310.027 192.4 312.169 190.26 314.809 190.26H388.853C391.493 190.26 393.635 192.4 393.635 195.039C393.635 197.681 391.493 199.82 388.853 199.82Z" fill="#699DEE"/>
<path d="M354.84 180.109H314.805C312.165 180.109 310.023 177.97 310.023 175.331C310.023 172.689 312.165 170.549 314.805 170.549H354.84C357.484 170.549 359.625 172.689 359.625 175.331C359.625 177.97 357.484 180.109 354.84 180.109Z" fill="#699DEE"/>
<path d="M322.459 183.404C322.399 184.265 322.782 184.886 323.476 185.334C323.476 185.337 323.482 185.34 323.485 185.34C324.768 186.168 327.104 186.407 329.661 186.476C329.986 186.485 330.28 186.497 330.543 186.515C330.612 186.521 330.68 186.527 330.746 186.533C330.8 186.536 330.854 186.542 330.905 186.545C333.42 186.787 333.1 187.522 337.864 188.272C343.292 189.124 345.424 187.597 345.798 186.859C346.115 186.231 343.824 185.334 341.264 184.312C341.141 184.265 341.016 184.211 340.89 184.163C340.549 184.028 340.208 183.888 339.867 183.751C336.823 182.492 333.841 181.049 333.297 177.839C332.723 174.438 335.824 165.275 335.824 165.275L327.235 163.73C327.235 163.73 325.71 173.431 324.95 176.432C324.544 178.033 323.715 179.274 323.186 180.633C323.147 180.729 323.111 180.825 323.078 180.92C322.797 181.721 322.516 182.54 322.459 183.404Z" fill="#E49963"/>
<path d="M322.459 183.404C322.399 184.265 322.782 184.886 323.476 185.334C323.476 185.337 323.482 185.34 323.485 185.34C324.861 186.097 327.157 186.357 329.655 186.461C329.983 186.476 330.277 186.494 330.543 186.515C330.612 186.521 330.68 186.527 330.746 186.533C330.8 186.536 330.854 186.542 330.905 186.545C333.42 186.787 333.1 187.522 337.864 188.272C343.292 189.124 345.424 187.597 345.798 186.859C346.115 186.231 343.824 185.334 341.264 184.312C340.51 184.545 336.922 185.511 332.833 184.435C329.236 183.491 325.746 181.422 323.186 180.633C323.147 180.729 323.111 180.825 323.078 180.92C322.797 181.721 322.516 182.54 322.459 183.404Z" fill="#233862"/>
<path d="M379.303 178.269C379.784 180.677 383.218 180.274 387.057 179.338C390.894 178.4 389.982 179.515 395.443 178.911C400.907 178.307 402.561 176.272 402.728 175.459C402.875 174.739 400.177 174.485 397.282 174.153C396.917 174.111 396.553 174.067 396.188 174.022C392.919 173.612 390.526 171.505 387.557 169.772C384.746 168.134 380.547 161.455 380.547 161.455L373.059 162.047C373.059 162.047 376.988 168.012 378.507 170.606C379.402 172.133 379.357 174.15 379.243 175.707C379.186 176.556 379.129 177.42 379.303 178.269Z" fill="#E49963"/>
<path d="M387.058 179.338C390.895 178.4 389.983 179.515 395.444 178.911C400.908 178.307 402.561 176.272 402.729 175.459C402.875 174.739 400.178 174.485 397.283 174.153L397.256 174.207C397.256 174.207 393.981 176.529 389.433 176.637C385.728 176.726 381.804 175.666 379.244 175.707C379.187 176.556 379.13 177.42 379.304 178.269C379.785 180.677 383.218 180.274 387.058 179.338Z" fill="#233862"/>
<path d="M362.633 68.326C362.633 68.326 364.418 63.9567 366.383 63.7774C368.345 63.6011 374.592 62.6209 375.038 63.5114C375.483 64.402 375.038 67.6117 373.698 68.7713C372.361 69.9309 364.062 71.8047 364.062 71.8047L362.633 68.326Z" fill="#E49963"/>
<path d="M350.597 130.405L334.454 173.823C334.454 173.823 331.975 174.062 329.595 173.378C327.408 172.747 324.902 171.091 324.902 171.091C324.902 171.091 328.907 129.407 336.249 120.734C343.59 112.064 350.597 130.405 350.597 130.405Z" fill="#233862"/>
<path d="M286.745 112.838C286.745 112.838 333.132 97.1664 343.476 100.499C353.824 103.834 384.884 165.592 384.884 165.592C384.884 165.592 384.184 166.525 382.27 167.242C380.491 167.908 376.181 167.867 376.181 167.867C376.181 167.867 348.151 143.854 344.813 136.851C341.476 129.846 340.142 123.179 336.804 123.845C333.467 124.512 293.755 140.187 284.744 130.847C275.734 121.511 278.09 109.378 278.09 109.378L286.745 112.838Z" fill="#2B478B"/>
<path d="M315.092 39.9218C315.834 38.3946 316.662 35.6781 317.066 30.8396C317.003 31.3208 316.169 37.4234 313.821 40.8781C304.174 47.2079 285.683 68.343 286.048 72.3477C286.048 72.3477 279.537 61.3079 279.424 61.2422C279.424 61.2422 267.411 45.9736 281.649 37.2291C288.886 32.7851 288.85 27.08 288.548 22.1249C288.243 17.1699 290.522 -4.16238 305.017 1.42024C305.017 1.42024 307.344 0.386185 308.387 0.541595C308.387 0.541595 307.535 0.705978 307.102 1.15127C308.782 1.05265 311.187 1.17519 313.19 2.31383C318.505 5.33228 323.263 32.4086 315.092 39.9218Z" fill="#163560"/>
<path d="M313.248 41.1928C313.296 41.2137 308.589 43.6554 305.051 42.6871C301.72 41.7815 299.546 37.4661 299.591 37.4571C301.002 37.1762 301.409 35.2396 301.379 26.9194L302.016 27.045L312.734 29.1639C312.734 29.1639 312.489 32.535 312.483 35.7118C312.477 38.3776 312.638 40.9059 313.248 41.1928Z" fill="#E49963"/>
<path d="M312.734 29.1669C312.734 29.1669 312.489 32.538 312.483 35.7148C306.484 35.5475 303.314 30.0784 302.016 27.048L312.734 29.1669Z" fill="#D68D5D"/>
<path d="M300.91 25.8828C300.91 25.8828 297.766 20.9188 297.01 16.6751C296.472 13.6447 298.015 2.41364 309.31 4.03045C309.31 4.03045 312.591 4.35321 315.674 6.43624C318.126 8.08891 321.664 11.6632 317.708 21.4627L316.679 24.7741L300.91 25.8828Z" fill="#163560"/>
<path d="M314.74 32.1752C314.74 32.1752 300.547 32.4083 300.538 23.5741C300.529 14.7399 298.69 8.8226 307.751 8.2996C316.81 7.7766 318.574 11.1447 319.295 14.0914C320.019 17.0412 318.431 31.8853 314.74 32.1752Z" fill="#E49963"/>
<path d="M314.21 8.07977C314.21 8.07977 310.326 18.4441 304.363 19.9772C298.399 21.5073 295.812 19.9114 295.812 19.9114C295.812 19.9114 296.387 16.2803 297.338 9.94161C297.338 9.94161 311.28 3.14865 314.21 8.07977Z" fill="#163560"/>
<path d="M313.25 8.9261C313.25 8.9261 316.151 11.2392 316.86 13.4896C317.568 15.737 317.885 20.3693 319.237 20.2109C319.237 20.2109 322.162 13.1669 318.872 9.18311C315.385 4.95729 313.25 8.9261 313.25 8.9261Z" fill="#163560"/>
<path d="M281.65 79.3459C280.25 73.4823 285.011 62.0989 289.981 52.676C294.491 44.1376 299.171 37.2072 299.593 37.4582C311.486 44.5112 312.563 38.6477 312.563 38.6477C312.563 38.6477 323.365 40.0822 326.424 45.345C330.656 52.6222 335.265 74.4595 339.792 74.1368C341.871 73.9874 362.784 66.1334 362.784 66.1334C362.784 66.1334 366.268 69.3939 365.601 73.3956C365.601 73.3956 355.274 80.3081 346.542 84.7163C341.925 87.0473 337.75 88.6791 335.788 88.2189C331.81 87.2805 325.596 78.0667 322.238 72.6395C322.232 72.6276 322.223 72.6156 322.217 72.6037C317.931 96.8438 323.757 102.367 320.808 104.922C317.692 107.621 313.242 103.637 303.454 107.878C297.033 110.66 288.121 114.686 282.125 115.385C278.979 115.755 276.631 115.209 275.866 113.084C273.641 106.915 284.32 90.529 281.65 79.3459Z" fill="#699DEE"/>
<path d="M311.586 26.8211C311.586 26.8211 311.849 27.9418 314.642 27.7714C314.642 27.7714 316.99 27.625 316.918 26.3907C316.918 26.3907 314.642 25.5151 311.586 26.8211Z" fill="white"/>
<path d="M275.866 113.084C276.631 115.209 278.979 115.755 282.125 115.385C286.276 113.577 304.21 106.634 304.01 101.93C303.711 94.964 300.562 94.7399 302.787 86.1418C304.572 79.2383 288.002 66.4024 285.358 63.6141C280.388 73.034 280.25 73.4823 281.65 79.3459C284.32 90.529 273.641 106.915 275.866 113.084Z" fill="#3B76CA"/>
<path d="M322.234 72.6396C325.593 78.0669 331.807 87.2806 335.785 88.219C337.746 88.6792 341.921 87.0475 346.539 84.7164C343.168 85.586 339.894 85.5621 336.712 85.2543C333.264 84.9196 332.262 80.6968 326.813 74.361C323.275 70.2518 322.408 71.2858 322.234 72.6396Z" fill="#3B76CA"/>
<path d="M305.621 85.9771C305.621 85.9771 308.627 83.6401 311.462 84.1989C314.3 84.7518 315.691 86.6974 315.58 87.588C315.466 88.4786 313.965 90.98 311.797 91.2011C309.626 91.4223 303.453 89.8682 303.453 89.8682L305.621 85.9771Z" fill="#E49963"/>
<path d="M299.591 37.4596C299.591 37.4596 288.023 38.1708 284.022 43.7505C278.385 51.6074 264.855 86.5526 271.264 91.0175C278.48 96.0472 306.454 90.8681 306.454 90.8681C306.454 90.8681 307.306 86.8843 306.122 84.9597C304.935 83.0321 285.652 79.918 284.764 79.0304C283.872 78.1398 295.885 61.6878 295.885 59.019C295.885 56.3502 299.591 37.4596 299.591 37.4596Z" fill="#699DEE"/>
<path d="M363.783 53.9577L371.714 51.8329C371.986 51.7612 372.226 51.8239 372.393 51.9703L372.402 51.9674L373.512 52.6368L372.626 73.0994L365.009 75.1406L364.45 75.0958L363.167 74.3098V74.3038C362.988 74.1843 362.871 73.9841 362.871 73.7211V55.1143C362.871 54.6122 363.284 54.0922 363.783 53.9577Z" fill="#233862"/>
<path d="M365.01 75.1399L372.938 73.015C373.44 72.8805 373.853 72.3605 373.853 71.8584V53.2517C373.853 52.7496 373.44 52.4508 372.938 52.5852L365.01 54.7071C364.507 54.8416 364.098 55.3616 364.098 55.8637V74.4704C364.098 74.9725 364.507 75.2743 365.01 75.1399Z" fill="#2B478B"/>
<path d="M370.858 55.013L372.707 54.4602C372.985 54.3795 373.203 54.0836 373.194 53.8057C373.188 53.5277 372.955 53.3664 372.677 53.45L370.832 54.0029C370.553 54.0836 370.335 54.3795 370.344 54.6574C370.35 54.9353 370.583 55.0967 370.858 55.013Z" fill="#233862"/>
<path d="M373.031 68.2576C373.079 68.676 373.572 68.8912 373.904 68.6252C374.58 68.0873 375.453 66.9098 375.453 64.4352C375.453 60.5113 371.951 59.008 373.031 68.2576Z" fill="#E49963"/>
</svg>
