<svg width="34" height="38" viewBox="0 0 34 38" fill="none" xmlns="http://www.w3.org/2000/svg">
<path id="Vector" d="M16.4111 36.2802C14.0723 33.4381 12.0918 31.0732 10.4136 29.0694C7.43384 25.5115 5.40727 23.0916 4.02087 21.1593C2.95845 19.6785 2.34689 18.5814 1.98846 17.5669C1.63649 16.5706 1.5 15.5728 1.5 14.25C1.5 7.4454 8.18073 1.5 17 1.5C25.8193 1.5 32.5 7.4454 32.5 14.25C32.5 15.5728 32.3635 16.5706 32.0115 17.5669C31.6531 18.5814 31.0415 19.6785 29.9791 21.1593C28.5927 23.0916 26.5662 25.5115 23.5864 29.0694C21.9085 31.0729 19.9284 33.4372 17.5902 36.2786C17.5054 36.3808 17.3044 36.5 17 36.5C16.6952 36.5 16.494 36.3805 16.4095 36.2782L15.2529 37.2333L16.4111 36.2802ZM17 21.6875C21.4816 21.6875 25.5833 18.5947 25.5833 14.25C25.5833 9.90531 21.4816 6.8125 17 6.8125C12.5184 6.8125 8.41667 9.90531 8.41667 14.25C8.41667 18.5947 12.5184 21.6875 17 21.6875Z" fill="white" stroke="#1A90FF" stroke-width="3"/>
</svg>
