<svg width="100%" viewBox="0 0 581 419" fill="none" xmlns="http://www.w3.org/2000/svg">
<g clip-path="url(#clip0_1711_2259)">
<path d="M470.195 266.608C470.714 266.656 471.236 266.543 471.689 266.283C472.142 266.023 472.505 265.63 472.729 265.155C472.952 264.681 473.025 264.149 472.938 263.631C472.851 263.114 472.608 262.636 472.242 262.262C472.19 262.003 472.152 261.817 472.1 261.557C472.125 261.503 472.151 261.448 472.177 261.393C472.759 260.172 473.687 259.15 474.844 258.457C476.001 257.765 477.336 257.431 478.68 257.499C480.025 257.567 481.32 258.034 482.402 258.84C483.484 259.646 484.305 260.756 484.763 262.03C486.591 267.116 488.981 272.237 489.382 277.543C489.559 279.888 489.329 282.247 488.704 284.513C494.031 274.125 497.076 262.707 497.632 251.031C497.769 248.101 497.743 245.165 497.554 242.238C497.396 239.839 497.135 237.451 496.769 235.076C494.768 222.186 489.756 209.958 482.147 199.396C478.335 197.066 475.325 193.615 473.522 189.51C472.868 188.035 472.43 186.471 472.222 184.869C472.66 184.948 473.107 185.005 473.547 185.055C473.684 185.069 473.828 185.083 473.965 185.097L474.017 185.101C474.501 185.146 474.987 185.049 475.418 184.822C475.848 184.595 476.204 184.247 476.443 183.821C476.681 183.396 476.793 182.909 476.763 182.421C476.733 181.933 476.564 181.464 476.276 181.071C476.096 180.826 475.917 180.581 475.737 180.337C475.464 179.959 475.184 179.589 474.912 179.211C474.88 179.175 474.85 179.137 474.823 179.098C474.509 178.667 474.196 178.244 473.882 177.814C474.533 176.894 475.387 176.137 476.376 175.604C479.801 173.795 484.338 175.372 486.606 178.519C488.882 181.667 489.14 185.946 488.126 189.699C487.152 192.886 485.645 195.884 483.671 198.563C483.841 198.804 484.019 199.039 484.189 199.28C487.296 203.712 489.965 208.439 492.156 213.395C491.82 207.942 492.774 202.488 494.942 197.479C497.119 192.819 500.974 188.989 504.395 185.032C508.505 180.279 516.364 182.805 516.758 189.093C516.762 189.154 516.766 189.214 516.769 189.275C516.277 189.525 515.794 189.792 515.32 190.077C514.724 190.438 514.251 190.972 513.962 191.608C513.674 192.244 513.582 192.954 513.701 193.643C513.82 194.332 514.143 194.97 514.627 195.471C515.112 195.973 515.736 196.315 516.417 196.454L516.487 196.468C516.236 198.201 515.854 199.911 515.344 201.586C513.877 206.258 511.466 210.574 508.264 214.265C505.061 217.955 501.135 220.94 496.732 223.032C496.443 223.165 496.161 223.297 495.873 223.422C497.979 230.455 499.167 237.734 499.408 245.075C499.537 249.405 499.317 253.739 498.751 258.034L498.78 257.882C499.927 253.131 502.669 248.923 506.543 245.971C512.293 241.652 520.195 240.333 526.34 236.933C526.994 236.553 527.742 236.369 528.497 236.402C529.252 236.436 529.981 236.686 530.599 237.122C531.217 237.559 531.698 238.165 531.985 238.868C532.273 239.571 532.354 240.342 532.22 241.09C532.21 241.143 532.199 241.197 532.188 241.25C531.281 241.573 530.394 241.953 529.534 242.387C529.041 242.637 528.558 242.904 528.084 243.189C527.489 243.55 527.015 244.083 526.727 244.72C526.438 245.356 526.347 246.066 526.465 246.755C526.584 247.444 526.907 248.081 527.392 248.583C527.876 249.085 528.5 249.427 529.182 249.566L529.252 249.58C529.302 249.59 529.345 249.599 529.395 249.609C527.704 253.194 525.413 256.459 522.621 259.262C519.175 262.651 515.078 265.297 510.58 267.036C506.083 268.776 501.279 269.573 496.465 269.378L496.457 269.377C494.887 275.029 492.736 280.502 490.041 285.706L469.862 284.761C469.8 284.532 469.746 284.296 469.691 284.067C471.553 284.273 473.434 284.248 475.29 283.994C473.878 282.075 472.468 280.142 471.056 278.224C471.024 278.187 470.994 278.15 470.967 278.11C470.251 277.128 469.528 276.154 468.812 275.172L468.812 275.171C468.906 272.269 469.37 269.391 470.194 266.608L470.195 266.608Z" fill="#F2F2F2"/>
<path d="M63.6087 91.0252C63.0933 91.1059 62.5657 91.0251 62.0974 90.794C61.6291 90.5628 61.2427 90.1924 60.9906 89.7329C60.7385 89.2733 60.6329 88.747 60.6881 88.225C60.7432 87.7031 60.9565 87.2109 61.299 86.815C61.3352 86.5529 61.3612 86.3648 61.3974 86.1028C61.3685 86.0497 61.3396 85.9968 61.3105 85.9439C60.6546 84.7607 59.6658 83.7989 58.4684 83.1793C57.271 82.5598 55.9183 82.31 54.5804 82.4615C53.2424 82.6131 51.9787 83.159 50.9481 84.0309C49.9175 84.9027 49.1659 86.0616 48.7877 87.3619C47.2754 92.5519 45.2044 97.8117 45.1296 103.132C45.0976 105.484 45.4712 107.824 46.2339 110.047C40.2795 100.01 36.5394 88.8025 35.2672 77.1837C34.951 74.2678 34.797 71.3363 34.806 68.4031C34.8156 65.9982 34.9301 63.599 35.1496 61.2053C36.3555 48.2162 40.6062 35.7001 47.5527 24.6849C51.214 22.1219 54.0066 18.4911 55.5541 14.2819C56.1159 12.7682 56.457 11.1807 56.5668 9.56863C56.134 9.67463 55.6916 9.75968 55.2557 9.83668C55.1196 9.85886 54.9765 9.88189 54.8405 9.90412L54.7892 9.9121C54.309 9.9867 53.8176 9.92005 53.3741 9.72016C52.9307 9.52027 52.5541 9.19568 52.2898 8.78544C52.0254 8.37521 51.8845 7.89682 51.8841 7.40789C51.8836 6.91896 52.0236 6.44033 52.2873 6.02961C52.4515 5.77409 52.6158 5.51868 52.7802 5.26337C53.029 4.86969 53.2858 4.48248 53.5345 4.08885C53.5641 4.05081 53.5914 4.01109 53.6164 3.96991C53.9029 3.5208 54.1901 3.07899 54.4766 2.62988C53.7702 1.75209 52.8718 1.05037 51.8515 0.579411C48.3218 -1.013 43.8903 0.842466 41.8198 4.12513C39.7421 7.40853 39.7467 11.6954 40.9895 15.3776C42.1577 18.4987 43.8453 21.3969 45.98 23.9482C45.8251 24.1997 45.6622 24.4447 45.5073 24.6962C42.6779 29.3126 40.3049 34.1968 38.4223 39.279C38.4232 33.8162 37.1353 28.4313 34.6644 23.5671C32.2049 19.051 28.1227 15.4677 24.4649 11.7312C20.0714 7.24303 12.3823 10.2532 12.3747 16.553C12.3747 16.614 12.3747 16.6749 12.375 16.7359C12.8819 16.9547 13.3806 17.1914 13.871 17.4457C14.4875 17.7692 14.9925 18.2725 15.3198 18.8897C15.6471 19.5069 15.7816 20.2092 15.7055 20.9046C15.6294 21.6 15.3463 22.2561 14.8933 22.7868C14.4403 23.3175 13.8386 23.6982 13.1669 23.8789L13.0982 23.8975C13.4556 25.6111 13.9419 27.2949 14.553 28.9343C16.3044 33.5061 18.9755 37.6645 22.3989 41.1488C25.8223 44.6331 29.9241 47.3682 34.4472 49.1826C34.7436 49.2968 35.0328 49.4117 35.3284 49.5186C33.658 56.6689 32.9186 64.0074 33.1289 71.3496C33.2667 75.6797 33.7523 79.9916 34.5809 84.243L34.5429 84.0933C33.1056 79.4223 30.1104 75.3935 26.0631 72.6872C20.059 68.7346 12.0908 67.9092 5.74894 64.898C5.07289 64.5589 4.31456 64.4214 3.56341 64.5018C2.81225 64.5821 2.0996 64.8769 1.5095 65.3515C0.919402 65.826 0.476468 66.4604 0.232945 67.18C-0.0105789 67.8995 -0.0445391 68.6741 0.135074 69.4124C0.148803 69.4648 0.162676 69.5172 0.176682 69.5696C1.10233 69.8359 2.01058 70.1599 2.89619 70.5398C3.40315 70.7587 3.90182 70.9953 4.3922 71.2497C5.00867 71.5731 5.51366 72.0765 5.841 72.6937C6.16834 73.3109 6.30276 74.0132 6.22665 74.7086C6.15054 75.404 5.86747 76.06 5.41449 76.5907C4.96152 77.1215 4.35978 77.5022 3.68813 77.6829L3.61929 77.7014C3.56971 77.7141 3.52728 77.7262 3.47777 77.7389C5.3856 81.2119 7.87329 84.3285 10.8319 86.9523C14.4789 90.1211 18.7308 92.5069 23.3267 93.9635C27.9226 95.4202 32.7658 95.9168 37.5592 95.4231L37.5664 95.4223C39.4814 100.966 41.9636 106.294 44.9732 111.321L65.0557 109.123C65.1035 108.891 65.1432 108.652 65.1837 108.42C63.3375 108.741 61.4593 108.834 59.5908 108.695C60.8819 106.692 62.1714 104.675 63.4626 102.672C63.4921 102.634 63.5194 102.595 63.5444 102.553C64.1984 101.529 64.8605 100.511 65.5144 99.487L65.5147 99.4857C65.243 96.5951 64.6026 93.7517 63.6093 91.0256L63.6087 91.0252Z" fill="#F2F2F2"/>
<path d="M341.065 83.5361C342.059 83.8113 342.981 84.3024 343.766 84.9749C344.551 85.6475 345.18 86.485 345.608 87.4285C346.037 88.3721 346.255 89.3987 346.246 90.436C346.238 91.4734 346.003 92.4963 345.559 93.4326L356.336 105.489L350.652 113.866L335.671 96.6249C334.157 95.7704 333.008 94.3868 332.44 92.7363C331.872 91.0858 331.926 89.2831 332.591 87.6697C333.255 86.0564 334.485 84.7445 336.047 83.9826C337.609 83.2207 339.395 83.0619 341.065 83.5361Z" fill="#A0616A"/>
<path d="M441.955 113.14C440.983 111.549 439.709 110.167 438.206 109.072C436.702 107.978 434.998 107.192 433.192 106.762C431.386 106.331 429.514 106.264 427.682 106.563C425.85 106.862 424.095 107.522 422.517 108.505L387.075 130.593L348.843 97.8923L339.331 106.804L381.566 161.944L436.459 133.148C435.178 133.82 443.503 115.676 441.955 113.14Z" fill="#CCCCCC"/>
<path d="M366.496 177.764C366.5 195.378 363.054 212.819 356.357 229.093C349.66 245.366 339.843 260.153 327.465 272.608C315.088 285.062 300.393 294.941 284.22 301.68C268.048 308.419 250.714 311.886 233.21 311.882C159.599 311.882 99.9239 251.834 99.9239 177.764C99.9112 163.356 102.206 149.04 106.722 135.368C115.586 108.665 132.568 85.4417 155.267 68.982C177.965 52.5224 205.231 43.6592 233.21 43.6458C257.34 43.6373 281.019 50.2225 301.719 62.6984C322.42 75.1743 339.365 93.0725 350.746 114.482C353.568 119.765 356.029 125.234 358.114 130.852C358.403 131.635 358.684 132.417 358.958 133.207V133.214C360.18 136.686 361.256 140.223 362.186 143.825C365.057 154.906 366.505 166.312 366.496 177.764Z" fill="#3F3D56"/>
<path d="M223.875 96.0967C217.885 92.8373 211.235 90.9974 204.431 90.7173C197.627 90.4372 190.849 91.7243 184.615 94.4804C179.126 96.8842 173.346 101.196 171.515 108.983C178.921 104.585 188.508 111.534 190.414 122.682L189.969 122.805C188.962 130.527 191.209 138.933 195.56 143.721C196.131 138.748 199.38 135.363 202.577 133.249C205.773 131.135 209.309 129.599 211.749 125.965C214.641 121.656 215.375 115.359 216.524 109.615C217.673 103.871 219.853 97.6973 223.875 96.0967Z" fill="white"/>
<path d="M182.418 161.803C180.367 164.902 177.627 166.847 175.169 169.269C172.718 171.698 170.385 174.976 169.896 179.186C169.585 181.883 170.067 184.625 170 187.352C169.933 190.079 169.03 193.149 167.186 193.827C164.276 194.885 162.055 189.446 159.063 189.066C156.686 188.768 154.546 192.531 155.235 195.794C155.924 199.058 159.159 200.503 161.018 198.372C162.699 201.211 161.514 206.36 158.989 207.231C158.722 209.02 158.456 210.8 158.197 212.589C151.814 208.096 145.364 203.528 139.937 196.949C133.9 189.694 130.156 180.789 129.185 171.377C128.481 163.814 129.525 155.164 126.075 149.345C123.313 144.688 118.574 143.659 114.309 143.95C113.531 144.002 112.746 144.092 111.969 144.188C114.484 136.587 117.679 129.23 121.513 122.208C122.381 121.833 123.188 121.328 123.905 120.71C127.874 117.32 129.637 110.458 132.858 105.711C133.065 105.406 133.28 105.108 133.502 104.817C136.797 100.488 141.21 98.2603 145.475 96.1889C154.916 91.5768 164.631 86.905 174.598 87.5458L171.762 87.8215C168.452 97.1501 165.14 106.479 161.825 115.807C161.322 117.238 160.813 118.671 160.3 120.107C158.419 125.412 156.479 131.06 156.768 136.998C156.938 140.515 158.152 144.27 160.463 145.477C162.617 146.595 164.972 145.224 167.053 143.868C167.934 143.302 168.808 142.735 169.689 142.162C172.851 140.113 176.353 138.011 179.693 139.382C182.751 140.634 185.009 144.814 185.439 149.322C185.833 153.704 184.77 158.094 182.418 161.803Z" fill="white"/>
<path d="M201.223 225.492C191.989 219.771 182.754 214.05 173.52 208.328L173.676 207.922C167.935 210.123 165.551 220.392 166.5 228.791C167.449 237.189 170.666 244.697 172.292 252.88C174.483 264.078 173.656 275.663 169.896 286.431C182.039 272.721 192.785 257.821 201.973 241.953C203.257 239.954 204.235 237.771 204.875 235.479C205.462 233.041 205.372 230.109 204.197 228.154C203.441 227.032 202.419 226.117 201.223 225.492Z" fill="white"/>
<path d="M164.777 121.405C163.796 123.623 163.419 126.581 164.309 128.877C165.218 131.221 167.139 132.281 168.908 133.163L174.01 135.708C175.708 136.554 177.537 137.409 179.268 136.713C181.355 135.873 182.802 132.58 182.428 129.523C182.029 126.271 179.992 124.033 178.107 122.128C175.47 119.462 172.833 116.795 170.196 114.129L168.71 115.961C167.102 117.538 165.772 119.379 164.777 121.405Z" fill="white"/>
<path d="M344.39 156.177C346.685 156.721 348.981 157.265 351.276 157.809C350.876 165.61 347.033 172.83 341.88 175.446C339.732 176.533 337.341 176.936 335.563 178.97C333.957 180.818 333.142 183.694 332.394 186.443C331.083 191.242 329.773 196.04 328.462 200.839C327.055 206.01 325.249 211.754 321.591 213.617C318.451 215.219 314.86 213.259 312.446 209.973C310.032 206.688 308.558 202.269 307.129 197.963C307.218 202.657 305.048 207.261 301.975 208.893C298.895 210.525 295.148 209.05 293.09 205.406C291.609 202.791 290.994 199.341 289.543 196.688C288.091 194.036 285.048 192.516 283.463 195.004C282.419 196.659 282.552 199.192 282.034 201.293C281.227 204.557 278.784 206.606 276.362 206.785C273.948 206.963 271.593 205.563 269.572 203.663C265.403 199.728 262.33 193.484 261.138 186.548C260.612 183.455 260.464 180.088 261.375 177.189C262.286 174.291 264.485 172.055 266.669 172.607C268.106 169.552 265.27 165.498 262.715 165.856C260.153 166.214 258.146 168.978 256.043 171.102C253.948 173.225 251.016 174.767 248.905 172.659C248.92 174.618 247.335 175.915 245.966 175.751C244.603 175.595 243.389 174.492 242.137 173.709C237.302 170.677 231.163 172.689 227.728 178.426C229.875 169.231 233.022 158.681 239.62 156.52C242.315 155.633 245.255 156.363 247.802 154.829C252.311 152.109 253.222 141.834 249.327 137.594C249.823 141.603 249.727 146.282 247.624 149.024C245.521 151.766 241.108 149.978 241.375 145.925C240.767 148.719 237.746 149.143 236.354 146.997C234.955 144.852 235.073 141.342 236.065 138.779C237.058 136.216 238.746 134.376 240.382 132.61C243.9 128.817 247.469 124.98 251.541 122.595C255.621 120.211 260.331 119.406 264.418 121.776C266.573 123.028 268.469 125.114 270.668 126.217C272.867 127.327 275.659 127.185 277.117 124.592C278.754 121.701 277.984 117.41 278.591 113.796C279.68 107.41 286.025 104.422 289.543 108.64C286.914 107.962 284.196 111.091 283.871 114.884C283.537 118.676 285.44 122.506 287.988 123.654C292.268 125.561 296.459 120.763 299.695 116.322C303.071 111.672 306.453 107.025 309.839 102.381C310.38 101.59 310.987 100.847 311.653 100.161C312.714 99.1203 314.128 98.5246 315.609 98.4941C317.089 98.4637 318.526 99.0008 319.628 99.9966C323.049 102.806 324.656 108.565 327.463 112.529C331.535 118.289 337.629 119.69 343.301 120.807C347.529 121.634 351.76 122.466 355.993 123.303C358.815 128.586 361.277 134.055 363.361 139.673C356.193 142.736 349.581 148.465 344.39 156.177Z" fill="white"/>
<path d="M358.059 245.828C354.887 252.31 351.197 258.522 347.026 264.403C344.36 263.256 341.494 265.305 338.999 267.227C336.393 269.239 333.26 271.199 330.587 269.366C327.855 267.488 326.974 262.235 327.84 258.07C328.706 253.912 330.869 250.604 332.964 247.46C335.186 244.122 337.563 240.657 340.65 239.36C343.746 238.064 347.722 239.897 348.625 244.323L350.817 244.248C349.588 242.549 350.232 239.032 351.883 238.414C353.786 237.691 355.438 240.322 356.563 242.646C357.067 243.697 357.578 244.755 358.059 245.828Z" fill="white"/>
<path d="M274.114 214.355C269.403 214.653 265.672 208.817 263.192 203.076C260.712 197.335 258.449 190.769 254.198 187.847C251.77 186.177 249 185.948 246.366 185.139C243.731 184.33 240.974 182.655 239.714 179.246L236.726 178.031C232.779 180.264 228.78 182.538 225.379 186.172C221.565 190.249 219.189 195.475 218.618 201.045C218.047 207.064 220.155 213.776 224.094 216.037C227.207 217.824 230.83 216.698 233.983 218.333C237.922 220.377 240.261 226.313 241.146 232.174C242.031 238.036 241.807 244.127 242.44 250.055C243.073 255.983 244.819 262.151 248.431 265.189C252.952 268.99 259.585 265.831 261.613 258.911C262.608 255.517 262.573 251.687 263.317 248.163C264.628 241.958 268.163 237.355 270.968 232.265C273.772 227.175 275.98 220.262 274.114 214.355Z" fill="white"/>
<path d="M227.561 153.382C228 153.789 228.41 154.227 228.788 154.693C229.179 155.37 229.378 156.143 229.365 156.926C229.351 157.71 229.126 158.475 228.712 159.139C229.28 159.106 229.835 158.956 230.341 158.697C230.848 158.437 231.296 158.075 231.656 157.633C232.516 156.648 233.273 155.576 233.914 154.434C234.394 153.645 234.905 152.579 234.579 151.643C234.356 151.004 233.83 150.731 233.461 150.251C232.876 149.489 232.731 148.279 232.429 147.233C231.775 144.975 230.209 143.314 228.509 143.076L228.745 143.122C228.035 143.367 227.539 144.501 227.696 145.522C227.839 146.452 228.433 147.224 228.374 148.172C228.289 149.536 226.935 150.176 226.851 151.54C226.838 152.224 227.093 152.886 227.561 153.382Z" fill="white"/>
<path d="M219.49 130.209C219.497 130.207 219.504 130.207 219.511 130.205C219.656 130.072 219.79 129.928 219.913 129.774L219.49 130.209Z" fill="#E6E6E6"/>
<path d="M220.903 136.61C221.944 135.936 222.526 134.072 222.182 132.512C221.839 130.961 220.628 129.919 219.511 130.205C219.187 130.536 218.784 130.778 218.342 130.909C217.899 131.041 217.43 131.056 216.98 130.955C216.289 130.776 215.531 130.315 214.932 130.839C214.589 131.23 214.349 131.701 214.234 132.21C214.012 132.895 213.79 133.58 213.569 134.265C213.463 134.51 213.436 134.782 213.49 135.043C213.532 135.148 213.601 135.24 213.689 135.31C213.777 135.381 213.882 135.427 213.993 135.445C215.323 135.84 216.654 136.235 217.984 136.629C218.954 136.917 220 137.194 220.903 136.61Z" fill="white"/>
<path d="M321.341 224.978C320.726 223.965 320.111 222.952 319.496 221.939C318.892 220.765 318.066 219.722 317.065 218.867C316.845 218.681 316.59 218.542 316.316 218.457C316.041 218.372 315.753 218.343 315.467 218.372C315.181 218.4 314.904 218.486 314.652 218.625C314.399 218.763 314.177 218.95 313.998 219.176L314.073 219.755C315.475 221.524 316.958 223.49 317.313 226.117C317.454 227.152 317.405 228.224 317.528 229.264C317.651 230.304 318 231.382 318.667 231.831C319.636 232.482 320.773 231.522 321.462 230.351C322.078 229.389 322.355 228.246 322.247 227.107C322.093 226.342 321.785 225.618 321.341 224.978Z" fill="white"/>
<path d="M348.713 186.284C348.891 185.111 349.069 183.937 349.247 182.763C349.536 181.474 349.571 180.141 349.353 178.838C349.303 178.553 349.197 178.281 349.042 178.039C348.886 177.796 348.684 177.586 348.447 177.423C348.21 177.26 347.943 177.146 347.661 177.089C347.38 177.031 347.09 177.03 346.808 177.087L346.495 177.578C346.435 179.841 346.312 182.306 344.903 184.546C344.347 185.429 343.624 186.217 343.053 187.092C342.481 187.967 342.059 189.019 342.282 189.794C342.606 190.92 344.09 190.922 345.367 190.473C346.454 190.136 347.397 189.441 348.044 188.499C348.415 187.815 348.643 187.061 348.713 186.284Z" fill="#E6E6E6"/>
<path d="M330.989 226.297C331.29 225.428 330.856 224.43 330.764 223.468C330.72 222.227 331.047 221 331.703 219.948C332.355 218.955 332.848 217.866 333.167 216.72C333.301 216.198 333.276 215.647 333.096 215.139C332.893 214.679 332.4 214.469 332.117 214.833L332.722 215.226C331.905 215.079 331.065 215.12 330.266 215.345C329.81 215.521 329.403 215.805 329.079 216.172C328.754 216.54 328.523 216.98 328.404 217.457C328.304 218.2 328.141 218.933 327.916 219.648C327.555 220.395 326.856 220.643 326.417 221.298C326.117 221.879 325.966 222.526 325.977 223.181C325.988 223.835 326.16 224.477 326.479 225.047C327.03 225.981 327.907 226.675 328.939 226.994C329.678 227.261 330.651 227.275 330.989 226.297Z" fill="white"/>
<path d="M275.403 237.964L275.41 237.978C275.451 237.899 275.492 237.819 275.533 237.739L275.403 237.964Z" fill="#E6E6E6"/>
<path d="M272.797 243.041C272.229 244.079 271.74 245.159 271.335 246.273C270.799 248.076 270.444 249.929 270.275 251.803C270.143 252.869 270.102 254.23 270.765 254.75C270.956 254.877 271.186 254.93 271.413 254.899C271.639 254.868 271.847 254.755 271.997 254.581C272.366 254.189 272.667 253.738 272.89 253.246C274.194 250.986 275.207 248.567 275.903 246.049C276.538 243.397 276.532 240.274 275.41 237.978C274.539 239.665 273.668 241.353 272.797 243.041Z" fill="white"/>
<path d="M247.652 107.792C248.066 108.199 248.59 108.476 249.158 108.587C249.726 108.699 250.314 108.641 250.85 108.42C251.96 107.932 252.978 107.256 253.859 106.42C254.589 105.877 255.208 105.197 255.683 104.418C255.945 103.952 256.112 103.439 256.176 102.909C256.24 102.378 256.2 101.839 256.056 101.324C255.644 100.112 254.599 99.7052 253.676 99.43C252.2 98.9893 250.723 98.5487 249.246 98.108L250.314 97.1392C249.215 96.5456 247.999 97.6472 247.312 99.011C246.872 99.9015 246.565 100.853 246.401 101.834C246.033 103.974 246.393 106.523 247.652 107.792Z" fill="#E6E6E6"/>
<path d="M273.724 98.985C274.141 99.4467 274.716 99.7317 275.334 99.7823C275.951 99.8328 276.564 99.6451 277.049 99.2571C277.467 98.9417 277.813 98.5413 278.067 98.0821C278.32 97.6229 278.475 97.1151 278.52 96.5918C278.625 95.423 278.05 94.1238 277.23 94.0229L277.418 92.9286C275.837 92.6414 273.893 92.5839 273.046 94.5148C272.76 95.2545 272.673 96.0566 272.792 96.8411C272.911 97.6255 273.232 98.3648 273.724 98.985Z" fill="#E6E6E6"/>
<path d="M270.242 40.7897C260.978 39.7382 251.678 42.4328 244.389 48.2808C237.099 54.1287 232.417 62.651 231.372 71.9727C229.196 91.3843 239.359 133.537 257.889 150.987C266.613 117.555 297.186 97.7249 301.231 79.9021C305.554 60.8578 289.533 42.9793 270.242 40.7897Z" fill="#699DEE"/>
<path d="M263.835 83.9431C270.166 83.9431 275.299 78.7785 275.299 72.4076C275.299 66.0367 270.166 60.8721 263.835 60.8721C257.503 60.8721 252.371 66.0367 252.371 72.4076C252.371 78.7785 257.503 83.9431 263.835 83.9431Z" fill="white"/>
<path d="M251.781 167.619C255.928 167.619 259.29 164.236 259.29 160.063C259.29 155.89 255.928 152.508 251.781 152.508C247.634 152.508 244.272 155.89 244.272 160.063C244.272 164.236 247.634 167.619 251.781 167.619Z" fill="#699DEE"/>
<path opacity="0.2" d="M273.32 64.1431C274.611 64.9233 275.736 65.9516 276.631 67.1694C277.527 68.3871 278.175 69.7704 278.539 71.2402C278.903 72.7101 278.976 74.2377 278.754 75.7359C278.531 77.2341 278.017 78.6735 277.242 79.972C276.467 81.2704 275.445 82.4025 274.234 83.3035C273.024 84.2046 271.65 84.8569 270.189 85.2234C267.239 85.9634 264.117 85.4939 261.511 83.9182C264.168 84.5129 266.949 84.1368 269.356 82.857C271.763 81.5772 273.638 79.4773 274.647 76.9332C275.655 74.3891 275.731 71.5669 274.861 68.9716C273.99 66.3763 272.231 64.1775 269.896 62.7686C271.104 63.0378 272.26 63.502 273.32 64.1431Z" fill="#231F20"/>
<path opacity="0.2" d="M301.276 79.9389C297.23 97.7617 266.658 117.592 257.933 151.023C256.19 149.367 254.572 147.582 253.091 145.685C262.895 114.26 291.565 95.1654 295.473 77.9454C298.971 62.5332 289.145 47.8859 275.045 41.6985C292.113 46.0159 305.237 62.4867 301.276 79.9389Z" fill="#231F20"/>
<path d="M162.812 85.7988C155.856 85.0092 148.872 87.0328 143.398 91.4244C137.924 95.816 134.407 102.216 133.623 109.216C131.988 123.794 139.621 155.449 153.536 168.553C160.087 143.447 183.047 128.555 186.084 115.171C189.331 100.869 177.299 87.4432 162.812 85.7988Z" fill="#699DEE"/>
<path d="M158.002 118.206C162.756 118.206 166.611 114.328 166.611 109.544C166.611 104.759 162.756 100.881 158.002 100.881C153.247 100.881 149.393 104.759 149.393 109.544C149.393 114.328 153.247 118.206 158.002 118.206Z" fill="white"/>
<path d="M148.949 181.044C152.063 181.044 154.588 178.503 154.588 175.37C154.588 172.236 152.063 169.696 148.949 169.696C145.835 169.696 143.311 172.236 143.311 175.37C143.311 178.503 145.835 181.044 148.949 181.044Z" fill="#699DEE"/>
<path opacity="0.2" d="M165.125 103.337C166.094 103.923 166.939 104.695 167.611 105.609C168.284 106.524 168.771 107.563 169.044 108.666C169.318 109.77 169.372 110.917 169.205 112.042C169.038 113.168 168.652 114.249 168.07 115.224C167.488 116.199 166.72 117.049 165.811 117.726C164.903 118.402 163.87 118.892 162.773 119.167C161.676 119.442 160.536 119.497 159.418 119.329C158.3 119.161 157.226 118.773 156.257 118.187C158.252 118.634 160.34 118.351 162.148 117.39C163.955 116.429 165.364 114.852 166.121 112.942C166.878 111.031 166.935 108.912 166.282 106.963C165.628 105.014 164.307 103.362 162.554 102.304C163.46 102.507 164.329 102.855 165.125 103.337Z" fill="#231F20"/>
<path opacity="0.2" d="M186.119 115.199C183.081 128.584 160.122 143.475 153.57 168.581C152.262 167.337 151.046 165.997 149.934 164.572C157.297 140.973 178.827 126.634 181.762 113.702C184.389 102.128 177.009 91.1285 166.421 86.4819C179.238 89.7241 189.094 102.093 186.119 115.199Z" fill="#231F20"/>
<path d="M432.344 399.612H422.891L418.395 362.925L432.346 362.926L432.344 399.612Z" fill="#A0616A"/>
<path d="M437.429 417.672H430.722L429.525 411.3L426.458 417.672H408.669C407.816 417.672 406.986 417.398 406.299 416.89C405.612 416.381 405.105 415.665 404.851 414.846C404.597 414.027 404.61 413.147 404.889 412.336C405.167 411.525 405.695 410.825 406.397 410.337L420.603 400.465V394.023L435.545 394.92L437.429 417.672Z" fill="#2F2E41"/>
<path d="M395.731 399.612H386.279L381.782 362.925L395.733 362.926L395.731 399.612Z" fill="#A0616A"/>
<path d="M400.817 417.672H394.109L392.912 411.3L389.846 417.672H372.057C371.204 417.672 370.374 417.398 369.687 416.89C369 416.381 368.493 415.665 368.239 414.846C367.985 414.027 367.998 413.147 368.276 412.336C368.554 411.525 369.083 410.825 369.784 410.337L383.99 400.465V394.023L398.933 394.92L400.817 417.672Z" fill="#2F2E41"/>
<path d="M359.821 302.751C361.63 305.481 381.308 380.536 381.308 380.536L398.757 382.538L396.686 363.654L393.52 330.236L388.618 307.929C388.618 307.929 405.929 268.286 407.023 265.128L407.801 262.862L413.21 312.252C413.852 314.016 414.132 315.892 414.033 317.767C413.87 320.853 416.945 367.267 416.945 367.267L418.423 383.912L433.373 386.002L439.438 357.201C444.503 347.846 441.6 314.6 439.529 311.506C437.458 308.412 438.281 286.861 438.281 286.861C440.926 285.924 456.697 231.809 448.808 232.128C449.315 229.243 449.713 226.668 449.713 226.668L436.02 215.556L401.75 206.591L393.105 202.414C393.105 202.414 377.663 231.145 377.817 232.574C378.03 234.384 377.618 236.212 376.65 237.753L361.06 290.255C361.06 290.255 357.994 299.993 359.821 302.751Z" fill="#2F2E41"/>
<path d="M445.917 114.876L440.465 103.229L421.91 103.946L415.857 116.063C415.857 116.063 398.56 136.852 398.001 143.611C397.297 152.113 403.149 193.779 397.297 191.078C397.297 191.078 383.501 207.373 391.664 207.373C399.827 207.373 436.754 230.698 439.177 233.322C441.6 235.945 452.417 237.645 451.51 232.169C450.603 226.693 445.917 197.076 445.917 197.076L458.603 150.507C462.254 140.452 463.39 129.174 455.137 122.421L445.917 114.876Z" fill="#CCCCCC"/>
<path d="M377.186 80.5951C374.704 79.6038 372.053 79.114 369.383 79.1539C366.713 79.1937 364.077 79.7623 361.625 80.8273C359.173 81.8922 356.954 83.4326 355.094 85.3605C353.234 87.2884 351.77 89.5661 350.785 92.0635C346.641 102.567 345.955 127.648 353.665 140.219C363.579 122.891 383.636 116.492 388.583 107.161C393.869 97.1913 387.624 84.7643 377.186 80.5951Z" fill="#699DEE"/>
<path d="M368.839 103.938C372.502 103.938 375.471 100.951 375.471 97.2652C375.471 93.5799 372.502 90.5923 368.839 90.5923C365.177 90.5923 362.208 93.5799 362.208 97.2652C362.208 100.951 365.177 103.938 368.839 103.938Z" fill="white"/>
<path d="M348.886 148.723C351.284 148.723 353.229 146.767 353.229 144.353C353.229 141.939 351.284 139.982 348.886 139.982C346.487 139.982 344.542 141.939 344.542 144.353C344.542 146.767 346.487 148.723 348.886 148.723Z" fill="#699DEE"/>
<path opacity="0.2" d="M375.38 94.1011C376.595 95.3792 377.256 97.0903 377.218 98.8584C377.18 100.627 376.446 102.307 375.177 103.531C373.908 104.755 372.208 105.421 370.451 105.385C368.693 105.348 367.023 104.611 365.805 103.335C367.199 104.073 368.808 104.288 370.344 103.941C371.88 103.595 373.244 102.709 374.191 101.443C375.138 100.177 375.606 98.6133 375.512 97.0317C375.417 95.4501 374.767 93.9538 373.676 92.8108C374.31 93.1456 374.885 93.5813 375.38 94.1011Z" fill="#231F20"/>
<path opacity="0.2" d="M388.602 107.189C383.655 116.519 363.598 122.918 353.684 140.246C352.961 139.055 352.327 137.812 351.786 136.527C362 120.483 380.884 114.204 385.664 105.189C389.942 97.1207 386.666 87.4437 379.729 81.8359C388.605 86.8532 393.446 98.0519 388.602 107.189Z" fill="#231F20"/>
<path d="M346.928 142.848C347.938 142.638 348.981 142.654 349.984 142.894C350.987 143.134 351.926 143.593 352.733 144.237C353.541 144.882 354.199 145.697 354.66 146.624C355.121 147.552 355.374 148.571 355.402 149.608L370.446 155.419L369.167 165.48L348.035 156.973C346.301 156.904 344.652 156.198 343.401 154.987C342.149 153.777 341.383 152.146 341.247 150.405C341.11 148.664 341.613 146.933 342.66 145.54C343.708 144.147 345.226 143.189 346.928 142.847L346.928 142.848Z" fill="#A0616A"/>
<path d="M452.05 122.115C450.466 121.142 448.707 120.493 446.873 120.205C445.039 119.918 443.167 119.998 441.364 120.44C439.561 120.882 437.862 121.678 436.366 122.783C434.869 123.887 433.604 125.278 432.642 126.875L411.048 162.758L362.223 151.113L357.775 163.401L420.3 193.203L451.967 142.45C456.708 135.746 459.03 126.402 452.05 122.115Z" fill="#CCCCCC"/>
<path d="M452.857 78.139C452.858 81.5975 452.015 85.0034 450.403 88.0578C448.791 91.1122 446.458 93.7216 443.61 95.657C440.761 97.5925 437.484 98.7947 434.066 99.1583C430.648 99.5218 427.194 99.0355 424.006 97.7421C420.819 96.4486 417.995 94.3876 415.784 91.7398C413.573 89.0921 412.042 85.9387 411.324 82.5564C410.607 79.174 410.726 75.6662 411.67 72.3409C412.615 69.0155 414.356 65.9743 416.741 63.4842L416.842 63.3829C417.01 63.2054 417.178 63.0279 417.354 62.8588C417.355 62.8588 417.356 62.8586 417.357 62.8582C417.359 62.8578 417.359 62.8572 417.36 62.8564C417.361 62.8556 417.362 62.8547 417.362 62.8536C417.362 62.8526 417.363 62.8515 417.363 62.8504C417.581 62.6475 417.799 62.4447 418.026 62.2504C421.06 59.5737 424.797 57.8337 428.788 57.2386C432.78 56.6435 436.857 57.2187 440.532 58.8951C444.207 60.5716 447.324 63.2783 449.51 66.6913C451.696 70.1042 452.858 74.0787 452.857 78.139V78.139Z" fill="#2F2E41"/>
<path d="M426.686 100.745C436.41 100.745 444.294 92.8126 444.294 83.0277C444.294 73.2428 436.41 65.3105 426.686 65.3105C416.962 65.3105 409.079 73.2428 409.079 83.0277C409.079 92.8126 416.962 100.745 426.686 100.745Z" fill="#9E616A"/>
<path d="M445.384 88.0802L442.466 87.5617C440.836 87.2635 439.335 86.4717 438.165 85.2921C436.994 84.1125 436.209 82.6012 435.915 80.9606L433.069 85.7611L432.944 85.8026C426.162 88.0685 419.105 87.3908 411.376 83.7336C409.166 82.6788 407.022 81.4893 404.956 80.1719L404.803 80.0761L404.791 79.8958C404.397 74.1323 405.682 69.3173 408.411 66.3378C409.459 65.2168 410.73 64.3312 412.142 63.7391C413.553 63.147 415.073 62.8618 416.602 62.902C416.711 62.8734 416.811 62.8179 416.893 62.7405C416.932 62.7114 416.971 62.6827 417.01 62.6554V62.6256L417.213 62.5298C417.647 62.3243 418.09 62.1275 418.533 61.9476C422.017 60.5905 425.81 60.25 429.478 60.9654C433.146 61.6807 436.538 63.4229 439.266 65.9915C444.69 71.2016 447.177 79.945 445.456 87.7492L445.384 88.0802Z" fill="#2F2E41"/>
<path d="M482.521 103.175C476.529 100.063 484.235 88.7691 482.687 82.1656C481.138 75.5621 469.988 73.4382 469.277 66.6911C468.567 59.944 466.896 52.9851 462.471 47.8654C459.644 44.5939 455.478 42.1788 451.188 42.5886C449.737 42.7272 448.333 43.179 447.071 43.9131C445.808 44.6471 444.718 45.6463 443.875 46.8425C443.031 48.0388 442.453 49.4039 442.181 50.845C441.909 52.2861 441.948 53.7694 442.297 55.1936C441.076 53.4524 437.916 53.8298 437.133 55.8104C436.438 57.5711 437.974 59.7039 439.782 59.8596C442.148 62.7998 444.858 65.9201 448.564 66.5132C449.155 66.6496 449.769 66.6493 450.359 66.5122C450.949 66.375 451.501 66.1047 451.973 65.7216C452.845 64.8789 452.912 63.1942 451.878 62.5645C456.536 64.4264 459.267 69.4944 459.959 74.4898C460.65 79.4852 459.693 84.5395 459.063 89.5431C458.433 94.5467 458.162 99.8102 460.111 104.457C462.415 109.946 467.719 113.881 473.506 115.143C479.294 116.405 485.458 115.171 490.697 112.393C495.936 109.614 500.305 105.373 503.874 100.617C497.726 105.01 489.221 106.655 482.521 103.175Z" fill="#2F2E41"/>
<path d="M444.634 87.5874C444.634 87.5874 439.418 67.9971 417.06 63.4755C417.035 63.4672 416.951 63.4333 416.842 63.3827C416.775 63.3404 416.691 63.2981 416.607 63.2559C416.859 63.1122 417.102 62.9855 417.354 62.8586C417.356 62.8586 417.357 62.8584 417.358 62.858C417.359 62.8576 417.36 62.8569 417.36 62.8562C417.361 62.8554 417.362 62.8544 417.362 62.8534C417.363 62.8524 417.363 62.8512 417.363 62.8501C417.581 62.6473 417.8 62.4445 418.026 62.2501L418.665 62.2755C418.665 62.2755 441.098 58.7006 444.634 87.5874Z" fill="#FD6584"/>
<path opacity="0.2" d="M432.956 150.448L420.329 165.169L399.464 158.969L422.21 169.517L432.956 150.448Z" fill="black"/>
<path d="M508.751 418.782L314.603 419C314.382 418.999 314.169 418.91 314.012 418.752C313.856 418.594 313.768 418.38 313.768 418.156C313.768 417.933 313.856 417.719 314.012 417.561C314.169 417.403 314.382 417.314 314.603 417.313L508.751 417.095C508.973 417.095 509.186 417.184 509.344 417.342C509.501 417.5 509.589 417.715 509.589 417.939C509.589 418.162 509.501 418.377 509.344 418.535C509.186 418.693 508.973 418.782 508.751 418.782Z" fill="#CACACA"/>
<path d="M517.273 287.688C508.182 287.688 498.218 287.342 487.381 286.651C431.327 283.069 358.72 270.616 282.936 251.587C207.151 232.558 137.242 209.225 86.0879 185.888C61.1691 174.519 42.044 163.758 29.2446 153.903C15.6933 143.469 9.7658 134.374 11.626 126.873C15.2506 112.258 47.3442 109.06 73.6292 108.952L73.6382 111.077C37.5419 111.226 16.2468 117.019 13.6757 127.387C10.4004 140.593 37.1118 161.21 86.9601 183.952C138.002 207.238 207.782 230.526 283.447 249.525C359.112 268.524 431.584 280.955 487.515 284.529C542.135 288.02 575.343 282.448 578.618 269.242C581.336 258.277 563.411 242.125 528.143 223.76L529.114 221.872C554.74 235.217 584.486 254.357 580.667 269.757C578.807 277.259 569.328 282.484 552.494 285.288C542.898 286.887 531.111 287.688 517.273 287.688Z" fill="#699DEE"/>
</g>
<defs>
<clipPath id="clip0_1711_2259">
<rect width="581" height="419" fill="white"/>
</clipPath>
</defs>
</svg>
