<svg width="30" height="31" viewBox="0 0 30 31" fill="none" xmlns="http://www.w3.org/2000/svg">
<path d="M29.8297 23.0117L21.5914 14.7734L23.9219 12.443L18.3555 6.87656L16.025 9.20703L7.78672 0.96875L0.765625 7.98984L9.00391 16.2281L1.93828 23.2938V28.8602H7.50469L14.5703 21.7945L22.8086 30.0328L29.8297 23.0117ZM11.1117 14.1203L4.96641 7.98984L7.78672 5.16953L9.67187 7.05469L7.90547 8.82109L9.99844 10.9141L11.7648 9.14766L13.9172 11.3L11.1117 14.1203ZM16.6781 19.6867L19.4984 16.8664L21.6508 19.0187L19.8844 20.7852L21.9773 22.8781L23.7437 21.1117L25.6289 22.9969L22.8086 25.8172L16.6781 19.6867Z" fill="#FA8A43"/>
<path d="M23.7134 1.52295L19.9453 5.29102L25.5082 10.8539L29.2763 7.08583L23.7134 1.52295Z" fill="#FA8A43"/>
</svg>
