<svg width="683" height="515" viewBox="0 0 683 515" fill="none" xmlns="http://www.w3.org/2000/svg">
<g clip-path="url(#clip0_2107_2898)">
<path d="M393.592 25.0652C399.451 37.5185 387.037 41.0459 372.816 47.7207C358.596 54.3954 347.954 61.69 342.096 49.2368C336.237 36.7835 331.484 12.066 351.601 2.62333C372.411 -7.14463 387.734 12.6119 393.592 25.0652Z" fill="#2F2E41"/>
<path d="M364.579 49.5559C375.152 49.5559 383.723 40.9945 383.723 30.4335C383.723 19.8725 375.152 11.3111 364.579 11.3111C354.007 11.3111 345.436 19.8725 345.436 30.4335C345.436 40.9945 354.007 49.5559 364.579 49.5559Z" fill="#FFB8B8"/>
<path d="M459.422 115.237C458.76 114.373 458.097 113.524 457.427 112.699C456.562 111.625 455.692 110.584 454.816 109.577C444.894 98.14 434.34 90.9383 422.719 90.1675H422.703L422.531 90.1519L399.374 112.699L391.502 120.36L391.674 120.781L395.921 131.346H470.35C466.996 125.786 463.349 120.409 459.422 115.237V115.237Z" fill="#2F2E41"/>
<path d="M343.762 38.132L350.615 34.9154L349.66 25.0406L354.243 33.2126L357.518 31.6752L356.961 25.9149L359.634 30.6819L383.972 19.2583C381.686 14.3994 377.561 10.6464 372.505 8.82513C367.449 7.00383 361.876 7.26336 357.012 9.54661L353.485 11.2022C348.62 13.4855 344.863 17.6055 343.04 22.6558C341.216 27.7061 341.476 33.2731 343.762 38.132V38.132Z" fill="#2F2E41"/>
<path d="M502.368 385.234H102.642C99.2323 385.231 95.9633 383.876 93.5523 381.468C91.1413 379.059 89.7851 375.794 89.7812 372.388V132.47C89.784 129.975 90.7776 127.583 92.5439 125.818C94.3102 124.054 96.705 123.061 99.203 123.059H505.644C508.185 123.061 510.622 124.071 512.418 125.866C514.215 127.661 515.226 130.094 515.229 132.633V372.388C515.225 375.794 513.869 379.059 511.458 381.468C509.047 383.876 505.778 385.231 502.368 385.234Z" fill="#F2F2F2"/>
<path d="M115.114 372.388H489.898C493.205 372.388 496.377 371.076 498.716 368.739C501.055 366.403 502.369 363.235 502.369 359.931V156.299C502.369 152.995 501.055 149.827 498.716 147.49C496.377 145.154 493.205 143.842 489.898 143.842H115.114C111.806 143.842 108.634 145.154 106.295 147.49C103.956 149.827 102.643 152.995 102.643 156.299V359.931C102.643 363.235 103.956 366.403 106.295 368.739C108.634 371.076 111.806 372.388 115.114 372.388Z" fill="white"/>
<path d="M515.051 131.735H89.6016V125.195C89.6065 121.778 90.9683 118.502 93.3881 116.087C95.8078 113.671 99.0881 112.313 102.509 112.31H502.143C505.564 112.313 508.844 113.671 511.264 116.087C513.684 118.502 515.046 121.778 515.051 125.195V131.735Z" fill="#1A90FF" fill-opacity="0.7"/>
<path d="M113.059 125.377C114.903 125.377 116.398 123.884 116.398 122.042C116.398 120.2 114.903 118.707 113.059 118.707C111.215 118.707 109.721 120.2 109.721 122.042C109.721 123.884 111.215 125.377 113.059 125.377Z" fill="white"/>
<path d="M125.731 125.377C127.575 125.377 129.07 123.884 129.07 122.042C129.07 120.2 127.575 118.707 125.731 118.707C123.887 118.707 122.393 120.2 122.393 122.042C122.393 123.884 123.887 125.377 125.731 125.377Z" fill="white"/>
<path d="M138.405 125.377C140.249 125.377 141.744 123.884 141.744 122.042C141.744 120.2 140.249 118.707 138.405 118.707C136.561 118.707 135.066 120.2 135.066 122.042C135.066 123.884 136.561 125.377 138.405 125.377Z" fill="white"/>
<path d="M314.2 328.227H280.684C278.721 328.225 276.839 327.445 275.451 326.058C274.062 324.672 273.282 322.792 273.279 320.831V287.352C273.282 285.391 274.062 283.511 275.451 282.125C276.839 280.738 278.721 279.958 280.684 279.956H314.2C316.163 279.958 318.045 280.738 319.433 282.125C320.821 283.511 321.602 285.391 321.604 287.352V320.831C321.602 322.792 320.821 324.672 319.433 326.058C318.045 327.445 316.163 328.225 314.2 328.227V328.227ZM280.684 281.513C279.134 281.515 277.648 282.131 276.552 283.225C275.456 284.32 274.84 285.804 274.838 287.352V320.831C274.84 322.379 275.456 323.863 276.552 324.958C277.648 326.052 279.134 326.668 280.684 326.67H314.2C315.75 326.668 317.236 326.052 318.332 324.958C319.427 323.863 320.044 322.379 320.046 320.831V287.352C320.044 285.804 319.427 284.32 318.332 283.225C317.236 282.131 315.75 281.515 314.2 281.513H280.684Z" fill="#CCCCCC"/>
<path d="M307.574 318.884H287.309C286.689 318.884 286.095 318.637 285.656 318.199C285.218 317.761 284.971 317.168 284.971 316.549V291.634C284.971 291.015 285.218 290.421 285.656 289.984C286.095 289.546 286.689 289.299 287.309 289.299H301.993C302.526 289.299 303.043 289.481 303.458 289.814L309.039 294.294C309.312 294.512 309.533 294.789 309.684 295.104C309.835 295.419 309.914 295.765 309.913 296.114V316.549C309.912 317.168 309.665 317.761 309.227 318.199C308.789 318.637 308.194 318.884 307.574 318.884V318.884ZM287.309 290.856C287.102 290.856 286.904 290.938 286.758 291.084C286.612 291.23 286.53 291.428 286.53 291.634V316.549C286.53 316.755 286.612 316.953 286.758 317.099C286.904 317.245 287.102 317.327 287.309 317.327H307.574C307.781 317.327 307.979 317.245 308.125 317.099C308.271 316.953 308.354 316.755 308.354 316.549V296.114C308.354 295.998 308.328 295.883 308.278 295.778C308.227 295.673 308.154 295.58 308.063 295.507L302.481 291.027C302.343 290.916 302.171 290.856 301.993 290.856H287.309Z" fill="#CCCCCC"/>
<path d="M303.678 300.199H291.207C291 300.199 290.802 300.117 290.656 299.971C290.51 299.825 290.428 299.627 290.428 299.42C290.428 299.214 290.51 299.016 290.656 298.87C290.802 298.723 291 298.641 291.207 298.641H303.678C303.885 298.641 304.083 298.723 304.229 298.87C304.376 299.016 304.458 299.214 304.458 299.42C304.458 299.627 304.376 299.825 304.229 299.971C304.083 300.117 303.885 300.199 303.678 300.199Z" fill="#CCCCCC"/>
<path d="M303.678 304.87H291.207C291 304.87 290.802 304.788 290.656 304.642C290.51 304.496 290.428 304.298 290.428 304.091C290.428 303.885 290.51 303.687 290.656 303.541C290.802 303.395 291 303.313 291.207 303.313H303.678C303.885 303.313 304.083 303.395 304.229 303.541C304.376 303.687 304.458 303.885 304.458 304.091C304.458 304.298 304.376 304.496 304.229 304.642C304.083 304.788 303.885 304.87 303.678 304.87Z" fill="#CCCCCC"/>
<path d="M303.678 309.541H291.207C291 309.541 290.802 309.459 290.656 309.313C290.51 309.167 290.428 308.969 290.428 308.763C290.428 308.556 290.51 308.358 290.656 308.212C290.802 308.066 291 307.984 291.207 307.984H303.678C303.885 307.984 304.083 308.066 304.229 308.212C304.376 308.358 304.458 308.556 304.458 308.763C304.458 308.969 304.376 309.167 304.229 309.313C304.083 309.459 303.885 309.541 303.678 309.541Z" fill="#CCCCCC"/>
<path d="M393.702 328.227H360.186C358.223 328.225 356.341 327.445 354.952 326.058C353.564 324.672 352.783 322.792 352.781 320.831V287.352C352.783 285.391 353.564 283.511 354.952 282.125C356.341 280.738 358.223 279.958 360.186 279.956H393.702C395.665 279.958 397.547 280.738 398.935 282.125C400.323 283.511 401.104 285.391 401.106 287.352V320.831C401.104 322.792 400.323 324.672 398.935 326.058C397.547 327.445 395.665 328.225 393.702 328.227V328.227ZM360.186 281.513C358.636 281.515 357.15 282.131 356.054 283.225C354.958 284.32 354.342 285.804 354.34 287.352V320.831C354.342 322.379 354.958 323.863 356.054 324.958C357.15 326.052 358.636 326.668 360.186 326.67H393.702C395.252 326.668 396.738 326.052 397.833 324.958C398.929 323.863 399.546 322.379 399.548 320.831V287.352C399.546 285.804 398.929 284.32 397.833 283.225C396.738 282.131 395.252 281.515 393.702 281.513H360.186Z" fill="#CCCCCC"/>
<path d="M387.856 312.656H366.032C365.412 312.655 364.817 312.409 364.379 311.971C363.941 311.533 363.694 310.939 363.693 310.32V297.863C363.694 297.244 363.941 296.65 364.379 296.212C364.817 295.774 365.412 295.528 366.032 295.527H387.856C388.476 295.528 389.07 295.774 389.509 296.212C389.947 296.65 390.194 297.244 390.194 297.863V310.32C390.194 310.939 389.947 311.533 389.509 311.971C389.07 312.409 388.476 312.655 387.856 312.656V312.656ZM366.032 297.084C365.825 297.085 365.627 297.167 365.481 297.313C365.335 297.459 365.252 297.656 365.252 297.863V310.32C365.252 310.526 365.335 310.724 365.481 310.87C365.627 311.016 365.825 311.098 366.032 311.099H387.856C388.063 311.098 388.261 311.016 388.407 310.87C388.553 310.724 388.635 310.526 388.635 310.32V297.863C388.635 297.656 388.553 297.459 388.407 297.313C388.261 297.167 388.063 297.085 387.856 297.084H366.032Z" fill="#CCCCCC"/>
<path d="M376.945 306.145C376.507 306.146 376.077 306.024 375.706 305.793L364.06 298.523C363.885 298.414 363.761 298.239 363.715 298.038C363.669 297.837 363.704 297.626 363.814 297.451C363.923 297.276 364.098 297.152 364.299 297.105C364.5 297.059 364.712 297.094 364.887 297.203L376.532 304.472C376.656 304.549 376.799 304.59 376.945 304.59C377.091 304.59 377.234 304.549 377.358 304.472L389.002 297.203C389.178 297.094 389.389 297.059 389.59 297.105C389.792 297.152 389.966 297.276 390.075 297.451C390.185 297.626 390.22 297.837 390.174 298.038C390.128 298.239 390.004 298.414 389.829 298.523L378.185 305.793C377.812 306.024 377.383 306.146 376.945 306.145V306.145Z" fill="#CCCCCC"/>
<path d="M234.698 328.227H201.182C199.219 328.225 197.337 327.445 195.949 326.058C194.56 324.672 193.78 322.792 193.777 320.831V287.352C193.78 285.391 194.56 283.511 195.949 282.125C197.337 280.738 199.219 279.958 201.182 279.956H234.698C236.661 279.958 238.543 280.738 239.931 282.125C241.319 283.511 242.1 285.391 242.103 287.352V320.831C242.1 322.792 241.319 324.672 239.931 326.058C238.543 327.445 236.661 328.225 234.698 328.227V328.227ZM201.182 281.513C199.632 281.515 198.146 282.131 197.05 283.225C195.954 284.32 195.338 285.804 195.336 287.352V320.831C195.338 322.379 195.954 323.863 197.05 324.958C198.146 326.052 199.632 326.668 201.182 326.67H234.698C236.248 326.668 237.734 326.052 238.83 324.958C239.926 323.863 240.542 322.379 240.544 320.831V287.352C240.542 285.804 239.926 284.32 238.83 283.225C237.734 282.131 236.248 281.515 234.698 281.513H201.182Z" fill="#CCCCCC"/>
<path d="M228.852 312.656H207.028C206.408 312.655 205.813 312.409 205.375 311.971C204.937 311.533 204.69 310.939 204.689 310.32V297.863C204.69 297.244 204.937 296.65 205.375 296.212C205.813 295.774 206.408 295.528 207.028 295.527H228.852C229.472 295.528 230.066 295.774 230.505 296.212C230.943 296.65 231.19 297.244 231.19 297.863V310.32C231.19 310.939 230.943 311.533 230.505 311.971C230.066 312.409 229.472 312.655 228.852 312.656V312.656ZM207.028 297.084C206.821 297.085 206.623 297.167 206.477 297.313C206.331 297.459 206.249 297.656 206.248 297.863V310.32C206.249 310.526 206.331 310.724 206.477 310.87C206.623 311.016 206.821 311.098 207.028 311.099H228.852C229.059 311.098 229.257 311.016 229.403 310.87C229.549 310.724 229.631 310.526 229.631 310.32V297.863C229.631 297.656 229.549 297.459 229.403 297.313C229.257 297.167 229.059 297.085 228.852 297.084H207.028Z" fill="#CCCCCC"/>
<path d="M225.393 312.656H209.707C209.434 312.656 209.165 312.584 208.928 312.447C208.691 312.311 208.494 312.114 208.357 311.877C208.22 311.641 208.148 311.372 208.148 311.099C208.148 310.825 208.221 310.557 208.358 310.32L213.082 302.145C213.219 301.908 213.416 301.712 213.653 301.575C213.89 301.438 214.159 301.367 214.432 301.367C214.706 301.367 214.975 301.438 215.212 301.575C215.449 301.712 215.646 301.908 215.782 302.145L218.834 307.425L220.602 304.366C220.739 304.129 220.935 303.933 221.172 303.796C221.409 303.659 221.678 303.587 221.952 303.587C222.225 303.587 222.494 303.659 222.731 303.796C222.968 303.933 223.165 304.129 223.302 304.366L226.743 310.32C226.88 310.557 226.952 310.825 226.952 311.099C226.952 311.372 226.88 311.641 226.743 311.877C226.606 312.114 226.409 312.311 226.172 312.447C225.935 312.584 225.666 312.656 225.393 312.656H225.393ZM225.393 311.099L221.952 305.145L219.509 309.371C219.441 309.49 219.342 309.588 219.224 309.656C219.105 309.725 218.971 309.76 218.834 309.76V309.76C218.697 309.76 218.563 309.725 218.444 309.656C218.326 309.588 218.227 309.49 218.159 309.371L214.432 302.924L209.707 311.099H225.393Z" fill="#CCCCCC"/>
<path d="M226.512 301.756C227.373 301.756 228.071 301.058 228.071 300.198C228.071 299.339 227.373 298.641 226.512 298.641C225.651 298.641 224.953 299.339 224.953 300.198C224.953 301.058 225.651 301.756 226.512 301.756Z" fill="#CCCCCC"/>
<path d="M599.252 504.627L589.696 504.627L585.15 467.81L599.254 467.811L599.252 504.627Z" fill="#FFB8B8"/>
<path d="M601.689 513.88L570.877 513.879V513.489C570.877 511.916 571.187 510.358 571.79 508.905C572.392 507.452 573.276 506.131 574.39 505.019C575.503 503.906 576.825 503.024 578.28 502.422C579.735 501.82 581.295 501.51 582.87 501.51H582.871L601.689 501.511L601.689 513.88Z" fill="#2F2E41"/>
<path d="M638.225 504.627L628.669 504.627L624.123 467.81L638.226 467.811L638.225 504.627Z" fill="#FFB8B8"/>
<path d="M640.661 513.88L609.85 513.879V513.489C609.85 511.916 610.16 510.358 610.762 508.905C611.365 507.452 612.249 506.131 613.362 505.019C614.476 503.906 615.798 503.024 617.253 502.422C618.708 501.82 620.267 501.51 621.842 501.51H621.843L640.662 501.511L640.661 513.88Z" fill="#2F2E41"/>
<path d="M635.359 488.667L626.509 485.978C625.85 485.778 625.264 485.388 624.825 484.858C624.386 484.327 624.113 483.678 624.042 482.994L615.791 404.883C615.784 404.789 615.742 404.7 615.673 404.635C615.604 404.571 615.513 404.535 615.418 404.535C615.323 404.526 615.228 404.554 615.154 404.613C615.08 404.673 615.032 404.759 615.02 404.853L601.2 480.529C601.116 480.988 600.941 481.426 600.685 481.817C600.429 482.208 600.098 482.543 599.711 482.804C599.324 483.066 598.888 483.247 598.43 483.337C597.971 483.428 597.499 483.426 597.042 483.332L585.731 481.005C584.901 480.831 584.162 480.365 583.649 479.691C583.136 479.017 582.884 478.181 582.939 477.336L591.346 353.301L648.352 347.157L639.881 485.528C639.826 486.418 639.434 487.253 638.785 487.865C638.136 488.476 637.278 488.818 636.386 488.82C636.038 488.82 635.692 488.768 635.359 488.667V488.667Z" fill="#2F2E41"/>
<path d="M635.306 245.286C645.879 245.286 654.45 236.724 654.45 226.163C654.45 215.602 645.879 207.041 635.306 207.041C624.733 207.041 616.162 215.602 616.162 226.163C616.162 236.724 624.733 245.286 635.306 245.286Z" fill="#FFB8B8"/>
<path d="M591.258 354.029L603.618 276.289C604.276 272.155 605.807 268.209 608.109 264.713C610.412 261.216 613.434 258.25 616.974 256.011C620.514 253.772 624.49 252.311 628.639 251.727C632.788 251.142 637.014 251.447 641.036 252.621V252.621C648.067 254.652 654.088 259.229 657.922 265.457C661.756 271.686 663.128 279.118 661.769 286.303L648.838 355.729L591.258 354.029Z" fill="#1A90FF" fill-opacity="0.55"/>
<path d="M640.589 367.939C641.545 367.308 642.352 366.476 642.951 365.5C643.55 364.525 643.928 363.43 644.058 362.293C644.188 361.156 644.066 360.004 643.702 358.918C643.338 357.833 642.74 356.841 641.951 356.011L654.731 331.291L640.339 332.825L630.409 356.065C629.102 357.482 628.361 359.329 628.326 361.256C628.291 363.182 628.964 365.055 630.219 366.519C631.474 367.982 633.223 368.935 635.134 369.197C637.045 369.459 638.986 369.011 640.589 367.939V367.939Z" fill="#FFB8B8"/>
<path d="M643.327 351.651C642.621 351.551 641.961 351.239 641.436 350.755L636.547 346.242C636.018 345.752 635.653 345.112 635.501 344.408C635.349 343.704 635.417 342.971 635.696 342.307L645.468 319.169L644.081 273.452C644.281 271.983 644.768 270.567 645.516 269.285C646.263 268.004 647.256 266.882 648.438 265.984C649.619 265.086 650.967 264.43 652.402 264.052C653.838 263.675 655.334 263.584 656.805 263.784C658.277 263.985 659.694 264.473 660.976 265.221C662.258 265.968 663.38 266.961 664.278 268.142C665.176 269.324 665.831 270.67 666.208 272.105C666.585 273.539 666.674 275.034 666.472 276.503L668.843 305.242C669.563 313.964 667.088 322.651 661.876 329.686L646.637 350.265C646.343 350.661 645.97 350.99 645.541 351.232C645.112 351.474 644.637 351.623 644.146 351.67C643.874 351.696 643.599 351.689 643.327 351.651V351.651Z" fill="#1A90FF" fill-opacity="0.8"/>
<path d="M525.061 215.745C525.27 216.87 525.723 217.936 526.388 218.868C527.054 219.799 527.916 220.574 528.914 221.137C529.912 221.699 531.021 222.037 532.163 222.125C533.306 222.213 534.454 222.05 535.526 221.648L553.333 243.041L557.53 229.205L539.977 211.01C539.18 209.255 537.767 207.853 536.004 207.07C534.241 206.286 532.252 206.176 530.414 206.76C528.575 207.343 527.015 208.58 526.028 210.236C525.042 211.892 524.698 213.852 525.061 215.745V215.745Z" fill="#FFB8B8"/>
<path opacity="0.1" d="M650.834 292.47L650.054 317.384L635.695 342.306L647.685 314.533L650.834 292.47Z" fill="black"/>
<path d="M633.112 229.757C631.91 229.913 630.692 229.628 629.684 228.954C628.676 228.281 627.947 227.265 627.632 226.096C627.329 224.75 626.664 223.511 625.71 222.514C624.755 221.516 623.547 220.797 622.215 220.433C618.703 219.631 614.411 221.282 611.838 218.625C611.287 218.018 610.888 217.289 610.675 216.498C610.461 215.707 610.439 214.877 610.61 214.076C611.084 211.493 612.933 209.542 614.946 207.982C619.181 204.713 624.307 202.8 629.651 202.492C632.417 202.412 635.185 202.55 637.929 202.904C640.803 203.085 643.645 203.604 646.397 204.45C649.532 205.631 652.318 207.583 654.498 210.125C656.678 212.668 658.181 215.717 658.869 218.993C659.498 222.279 659.401 225.663 658.586 228.908C657.771 232.153 656.256 235.181 654.148 237.78C651.624 240.919 648.37 243.394 644.669 244.989C643.788 245.405 642.778 245.456 641.859 245.131C639.554 244.216 639.93 241.364 640.981 239.461C642.106 237.426 643.837 235.455 642.932 232.977C642.479 231.828 641.608 230.892 640.495 230.356C638.203 229.189 635.64 229.465 633.177 229.749L633.112 229.757Z" fill="#2F2E41"/>
<path d="M518.664 240.555H281.714C278.305 240.552 275.036 239.197 272.625 236.789C270.214 234.38 268.857 231.115 268.854 227.709V177.102C268.857 173.696 270.214 170.431 272.625 168.023C275.036 165.615 278.305 164.26 281.714 164.256H518.664C522.073 164.26 525.342 165.615 527.753 168.023C530.164 170.431 531.52 173.697 531.524 177.102V227.709C531.52 231.115 530.164 234.38 527.753 236.789C525.342 239.197 522.073 240.552 518.664 240.555V240.555Z" fill="white"/>
<path d="M518.665 240.945H281.715C278.202 240.941 274.834 239.545 272.35 237.064C269.866 234.583 268.469 231.218 268.465 227.709V177.102C268.469 173.593 269.866 170.229 272.35 167.748C274.834 165.267 278.202 163.871 281.715 163.867H518.665C522.178 163.871 525.546 165.267 528.03 167.748C530.514 170.229 531.911 173.593 531.915 177.102V227.709C531.911 231.218 530.514 234.583 528.03 237.064C525.546 239.545 522.178 240.941 518.665 240.945ZM281.715 165.424C278.616 165.428 275.644 166.659 273.452 168.848C271.26 171.038 270.027 174.006 270.024 177.102V227.709C270.027 230.806 271.26 233.774 273.452 235.963C275.644 238.153 278.616 239.384 281.715 239.388H518.665C521.764 239.384 524.736 238.153 526.928 235.963C529.12 233.774 530.353 230.806 530.356 227.709V177.102C530.353 174.006 529.12 171.038 526.928 168.848C524.736 166.659 521.764 165.428 518.665 165.424H281.715Z" fill="#3F3D56"/>
<path d="M489.825 228.099H310.554C307.144 228.095 303.875 226.74 301.464 224.332C299.053 221.923 297.697 218.658 297.693 215.252V188.781C297.697 185.375 299.053 182.11 301.464 179.701C303.875 177.293 307.144 175.938 310.554 175.935H489.825C493.235 175.938 496.504 177.293 498.915 179.701C501.326 182.11 502.682 185.375 502.686 188.781V215.252C502.682 218.658 501.326 221.923 498.915 224.332C496.504 226.74 493.235 228.095 489.825 228.099V228.099Z" fill="#F2F2F2"/>
<path d="M349.132 213.831C357.626 213.831 364.512 206.953 364.512 198.468C364.512 189.983 357.626 183.105 349.132 183.105C340.638 183.105 333.752 189.983 333.752 198.468C333.752 206.953 340.638 213.831 349.132 213.831Z" fill="#FF6584"/>
<path d="M478.685 226.548L456.975 208.361L435.641 190.488C435.078 190.016 434.366 189.759 433.631 189.76C432.896 189.761 432.186 190.022 431.624 190.496L410.359 208.451L405.165 212.837L397.333 206.276L373.531 186.336C372.968 185.864 372.256 185.606 371.521 185.608C370.787 185.609 370.076 185.87 369.515 186.343L345.79 206.375L321.692 226.721C321.57 226.824 321.483 226.962 321.442 227.117C321.401 227.271 321.409 227.434 321.464 227.584C321.519 227.734 321.619 227.864 321.75 227.955C321.881 228.046 322.037 228.095 322.197 228.095L371.603 227.999L387.242 227.969L387.089 228.099L433.705 228.009L478.185 227.923C478.345 227.923 478.501 227.874 478.632 227.782C478.763 227.69 478.862 227.56 478.917 227.41C478.971 227.26 478.978 227.097 478.937 226.943C478.895 226.788 478.807 226.651 478.685 226.548Z" fill="#3F3D56"/>
<path d="M682.221 515H532.569C532.362 515 532.164 514.918 532.017 514.772C531.871 514.626 531.789 514.428 531.789 514.221C531.789 514.015 531.871 513.817 532.017 513.671C532.164 513.525 532.362 513.443 532.569 513.443H682.221C682.427 513.443 682.626 513.525 682.772 513.671C682.918 513.817 683 514.015 683 514.221C683 514.428 682.918 514.626 682.772 514.772C682.626 514.918 682.427 515 682.221 515Z" fill="#CCCCCC"/>
<path d="M470.825 102.702C470.202 101.692 469.38 100.819 468.408 100.136C467.437 99.4534 466.336 98.9756 465.174 98.7317C464.748 98.6423 464.315 98.5876 463.88 98.5682L404.494 45.5323C403.328 44.3347 401.772 43.5921 400.106 43.438C399.778 43.4003 399.447 43.3898 399.116 43.4068C397.746 43.469 396.424 43.9286 395.311 44.7295C394.198 45.5304 393.343 46.6378 392.85 47.9164C392.357 49.1949 392.248 50.5892 392.536 51.9288C392.824 53.2683 393.496 54.4951 394.471 55.459L417.207 75.2579L454.542 107.763C454.573 108.375 454.664 108.983 454.815 109.577C455.262 111.298 456.222 112.843 457.568 114.007C458.914 115.171 460.582 115.899 462.352 116.094C463.966 116.282 465.6 116.012 467.068 115.315C468.231 114.772 469.263 113.983 470.092 113.003C470.178 112.902 470.256 112.808 470.334 112.699C471.424 111.28 472.054 109.564 472.142 107.777C472.23 105.991 471.77 104.221 470.825 102.702H470.825Z" fill="#FFB8B8"/>
<path d="M369.247 153.815L368.694 131.346L368.226 112.699L367.907 99.6504L367.275 74.2147C367.15 72.8528 366.631 71.5568 365.781 70.4847C364.931 69.4126 363.787 68.6109 362.489 68.1775C361.19 67.7441 359.793 67.6976 358.469 68.0438C357.145 68.3901 355.95 69.114 355.03 70.1272C354.814 70.3587 354.618 70.6088 354.446 70.8746C353.486 72.2474 353.054 73.9198 353.23 75.5849L354.617 112.699L355.311 131.346L356.199 155.131C355.943 155.48 355.711 155.847 355.506 156.229C354.952 157.279 354.617 158.43 354.521 159.613C354.426 160.796 354.573 161.987 354.953 163.111C355.348 164.291 355.99 165.373 356.835 166.287C357.68 167.201 358.71 167.926 359.856 168.413C361.001 168.901 362.238 169.141 363.483 169.117C364.728 169.092 365.954 168.805 367.08 168.273C368.388 167.656 369.524 166.726 370.386 165.565C371.249 164.405 371.812 163.051 372.026 161.622C372.241 160.193 372.099 158.733 371.614 157.371C371.13 156.01 370.317 154.788 369.247 153.815H369.247Z" fill="#FFB8B8"/>
<path d="M422.717 90.1675L417.206 75.258L408.289 51.1069C407.646 49.3496 406.615 47.7597 405.272 46.455C403.93 45.1503 402.31 44.1644 400.534 43.5703C400.394 43.5236 400.246 43.4769 400.105 43.438C398.385 42.9163 396.571 42.7728 394.79 43.0174C393.009 43.262 391.301 43.8889 389.786 44.8549L359.754 63.8831C357.003 65.6217 355.037 68.3602 354.271 71.52C353.504 74.6799 353.997 78.0135 355.646 80.8169C359.402 87.3037 363.494 93.5901 367.907 99.6504C371.406 104.407 377.922 104.913 379.053 112.699H401.196L423.613 92.5966L422.717 90.1675Z" fill="#CCCCCC"/>
<path d="M78.8519 272.384C88.8267 272.384 96.9128 264.307 96.9128 254.344C96.9128 244.38 88.8267 236.303 78.8519 236.303C68.8772 236.303 60.791 244.38 60.791 254.344C60.791 264.307 68.8772 272.384 78.8519 272.384Z" fill="#A0616A"/>
<path d="M123.191 241.925C123.369 242.067 123.541 242.217 123.708 242.375C124.538 243.156 125.193 244.103 125.631 245.154C126.069 246.206 126.279 247.337 126.248 248.476C126.218 249.614 125.947 250.733 125.453 251.759C124.959 252.785 124.254 253.695 123.383 254.43C123.18 254.601 122.969 254.76 122.749 254.908L123.971 296.129C124.006 297.478 123.604 298.803 122.826 299.907C122.047 301.01 120.933 301.833 119.649 302.254L119.575 302.27L86.0678 305.834C85.1568 305.931 84.2357 305.847 83.3576 305.586C82.4795 305.325 81.6618 304.893 80.9517 304.315C80.2417 303.737 79.6534 303.024 79.2207 302.217C78.788 301.41 78.5196 300.526 78.431 299.615C78.3423 298.705 78.4352 297.785 78.7042 296.911C78.9732 296.036 79.413 295.223 79.9983 294.519C80.5835 293.815 81.3026 293.234 82.1139 292.809C82.9253 292.384 83.8129 292.124 84.7254 292.044L108.611 289.942L112.741 254.244C112.471 254.006 112.218 253.748 111.984 253.474C110.689 251.943 110.01 249.985 110.078 247.982C110.147 245.979 110.958 244.072 112.355 242.633C113.752 241.194 115.634 240.324 117.636 240.194C119.639 240.063 121.618 240.68 123.191 241.925H123.191Z" fill="#A0616A"/>
<path d="M108.597 505.425H117.613L121.902 470.69H108.596L108.597 505.425Z" fill="#A0616A"/>
<path d="M106.299 502.485L124.053 502.484H124.054C125.539 502.484 127.011 502.776 128.383 503.344C129.756 503.912 131.003 504.744 132.054 505.794C133.105 506.843 133.938 508.089 134.507 509.46C135.075 510.832 135.368 512.301 135.368 513.785V514.153L106.299 514.154L106.299 502.485Z" fill="#2F2E41"/>
<path d="M18.9922 492.974L26.7383 497.581L48.2141 469.928L36.7813 463.129L18.9922 492.974Z" fill="#A0616A"/>
<path d="M18.5213 489.273L33.7762 498.345L33.7768 498.346C35.0535 499.105 36.1679 500.108 37.0565 501.297C37.9451 502.487 38.5904 503.84 38.9556 505.278C39.3208 506.717 39.3988 508.213 39.185 509.682C38.9712 511.151 38.4699 512.563 37.7097 513.838L37.5216 514.154L12.5449 499.299L18.5213 489.273Z" fill="#2F2E41"/>
<path d="M119.74 493.156H109.645C108.827 493.158 108.038 492.856 107.43 492.31C106.823 491.764 106.439 491.012 106.354 490.2L96.1768 394.641C96.1512 394.401 96.047 394.175 95.8803 394C95.7137 393.824 95.4938 393.708 95.2547 393.67C95.0156 393.632 94.7705 393.673 94.5572 393.788C94.3439 393.902 94.1743 394.084 94.0746 394.304L75.7146 434.913L43.2092 487.858C42.7885 488.536 42.1371 489.041 41.3743 489.279C40.6116 489.517 39.7884 489.473 39.0557 489.155L26.07 483.448C25.6406 483.259 25.2564 482.981 24.9427 482.633C24.6289 482.284 24.393 481.873 24.2504 481.427C24.1078 480.98 24.0618 480.509 24.1155 480.043C24.1692 479.577 24.3214 479.129 24.562 478.726L54.4434 428.749L63.6077 386.64C60.7254 368.378 73.0818 341.229 73.2071 340.957L73.2683 340.824L107.304 327.536L107.475 327.744C120.898 371.744 129.077 419.095 123.038 490.128C122.964 490.952 122.584 491.719 121.975 492.279C121.365 492.839 120.568 493.152 119.74 493.156V493.156Z" fill="#2F2E41"/>
<path d="M71.8988 345.273L71.7403 344.941C71.6645 344.781 64.0963 328.837 58.2622 311.796C57.141 308.5 56.7171 305.008 57.0175 301.541C57.3178 298.073 58.3359 294.706 60.0071 291.652C61.7 288.566 64.016 285.865 66.8085 283.72C69.601 281.575 72.8089 280.033 76.2292 279.191V279.191C82.167 277.77 88.4184 278.526 93.8446 281.323C99.2708 284.119 103.511 288.77 105.792 294.428C110.419 305.987 108.944 318.325 107.556 328.028L107.529 328.223L107.352 328.307L71.8988 345.273Z" fill="#3F3D56"/>
<path d="M100.751 244.153H72.0723V231.666C78.3669 229.168 84.5265 227.044 88.2499 231.666C91.5653 231.666 94.745 232.982 97.0893 235.323C99.4337 237.665 100.751 240.841 100.751 244.153V244.153Z" fill="#2F2E41"/>
<path d="M70.4844 229.462C53.3398 229.462 48.541 250.928 48.541 263.038C48.541 269.792 51.5987 272.208 56.4036 273.025L58.1005 263.985L62.0749 273.414C63.4246 273.421 64.8425 273.395 66.3125 273.367L67.6601 270.596L70.665 273.318C82.7002 273.335 92.4274 275.088 92.4274 263.038C92.4274 250.928 88.2189 229.462 70.4844 229.462Z" fill="#2F2E41"/>
<path d="M150.432 515H0.779439C0.572719 515 0.374465 514.918 0.228292 514.772C0.0821186 514.626 0 514.428 0 514.221C0 514.015 0.0821186 513.817 0.228292 513.671C0.374465 513.525 0.572719 513.443 0.779439 513.443H150.432C150.638 513.443 150.837 513.525 150.983 513.671C151.129 513.817 151.211 514.015 151.211 514.221C151.211 514.428 151.129 514.626 150.983 514.772C150.837 514.918 150.638 515 150.432 515Z" fill="#CCCCCC"/>
<path d="M153.245 258.852H119.729C117.766 258.85 115.884 258.07 114.495 256.683C113.107 255.296 112.326 253.416 112.324 251.456V217.977C112.326 216.016 113.107 214.136 114.495 212.75C115.884 211.363 117.766 210.583 119.729 210.581H153.245C155.208 210.583 157.09 211.363 158.478 212.75C159.866 214.136 160.647 216.016 160.649 217.977V251.456C160.647 253.416 159.866 255.296 158.478 256.683C157.09 258.07 155.208 258.85 153.245 258.852V258.852Z" fill="white"/>
<path d="M153.245 258.852H119.729C117.766 258.85 115.884 258.07 114.495 256.683C113.107 255.296 112.326 253.416 112.324 251.456V217.977C112.326 216.016 113.107 214.136 114.495 212.75C115.884 211.363 117.766 210.583 119.729 210.581H153.245C155.208 210.583 157.09 211.363 158.478 212.75C159.866 214.136 160.647 216.016 160.649 217.977V251.456C160.647 253.416 159.866 255.296 158.478 256.683C157.09 258.07 155.208 258.85 153.245 258.852V258.852ZM119.729 212.138C118.179 212.14 116.693 212.755 115.597 213.85C114.501 214.945 113.885 216.429 113.883 217.977V251.456C113.885 253.004 114.501 254.488 115.597 255.583C116.693 256.677 118.179 257.293 119.729 257.295H153.245C154.795 257.293 156.281 256.677 157.376 255.583C158.472 254.488 159.089 253.004 159.091 251.456V217.977C159.089 216.429 158.472 214.945 157.376 213.85C156.281 212.755 154.795 212.14 153.245 212.138H119.729Z" fill="#3F3D56"/>
<path d="M147.399 245.227H125.575C124.955 245.226 124.36 244.98 123.922 244.542C123.484 244.104 123.237 243.511 123.236 242.891V226.541C123.237 225.922 123.484 225.328 123.922 224.891C124.36 224.453 124.955 224.206 125.575 224.206H131.718C132.118 224.204 132.511 224.306 132.86 224.5C133.209 224.695 133.502 224.976 133.71 225.317L135.423 228.099H147.399C148.019 228.099 148.613 228.346 149.052 228.783C149.49 229.221 149.737 229.815 149.737 230.434V242.891C149.737 243.511 149.49 244.104 149.052 244.542C148.613 244.98 148.019 245.226 147.399 245.227V245.227Z" fill="#1A90FF" fill-opacity="0.7"/>
<path d="M146.69 253.487C146.799 253.686 146.9 253.891 146.993 254.102C147.454 255.143 147.69 256.27 147.685 257.409C147.68 258.547 147.434 259.672 146.964 260.709C146.493 261.746 145.809 262.672 144.955 263.427C144.101 264.181 143.098 264.747 142.01 265.087C141.757 265.165 141.5 265.23 141.24 265.281L126.353 303.746C125.861 305.003 124.976 306.068 123.83 306.783C122.684 307.498 121.337 307.825 119.99 307.716L119.915 307.701L87.6492 297.999C86.7719 297.735 85.9557 297.3 85.2476 296.72C84.5395 296.139 83.9536 295.424 83.5238 294.616C83.0939 293.807 82.8286 292.922 82.7431 292.011C82.6577 291.1 82.7538 290.181 83.0259 289.307C83.2981 288.433 83.7408 287.622 84.3286 286.92C84.9164 286.218 85.6376 285.639 86.4505 285.217C87.2635 284.795 88.1521 284.538 89.065 284.461C89.9779 284.384 90.8971 284.489 91.7693 284.769L114.599 292.09L132.274 260.79C132.118 260.465 131.985 260.13 131.876 259.787C131.277 257.873 131.411 255.806 132.253 253.987C133.094 252.167 134.582 250.724 136.429 249.939C138.275 249.154 140.348 249.082 142.244 249.738C144.14 250.394 145.725 251.73 146.69 253.487H146.69Z" fill="#A0616A"/>
<path d="M539.011 224.612C539.379 224.001 539.924 223.516 540.575 223.222L546.642 220.484C547.299 220.189 548.032 220.103 548.74 220.237C549.448 220.372 550.098 220.72 550.601 221.235L568.122 239.245L610.808 255.795C612.086 256.551 613.202 257.551 614.092 258.739C614.982 259.926 615.629 261.277 615.997 262.714C616.364 264.151 616.444 265.646 616.232 267.114C616.02 268.582 615.521 269.994 614.762 271.27C614.004 272.545 613.001 273.658 611.812 274.546C610.622 275.434 609.269 276.079 607.83 276.444C606.391 276.809 604.894 276.887 603.424 276.674C601.955 276.461 600.542 275.96 599.266 275.201L571.848 266.177C563.526 263.439 556.483 257.775 552.029 250.238L538.999 228.196C538.748 227.772 538.59 227.301 538.534 226.812C538.479 226.323 538.526 225.827 538.675 225.358C538.757 225.097 538.87 224.847 539.011 224.612Z" fill="#1A90FF" fill-opacity="0.8"/>
</g>
<defs>
<clipPath id="clip0_2107_2898">
<rect width="683" height="515" fill="white"/>
</clipPath>
</defs>
</svg>
